<svg xmlns="http://www.w3.org/2000/svg" xmlns:xlink="http://www.w3.org/1999/xlink" width="34.582" height="45.156" viewBox="0 0 34.582 45.156">
  <defs>
    <clipPath id="clip-path">
      <rect width="19.091" height="19.393" fill="none"/>
    </clipPath>
  </defs>
  <g id="Повторяющаяся_сетка_2" data-name="Повторяющаяся сетка 2" transform="translate(7.954 8.865)" clip-path="url(#clip-path)">
    <g id="Сгруппировать_192" data-name="Сгруппировать 192" transform="translate(0 0)">
      <g id="Сгруппировать_1" data-name="Сгруппировать 1" transform="translate(0)">
        <path id="Контур_1" data-name="Контур 1" d="M232.126,127.9l-2.981,2.11c-.331.226-.63.04-.855-.292l-.826-1.137-1.382,4.84c-.23.9-.791.615-.892.128l-.853-3.158-.871.951a.421.421,0,0,1-.568.044l-2.2-1.75-.532,2.679c-.124.594-.125.865-.58.81L218.5,133.1l2.51,5.57a.623.623,0,0,1-.1.674l-.981,1.035L224.4,142a.217.217,0,0,1,.1.327l-2.515,4.378,1.165.583,2-4.639a.217.217,0,0,1,.323-.113l3.98,2.6.239-1.405a.623.623,0,0,1,.482-.482l5.962-1.331-.67-.852c-.317-.331-.1-.494.3-.95l1.825-2.033-2.72-.713a.422.422,0,0,1-.306-.481l.239-1.267-3.039,1.211c-.451.211-1.012-.069-.433-.79l3.045-4.009-1.4.021c-.4.018-.728-.109-.746-.51Z" transform="translate(-218.5 -127.9)" fill="#fff"/>
      </g>
    </g>
  </g>
  <g id="icon_ws_leaf_white" fill="none">
    <path d="M17.291,0A17.291,17.291,0,0,1,34.582,17.291c0,9.55-17.291,27.865-17.291,27.865S0,26.841,0,17.291A17.291,17.291,0,0,1,17.291,0Z" stroke="none"/>
    <path d="M 17.29097747802734 2.999996185302734 C 13.47371673583984 2.999996185302734 9.884937286376953 4.486515045166016 7.185728073120117 7.185726165771484 C 4.486516952514648 9.884933471679688 2.999998092651367 13.47371482849121 2.999998092651367 17.29097557067871 C 2.999998092651367 18.44530487060547 3.4061279296875 20.58915519714355 5.340957641601563 24.24707412719727 C 6.696937561035156 26.81065559387207 8.605636596679688 29.74299621582031 11.0140380859375 32.96265411376953 C 13.32681465148926 36.05449676513672 15.66191673278809 38.81911087036133 17.29097557067871 40.67669677734375 C 18.92009353637695 38.81904602050781 21.2551383972168 36.05449676513672 23.56791687011719 32.96265411376953 C 25.976318359375 29.74299621582031 27.88501739501953 26.81065559387207 29.24099731445313 24.24707412719727 C 31.17582702636719 20.58915519714355 31.58195686340332 18.44530487060547 31.58195686340332 17.29097557067871 C 31.58195686340332 13.47371482849121 30.09543800354004 9.884933471679688 27.39622688293457 7.185726165771484 C 24.69701766967773 4.486515045166016 21.10823822021484 2.999996185302734 17.29097747802734 2.999996185302734 M 17.29097747802734 -3.814697265625e-06 C 26.84051704406738 -3.814697265625e-06 34.58195877075195 7.741436004638672 34.58195877075195 17.29097557067871 C 34.58195877075195 26.84051513671875 17.29097747802734 45.15624618530273 17.29097747802734 45.15624618530273 C 17.29097747802734 45.15624618530273 -3.814697265625e-06 26.84051513671875 -3.814697265625e-06 17.29097557067871 C -3.814697265625e-06 7.741436004638672 7.741437911987305 -3.814697265625e-06 17.29097747802734 -3.814697265625e-06 Z" stroke="none" fill="#fff"/>
  </g>
</svg>
