<svg xmlns="http://www.w3.org/2000/svg" width="33.137" height="17.949" viewBox="0 0 33.137 17.949">
  <g id="icon_location_key" transform="translate(-2.501 -24.5)">
    <path id="Контур_89" data-name="Контур 89" d="M35.406,32.018l-1.381-2.071a1.381,1.381,0,0,0-1.149-.615H19.432a8.973,8.973,0,1,0-7.957,13.117,9.01,9.01,0,0,0,8.278-5.523h.124l1.667,1.667a1.38,1.38,0,0,0,1.952,0L24.592,37.5l1.095,1.095a1.38,1.38,0,0,0,1.952,0L28.734,37.5l1.095,1.095a1.362,1.362,0,0,0,1.089.4,1.383,1.383,0,0,0,1.01-.574l3.452-4.832A1.38,1.38,0,0,0,35.406,32.018Zm-4.777,3.469-.918-.918a1.38,1.38,0,0,0-1.952,0l-1.095,1.095L25.569,34.57a1.38,1.38,0,0,0-1.952,0l-1.095,1.095L21.426,34.57a1.382,1.382,0,0,0-.976-.4H18.775a1.381,1.381,0,0,0-1.328,1,6.214,6.214,0,1,1-.19-3.953,1.382,1.382,0,0,0,1.286.878H32.138l.442.663ZM8.714,31.4a2.071,2.071,0,1,0,2.071,2.071A2.073,2.073,0,0,0,8.714,31.4Z"/>
  </g>
</svg>
