<svg xmlns="http://www.w3.org/2000/svg" width="21.938" height="21.938" viewBox="0 0 21.938 21.938">
  <g id="icon_location_clock" transform="translate(-5.3 -5)">
    <g id="Сгруппировать_10" data-name="Сгруппировать 10" transform="translate(5.3 5)">
      <path id="Контур_87" data-name="Контур 87" d="M16.269,5A10.969,10.969,0,1,0,27.237,15.969,10.985,10.985,0,0,0,16.269,5Zm0,19.476a8.507,8.507,0,1,1,8.507-8.507A8.515,8.515,0,0,1,16.269,24.476Z" transform="translate(-5.3 -5)"/>
      <path id="Контур_88" data-name="Контур 88" d="M50.433,30.6H47.484v-3.7a1.292,1.292,0,0,0-2.584,0v6.289h5.558a1.3,1.3,0,0,0,1.292-1.292A1.338,1.338,0,0,0,50.433,30.6Z" transform="translate(-35.248 -20.579)"/>
    </g>
  </g>
</svg>
