<svg xmlns="http://www.w3.org/2000/svg" width="20" height="14" viewBox="0 0 20 14">
  <g id="icon_location_email" transform="translate(0 -3)">
    <g id="Сгруппировать_9" data-name="Сгруппировать 9">
      <path id="Контур_71" data-name="Контур 71" d="M19,3H1A.945.945,0,0,0,0,4V16a.945.945,0,0,0,1,1H19a.945.945,0,0,0,1-1V4A.945.945,0,0,0,19,3ZM16.6,5,10,10.7,3.4,5ZM2,6.5,5.8,9.8,2,13.6ZM3.4,15l3.9-3.9,2,1.7a.906.906,0,0,0,1.3,0l2-1.7L16.5,15ZM18,13.6,14.2,9.8,18,6.4Z"/>
    </g>
  </g>
</svg>
