<svg xmlns="http://www.w3.org/2000/svg" width="22.025" height="22.049" viewBox="0 0 22.025 22.049">
  <g id="icon_location_phone" transform="translate(0.498 0.514)">
    <path id="Контур_72" data-name="Контур 72" d="M24.516,23.977a2.058,2.058,0,0,0,0-3.044L22.062,18.48a2.049,2.049,0,0,0-1.51-.684,2.128,2.128,0,0,0-1.51.684L17.626,19.9c-.118-.071-.236-.118-.354-.189-.165-.071-.307-.165-.448-.236a15.007,15.007,0,0,1-3.657-3.327,8.11,8.11,0,0,1-1.2-1.911c.354-.33.708-.684,1.038-1.015l.377-.377a2.209,2.209,0,0,0,.708-1.534,2.155,2.155,0,0,0-.708-1.534l-1.2-1.227c-.142-.142-.283-.283-.4-.425-.26-.283-.543-.566-.826-.826a2.1,2.1,0,0,0-1.486-.661,2.2,2.2,0,0,0-1.51.661L6.419,8.83a3.231,3.231,0,0,0-.967,2.053,8.227,8.227,0,0,0,.566,3.3,19.1,19.1,0,0,0,3.4,5.686,21.011,21.011,0,0,0,6.96,5.45,10.5,10.5,0,0,0,3.917,1.156h.283a3.323,3.323,0,0,0,2.548-1.109l.024-.024a8.292,8.292,0,0,1,.779-.8A4.432,4.432,0,0,0,24.516,23.977Zm-1.392-.26a10.262,10.262,0,0,0-.849.9,2.113,2.113,0,0,1-1.675.708h-.212A10.476,10.476,0,0,1,16.9,24.26a19.791,19.791,0,0,1-6.559-5.143,18.331,18.331,0,0,1-3.209-5.332A6.159,6.159,0,0,1,6.632,11a2.157,2.157,0,0,1,.613-1.321l1.51-1.51a.988.988,0,0,1,.684-.33,1,1,0,0,1,.684.33c.283.26.519.519.8.8l.425.425,1.2,1.2a1.02,1.02,0,0,1,.354.708,1.02,1.02,0,0,1-.354.708l-.377.377c-.377.377-.731.731-1.109,1.085l-.024.024a.911.911,0,0,0-.236.991c0,.024,0,.024.024.047a9.227,9.227,0,0,0,1.439,2.336,16.379,16.379,0,0,0,3.94,3.586c.189.118.377.212.543.307.165.071.307.165.448.236.024,0,.024.024.047.024a.961.961,0,0,0,.425.118.95.95,0,0,0,.661-.307l1.534-1.534a.849.849,0,0,1,1.345,0l2.454,2.454a.9.9,0,0,1-.024,1.416A5.512,5.512,0,0,1,23.124,23.717ZM16.329,9.726a.561.561,0,0,1,.684-.472,6.66,6.66,0,0,1,3.7,1.935,7.144,7.144,0,0,1,1.935,3.7.594.594,0,0,1-.472.684h-.094a.606.606,0,0,1-.59-.5,5.547,5.547,0,0,0-1.6-3.067,5.784,5.784,0,0,0-3.067-1.6A.562.562,0,0,1,16.329,9.726Zm8.966,5.191a10.236,10.236,0,0,0-2.831-5.474,10.077,10.077,0,0,0-5.474-2.831.561.561,0,0,1-.472-.684.572.572,0,0,1,.684-.472A11.3,11.3,0,0,1,26.451,14.7a.594.594,0,0,1-.472.684h-.094A.564.564,0,0,1,25.294,14.917Z" transform="translate(-5.437 -5.442)" stroke="#000" stroke-width="1"/>
  </g>
</svg>
