<svg xmlns="http://www.w3.org/2000/svg" width="331.542" height="558.251" viewBox="0 0 331.542 558.251">
  <g id="img_man_ws_box" transform="translate(-404.017 -385.247)">
    <g id="Сгруппировать_1727" data-name="Сгруппировать 1727" transform="translate(404.017 385.247)">
      <path id="Контур_4664" data-name="Контур 4664" d="M841.623,1136.539c-1.231-6.757.16-10.605-.68-17.413a144.932,144.932,0,0,0-3.238-16.295c-.532-2-2.044-8.227,3.531-10.684,5.4-2.382,9.659-2.375,13.5-4.513,4.319-2.4,10.856-6.054,12.891-7.392,6.206-4.084,11.279-2.159,15.209,1.908,2.484,2.571,1.851,7.6-1.419,10.627-3.754,3.475-7.743,6-11.383,9.941-4.051,4.387-7.716,22.311-7.392,29.509.259,5.741,9.656,19.758,4.843,21.987s-15.058-2.676-18.523-5.533A21.982,21.982,0,0,1,841.623,1136.539Z" transform="translate(-837.113 -603.044)" fill="#1e2859"/>
      <path id="Контур_4665" data-name="Контур 4665" d="M455.5,1144.406c-1.558-14.158,1.1-18.425,11.047-15.769,4.962,1.326,8.377,6.085,9.654,8.726a37.592,37.592,0,0,0,12.25,15.233c5.749,4.473,12.6,7.2,19.405,9.722,5.016,1.86,17.029,3.176,18.681,8.57,1.869,6.1-10.767,6.1-19.108,6.1-10.742,0-24.5-5.118-31.417-5.845-3.653-.384-9.109.307-13.515-.232-8.15-1-9.018-3.054-8.6-9.51C454.169,1157.167,456.118,1149.976,455.5,1144.406Z" transform="translate(-216.695 -618.738)" fill="#1e2859"/>
      <path id="Контур_4666" data-name="Контур 4666" d="M577.77,537.974c.275-13.776,3.169-16.916,16.131-19.552,10.83-2.2,27.461-4.407,42.036-3.856,17.3.653,41.143,3.656,48.484,6.227,11.652,4.081,14.549,10.594,15.4,16.887,1.332,9.869-2.538,111.148-6.437,127.579-3.12,13.149-11.881,18.342-25.86,19.036-9.878.489-48.583-.016-63.374-.881-15.581-.91-19.348-9.64-20.04-23.134C583.005,638.757,577.6,546.43,577.77,537.974Z" transform="translate(-475.035 -425.878)" fill="#7fd9eb"/>
      <path id="Контур_4667" data-name="Контур 4667" d="M672.457,430.884c-.419,4.345-.753,13.389-2.447,17.46a12.606,12.606,0,0,1-3.871,5.338,20.01,20.01,0,0,1-4.667,2.533c-1.614.693-1.49,5.712-1.641,10.521-.221,7.015-.334,9.246,3.494,11.281,1.545.821,4.268,1.093,5.193,4.033,1.164,3.7,2.888,20.08-11.478,20.612-15.426.572-33.51-14.125-30.909-23.424.53-1.9,3.745-1.379,4.571-6.4.686-4.17,1.142-7.655,1.677-12.413.529-4.707.867-10.9-1.261-15.319-8.905-18.5-6.755-28.127-2.376-34.765,5.054-7.662,16.892-12.89,26.14-11.432,8.231,1.3,18.028,5.892,20.214,15.677C676.34,420.153,672.981,425.438,672.457,430.884Z" transform="translate(-482.667 -389.466)" fill="#fec1b5"/>
      <path id="Контур_4668" data-name="Контур 4668" d="M553.98,721.193c-17.816-10.5-43.173-28.352-61.169-40.231-13.492-8.905-24.765-20.954-30.367-35.924-6.512-17.406-27.564-69.667-31.553-87.071a46.53,46.53,0,0,1,.618-22.133c2.23-7.245,10.384-13.782,17.627-12,17.959,4.431,20.626,19.365,24.2,35.343,4.417,19.75,11.53,60.016,14.565,73.464,2.094,9.28,9.565,21.653,16.647,27.769,12.38,10.691,51.292,42.289,55.174,45.707,5.9,5.193,7.1,8.933,5.022,13.713C563.464,722.773,559,724.15,553.98,721.193Z" transform="translate(-239.229 -428.727)" fill="#7fd9eb"/>
      <path id="Контур_4669" data-name="Контур 4669" d="M636.365,459.826c.622-.254,3.309,3.863,4.97,5.815a18.486,18.486,0,0,0,10.015,6.425,25.356,25.356,0,0,0,12.433-1.072c.353-.12.5.029.493.249a9.062,9.062,0,0,1-1.742,1.668,20,20,0,0,1-4.666,2.533c-.733.316-1.128,1.538-1.338,3.235a5.463,5.463,0,0,1-1.965,1.3,9.591,9.591,0,0,1-8.707-.8c-2.931-1.848-5.313-5.724-6.7-8.539C637.865,468.02,634.658,460.535,636.365,459.826Z" transform="translate(-479.064 -408.691)" fill="#e8988c"/>
      <path id="Контур_4670" data-name="Контур 4670" d="M712.925,588.1c6.441,5.266-.6,21.412,2.424,33.19,3.867,15.1-1.351,19.642,2.8,28.641,1.887,4.087,5.027,4.076,6.593-.168,1.887-5.122,2.565-19.2,2.426-25.024-.232-9.688,2.132-27.513,5.309-21.631,1.067,1.974,1.7,13.541,1.8,17.373.33,11.2.412,34.766-7.671,46.764-3.594,5.326-12.219,15.049-24.342,16.42-3.238.37-5.361.02-6.828-.789-.033-.37-.052-.747-.071-1.124-.793-15.419-3.792-67.209-5.362-98.431C697.2,581.535,708.218,584.25,712.925,588.1Z" transform="translate(-586.297 -447.345)" fill="#37c0db"/>
      <path id="Контур_4671" data-name="Контур 4671" d="M514.622,898.879c10.055-11.126,55.815-64.486,61.324-71.01,9.455-11.2,14.939-26.026,15.03-42.255.144-25.64.028-105.641-.43-114.795-.141-2.8.071-9.238.9-10.649,2.166-3.684,4.039.141,9.362.552,9.5.733,14.738-4.273,19.338-7.913,13.279-10.51,12.962-27.246,13.4-42.795.243-8.638.385-22.468.013-29.961-1.155-23.24-3.2-36.639-10.114-46.19-5.209-7.2-11.124-12.106-17.834-13.2-2.087-.34-2.265-.808-1.073-1.157a57.225,57.225,0,0,1,9.081-1.578c6.424,0,14.288,5.764,20.151,14.562,6.035,9.057,9.112,24.564,10.7,43.435h39.745c.956-20.363-1.49-43.549-4.487-53.173-1.2-3.859-2.1-5.6-.479-5.388,1.507.2,5.833.8,7.1.977,1.865.263,2.18.623,3.2,3.431,4.354,11.968,5.861,43.022,6.3,59.772.242,9.157,1.986,41.128,2.517,51.531.376,7.391.387,14.308,3.6,21.22,2.03,4.371,6.323,6.765,9.226,8.488,2.829,1.678,3.552,3.955,3.851,7.213,1.144,12.469,1.926,29.378,4.093,36.48a226.735,226.735,0,0,0,9.637,26.608c8.673,20.137,18.176,36.9,26.206,56.163,7.08,16.984,6.693,32.218,5.087,50.049-1.889,20.986-7.936,86.294-9.109,102.611-.531,7.4-11.092,7.731-18.133,8.4-16.331,1.544-14.061-8.74-14.469-18.11-.433-9.919-.913-50.445-1.122-61.417-.424-22.281-4-31.276-9.181-44.588-7.458-19.18-30.6-60.675-34.558-68.364-1.487-2.888-4.96-10.383-10.128-9.941-6.01.514-6.081,4.53-8.274,11.484-2.729,8.65-11.853,44.117-15.246,55.5A71.349,71.349,0,0,1,621.5,845.814c-13.955,14.106-63.964,62.5-83.279,80.1-4.97,4.529-8.207,3.51-14.032.229-3.144-1.771-11.4-9.141-14.085-13.521C506.7,907.055,508.989,905.113,514.622,898.879Z" transform="translate(-488.499 -426.78)" fill="#3448ad"/>
      <path id="Контур_4672" data-name="Контур 4672" d="M612.1,418.5c.1-4.2.653-7.162,3.879-10.352,1.89-1.868,1.591-1.487,1.549-4.306-.053-3.465,1.426-7.212,3.6-9.116,7.693-6.725,15.295-8.813,25.027-9.463,5.13-.343,23.632,6.07,26.907,7.16,6.1,2.028,3.542,8.785,2.319,17.069-.536,3.631-5.233,7.509-6.419,7.923-.776.27-1,.143-.982-.725.027-1.44.373-4.66-.6-7.087-.619-1.551-2.064-2.53-4.241-3.128a47.233,47.233,0,0,0-15.5-1.257,4.8,4.8,0,0,0-4.286,4.2c-.456,3.721-1.368,8.666-3.729,12.374-2.512,3.946-8.525,6.016-8.525,6.016a6.367,6.367,0,0,0-1.546-3.55c-2.424,2.622-1.054,13.135-.891,17.232.073,1.854.121,6.576-1.388,6.976-1.6.426-2.756-1.912-3.5-3.62C620.435,437.184,611.822,429.859,612.1,418.5Z" transform="translate(-475.449 -385.247)" fill="#1e2859"/>
      <path id="Контур_4673" data-name="Контур 4673" d="M688.247,442.143c1.367,3.7.7,7.831-1.767,8.136-2.055.254-4.81-2.069-6.351-5.446-1.641-3.6-2.03-7.167,1.4-7.971C684.894,436.073,686.881,438.438,688.247,442.143Z" transform="translate(-533.235 -401.427)" fill="#fec1b5"/>
      <path id="Контур_4674" data-name="Контур 4674" d="M561.167,850.782c1.763-4.731,2.731-6.959,4.582-11.525a6.686,6.686,0,0,1,5.071-3.572c2.823-.4,19.085-1.505,22.556-1.457,7.475,12.889,2.621,28.4,6.448,39.6,2.476,7.253,10.1,12.305,12.663,18.188,4.356,10,3.714,18.546,5.592,29.077,1.685,9.441,8.554,16.688,10.394,25.655,2.29,11.168-3.232,21.425-3.474,34.794-.212,11.813,1.331,22.967,1.453,28.336.11,4.552-1.805,12.964-4.667,15.337-.38-15.179-.756-45.544-.926-54.813-.424-22.282-4.006-31.277-9.178-44.591-7.464-19.176-30.6-60.668-34.558-68.361-1.487-2.886-4.958-10.38-10.127-9.941-4.04.343-5.4,2.269-6.512,5.6A20.783,20.783,0,0,1,561.167,850.782Z" transform="translate(-392.128 -526.408)" fill="#30358c"/>
      <path id="Контур_4675" data-name="Контур 4675" d="M424.319,801.77c2.171-1.614,9.27.725,12.221,1.977,3.7,1.57,22.837,6.079,28.172,5.243,5.693-.891,8.979-1.923,11.068-1.074,2.161.878,8.235,2.352,4.33,5.035-4.167,2.864-14.752,9.57-18.587,11.849-1.83,1.089-4.888,2.462-7.238,2.245-4.917-.455-9.652-1.226-12.712-1.731-3.373-.557-7.49-5.351-10.626-8.4C423.844,810,419.863,805.084,424.319,801.77Z" transform="translate(-149.849 -516.031)" fill="#e8988c"/>
      <path id="Контур_4676" data-name="Контур 4676" d="M647.751,631.292c5.2-20.986,17.381-66.485,23.12-83.152,2.751-7.987,5.2-19.524,12.856-22.127,6.618-2.251,10.613-4.123,14.6-.859,13.32,10.895,8.488,24.949,4.955,38.8-4.617,18.105-14.886,49.531-18.277,61.611-3.747,13.35,3.027,25.357,8.85,31.376,10.128,10.469,56.481,54.87,60.043,58.044,5.89,5.247,6.668,8.6,4.969,13.328-.86,2.389-5.824,4.479-10.348,1.581-16.3-10.442-67.986-45.074-84.02-56.864C648.836,661.516,641.538,656.387,647.751,631.292Z" transform="translate(-581.073 -428.682)" fill="#7fd9eb"/>
      <path id="Контур_4677" data-name="Контур 4677" d="M587.7,806.658c1.647-2.145,5.587-3.246,8.539-2,3.7,1.57,11.393,4.217,15.985,5.909,4.2,1.546,8.139,1.154,12.3-.206,5.477-1.789,8.863-2.382,10.952-1.534,2.161.878,8.235,2.352,4.329,5.035-4.168,2.864-14.753,9.57-18.587,11.849-1.831,1.089-4.888,2.462-7.238,2.245-4.918-.455-9.652-1.226-12.712-1.731-3.373-.557-7.306-4.846-10.836-7.433C586.838,816.161,584.325,811.055,587.7,806.658Z" transform="translate(-421.758 -516.948)" fill="#e8988c"/>
      <g id="Сгруппировать_1726" data-name="Сгруппировать 1726" transform="translate(170.361 166.074)">
        <g id="Сгруппировать_1720" data-name="Сгруппировать 1720">
          <rect id="Прямоугольник_1764" data-name="Прямоугольник 1764" width="127.292" height="127.292" transform="translate(0 0)" fill="#f0c397"/>
          <rect id="Прямоугольник_1765" data-name="Прямоугольник 1765" width="29.023" height="127.292" transform="translate(127.292)" fill="#cc9068"/>
        </g>
        <g id="Сгруппировать_1725" data-name="Сгруппировать 1725" transform="translate(21.481 86.871)">
          <g id="Сгруппировать_1721" data-name="Сгруппировать 1721">
            <rect id="Прямоугольник_1766" data-name="Прямоугольник 1766" width="39.906" height="2.057" fill="#fff"/>
          </g>
          <g id="Сгруппировать_1722" data-name="Сгруппировать 1722" transform="translate(0 6.363)">
            <rect id="Прямоугольник_1767" data-name="Прямоугольник 1767" width="39.906" height="2.057" fill="#fff"/>
          </g>
          <g id="Сгруппировать_1723" data-name="Сгруппировать 1723" transform="translate(0 12.725)">
            <rect id="Прямоугольник_1768" data-name="Прямоугольник 1768" width="39.906" height="2.057" fill="#fff"/>
          </g>
          <g id="Сгруппировать_1724" data-name="Сгруппировать 1724" transform="translate(14.255 19.088)">
            <rect id="Прямоугольник_1769" data-name="Прямоугольник 1769" width="25.651" height="2.057" fill="#fff"/>
          </g>
        </g>
      </g>
    </g>
  </g>
</svg>
