<svg xmlns="http://www.w3.org/2000/svg" xmlns:xlink="http://www.w3.org/1999/xlink" width="1005.195" height="347.055" viewBox="0 0 1005.195 347.055">
  <defs>
    <linearGradient id="linear-gradient" x1="1.071" y1="-0.236" x2="0.085" y2="1.012" gradientUnits="objectBoundingBox">
      <stop offset="0" stop-color="#feb840"/>
      <stop offset="0.369" stop-color="#feb33c"/>
      <stop offset="0.75" stop-color="#fea734"/>
      <stop offset="1" stop-color="#ff9b2b"/>
    </linearGradient>
    <linearGradient id="linear-gradient-2" x1="1.019" y1="0.059" x2="0.044" y2="0.888" gradientUnits="objectBoundingBox">
      <stop offset="0" stop-color="#feb840"/>
      <stop offset="0.25" stop-color="#feab36"/>
      <stop offset="0.631" stop-color="#fe9f2e"/>
      <stop offset="1" stop-color="#ff9b2b"/>
    </linearGradient>
    <linearGradient id="linear-gradient-3" x1="-0.238" y1="0.5" x2="0.762" y2="0.5" gradientUnits="objectBoundingBox">
      <stop offset="0" stop-color="#ff9b2b"/>
      <stop offset="0.191" stop-color="#f69427"/>
      <stop offset="0.602" stop-color="#ea8c23"/>
      <stop offset="1" stop-color="#e68922"/>
    </linearGradient>
    <linearGradient id="linear-gradient-4" x1="-0.238" y1="0.5" x2="0.762" y2="0.5" xlink:href="#linear-gradient-3"/>
  </defs>
  <g id="img_moving" transform="translate(-404.017 -385.247)">
    <path id="Контур_4653" data-name="Контур 4653" d="M2223.146,1114.383c.626-4.2-.318-6.593.064-10.826a88.4,88.4,0,0,1,1.677-10.13c.29-1.245,1.1-5.115-2.415-6.642-3.41-1.481-6.054-1.476-8.489-2.806-2.734-1.493-6.875-3.763-8.166-4.6-3.943-2.539-7.056-1.342-9.416,1.186-1.492,1.6-.995,4.724,1.1,6.606,2.405,2.16,4.938,3.729,7.282,6.18,2.608,2.727,5.256,13.87,5.2,18.345-.043,3.569-5.6,12.283-2.557,13.669s9.306-1.664,11.4-3.44A13.111,13.111,0,0,0,2223.146,1114.383Z" transform="translate(-1035.789 -397.472)" fill="#1e2859"/>
    <path id="Контур_4654" data-name="Контур 4654" d="M1859.344,1138.159c.677-8.8-1.065-11.455-7.193-9.8-3.058.824-5.082,3.783-5.822,5.425a22.3,22.3,0,0,1-7.3,9.47c-3.482,2.781-7.686,4.475-11.864,6.044-3.08,1.156-10.521,1.974-11.437,5.328-1.036,3.793,6.819,3.793,12.005,3.793,6.678,0,15.124-3.182,19.411-3.634,2.263-.239,5.67.191,8.4-.144,5.047-.62,5.543-1.9,5.153-5.912C1860.437,1146.092,1859.077,1141.622,1859.344,1138.159Z" transform="translate(-817.807 -426.114)" fill="#1e2859"/>
    <path id="Контур_4655" data-name="Контур 4655" d="M1994.428,529.085c-.455-8.564-2.319-10.516-10.431-12.155a120.7,120.7,0,0,0-26.213-2.4c-10.742.406-25.5,2.273-30.013,3.871-7.159,2.537-8.826,6.586-9.224,10.5-.625,6.135,3.869,69.1,6.632,79.314,2.211,8.174,7.764,11.4,16.469,11.834,6.15.3,30.2-.01,39.38-.547,9.667-.566,11.829-5.993,11.981-14.382C1993.251,591.74,1994.708,534.342,1994.428,529.085Z" transform="translate(-876.822 -74.151)" fill="#7fd9eb"/>
    <path id="Контур_4656" data-name="Контур 4656" d="M1959.737,420.93c.526,2.678,1.288,8.275,2.586,10.731a8.219,8.219,0,0,0,2.724,3.153,12.875,12.875,0,0,0,3.044,1.381c1.042.364,1.322,3.509,1.662,6.46.286,2.484.959,4.656-1.252,6.334-.853.647-2.575.852-2.966,2.714-.494,2.346-.74,12.322,8.2,12.322,8.489,0,19.728-8.557,17.546-14.219-.445-1.154-2.468-.569-3.179-3.672-.6-2.637-1.349-5.566-1.74-8.514-.388-2.93-1.206-6.724-.16-9.555,4.376-11.843,2.454-17.724-.664-21.663-3.6-4.547-11.248-7.306-16.883-6.025-5.015,1.141-10.8,4.391-11.549,10.55C1956.675,414.432,1959.078,417.573,1959.737,420.93Z" transform="translate(-898.95 -8.502)" fill="#fec1b5"/>
    <path id="Контур_4657" data-name="Контур 4657" d="M1786.183,646.418c10.859-6.527,26.256-17.626,37.2-25.011,8.2-5.536,14.964-13.027,18.138-22.333,3.69-10.821,15.7-43.31,17.821-54.131a29.047,29.047,0,0,0-.84-13.76c-1.536-4.5-6.74-8.568-11.206-7.457-11.073,2.755-12.424,12.039-14.316,21.972-2.339,12.278-5.931,37.311-7.54,45.671-1.11,5.769-5.5,13.461-9.776,17.263-7.476,6.646-31.016,26.29-33.359,28.415-3.561,3.229-4.233,5.554-2.84,8.526C1780.321,647.4,1783.126,648.256,1786.183,646.418Z" transform="translate(-796.666 -79.35)" fill="#7fd9eb"/>
    <path id="Контур_4658" data-name="Контур 4658" d="M1989.618,460.044c-.4-.132-1.811,2.532-2.719,3.81a10.978,10.978,0,0,1-5.805,4.394,15.8,15.8,0,0,1-7.761-.158c-.226-.06-.307.038-.29.175a5.908,5.908,0,0,0,1.181.963,12.9,12.9,0,0,0,3.043,1.381c.473.166.793.908,1.027,1.952a3.532,3.532,0,0,0,1.3.724,5.884,5.884,0,0,0,5.341-.852c1.7-1.265,2.937-3.767,3.623-5.57C1989.192,465.188,1990.718,460.414,1989.618,460.044Z" transform="translate(-908.123 -42.914)" fill="#e8988c"/>
    <path id="Контур_4659" data-name="Контур 4659" d="M2046.216,586.076c-3.9,3.274.814,13.311-.823,20.634-2.093,9.385,1.244,12.211-1.153,17.805-1.089,2.541-3.041,2.534-4.1-.1-1.279-3.184-1.99-11.939-2.025-15.557-.055-6.023-1.892-17.1-3.746-13.447-.622,1.228-.776,8.418-.763,10.8.025,6.96.46,21.614,5.733,29.073,2.344,3.311,7.906,9.356,15.472,10.208a6.977,6.977,0,0,0,4.228-.491c.013-.23.017-.465.021-.7.175-9.586.972-41.783,1.3-61.193C2055.857,582,2049.063,583.685,2046.216,586.076Z" transform="translate(-942.873 -113.328)" fill="#37c0db"/>
    <path id="Контур_4660" data-name="Контур 4660" d="M2017.39,754.54c-6.48-6.917-36.029-40.09-39.588-44.146a42.168,42.168,0,0,1-10.215-26.269c-.618-15.94-2.2-65.675-2.1-71.366.03-1.744-.235-5.743-.779-6.621-1.422-2.29-2.508.088-5.809.343-5.89.456-9.25-2.657-12.185-4.919-8.472-6.534-8.62-16.938-9.212-26.6-.328-5.37-.7-13.968-.626-18.626.239-14.448,1.236-22.778,5.336-28.715,3.09-4.475,6.665-7.526,10.815-8.2,1.29-.211,1.391-.5.643-.719a36.174,36.174,0,0,0-5.678-.981c-3.994,0-8.764,3.583-12.227,9.053-3.565,5.631-5.158,15.271-5.755,27H1905.3c-1.014-12.659.029-27.074,1.693-33.057.668-2.4,1.191-3.483.187-3.35-.933.124-3.61.5-4.394.607-1.154.163-1.343.387-1.919,2.133-2.46,7.44-2.757,26.746-2.687,37.159.038,5.693-.387,25.569-.5,32.036-.082,4.595.053,8.9-1.8,13.192-1.172,2.717-3.791,4.206-5.561,5.277-1.724,1.043-2.127,2.458-2.245,4.484-.454,7.752-.592,18.264-1.792,22.679a136.765,136.765,0,0,1-5.443,16.542c-4.976,12.519-10.539,22.941-15.134,34.915-4.052,10.559-3.5,20.029-2.131,31.114,1.607,13.047,6.713,53.647,7.779,63.791.483,4.6,7.055,4.807,11.446,5.22,10.185.96,8.561-5.434,8.622-11.259.064-6.167-.472-31.361-.568-38.182-.2-13.851,1.844-19.444,4.788-27.72,4.241-11.924,17.772-37.72,20.074-42.5.865-1.8,2.869-6.455,6.092-6.18,3.747.32,3.874,2.816,5.381,7.139,1.875,5.377,8.278,27.427,10.621,34.5a46.356,46.356,0,0,0,12.044,19.242c8.966,8.77,41.055,38.855,53.425,49.794,3.183,2.816,5.174,2.182,8.728.142,1.918-1.1,6.9-5.683,8.477-8.406C2022.484,759.622,2021.02,758.415,2017.39,754.54Z" transform="translate(-844.734 -75.797)" fill="#3448ad"/>
    <path id="Контур_4661" data-name="Контур 4661" d="M1984.177,406.157c-.321-2.6-.844-4.416-3.037-6.263-1.285-1.082-1.077-.857-1.223-2.608a8.111,8.111,0,0,0-2.791-5.508c-5.174-3.857-10.008-4.842-16.072-4.848-3.2,0-14.449,4.381-16.216,5.54-2.872,1.883-1.234,3.613-.67,4.823,1.2,2.578-.173,2.5.282,5.861.308,2.27,3.7,4.445,4.459,4.653.5.136.626.048.563-.49a11.487,11.487,0,0,1-.066-4.421,3.412,3.412,0,0,1,2.433-2.113,28.937,28.937,0,0,1,9.517-1.412,3.112,3.112,0,0,1,2.912,2.433,19.771,19.771,0,0,0,3.068,7.524c1.8,2.345,5.646,3.384,5.646,3.384a3.835,3.835,0,0,1,.74-2.265c1.661,1.528,1.458,8.105,1.609,10.653.068,1.154.328,4.085,1.287,4.271,1.02.2,1.589-1.3,1.945-2.389C1980.164,418.091,1985.045,413.195,1984.177,406.157Z" transform="translate(-890.997 -0.966)" fill="#1e2859"/>
    <path id="Контур_4662" data-name="Контур 4662" d="M2013.449,439.82c-.618,2.354.047,4.887,1.594,4.975,1.288.074,2.851-1.48,3.6-3.638.8-2.3.817-4.529-1.358-4.888C2015.152,435.918,2014.067,437.466,2013.449,439.82Z" transform="translate(-931.178 -29.248)" fill="#fec1b5"/>
    <path id="Контур_4663" data-name="Контур 4663" d="M1956.228,844.519c-1.194-2.941-1.841-4.326-3.086-7.165a4.34,4.34,0,0,0-3.227-2.221c-1.763-.249-11.9-.936-14.052-.906-4.382,8.013-1.044,17.656-3.192,24.621-1.389,4.509-6.022,7.65-7.5,11.307-2.5,6.219-1.927,11.53-2.877,18.077-.852,5.869-4.974,10.374-5.933,15.949-1.194,6.943,2.451,13.319,2.877,21.631.375,7.344-.354,14.278-.32,17.616.026,2.83,1.39,8.06,3.218,9.535-.076-9.437-.469-28.314-.554-34.076-.2-13.852,1.845-19.444,4.786-27.722,4.245-11.921,17.773-37.716,20.075-42.5.865-1.794,2.869-6.453,6.091-6.18,2.519.213,3.4,1.411,4.164,3.482A13.315,13.315,0,0,0,1956.228,844.519Z" transform="translate(-875.466 -257.615)" fill="#30358c"/>
    <g id="Сгруппировать_1727" data-name="Сгруппировать 1727" transform="translate(404.017 385.247)">
      <path id="Контур_4664" data-name="Контур 4664" d="M863.68,1114.383c.765-4.2-.1-6.593.423-10.826a90.083,90.083,0,0,1,2.013-10.13c.331-1.245,1.271-5.115-2.2-6.642-3.36-1.481-6.005-1.476-8.4-2.806-2.685-1.493-6.749-3.763-8.014-4.6-3.858-2.539-7.012-1.342-9.455,1.186-1.545,1.6-1.151,4.724.882,6.606,2.334,2.16,4.813,3.729,7.077,6.18,2.518,2.727,4.8,13.87,4.6,18.345-.161,3.569-6,12.283-3.011,13.669s9.361-1.664,11.516-3.44A13.666,13.666,0,0,0,863.68,1114.383Z" transform="translate(-660.371 -782.719)" fill="#1e2859"/>
      <path id="Контур_4665" data-name="Контур 4665" d="M498.092,1138.159c.969-8.8-.686-11.455-6.868-9.8-3.085.824-5.208,3.783-6,5.425a23.37,23.37,0,0,1-7.616,9.47c-3.574,2.781-7.834,4.475-12.064,6.044-3.118,1.156-10.587,1.974-11.614,5.328-1.162,3.793,6.693,3.793,11.879,3.793,6.678,0,15.23-3.182,19.532-3.634,2.271-.239,5.663.191,8.4-.144,5.067-.62,5.607-1.9,5.349-5.912C498.922,1146.092,497.71,1141.622,498.092,1138.159Z" transform="translate(-440.442 -811.36)" fill="#1e2859"/>
      <path id="Контур_4666" data-name="Контур 4666" d="M653.808,529.085c-.171-8.564-1.97-10.516-10.028-12.155a119.589,119.589,0,0,0-26.133-2.4c-10.755.406-25.578,2.273-30.142,3.871-7.244,2.537-9.045,6.586-9.573,10.5-.828,6.135,1.578,69.1,4,79.314,1.94,8.174,7.386,11.4,16.077,11.834,6.141.3,30.2-.01,39.4-.548,9.686-.566,12.028-5.993,12.458-14.382C650.553,591.74,653.913,534.342,653.808,529.085Z" transform="translate(-511.563 -459.397)" fill="#7fd9eb"/>
      <path id="Контур_4667" data-name="Контур 4667" d="M626.76,418.7c.26,2.7.468,8.324,1.521,10.855a7.837,7.837,0,0,0,2.406,3.319,12.439,12.439,0,0,0,2.9,1.575c1,.431.926,3.551,1.02,6.541.137,4.361.208,5.748-2.172,7.013-.96.511-2.654.679-3.228,2.507-.724,2.3-1.8,12.484,7.135,12.814,9.59.355,20.833-8.781,19.215-14.562-.329-1.178-2.328-.858-2.842-3.978-.426-2.593-.71-4.759-1.043-7.717-.329-2.926-.539-6.774.784-9.523,5.536-11.5,4.2-17.486,1.477-21.613-3.142-4.763-10.5-8.013-16.251-7.107-5.117.807-11.208,3.663-12.567,9.746C624.346,412.025,626.434,415.31,626.76,418.7Z" transform="translate(-538.635 -392.947)" fill="#fec1b5"/>
      <path id="Контур_4668" data-name="Контур 4668" d="M437.13,646.418c11.076-6.527,26.84-17.626,38.028-25.011,8.388-5.536,15.4-13.027,18.879-22.333,4.049-10.821,17.136-43.31,19.616-54.131a28.928,28.928,0,0,0-.384-13.76c-1.387-4.5-6.456-8.568-10.959-7.457-11.165,2.755-12.823,12.039-15.044,21.972-2.746,12.278-7.168,37.311-9.055,45.671a37.478,37.478,0,0,1-10.349,17.263c-7.7,6.646-31.887,26.29-34.3,28.415-3.668,3.228-4.417,5.554-3.122,8.525C431.234,647.4,434.012,648.256,437.13,646.418Z" transform="translate(-426.692 -464.597)" fill="#7fd9eb"/>
      <path id="Контур_4669" data-name="Контур 4669" d="M653.228,459.822c-.387-.158-2.057,2.4-3.09,3.615a11.492,11.492,0,0,1-6.226,3.994,15.763,15.763,0,0,1-7.729-.667c-.22-.075-.31.018-.307.155a5.634,5.634,0,0,0,1.083,1.037,12.432,12.432,0,0,0,2.9,1.575c.456.2.7.956.832,2.011a3.4,3.4,0,0,0,1.221.806,5.962,5.962,0,0,0,5.413-.5c1.822-1.149,3.3-3.559,4.165-5.309C652.295,464.916,654.289,460.263,653.228,459.822Z" transform="translate(-544.905 -428.032)" fill="#e8988c"/>
      <path id="Контур_4670" data-name="Контур 4670" d="M703.359,586.076c-4,3.274.372,13.311-1.507,20.634-2.4,9.385.84,12.211-1.743,17.805-1.173,2.541-3.125,2.534-4.1-.1-1.173-3.184-1.595-11.939-1.508-15.557.144-6.023-1.326-17.1-3.3-13.447-.663,1.228-1.055,8.418-1.121,10.8-.205,6.96-.256,21.614,4.769,29.073,2.234,3.311,7.6,9.356,15.133,10.208a7.067,7.067,0,0,0,4.245-.491c.02-.23.032-.464.044-.7.493-9.586,2.357-41.783,3.334-61.193C713.135,582,706.285,583.685,703.359,586.076Z" transform="translate(-575.967 -498.574)" fill="#37c0db"/>
      <path id="Контур_4671" data-name="Контур 4671" d="M661.7,754.54c-6.251-6.917-34.7-40.09-38.124-44.146a40.863,40.863,0,0,1-9.344-26.269c-.089-15.94-.018-65.675.268-71.366.087-1.744-.044-5.743-.56-6.621-1.346-2.29-2.511.088-5.82.343-5.905.456-9.162-2.657-12.022-4.919-8.255-6.534-8.059-16.938-8.33-26.6-.151-5.37-.24-13.968-.008-18.626.718-14.448,1.991-22.778,6.288-28.715,3.238-4.475,6.916-7.526,11.087-8.2,1.3-.211,1.408-.5.667-.719a35.578,35.578,0,0,0-5.645-.981c-3.994,0-8.883,3.583-12.528,9.053-3.752,5.631-5.664,15.271-6.65,27H556.266c-.595-12.659.926-27.074,2.79-33.057.747-2.4,1.306-3.483.3-3.35-.937.124-3.626.5-4.414.607-1.159.163-1.355.387-1.99,2.133-2.707,7.44-3.644,26.746-3.919,37.159-.151,5.693-1.235,25.569-1.565,32.036-.234,4.595-.241,8.9-2.237,13.192-1.262,2.717-3.931,4.206-5.736,5.277-1.759,1.043-2.208,2.458-2.394,4.484-.711,7.752-1.2,18.264-2.545,22.679a140.959,140.959,0,0,1-5.991,16.542c-5.392,12.519-11.3,22.941-16.292,34.915-4.4,10.559-4.161,20.029-3.163,31.114,1.174,13.047,4.934,53.647,5.663,63.791.33,4.6,6.9,4.807,11.273,5.22,10.153.96,8.741-5.434,9-11.259.269-6.167.568-31.361.7-38.182.264-13.851,2.49-19.444,5.708-27.72,4.637-11.924,19.022-37.72,21.484-42.5.924-1.8,3.083-6.455,6.3-6.18,3.737.32,3.781,2.816,5.144,7.139,1.7,5.377,7.369,27.427,9.478,34.5a44.356,44.356,0,0,0,11.406,19.242c8.676,8.77,39.766,38.855,51.773,49.794,3.09,2.816,5.1,2.182,8.723.142,1.955-1.1,7.09-5.683,8.756-8.406C666.623,759.622,665.2,758.415,661.7,754.54Z" transform="translate(-471.824 -461.044)" fill="#3448ad"/>
      <path id="Контур_4672" data-name="Контур 4672" d="M652.42,405.917c-.063-2.613-.406-4.453-2.411-6.436-1.175-1.161-.989-.924-.963-2.677a7.81,7.81,0,0,0-2.241-5.667c-4.783-4.181-9.509-5.479-15.559-5.883-3.189-.213-14.692,3.774-16.728,4.451-3.791,1.261-2.2,5.461-1.442,10.611.333,2.257,3.253,4.668,3.99,4.926.482.168.621.089.61-.451a11.476,11.476,0,0,1,.371-4.406,3.57,3.57,0,0,1,2.637-1.944,29.364,29.364,0,0,1,9.636-.781,2.984,2.984,0,0,1,2.665,2.614,19.133,19.133,0,0,0,2.318,7.693c1.562,2.453,5.3,3.74,5.3,3.74a3.958,3.958,0,0,1,.961-2.207c1.507,1.63.655,8.166.554,10.713-.046,1.153-.075,4.088.863,4.337,1,.265,1.713-1.189,2.176-2.25C647.237,417.535,652.591,412.981,652.42,405.917Z" transform="translate(-531.258 -385.247)" fill="#1e2859"/>
      <path id="Контур_4673" data-name="Контур 4673" d="M679.342,440.088c-.85,2.3-.436,4.869,1.1,5.058,1.278.158,2.99-1.286,3.948-3.386,1.02-2.239,1.262-4.455-.873-4.956C681.426,436.314,680.191,437.784,679.342,440.088Z" transform="translate(-569.596 -414.775)" fill="#fec1b5"/>
      <path id="Контур_4674" data-name="Контур 4674" d="M602.672,844.519c-1.1-2.941-1.7-4.326-2.848-7.165a4.157,4.157,0,0,0-3.153-2.221c-1.755-.249-11.865-.936-14.023-.906-4.647,8.013-1.629,17.656-4.009,24.621-1.539,4.509-6.277,7.65-7.872,11.307-2.708,6.219-2.309,11.53-3.476,18.077-1.047,5.869-5.318,10.374-6.462,15.949-1.424,6.943,2.009,13.319,2.16,21.631.132,7.344-.827,14.278-.9,17.616-.068,2.83,1.122,8.06,2.9,9.535.236-9.437.47-28.314.576-34.076.263-13.852,2.49-19.444,5.706-27.722,4.64-11.921,19.024-37.716,21.484-42.5.924-1.794,3.082-6.453,6.3-6.18,2.512.213,3.354,1.411,4.049,3.482A12.914,12.914,0,0,0,602.672,844.519Z" transform="translate(-501.647 -642.861)" fill="#30358c"/>
      <path id="Контур_4675" data-name="Контур 4675" d="M457.922,801.563c-1.349-1-5.763.451-7.6,1.229-2.3.976-14.2,3.779-17.514,3.26-3.539-.554-5.582-1.2-6.881-.668-1.344.546-5.12,1.462-2.692,3.13,2.591,1.78,9.171,5.949,11.555,7.366a8.653,8.653,0,0,0,4.5,1.4c3.057-.283,6-.762,7.9-1.076,2.1-.346,4.656-3.327,6.606-5.224C458.217,806.678,460.692,803.623,457.922,801.563Z" transform="translate(-422.441 -623.924)" fill="#e8988c"/>
      <path id="Контур_4676" data-name="Контур 4676" d="M715.112,590.474c-3.23-13.047-10.805-41.333-14.374-51.694-1.71-4.965-3.234-12.138-7.992-13.756-4.114-1.4-6.6-2.563-9.078-.534-8.281,6.773-5.277,15.51-3.08,24.124,2.87,11.256,9.255,30.793,11.363,38.3,2.33,8.3-1.882,15.764-5.5,19.506-6.3,6.508-35.113,34.112-37.328,36.085-3.662,3.262-4.145,5.349-3.089,8.285.534,1.485,3.62,2.785,6.433.983,10.136-6.492,42.266-28.022,52.234-35.351C714.437,609.263,718.974,606.074,715.112,590.474Z" transform="translate(-550.451 -464.514)" fill="#7fd9eb"/>
      <path id="Контур_4677" data-name="Контур 4677" d="M619.3,805.7a4.835,4.835,0,0,0-5.309-1.24c-2.3.976-7.083,2.622-9.937,3.674a11.133,11.133,0,0,1-7.649-.128c-3.405-1.112-5.51-1.481-6.808-.953-1.343.546-5.119,1.462-2.692,3.13,2.591,1.78,9.171,5.949,11.555,7.366a8.656,8.656,0,0,0,4.5,1.4c3.057-.283,6-.762,7.9-1.076,2.1-.347,4.542-3.013,6.737-4.621C619.837,811.612,621.4,808.438,619.3,805.7Z" transform="translate(-516.351 -625.596)" fill="#e8988c"/>
      <g id="Сгруппировать_1726" data-name="Сгруппировать 1726" transform="translate(3.025 103.245)">
        <g id="Сгруппировать_1720" data-name="Сгруппировать 1720">
          <rect id="Прямоугольник_1764" data-name="Прямоугольник 1764" width="79.135" height="79.135" transform="translate(97.179 79.135) rotate(180)" fill="#f0c397"/>
          <rect id="Прямоугольник_1765" data-name="Прямоугольник 1765" width="18.043" height="79.135" fill="#cc9068"/>
        </g>
        <g id="Сгруппировать_1725" data-name="Сгруппировать 1725" transform="translate(59.015 54.006)">
          <g id="Сгруппировать_1721" data-name="Сгруппировать 1721">
            <rect id="Прямоугольник_1766" data-name="Прямоугольник 1766" width="24.809" height="1.279" fill="#fff"/>
          </g>
          <g id="Сгруппировать_1722" data-name="Сгруппировать 1722" transform="translate(0 3.955)">
            <rect id="Прямоугольник_1767" data-name="Прямоугольник 1767" width="24.809" height="1.279" fill="#fff"/>
          </g>
          <g id="Сгруппировать_1723" data-name="Сгруппировать 1723" transform="translate(0 7.911)">
            <rect id="Прямоугольник_1768" data-name="Прямоугольник 1768" width="24.809" height="1.279" fill="#fff"/>
          </g>
          <g id="Сгруппировать_1724" data-name="Сгруппировать 1724" transform="translate(0 11.866)">
            <rect id="Прямоугольник_1769" data-name="Прямоугольник 1769" width="15.947" height="1.279" fill="#fff"/>
          </g>
        </g>
      </g>
    </g>
    <g id="Сгруппировать_1729" data-name="Сгруппировать 1729" transform="translate(739.158 474.151)">
      <path id="Контур_4678" data-name="Контур 4678" d="M1269.144,629.446l1.609-26.173a8.457,8.457,0,0,1,8.441-7.939h-20.057a8.457,8.457,0,0,0-8.441,7.939l-1.609,26.173h20.057Z" transform="translate(-1231.893 -594.695)" fill="#e68922"/>
      <path id="Контур_4679" data-name="Контур 4679" d="M1523.2,663.558l7.7-29.593a6.041,6.041,0,0,1,5.846-4.519h.173l-8.5-28.1a8.457,8.457,0,0,0-8.1-6.008H1306.2a8.457,8.457,0,0,0-8.441,7.939l-1.609,26.173h9.255v34.112h217.8Z" transform="translate(-1258.894 -594.695)" fill="url(#linear-gradient)"/>
      <path id="Контур_4680" data-name="Контур 4680" d="M1387.109,933.27l2.079-26.674h-7.773V933.27Z" transform="translate(-1307.82 -773.29)" fill="#e68922"/>
      <path id="Контур_4681" data-name="Контур 4681" d="M1239.3,933.27l2.079-26.674H1233.6V933.27Z" transform="translate(-1223.008 -773.29)" fill="#e68922"/>
      <path id="Контур_4682" data-name="Контур 4682" d="M1827.615,933.27l-2.079-26.674h7.773V933.27Z" transform="translate(-1562.646 -773.29)" fill="#e68922"/>
      <path id="Контур_4683" data-name="Контур 4683" d="M1975.429,933.27l-2.079-26.674h7.773V933.27Z" transform="translate(-1647.458 -773.29)" fill="#e68922"/>
      <path id="Контур_4684" data-name="Контур 4684" d="M1632.752,675.368H1621.2a6.041,6.041,0,0,0-5.846,4.519l-7.7,29.593h4.47V741.7H1389.852V709.48h4.47l-7.705-29.593a6.041,6.041,0,0,0-5.846-4.519h-11.552a6.041,6.041,0,0,0-6.041,6.041v86.473a6.041,6.041,0,0,0,6.041,6.041h263.534a6.041,6.041,0,0,0,6.041-6.041V681.409A6.041,6.041,0,0,0,1632.752,675.368Z" transform="translate(-1297.356 -640.616)" fill="#feb840"/>
      <path id="Контур_4685" data-name="Контур 4685" d="M1888.394,675.368H1842.4a6.041,6.041,0,0,0-5.846,4.519l-7.7,29.593h45.989l7.7-29.593A6.041,6.041,0,0,1,1888.394,675.368Z" transform="translate(-1564.55 -640.616)" fill="#ffd980"/>
      <path id="Контур_4686" data-name="Контур 4686" d="M1274.568,767.882V681.409a6.041,6.041,0,0,1,6.041-6.041h-65.823a6.041,6.041,0,0,0-6.041,6.041v86.473a6.041,6.041,0,0,0,6.041,6.041h65.823A6.041,6.041,0,0,1,1274.568,767.882Z" transform="translate(-1208.746 -640.616)" fill="#e68922"/>
      <path id="Контур_4687" data-name="Контур 4687" d="M1437.175,781.581v-20.14a6.041,6.041,0,0,1,6.041-6.041h-17.455v32.222h17.455A6.041,6.041,0,0,1,1437.175,781.581Z" transform="translate(-1333.264 -686.538)" fill="#e68922"/>
      <rect id="Прямоугольник_1770" data-name="Прямоугольник 1770" width="222.267" height="32.221" rx="14.173" transform="translate(103.911 68.864)" fill="url(#linear-gradient-2)"/>
      <path id="Контур_4688" data-name="Контур 4688" d="M1668.767,755.4H1458.582a6.041,6.041,0,0,0-6.041,6.041v6.343a6.041,6.041,0,0,1,6.041-6.041h210.186a6.041,6.041,0,0,1,6.041,6.041v-6.343A6.041,6.041,0,0,0,1668.767,755.4Z" transform="translate(-1348.63 -686.538)" fill="#ffd980"/>
      <g id="Сгруппировать_1728" data-name="Сгруппировать 1728" transform="translate(92.497 70.839)">
        <path id="Контур_4689" data-name="Контур 4689" d="M1970.333,760.036v.011l.05.055Z" transform="translate(-1738.224 -760.036)" fill="url(#linear-gradient-3)"/>
        <path id="Контур_4690" data-name="Контур 4690" d="M1658.46,761.841a6.006,6.006,0,0,1,.982,3.3v20.139h0a6.041,6.041,0,0,1-6.041,6.041H1425.761l13.632,15.323H1674.7V783Z" transform="translate(-1425.761 -761.072)" fill="url(#linear-gradient-4)"/>
      </g>
      <path id="Контур_4691" data-name="Контур 4691" d="M1593.43,627.946h-56.895l-8.363-27.649a9.043,9.043,0,0,0-8.706-6.463H1305.335a9.111,9.111,0,0,0-9.08,8.539l-1.609,26.173a.639.639,0,0,0,.6.677.632.632,0,0,0,.678-.6l1.609-26.173a7.831,7.831,0,0,1,7.8-7.339h214.131a7.773,7.773,0,0,1,7.483,5.555l8.263,27.317a6.68,6.68,0,0,0-5.788,4.959l-.084.323h1.322a5.4,5.4,0,0,1,5.227-4.04h42.069a6.667,6.667,0,0,0-2.544,3.719l-7.581,29.114H1367.985a6.688,6.688,0,0,0-6.68,6.68v20.139a6.688,6.688,0,0,0,6.68,6.681H1578.17a6.688,6.688,0,0,0,6.68-6.681V668.738a6.688,6.688,0,0,0-6.68-6.68h-9.017l7.5-28.792a5.4,5.4,0,0,1,5.227-4.041h11.553a5.408,5.408,0,0,1,5.4,5.4V721.1a5.408,5.408,0,0,1-5.4,5.4H1329.9a5.408,5.408,0,0,1-5.4-5.4V634.626a5.408,5.408,0,0,1,5.4-5.4h11.552a5.4,5.4,0,0,1,5.228,4.041l7.7,29.592a.639.639,0,0,0,1.237-.322l-7.7-29.592a6.682,6.682,0,0,0-6.465-5H1329.9a6.688,6.688,0,0,0-6.68,6.68V721.1a6.688,6.688,0,0,0,6.68,6.68H1593.43a6.688,6.688,0,0,0,6.68-6.68V634.626A6.688,6.688,0,0,0,1593.43,627.946Zm-15.26,35.391a5.408,5.408,0,0,1,5.4,5.4v20.139a5.408,5.408,0,0,1-5.4,5.4H1367.985a5.408,5.408,0,0,1-5.4-5.4V668.738a5.407,5.407,0,0,1,5.4-5.4Z" transform="translate(-1258.033 -593.834)" fill="#fff"/>
    </g>
    <path id="Контур_4692" data-name="Контур 4692" d="M2002.772,653.836c8.524-8.24,28.106-27.086,36.229-36.158,6.09-6.8,12.715-13.568,11.863-24.65-1.145-14.88-3.978-41.344-6.109-52.212-1.021-5.208-1.563-12.574-6.038-14.971-3.87-2.073-6.162-3.641-8.88-2.042-9.072,5.336-7.28,14.5-6.268,23.407,1.323,11.638,4.58,34.676,5.025,42.516.307,5.41-2.769,14-5.583,18.461-4.75,7.535-23.826,34.891-25.566,37.232-2.877,3.872-2.893,6-1.208,8.667C1997.089,655.434,2000.406,656.123,2002.772,653.836Z" transform="translate(-920.78 -79.124)" fill="#7fd9eb"/>
    <path id="Контур_4693" data-name="Контур 4693" d="M1968.671,811.708a4.931,4.931,0,0,0-5.487-.213c-2.046,1.385-6.379,3.889-8.951,5.452a11.149,11.149,0,0,1-7.541,1.312c-3.59-.446-5.738-.411-6.9.348-1.2.785-4.706,2.389-1.953,3.561,2.937,1.251,10.319,4.083,12.973,5.019a8.9,8.9,0,0,0,4.727.516c2.94-.851,5.725-1.871,7.525-2.535,1.983-.732,3.8-3.793,5.6-5.775C1970.5,817.373,1971.335,813.981,1968.671,811.708Z" transform="translate(-887.336 -244.152)" fill="#fec1b5"/>
    <g id="Сгруппировать_1730" data-name="Сгруппировать 1730" transform="translate(631.73 396.25)">
      <path id="Контур_4694" data-name="Контур 4694" d="M1124.732,554.068a10.071,10.071,0,0,0-6.744.566c-2.993,1.226-6.755,4.128-7.821,7.528-3.339,10.648-.11,20.713,8.312,34.554,6.186,10.167,9.874,16,15.177,24.627,2.443,3.972,4.846,13.477,5.2,16.821.466,4.408.251,24.5.372,30.581.057,2.85,1.454,7.12,4.717,7.227,4.192.137,4.449-2.879,5.179-6.231,1.9-8.718,4.685-24.027,6.145-33.211,1.34-8.428,2.068-15.94-.915-24.158-3.816-10.51-12.844-30.93-17.849-40.631C1132.755,564.472,1128.893,555.836,1124.732,554.068Z" transform="translate(-1044.012 -492.92)" fill="#7fd9eb"/>
      <path id="Контур_4695" data-name="Контур 4695" d="M1206.075,621.412c-1.462-5.758-2.437-9.677-3.829-15.664-1.376-5.918-2.785-10.651-3.008-18.528-.183-6.453-1.169-33.684-3.048-41.133a19.611,19.611,0,0,0-5.361-9.4c-3.164-3.01-8.363-3.773-12.542-4a115.607,115.607,0,0,0-28.148,2.228c-4.449.9-16.905,4.5-21.059,6.683-4.23,2.219-4.107,5.691-3.133,11.173,1.934,10.879,12.009,40.043,13.564,48.948,1.543,8.834.185,24.269,1.1,27.417.623,2.136,3.056,2.936,4.513,3,6.213.261,52.166-3.744,55.554-4.021C1205.8,627.695,1207.189,625.8,1206.075,621.412Z" transform="translate(-1053.488 -480.77)" fill="#7fd9eb"/>
      <path id="Контур_4696" data-name="Контур 4696" d="M1201.681,431.454c-1.358-5.5-8.167-8.608-14.579-9.021-6.606-.426-12.627,3.143-14.918,7.885-2.185,4.523-2.813,11.984,2.838,23.273,1.351,2.7.571,3.948.412,6.9-.142,2.628-.318,6.341-.711,9.04-.127.872-2.02,2.65-2.326,3.765-1.549,5.635,5.031,10.833,9.8,10.833,7.992,0,11.161-4.5,13.8-8.418a8.562,8.562,0,0,0,1.438-5.115c-.24-.906-1.94-1.178-2.78-1.439-2.4-.746-2.856-1.571-2.5-4.968.2-1.878.24-5.221,1.464-6.232,1.042-.861,1.565-1.167,2.728-2.048,1.058-.8,2.681-3.747,3.134-5.63.65-2.7.509-7.455.737-10.175C1200.512,436.694,1202.527,434.881,1201.681,431.454Z" transform="translate(-1079.434 -417.566)" fill="#fec1b5"/>
      <path id="Контур_4697" data-name="Контур 4697" d="M1195.589,485.752c-.409-.507-2.762-3.968-3.056-3.533-.511.746.8,5.336,1.99,7.229,1.1,1.748,4.616,5.685,8.167,6.189a7.989,7.989,0,0,0,2.242.111c.209-1.556.567-2.971,1.21-3.486,1.053-.849,1.568-1.168,2.728-2.05a4,4,0,0,0,.866-.942C1205.478,490.692,1199.169,490.223,1195.589,485.752Z" transform="translate(-1091.95 -451.868)" fill="#e8988c"/>
      <path id="Контур_4698" data-name="Контур 4698" d="M1342.855,650.264c-2.606-12.87-7.66-33.437-10.443-46-2.2-9.947-6.455-20.05-14.07-26.719-8.854-7.754-35.071-31.92-44.538-38.18-3.649-2.413-9.029-3.269-13.465-3.545-4.889-.3-9.982,2.4-10.676,7.089-1.718,11.62,6.416,15.989,14.527,21.844,10.706,7.729,33.189,20.269,40.516,25.078a35.6,35.6,0,0,1,12.967,17.178c3.111,9.887,13.026,40.367,14.012,43.469,1.652,5.195,4.031,5.7,7.014,5.643C1341.267,656.072,1343.584,653.863,1342.855,650.264Z" transform="translate(-1124.663 -482.634)" fill="#7fd9eb"/>
      <path id="Контур_4699" data-name="Контур 4699" d="M1472.72,815.79c-.921-2.257-14.35-5.494-17.337-9.58-1.577-2.157-4.151-5.332-7.248-5.234-2.7.086-4.544,2.124-3.924,4.69.724,3,1.5,7.4,2.687,9.807,1.063,2.147,7.181,3.62,10.022,4.286a12.413,12.413,0,0,0,4.478.063C1465.616,819.012,1473.444,817.563,1472.72,815.79Z" transform="translate(-1236.354 -634.785)" fill="#fec1b5"/>
      <path id="Контур_4700" data-name="Контур 4700" d="M1192.617,412.482c-4.9-1.188-15.545-2.149-20.363-.661a14.2,14.2,0,0,0-6.425,3.77,8.926,8.926,0,0,0-1.9,4.427c-.154,1.747-.413,1.753-1.579,2.854-1.279,1.208-2.036,3.837-2,6.279a25.9,25.9,0,0,0,2.2,8.8c1.507,3.741,6.2,11.49,7.533,10.972.813-.315,2-2.937,1.919-4.09-.176-2.451-.269-5-.672-7.427-.293-1.765-.264-1.771.535-3.233.3.642.986,2.513.986,2.513l2.487-1.154a29.069,29.069,0,0,1,.462-8.56c.71-2.2,2.4-4.5,3.961-5.15,4.038-1.687,10.183-.178,14.144,2.149,1.44.846,1.555,2.328,1.57,3.551.01.763-.462,2.659.278,2.484.722-.172,1.622-3.07,1.979-4.792a27.222,27.222,0,0,0,.691-6.287C1198.34,414.914,1196.618,413.451,1192.617,412.482Z" transform="translate(-1073.55 -411.062)" fill="#1e2859"/>
      <path id="Контур_4701" data-name="Контур 4701" d="M1181.953,463.973c.618,2.354-.1,4.582-1.594,4.975s-3.214-1.2-3.832-3.55.1-4.582,1.594-4.975S1181.335,461.618,1181.953,463.973Z" transform="translate(-1082.705 -439.35)" fill="#fec1b5"/>
      <path id="Контур_4702" data-name="Контур 4702" d="M1000.41,1131.143c.939-12.52-.748-15.983-5.65-15.42-4.494.517-4.9,5.244-7.365,11.042a21.446,21.446,0,0,1-7.3,9.47c-3.482,2.781-7.686,4.475-11.863,6.044-3.08,1.156-10.522,1.974-11.437,5.328-1.036,3.793,6.82,3.793,12.005,3.793,6.678,0,15.124-3.182,19.411-3.634,2.263-.239,5.669.191,8.4-.144,5.047-.62,5.544-1.9,5.153-5.912C1001.5,1139.076,1000.15,1134.607,1000.41,1131.143Z" transform="translate(-956.7 -815.348)" fill="#1e2859"/>
      <path id="Контур_4703" data-name="Контур 4703" d="M1482.575,1094.987c.342-4.4-.75-6.909-.65-11.344a95.481,95.481,0,0,1,.991-10.614c.2-1.3.753-5.359-2.828-6.96-3.472-1.552-6.089-1.548-8.586-2.942-2.8-1.565-7.051-3.945-8.385-4.817-4.069-2.661-7.072-1.408-9.24,1.24-1.371,1.675-.673,4.95,1.525,6.923,2.523,2.264,5.132,3.909,7.613,6.477,2.762,2.858,6.117,14.534,6.359,19.224.193,3.74-4.728,12.869-1.63,14.322s9.1-1.741,11.057-3.6A12.969,12.969,0,0,0,1482.575,1094.987Z" transform="translate(-1241.565 -781.591)" fill="#1e2859"/>
      <path id="Контур_4704" data-name="Контур 4704" d="M1225.269,755.736c-4.9-3.813-48.488-38.636-51.69-42.014-3.788-4-8.222-11.6-8.695-17.24-.988-11.8-1.251-34.048-2.375-51.785-.352-5.559-2.472-11.034-4.212-14.933a11.428,11.428,0,0,0-4.74-5.72c-4.217-2.468-10.179-2.827-14.073-5.819a19.88,19.88,0,0,1-7.5-10.738c-2.254-8.872-4.732-25.36-5.848-33.416-1-7.215-1.3-19.055,2.28-28.473,1.765-4.647,5.888-9.167,7.38-10.516.956-.864,1.1-1.31.3-1.506-1.2-.293-3.383-.6-4.532-.753a3.55,3.55,0,0,0-3.1,1.22,33.037,33.037,0,0,0-7.715,13.425c-1.936,7.094-2.571,15.248-1.867,24.552-6.468.432-18.113,1.338-24.419,1.86-3.8-14-5.837-26.636-4.445-35.458.218-1.38.349-1.984-.454-1.7-1.02.361-3.272,1.034-4.659,1.5-1.189.4-1.509,2.153-1.657,2.678-1.883,6.7,2.41,27.612,4.934,35.948h0c.139,2.141,2.793,20.754,3.107,26.462.282,5.142.984,10.286-.592,15.385a23.173,23.173,0,0,1-4.25,7.306c-2.639,2.719-2.459,3.4-2.745,6.53-.211,2.315-.605,11.98-.624,16.441-4.1,14.068-15.69,39.6-19.463,48.181-6.185,14.06-10.377,27.426-12.606,34.112-4.455,13.366-10.094,29.517-16.395,49.845-.783,2.527-1.925,5.37-.7,8.095,1.209,2.685,3.906,4.42,6.3,5.54,4.186,1.957,9.626,2.876,12.121-1.293,1.129-1.886,4.156-9.367,5.145-11.924,5.569-14.411,9.607-23.756,15.385-38.428,3.334-8.466,10.344-19.4,16.5-29.1,5.653-8.9,20.546-30.551,23.531-34.947,3.476-5.12,9.3-5.618,12.456,1.462,2.986,6.7,13.354,32.225,16.5,38.776a44.083,44.083,0,0,0,13.993,17.126c8.439,6.174,49.345,34.333,56.445,37.536,3.831,1.727,5.441.936,7.011-.071,1.832-1.175,3.63-3.565,5.338-6.59a21.091,21.091,0,0,0,2.561-6.8A4.906,4.906,0,0,0,1225.269,755.736Z" transform="translate(-1000.699 -480.907)" fill="#3448ad"/>
      <path id="Контур_4705" data-name="Контур 4705" d="M1164.488,854.721c-1.812-3.384-2.613-5.668-4.382-9.321a4.571,4.571,0,0,0-2.971-2.481c-1.522-.328-9.944-2.016-12.075-2.366-4.339,4.339-3.866,16.563-7.212,23.037-2.165,4.19-7.28,6.465-9.377,9.8-3.563,5.677-3.619,12.527-6.214,18.613-2.276,5.328-8.3,10.6-9.662,13.639-2.77,6.159-3.516,14.756-4.688,19.675-1.441,6.04-4.616,11.845-4.616,15.2a3.968,3.968,0,0,0,.49,2c2.915-7.19,5.75-14.061,9.206-22.842,3.333-8.464,10.344-19.4,16.5-29.1,5.652-8.9,20.544-30.551,23.527-34.946,3.256-4.8,8.576-5.537,11.828.208A3.766,3.766,0,0,0,1164.488,854.721Z" transform="translate(-1040.811 -657.495)" fill="#30358c"/>
    </g>
    <path id="Контур_4706" data-name="Контур 4706" d="M2408.528,532.6c.206-3.494.447-7.807-5.328-6.5-7.139,1.616-40.061,8.2-51.882,10.661-4.474.93-12.809,2.224-13.525,5.624-.829,3.932,2.678,4.521,6.162,4.76,9.874.675,40.278-.639,51.005-1.421C2402.422,545.185,2408.229,537.68,2408.528,532.6Z" transform="translate(-1117.339 -80.684)" fill="#36d1cb"/>
    <path id="Контур_4707" data-name="Контур 4707" d="M2395.232,435.377c-.72-2.367-3.477-2.8-5.254-1.185-2.333,2.123-50.507,49.094-52.037,51.127-1.359,1.806-2.136,3.8-1.168,5.927,2.161,4.74,12.441,1.842,15.9-.965,3.549-2.881,40.959-50.122,41.88-51.267A3.46,3.46,0,0,0,2395.232,435.377Z" transform="translate(-1116.577 -27.531)" fill="#36d1cb"/>
    <path id="Контур_4708" data-name="Контур 4708" d="M2385.868,556.4c-5.153,2.093-10.285,4.42-17.42,3.678-6.542-.686-12.2-.87-18.767.482-3.414.7-6.893,1.04-10.059-.563-1.4-.707-2.229-2.165-3.06-2.66a4.6,4.6,0,0,0,.213,3.359,4.263,4.263,0,0,0,3.145,2.3,18.445,18.445,0,0,0,3.274.452c9.871.673,40.278-.639,51.006-1.419,4.309-.315,8.068-2.954,10.536-6.108C2402.934,553.1,2391.034,554.3,2385.868,556.4Z" transform="translate(-1116.578 -96.976)" fill="#34ad8c"/>
    <path id="Контур_4709" data-name="Контур 4709" d="M2548.165,882.28c.195-11.846.355-24.934-2.415-34.169-1.507-5.023-5.026-7.015-10.371-6.323-2.165.281-5.411,2.874-6.606,8.737-1.492,7.317-.639,19.038-.284,26.71.625,13.5,6.32,83.918,7.371,97.25.478,6.068,2.852,7.229,4.937,7.151,3.659-.136,4.422-3.884,4.691-7.509C2545.642,972.019,2547.9,898.618,2548.165,882.28Z" transform="translate(-1226.502 -261.877)" fill="#fec1b5"/>
    <path id="Контур_4710" data-name="Контур 4710" d="M2475.792,1015.9c-3.96-24.011-17.526-87.177-19-92.6-1.227-4.509-4.491-10.155-9.122-12.353-4.017-1.907-8.8.646-9.942,4.852-.539,2,.489,6.589,1.024,8.531,3.765,13.675,26.252,85.463,28.273,91.3.959,2.77,3.514,5.056,6.159,4.812C2475.1,1020.273,2476.241,1018.359,2475.792,1015.9Z" transform="translate(-1174.662 -301.271)" fill="#fec1b5"/>
    <path id="Контур_4711" data-name="Контур 4711" d="M2548.167,882.283c-.034,2.105-.1,5.161-.192,8.887-7.748-1.406-15.42-1.548-18.442,2.025-.525-7.263-.9-12.987-1.045-15.958-.353-7.672-1.206-19.393.286-26.707,1.193-5.865,4.441-8.46,6.607-8.737,5.345-.695,8.861,1.3,10.369,6.321C2548.521,857.349,2548.359,870.434,2548.167,882.283Z" transform="translate(-1226.503 -261.878)" fill="#e8988c"/>
    <path id="Контур_4712" data-name="Контур 4712" d="M2459.156,933.626c-6.856-2.766-14.315-3.761-18.259-1.888-.946-3.184-1.687-5.728-2.148-7.4-.533-1.944-1.56-6.538-1.023-8.533,1.138-4.207,5.925-6.76,9.944-4.85,4.633,2.2,7.893,7.843,9.121,12.352C2457.1,924.458,2457.958,928.2,2459.156,933.626Z" transform="translate(-1174.663 -301.271)" fill="#e8988c"/>
    <path id="Контур_4713" data-name="Контур 4713" d="M2488.412,798.279c-.982-4.937-2.3-13.284-3.426-19.672a68.986,68.986,0,0,1-1.033-15.194c.6-12.026,3.9-22.009.92-34.182a64.959,64.959,0,0,0-6.7-16.427c-2.089-3.7-7.991-8.115-12.343-10.016-5.369-2.344-9.354-2.678-14.958-2.06-3.114.344-16.122-.245-19.346.22-2.658.383-5.054,1.92-5.6,3.949-2.154,8.067-5.561,20.019-7.908,33-3.7,20.452-5.873,43.8-5.86,60.1,0,5.558,2.8,6.242,8.951,6.873,8.125.833,21.924.906,32.979.426,7.109-.308,12.472-.478,18.867-.9l3.03-35.277,3.323,34.821c2.269-.19,4.469-.407,6.579-.663C2489.019,802.9,2488.817,800.318,2488.412,798.279Z" transform="translate(-1160.084 -180.86)" fill="#051558"/>
    <path id="Контур_4714" data-name="Контур 4714" d="M2560.153,801.205c-.982-4.937-2.3-13.284-3.426-19.672a68.986,68.986,0,0,1-1.033-15.194c.6-12.026,3.9-22.009.92-34.182a64.978,64.978,0,0,0-6.7-16.427c-2.09-3.7-7.991-8.115-12.343-10.016-.128-.055-.251-.1-.377-.158.238,1.7,2.776,4.681,4.487,7.311,3.044,4.68,6.456,14.092,6.42,22.865-.031,7.563-2.32,13.6-2.824,21.116a33.677,33.677,0,0,0,2.451,15.2l3.323,34.821c2.269-.19,4.469-.407,6.579-.663C2560.76,805.823,2560.558,803.245,2560.153,801.205Z" transform="translate(-1231.825 -183.786)" fill="#30358c"/>
    <path id="Контур_4715" data-name="Контур 4715" d="M2501.017,514.151c-8.355-1.185-24.487,1.616-30.709,3.543-4.76,1.474-6.323,1.946-7.6,4.574-1.675,3.442-2.747,7.532-3.943,11.149-1.173,3.549-2.533,7.251-5.191,9.98-2.392,2.456-5.469,4.12-7.248,7.162-2.086,3.571-.812,7.162,1.968,9.8,1.161,1.1,3.474,2.233,3.937,3.42.425,1.086-.1,3.223-.428,4.319-2.136,7.234-5.776,18.506-7.316,29.32-.572,4.011,2.326,6.225,5.789,6.944a63.548,63.548,0,0,0,16.587.6c9.466-.87,18.15-3,22.359-4.726,2.12-.869,3.11-1.3,2.531-5.122-.26-1.719-1.6-5.588-2.655-10.345a12.7,12.7,0,0,1,.989-7.107c2.4-5.448,10.129-18.928,13.894-30.365,2.249-6.831,5.792-17.742,5.719-25.449C2509.667,518.646,2507.85,515.121,2501.017,514.151Z" transform="translate(-1178.587 -73.8)" fill="#36d1cb"/>
    <path id="Контур_4716" data-name="Контур 4716" d="M2517.742,458.111c-.911-.771-5.781.424-7.3-.6-1.783-1.2-1.595-4.6-1.542-6.464.106-3.787,3.517-15.664,2.451-22.7-.383-2.522-.693-3.943-3.369-3.972a20.736,20.736,0,0,1-8.352-1.329,16.665,16.665,0,0,1-6.891-4.431c-.8-.8-1.616-2.06-2.558-1.918-1.022.154-1.708,1.767-1.989,3.321-1.2,6.656,1.5,11.389,4.688,17.173a13.975,13.975,0,0,0,5.168,5.63c2.158,1.264,1.687,2.1,1.793,3.588.229,3.21.355,7.69.4,10.613a4,4,0,0,1-.9,2.946,7.817,7.817,0,0,1-3.07,1.366,2.734,2.734,0,0,0-1.583,1.3,27.79,27.79,0,0,0-2.54,6.926,18.953,18.953,0,0,0-.5,8.261c.563,2.456,2.975,3.2,5.726,2.653,4.772-.942,9.305-4.862,11.566-6.945,2.7-2.487,7.388-8.667,8.56-11.721C2518.021,460.438,2518.621,458.855,2517.742,458.111Z" transform="translate(-1203.538 -18.043)" fill="#fec1b5"/>
    <path id="Контур_4717" data-name="Контур 4717" d="M2475.408,403.593a48.349,48.349,0,0,0-6.934-1.052,1.332,1.332,0,0,0-1.605,1.156c-.539,3.261-.9,6.572-1.325,8.426-.955,1.015-4.076,3.808-4.982,4.856-.746.862-.431,3.356.755,4.475.959.906,3.375,1.1,4.36-.027a19.191,19.191,0,0,1,4.644-3.845c1.375-.711.49-3.906,1.119-6.464a11.12,11.12,0,0,1,3.529-5.408C2476.18,404.792,2476.753,403.926,2475.408,403.593Z" transform="translate(-1187.622 -9.918)" fill="#fec1b5"/>
    <path id="Контур_4718" data-name="Контур 4718" d="M2491.656,600.226a26.223,26.223,0,0,1-6.794,4.8c-4.634,2.237-16.666,1.944-24.347,1.944-3.6,0-6.711.048-9.492-1.641-2.211-1.343-3.738-3.989-4.511-3.545-.4.232-.428,2.131.256,3.84a10.055,10.055,0,0,0,3.4,4.3c1.417,1.042,2.826,1.9,3.135,2.914.168.549.67,1.076,1.86,1.076,1.931,0,9.416.193,13.1.193h14.068a11.4,11.4,0,0,0,8.382-3.978,18.216,18.216,0,0,0,3.729-9.288C2494.7,597.838,2493,598.932,2491.656,600.226Z" transform="translate(-1179.627 -122.599)" fill="#34ad8c"/>
    <path id="Контур_4719" data-name="Контур 4719" d="M2614.859,568.444c-7.672-11.721-23.942-35.883-31.774-44.256-2.689-2.875-4.635-5.31-8.209-6.86-2.973-1.29-7.023,2.152-8.5,4.347-2.22,3.315-1.994,5.873-1.1,9.723.949,4.094,4.95,8.764,8.17,12.077,4.8,4.942,22.921,22.443,26.354,26.39,2.423,2.785,1.519,5.413-1.794,8.085-7.792,6.285-20.076,14.847-29.247,21.616-2.72,2.007-3.529,3.332-3.454,5.657.107,3.339,4.252,3.515,6.989,1.959,8.864-5.038,37.17-22.512,41-25.454C2617.586,578.438,2618.317,573.728,2614.859,568.444Z" transform="translate(-1247.57 -75.623)" fill="#36d1cb"/>
    <path id="Контур_4720" data-name="Контур 4720" d="M2524.65,460.684c-.252-2.4-1.157-2.386-1.442-1.244a16.22,16.22,0,0,1-1.869,4.29c-.838,1.26-2.212,2.91-3.726,3.3-1.953.5-4.011-.527-4.551,0-.758.733.267,2.544,1.315,3.348a6.522,6.522,0,0,0,6.145.409C2523.954,468.795,2525.046,464.434,2524.65,460.684Z" transform="translate(-1217.825 -42.142)" fill="#e8988c"/>
    <path id="Контур_4721" data-name="Контур 4721" d="M2519.248,437c-1.446-4.023-4.508-7.217-6.628-10.814-2.473-4.185-2.327-9.694-3.687-14.369a22.814,22.814,0,0,0-5.474-9.43c-2.8-2.938-6.7-5.426-13.843-5.417-6.31.009-11.187,4.009-12.936,10.425-1.359,4.981.764,9.963.906,15.717.157,6.364-4.25,12.406-5.383,17.475-1.6,7.139,1.569,10.311,3.6,11.783a3.267,3.267,0,0,0,2.114.479c3.268-.661,9.013-2.175,11.624-3.045a2.751,2.751,0,0,0,1.865-2.1c.313-4.209-.13-12.124-.245-14.46-.072-1.467-.013-1.55-1.026-1.9a8.183,8.183,0,0,1-2.417-1.392c-3.081-2.569-3.682-6.615-5.157-9.042-3.713-6.109-3.09-11.615-1.274-14.222,4.993,5.271,12.5,7.193,17.794,7.553.619.042.966.341,1.221,1.146.861,2.717.568,9.59-1.083,14.545-1.367,4.1-2.557,10.052-1.705,14.6a10.078,10.078,0,0,0,9.509,8.351c5.018.351,11.8-3.939,12.883-5.057C2521.192,445.327,2520.562,440.656,2519.248,437Z" transform="translate(-1194.281 -6.725)" fill="#1e2859"/>
    <path id="Контур_4722" data-name="Контур 4722" d="M2538.5,438.8c-.051,1.685-.2,3.116-1.456,3.3s-2.449-1.277-2.7-2.944c-.315-2.1.616-2.956,1.817-3.358C2537.786,435.265,2538.554,437.086,2538.5,438.8Z" transform="translate(-1230.154 -28.954)" fill="#fec1b5"/>
    <path id="Контур_4723" data-name="Контур 4723" d="M2549.524,706.4c-.841-2.14-2.442-3.3-3.707-3.241-.776.038-1.783,1.05-2.84,1.208-3.33.5-4.311-1.994-6.452-3.9-1.949-1.736-4.729.176-5.945.921a5.389,5.389,0,0,1-1.557.592c-2.252.433-8.011,1.852-8.358,2.662-.337.787.782,2.456,1.8,3.406.573.533,3.438.52,4.757.51a39.269,39.269,0,0,1,5.5,0,8.8,8.8,0,0,1,4.5,1.987c2.455,2.016,4.2,2.766,6.87,2.687,1.22-.036,2.669-1,3.718-1.609A4.184,4.184,0,0,0,2549.524,706.4Z" transform="translate(-1222.302 -180.462)" fill="#fec1b5"/>
    <g id="Сгруппировать_1740" data-name="Сгруппировать 1740" transform="translate(1229.844 665.029)">
      <g id="Сгруппировать_1731" data-name="Сгруппировать 1731">
        <rect id="Прямоугольник_1771" data-name="Прямоугольник 1771" width="105.703" height="67.272" transform="translate(23.726)" fill="#e3a86d"/>
        <rect id="Прямоугольник_1772" data-name="Прямоугольник 1772" width="27.989" height="67.272" transform="translate(157.418 67.272) rotate(180)" fill="#c28655"/>
        <path id="Контур_4724" data-name="Контур 4724" d="M2465.693,1065.4h-105.7l23.727-23.726h105.7Z" transform="translate(-2359.99 -1041.67)" fill="#f0c397"/>
        <path id="Контур_4725" data-name="Контур 4725" d="M2685.607,1065.4H2713.6l-21.95-23.726h-27.989Z" transform="translate(-2534.227 -1041.67)" fill="#e6b78a"/>
      </g>
      <g id="Сгруппировать_1739" data-name="Сгруппировать 1739" transform="translate(88.036 43.163)">
        <g id="Сгруппировать_1735" data-name="Сгруппировать 1735">
          <rect id="Прямоугольник_1774" data-name="Прямоугольник 1774" width="28.841" height="1.279" fill="#fff"/>
        </g>
        <g id="Сгруппировать_1736" data-name="Сгруппировать 1736" transform="translate(0 3.956)">
          <rect id="Прямоугольник_1775" data-name="Прямоугольник 1775" width="28.841" height="1.279" fill="#fff"/>
        </g>
        <g id="Сгруппировать_1737" data-name="Сгруппировать 1737" transform="translate(0 7.911)">
          <rect id="Прямоугольник_1776" data-name="Прямоугольник 1776" width="28.841" height="1.279" fill="#fff"/>
        </g>
        <g id="Сгруппировать_1738" data-name="Сгруппировать 1738" transform="translate(0 11.866)">
          <rect id="Прямоугольник_1777" data-name="Прямоугольник 1777" width="18.539" height="1.279" fill="#fff"/>
        </g>
      </g>
    </g>
  </g>
</svg>
