<svg xmlns="http://www.w3.org/2000/svg" xmlns:xlink="http://www.w3.org/1999/xlink" width="1498" height="589" viewBox="0 0 1498 589">
  <defs>
    <clipPath id="clip-path">
      <rect id="Прямоугольник_235" data-name="Прямоугольник 235" width="1498" height="589" transform="translate(-9 5546)" fill="#014c81"/>
    </clipPath>
  </defs>
  <g id="Группа_масок_23" data-name="Группа масок 23" transform="translate(9 -5546)" clip-path="url(#clip-path)">
    <g id="Сгруппировать_208" data-name="Сгруппировать 208" transform="translate(115.13 5545.813)">
      <g id="leaf_blue_big" transform="translate(5 37)">
        <path id="Контур_1" data-name="Контур 1" d="M569.515,127.9l-76.8,56.421c-8.535,6.036-16.221,1.081-22.036-7.794l-21.267-30.4-35.6,129.411c-5.917,23.96-20.364,16.455-22.99,3.417l-21.979-84.437L346.4,219.955c-2.808,3.41-8.91,5.351-14.63,1.165l-56.7-46.778-13.713,71.635c-3.19,15.869-3.212,23.122-14.938,21.661l-27.918-.685,64.651,148.91a17.144,17.144,0,0,1-2.479,18.023L255.4,461.546l115.106,43.46c3.358,1.689,4.612,4.75,2.661,8.73l-64.8,117.058,30.008,15.587,51.4-124.022c1.9-4,5.016-4.8,8.331-3.022,35.4,24.005,67.138,45.538,102.536,69.535l6.168-37.568a16.364,16.364,0,0,1,12.415-12.878l153.577-35.589L655.543,480.05c-8.155-8.86-2.582-13.221,7.737-25.391l47.014-54.343-70.064-19.051a11.311,11.311,0,0,1-7.883-12.856l6.153-33.884L560.224,366.9c-11.63,5.639-26.078-1.857-11.154-21.128L627.5,238.6l-36.19.563c-10.326.487-18.752-2.922-19.228-13.631Z" transform="translate(-218.5 -127.9)" fill="#003e6a"/>
      </g>
    </g>
  </g>
</svg>
