<svg xmlns="http://www.w3.org/2000/svg" width="681.741" height="692.514" viewBox="0 0 681.741 692.514">
  <g id="leaf_gray" transform="translate(0)">
    <path id="Контур_291" data-name="Контур 291" d="M705.088,127.9,598.63,203.259c-11.832,8.062-22.486,1.444-30.547-10.41l-29.481-40.6L489.246,325.1c-8.2,32-28.23,21.979-31.869,4.564l-30.468-112.78L395.8,250.855c-3.893,4.554-12.352,7.147-20.28,1.556l-78.6-62.479-19.01,95.68c-4.422,21.2-4.453,30.883-20.708,28.932l-38.7-.915,89.621,198.894a22.234,22.234,0,0,1-3.436,24.073l-35.032,36.943,159.563,58.047c4.655,2.256,6.394,6.344,3.689,11.66L343.083,799.6l41.6,20.819,71.252-165.651c2.633-5.347,6.953-6.416,11.549-4.037,49.07,32.063,93.069,60.823,142.138,92.875l8.55-50.179a22.252,22.252,0,0,1,17.21-17.2l212.893-47.535-23.93-30.436c-11.3-11.834-3.579-17.659,10.726-33.914l65.173-72.583-97.125-25.446c-9.231-2.989-12.23-11.3-10.928-17.171l8.529-45.257-108.51,43.245c-16.122,7.532-36.15-2.481-15.462-28.22L785.468,275.751,735.3,276.5c-14.314.651-25.994-3.9-26.654-18.207Z" transform="translate(-218.5 -127.9)" fill="#ddd"/>
  </g>
</svg>
