<svg id="leaf_blue" xmlns="http://www.w3.org/2000/svg" width="43.453" height="44.14" viewBox="0 0 43.453 44.14">
  <g id="Сгруппировать_1" data-name="Сгруппировать 1" transform="translate(0)">
    <path id="Контур_1" data-name="Контур 1" d="M249.514,127.9l-6.785,4.8c-.754.514-1.433.092-1.947-.663l-1.879-2.588-3.146,11.017c-.523,2.04-1.8,1.4-2.031.291l-1.942-7.188-1.983,2.165a.959.959,0,0,1-1.293.1l-5.01-3.982-1.212,6.1c-.282,1.351-.284,1.968-1.32,1.844l-2.467-.058,5.712,12.677a1.417,1.417,0,0,1-.219,1.534L221.76,156.3l10.17,3.7a.5.5,0,0,1,.235.743l-5.725,9.965,2.651,1.327,4.541-10.558a.5.5,0,0,1,.736-.257l9.06,5.92.545-3.2a1.418,1.418,0,0,1,1.1-1.1l13.569-3.03-1.525-1.94c-.72-.754-.228-1.126.684-2.162l4.154-4.626-6.19-1.622a.96.96,0,0,1-.7-1.094l.544-2.885-6.916,2.756c-1.028.48-2.3-.158-.986-1.8l6.93-9.124-3.2.048c-.912.041-1.657-.249-1.7-1.16Z" transform="translate(-218.5 -127.9)" fill="#0767b9"/>
  </g>
</svg>
