<svg xmlns="http://www.w3.org/2000/svg" width="94.844" height="96.343" viewBox="0 0 94.844 96.343">
  <g id="leaf_dark" transform="translate(0 0)">
    <g id="Сгруппировать_1" data-name="Сгруппировать 1" transform="translate(0)">
      <path id="Контур_1" data-name="Контур 1" d="M286.194,127.9l-14.81,10.484c-1.646,1.122-3.128.2-4.25-1.448l-4.1-5.649-6.866,24.047c-1.141,4.452-3.927,3.058-4.434.635l-4.239-15.69-4.328,4.726a2.093,2.093,0,0,1-2.821.216L229.41,136.53l-2.645,13.311c-.615,2.949-.62,4.3-2.881,4.025l-5.384-.127,12.468,27.67a3.093,3.093,0,0,1-.478,3.349l-4.874,5.139,22.2,8.076a1.08,1.08,0,0,1,.513,1.622l-12.5,21.751,5.787,2.9,9.913-23.045a1.08,1.08,0,0,1,1.607-.562c6.827,4.461,12.948,8.462,19.774,12.921l1.189-6.981a3.1,3.1,0,0,1,2.394-2.393l29.618-6.613-3.329-4.234c-1.573-1.646-.5-2.457,1.492-4.718l9.067-10.1-13.512-3.54a2.1,2.1,0,0,1-1.52-2.389l1.187-6.3-15.1,6.016c-2.243,1.048-5.029-.345-2.151-3.926l15.126-19.916-6.979.1c-1.991.091-3.616-.543-3.708-2.533Z" transform="translate(-218.5 -127.9)" fill="#0767b9"/>
    </g>
  </g>
</svg>
