<svg xmlns="http://www.w3.org/2000/svg" width="303.345" height="46.903" viewBox="0 0 303.345 46.903">
  <g id="Сгруппировать_1408" data-name="Сгруппировать 1408" transform="translate(-57.762 -92.263)">
    <path id="Контур_5095" data-name="Контур 5095" d="M29.673-36.7a4.017,4.017,0,0,1-1.087,1.1,2.4,2.4,0,0,1-1.307.347,2.636,2.636,0,0,1-1.449-.472q-.724-.472-1.622-1.04a13.03,13.03,0,0,0-2.063-1.04,7.268,7.268,0,0,0-2.74-.472,7.175,7.175,0,0,0-2.536.41,5.024,5.024,0,0,0-1.811,1.134,4.675,4.675,0,0,0-1.087,1.7,6.114,6.114,0,0,0-.362,2.142,3.186,3.186,0,0,0,.709,2.111,6.443,6.443,0,0,0,1.89,1.5A19.084,19.084,0,0,0,18.869-28.1q1.48.536,3.04,1.166a28.937,28.937,0,0,1,3.056,1.449,11.06,11.06,0,0,1,2.678,2.048,9.3,9.3,0,0,1,1.89,2.961,10.967,10.967,0,0,1,.709,4.158,17.715,17.715,0,0,1-1.2,6.52A15.758,15.758,0,0,1,25.61-4.457,16.322,16.322,0,0,1,20.176-.835,18.476,18.476,0,0,1,12.978.5,18.46,18.46,0,0,1,8.993.063,20.8,20.8,0,0,1,5.15-1.181,19.59,19.59,0,0,1,1.733-3.087,13.127,13.127,0,0,1-.945-5.544l3.654-4.788a3.18,3.18,0,0,1,1.071-.882A2.829,2.829,0,0,1,5.1-11.561a2.866,2.866,0,0,1,1.717.614L8.663-9.592a13.386,13.386,0,0,0,2.347,1.354,7.873,7.873,0,0,0,3.292.614,5.986,5.986,0,0,0,4.426-1.559A6.26,6.26,0,0,0,20.286-13.8a3.691,3.691,0,0,0-.709-2.331,5.9,5.9,0,0,0-1.859-1.544,15.721,15.721,0,0,0-2.63-1.118q-1.481-.488-3.024-1.055A25.733,25.733,0,0,1,9.04-21.184,9.6,9.6,0,0,1,6.41-23.2a9.6,9.6,0,0,1-1.859-3.056,12.284,12.284,0,0,1-.709-4.457,15.412,15.412,0,0,1,1.15-5.875A15.253,15.253,0,0,1,8.285-41.58a15.874,15.874,0,0,1,5.2-3.465,17.48,17.48,0,0,1,6.867-1.292,17.446,17.446,0,0,1,3.8.41,17.712,17.712,0,0,1,3.449,1.134,15.442,15.442,0,0,1,2.929,1.717,11.849,11.849,0,0,1,2.237,2.158Zm39.816-9.2-1.071,8.127H56.763L52.1,0H41.9l4.6-37.769H34.776L35.784-45.9Zm41.139,20a28.743,28.743,0,0,1-.866,7.119,27.349,27.349,0,0,1-2.457,6.332,25.47,25.47,0,0,1-3.843,5.323A23.616,23.616,0,0,1,98.406-3.04a24.959,24.959,0,0,1-6.08,2.615,25.163,25.163,0,0,1-6.9.929,19.978,19.978,0,0,1-8.143-1.591,18.059,18.059,0,0,1-6.127-4.347A19,19,0,0,1,67.3-11.923a23.667,23.667,0,0,1-1.339-8.048,28.932,28.932,0,0,1,.866-7.135,27.29,27.29,0,0,1,2.457-6.347,25.165,25.165,0,0,1,3.859-5.323,23.966,23.966,0,0,1,5.071-4.079,24.959,24.959,0,0,1,6.08-2.614,25.281,25.281,0,0,1,6.93-.929,19.9,19.9,0,0,1,8.111,1.591,17.793,17.793,0,0,1,6.111,4.363,19.279,19.279,0,0,1,3.843,6.521A23.707,23.707,0,0,1,110.628-25.893Zm-10.521.252a18.313,18.313,0,0,0-.677-5.15,11.551,11.551,0,0,0-1.984-3.969,8.885,8.885,0,0,0-3.2-2.552,9.865,9.865,0,0,0-4.284-.9A11.94,11.94,0,0,0,84.326-36.9a12.409,12.409,0,0,0-4.237,3.67,17.283,17.283,0,0,0-2.677,5.686,27.273,27.273,0,0,0-.929,7.355,18.552,18.552,0,0,0,.661,5.135,11.509,11.509,0,0,0,1.937,3.938,8.673,8.673,0,0,0,3.166,2.536,9.942,9.942,0,0,0,4.315.9,12.154,12.154,0,0,0,5.654-1.292,12.206,12.206,0,0,0,4.252-3.654,17.532,17.532,0,0,0,2.693-5.67A26.675,26.675,0,0,0,100.107-25.641Zm24.1,8.5L122.094,0H111.888L117.5-45.9h13.923a25.159,25.159,0,0,1,7.2.9,13.682,13.682,0,0,1,4.867,2.473,9.347,9.347,0,0,1,2.756,3.733,12.44,12.44,0,0,1,.866,4.678,16.761,16.761,0,0,1-.677,4.819,15.084,15.084,0,0,1-1.969,4.174,14.8,14.8,0,0,1-3.166,3.37,17.045,17.045,0,0,1-4.268,2.41,9.971,9.971,0,0,1,1.78,1.292,5.209,5.209,0,0,1,1.307,1.89L146.79,0h-9.261a4.322,4.322,0,0,1-2.173-.5,2.688,2.688,0,0,1-1.229-1.449L129.15-15.53a2.455,2.455,0,0,0-.929-1.244,3.29,3.29,0,0,0-1.717-.362Zm2.615-21.105-1.732,14.018h3.748a9.307,9.307,0,0,0,3.749-.677,6.793,6.793,0,0,0,2.5-1.811,6.946,6.946,0,0,0,1.386-2.646,11.7,11.7,0,0,0,.425-3.181,6.92,6.92,0,0,0-.378-2.347,4.437,4.437,0,0,0-1.181-1.8,5.546,5.546,0,0,0-2.016-1.15,8.927,8.927,0,0,0-2.851-.41Zm26.4-7.654h8.064a3.409,3.409,0,0,1,2.126.614,2.445,2.445,0,0,1,.961,1.622l3.213,24.728q.126.882.189,1.811t.126,1.685q.063.914.063,1.764.473-1.48.992-2.788t.961-2.473L179.3-43.659a3.613,3.613,0,0,1,1.323-1.544,3.818,3.818,0,0,1,2.268-.693h2.394a3.549,3.549,0,0,1,2.158.614,2.406,2.406,0,0,1,.992,1.622l3.528,24.728q.157,1.1.331,2.41t.3,2.725q.409-1.417.819-2.709t.819-2.425L203.3-43.659a3.214,3.214,0,0,1,1.339-1.559,4.1,4.1,0,0,1,2.315-.677h8.127L196.371,0h-9.324l-4.221-28.98q-.095-.693-.22-1.528t-.221-1.748q-.347.913-.677,1.748t-.583,1.528L169.911,0H160.65Zm91.728,7.906H227.965L226.579-26.9h13.01l-1.008,7.623H225.634L224.248-7.907h17.1L240.345,0h-27.4l5.67-45.9h27.342Zm11.907,29.8h15.435L271.278,0h-25.7l5.67-45.9h10.269Zm30.114,0H302.4L301.392,0h-25.7l5.67-45.9h10.269Z" transform="translate(58.707 138.663)" fill="#fff"/>
    <ellipse id="Эллипс_1" data-name="Эллипс 1" cx="14.772" cy="18.436" rx="14.772" ry="18.436" transform="translate(133.484 98.144)" fill="#fff"/>
    <g id="Сгруппировать_2" data-name="Сгруппировать 2" transform="translate(133.011 100.478)">
      <g id="Сгруппировать_1" data-name="Сгруппировать 1">
        <path id="Контур_1" data-name="Контур 1" d="M241.126,127.9l-4.95,3.5c-.55.375-1.046.067-1.421-.484l-1.371-1.888-2.3,8.038c-.381,1.488-1.313,1.022-1.482.212l-1.417-5.244-1.447,1.58a.7.7,0,0,1-.943.072l-3.655-2.905-.884,4.449c-.206.986-.207,1.436-.963,1.345l-1.8-.043,4.167,9.249a1.034,1.034,0,0,1-.16,1.119l-1.629,1.718,7.42,2.7a.361.361,0,0,1,.172.542l-4.177,7.27,1.934.968,3.313-7.7a.361.361,0,0,1,.537-.188l6.609,4.319.4-2.333a1.035,1.035,0,0,1,.8-.8l9.9-2.21-1.113-1.415c-.526-.55-.166-.821.5-1.577l3.031-3.375-4.516-1.183a.7.7,0,0,1-.508-.8l.4-2.1-5.046,2.011c-.75.35-1.681-.115-.719-1.312l5.056-6.657-2.333.035c-.666.03-1.209-.182-1.239-.847Z" transform="translate(-218.5 -127.9)" fill="#147dd9"/>
      </g>
    </g>
  </g>
</svg>
