<svg id="feature_24_access" xmlns="http://www.w3.org/2000/svg" width="35.056" height="35.802" viewBox="0 0 35.056 35.802">
  <g id="Сгруппировать_6" data-name="Сгруппировать 6" transform="translate(0 0)">
    <path id="Контур_30" data-name="Контур 30" d="M39.559,45.583V29.026a.344.344,0,0,0-.344-.345,8.624,8.624,0,1,0,0,17.247A.345.345,0,0,0,39.559,45.583Z" transform="translate(-20.85 -19.334)"/>
    <path id="Контур_31" data-name="Контур 31" d="M63.374,37.11a8.736,8.736,0,0,0-7.2-8.22.345.345,0,0,0-.25.627A9.557,9.557,0,0,1,59.742,37.1c.141,3.529-1.353,6.782-3.806,8.289a.346.346,0,0,0,.181.64.291.291,0,0,0,.059-.006A8.715,8.715,0,0,0,63.374,37.11Z" transform="translate(-35.928 -19.455)"/>
    <path id="Контур_32" data-name="Контур 32" d="M50.726,12.75a.918.918,0,0,0,.917-.918V6.3a.918.918,0,1,0-1.836,0v5.531A.919.919,0,0,0,50.726,12.75Z" transform="translate(-32.357 -5.383)"/>
    <path id="Контур_33" data-name="Контур 33" d="M24.059,23.374a.918.918,0,0,0,1.3-1.3l-3.831-3.83a.941.941,0,0,0-1.3,0,.919.919,0,0,0,0,1.3Z" transform="translate(-14.484 -12.929)"/>
    <path id="Контур_34" data-name="Контур 34" d="M50.732,76.254a.919.919,0,0,0-.918.918V82.7a.918.918,0,1,0,1.836,0V77.172A.919.919,0,0,0,50.732,76.254Z" transform="translate(-32.36 -47.82)"/>
    <path id="Контур_35" data-name="Контур 35" d="M24.71,67.912a.909.909,0,0,0-.649.27l-3.833,3.83a.919.919,0,0,0,0,1.3.94.94,0,0,0,1.3,0l3.833-3.83a.919.919,0,0,0-.649-1.569Z" transform="translate(-14.484 -42.825)"/>
    <path id="Контур_36" data-name="Контур 36" d="M14.107,48.73a.919.919,0,0,0-.918-.918H7.23a.919.919,0,0,0,0,1.837h5.959A.919.919,0,0,0,14.107,48.73Z" transform="translate(-6.312 -30.789)"/>
    <path id="Контур_37" data-name="Контур 37" d="M74.374,20.466c-1.13-.3-1.338-.563-1.593-1.976a.242.242,0,0,0-.238-.2h0a.241.241,0,0,0-.238.2c-.257,1.413-.465,1.671-1.6,1.976a.242.242,0,0,0,0,.467c1.132.307,1.34.565,1.595,1.976a.242.242,0,0,0,.239.2h0a.242.242,0,0,0,.238-.2c.253-1.41.461-1.669,1.593-1.976a.242.242,0,0,0,0-.467Z" transform="translate(-44.766 -13.112)"/>
    <path id="Контур_38" data-name="Контур 38" d="M74.374,72.956c-1.129-.306-1.338-.564-1.593-1.976a.242.242,0,0,0-.238-.2h0a.241.241,0,0,0-.238.2c-.257,1.412-.465,1.671-1.6,1.976a.242.242,0,0,0,0,.467c1.131.306,1.34.564,1.594,1.976a.242.242,0,0,0,.239.2h0a.242.242,0,0,0,.238-.2c.253-1.41.461-1.668,1.593-1.976a.243.243,0,0,0,.179-.234A.24.24,0,0,0,74.374,72.956Z" transform="translate(-44.766 -44.543)"/>
    <path id="Контур_39" data-name="Контур 39" d="M85.756,44.791c-1.521-.454-1.817-.839-2.113-2.752a.242.242,0,0,0-.233-.205.24.24,0,0,0-.243.193c-.394,1.9-.71,2.266-2.252,2.641a.242.242,0,0,0-.012.467c1.524.454,1.82.839,2.115,2.753a.243.243,0,0,0,.234.205h.006a.243.243,0,0,0,.237-.193c.39-1.893.705-2.263,2.25-2.641a.242.242,0,0,0,.012-.467Z" transform="translate(-50.872 -27.209)"/>
  </g>
</svg>
