<svg xmlns="http://www.w3.org/2000/svg" width="31.776" height="21.877" viewBox="0 0 31.776 21.877">
  <g id="feature_drive" transform="translate(109.366 -27.772) rotate(90)">
    <g id="Сгруппировать_32" data-name="Сгруппировать 32" transform="translate(27.772 77.59)">
      <path id="Контур_117" data-name="Контур 117" d="M186.2,77.59h3.777a.911.911,0,0,1,.91.91v29.955a.911.911,0,0,1-.91.91H186.2a.91.91,0,0,1-.91-.91V78.5A.911.911,0,0,1,186.2,77.59Zm9.118,27.178a.91.91,0,0,1,1.82,0v3.688a.91.91,0,0,1-1.82,0Zm0-26.268a.91.91,0,0,1,1.82,0v3.688a.91.91,0,0,1-1.82,0Zm0,8.756a.91.91,0,0,1,1.82,0v3.688a.91.91,0,0,1-1.82,0Zm0,8.756a.91.91,0,0,1,1.82,0V99.7a.91.91,0,0,1-1.82,0Zm-6.252-16.6H187.11v28.135h1.956ZM202.48,77.59h3.777a.911.911,0,0,1,.91.91v29.955a.911.911,0,0,1-.91.91H202.48a.911.911,0,0,1-.91-.91V78.5A.911.911,0,0,1,202.48,77.59Zm2.867,1.821H203.39v28.135h1.957Z" transform="translate(-185.29 -77.59)"/>
    </g>
  </g>
</svg>
