<svg xmlns="http://www.w3.org/2000/svg" width="34.325" height="34.335" viewBox="0 0 34.325 34.335">
  <g id="feature_manager" transform="translate(-297.837 -95.783)">
    <g id="Сгруппировать_37" data-name="Сгруппировать 37" transform="translate(229.337 27.383)">
      <path id="Контур_129" data-name="Контур 129" d="M170.859,88.052c3.8,0,6.874-3.835,6.874-8.558,0-.128-.027-.247-.027-.375a5.132,5.132,0,0,0-3.4-9c-.2,0-.384.037-.577.055A6.836,6.836,0,0,0,164,79.75C164.122,84.364,167.133,88.052,170.859,88.052Zm-5.135-11.012,6.883-1.721,3.423,1.721.009,2.462c0,3.78-2.307,6.847-5.163,6.847s-5.163-3.066-5.163-6.847V77.041Z" transform="translate(-85.214)"/>
      <path id="Контур_130" data-name="Контур 130" d="M100.336,290.731a6.759,6.759,0,0,0-4.192-4.531L92.7,284.9a9.271,9.271,0,0,1-14.115.018L75.182,286.2a6.821,6.821,0,0,0-4.192,4.531l-2.49,8.687h34.325Zm-4.375,5.263H90.807v-1.721H95.96Z" transform="translate(0 -196.683)"/>
    </g>
  </g>
</svg>
