<svg id="feature_ceilings" xmlns="http://www.w3.org/2000/svg" width="33.504" height="37.227" viewBox="0 0 33.504 37.227">
  <g id="Сгруппировать_41" data-name="Сгруппировать 41" transform="translate(0 0)">
    <g id="Сгруппировать_40" data-name="Сгруппировать 40">
      <path id="Контур_139" data-name="Контур 139" d="M.021,28.653a.608.608,0,0,0,.023.1c.005.014.01.027.016.041s0,.013.005.019a.585.585,0,0,0,.044.057.6.6,0,0,0,.059.084l.033.033a.594.594,0,0,0,.087.06.583.583,0,0,0,.054.043l16.132,8.066a.621.621,0,0,0,.555,0L33.161,29.1c.006,0,.009-.009.015-.012a.613.613,0,0,0,.123-.089c.009-.008.019-.014.027-.022l.02-.022c.01-.012.017-.025.026-.037a.6.6,0,0,0,.066-.1c0-.006,0-.013.005-.019s.011-.027.016-.041a.608.608,0,0,0,.023-.1.615.615,0,0,0,.017-.094c0-.007,0-.012,0-.019V8.686c0-.007,0-.012,0-.019a.615.615,0,0,0-.017-.094.608.608,0,0,0-.023-.1c-.005-.014-.01-.027-.016-.041s0-.013-.005-.019a.586.586,0,0,0-.044-.056.6.6,0,0,0-.059-.085L33.3,8.234a.6.6,0,0,0-.085-.059.584.584,0,0,0-.056-.044L17.029.065a.621.621,0,0,0-.555,0L.343,8.131a.585.585,0,0,0-.056.043.6.6,0,0,0-.086.06l-.033.033a.6.6,0,0,0-.059.084.585.585,0,0,0-.044.057c0,.006,0,.013-.005.019s-.011.027-.016.041a.608.608,0,0,0-.023.1A.615.615,0,0,0,0,8.668c0,.007,0,.012,0,.019V28.54c0,.007,0,.012,0,.019A.615.615,0,0,0,.021,28.653ZM6.515,6.433,10.4,8.376,5.894,10.629,2.008,8.686ZM11.788,3.8l3.886,1.943L11.788,7.682,7.9,5.739Zm14.124,2.1L22.336,7.682,18.45,5.739l3.576-1.788ZM31.5,8.686,27.92,10.474l-4.2-2.1L27.3,6.588Zm.767,2.719L17.372,18.85V17.136L32.263,9.69Zm-9.617,1.706-4.2-2.1L22.336,9.07l4.2,2.1Zm-1.388.694-4.507,2.253-4.2-2.1,4.507-2.253Zm-10.091-.539L7.282,11.323,11.788,9.07l3.886,1.943Zm4.964,3.869V18.85L1.241,11.4V9.69ZM1.241,12.792l14.744,7.372L1.241,27.536Zm31.022,0V27.536L17.519,20.164ZM20.948,8.376l-3.886,1.943L13.176,8.376l3.886-1.943Zm-4.2,27.536L2.008,28.54l14.744-7.372L31.5,28.54Zm0-34.6,3.886,1.943L17.062,5.045,13.176,3.1Z" transform="translate(0 0)"/>
    </g>
  </g>
</svg>
