<svg xmlns="http://www.w3.org/2000/svg" width="44.001" height="12.71" viewBox="0 0 44.001 12.71">
  <g id="feature_passcode" transform="translate(15.899 -18.519)">
    <path id="Контур_126" data-name="Контур 126" d="M-4.325,23.738H-6.8l1.75-1.75a1.136,1.136,0,0,0,0-1.607,1.137,1.137,0,0,0-1.607,0l-1.75,1.75V19.656A1.136,1.136,0,0,0-9.544,18.52a1.136,1.136,0,0,0-1.136,1.136v2.476l-1.751-1.751a1.137,1.137,0,0,0-1.607,0,1.137,1.137,0,0,0,0,1.607l1.751,1.75h-2.474A1.136,1.136,0,0,0-15.9,24.875a1.136,1.136,0,0,0,1.136,1.136h2.474l-1.75,1.75a1.136,1.136,0,0,0,0,1.607,1.133,1.133,0,0,0,.8.333,1.134,1.134,0,0,0,.8-.333l1.751-1.751v2.476A1.136,1.136,0,0,0-9.544,31.23a1.136,1.136,0,0,0,1.136-1.136V27.618l1.75,1.75a1.133,1.133,0,0,0,.8.333,1.133,1.133,0,0,0,.8-.333,1.136,1.136,0,0,0,0-1.607L-6.8,26.011h2.476a1.136,1.136,0,0,0,1.136-1.136A1.137,1.137,0,0,0-4.325,23.738Z" transform="translate(0 -0.001)"/>
    <path id="Контур_127" data-name="Контур 127" d="M30.092,23.738H27.618l1.75-1.75a1.136,1.136,0,0,0-1.607-1.607L26.01,22.132V19.655a1.136,1.136,0,1,0-2.273,0v2.475l-1.75-1.75a1.137,1.137,0,1,0-1.607,1.607l1.751,1.75H19.654a1.136,1.136,0,1,0,0,2.273H22.13l-1.75,1.75a1.136,1.136,0,0,0,1.607,1.607l1.75-1.75v2.475a1.136,1.136,0,1,0,2.273,0V27.616l1.752,1.751a1.136,1.136,0,1,0,1.607-1.607l-1.752-1.75h2.474a1.136,1.136,0,0,0,0-2.273Z" transform="translate(-18.772)"/>
    <path id="Контур_128" data-name="Контур 128" d="M64.51,23.738H62.035l1.751-1.75a1.136,1.136,0,0,0-1.607-1.607l-1.751,1.751V19.656a1.136,1.136,0,0,0-2.273,0v2.476L56.4,20.381A1.136,1.136,0,1,0,54.8,21.989l1.751,1.75H54.072a1.136,1.136,0,0,0,0,2.273h2.475L54.8,27.761A1.136,1.136,0,0,0,56.4,29.368l1.751-1.751v2.476a1.136,1.136,0,0,0,2.273,0V27.618l1.751,1.751a1.136,1.136,0,0,0,1.607-1.607l-1.751-1.75H64.51a1.136,1.136,0,0,0,0-2.273Z" transform="translate(-37.545 -0.001)"/>
  </g>
</svg>
