<svg id="feature_alarm" xmlns="http://www.w3.org/2000/svg" width="36.478" height="33.464" viewBox="0 0 36.478 33.464">
  <g id="Сгруппировать_4" data-name="Сгруппировать 4" transform="translate(0 0)">
    <g id="Сгруппировать_3" data-name="Сгруппировать 3">
      <path id="Контур_7" data-name="Контур 7" d="M12.066,16.818A3.558,3.558,0,1,0,8.508,13.26,3.562,3.562,0,0,0,12.066,16.818Zm0-5.854a2.3,2.3,0,1,1-2.3,2.3A2.3,2.3,0,0,1,12.066,10.964Z" transform="translate(0.275 -0.921)"/>
      <path id="Контур_8" data-name="Контур 8" d="M17.066,23.617H8.283a2.095,2.095,0,0,0,0,4.189h8.783a2.095,2.095,0,1,0,0-4.189Zm0,2.928H8.283a.832.832,0,0,1,0-1.665h8.783a.832.832,0,1,1,0,1.665Z" transform="translate(-0.334 2.728)"/>
      <path id="Контур_9" data-name="Контур 9" d="M38.028,15.085a3.558,3.558,0,0,0-7.116,0,3.525,3.525,0,0,0,1.123,2.553,13.876,13.876,0,0,1-7.268,9.824V20.876a12.2,12.2,0,0,0,1.464-5.79,12.341,12.341,0,0,0-24.682,0,12.188,12.188,0,0,0,1.464,5.792V32.563a3.651,3.651,0,0,0,3.647,3.647H21.122a3.651,3.651,0,0,0,3.647-3.647v-.491A18.068,18.068,0,0,0,36.207,18.178,3.551,3.551,0,0,0,38.028,15.085ZM13.891,4.006A11.092,11.092,0,0,1,24.969,15.085a10.922,10.922,0,0,1-1.387,5.347,11.033,11.033,0,0,1-9.691,5.732,11.152,11.152,0,0,1-1.5-.1,11.079,11.079,0,0,1,1.5-22.056Zm9.614,28.555a2.387,2.387,0,0,1-2.384,2.384H6.659a2.387,2.387,0,0,1-2.384-2.384V22.816c.169.212.358.4.54.6.1.112.2.232.307.342a12.311,12.311,0,0,0,1.122,1.011c.062.049.13.088.192.136a12.409,12.409,0,0,0,1.053.721c.145.088.3.164.447.247.294.163.593.317.9.454.173.078.347.148.524.217q.453.178.92.321c.18.056.361.111.545.158.337.086.679.151,1.024.21.163.028.323.063.488.083a11.538,11.538,0,0,0,3.1,0c.165-.021.326-.057.488-.083.345-.058.687-.124,1.022-.21.184-.047.366-.1.548-.159.311-.095.615-.2.915-.319.179-.071.356-.141.53-.22.3-.136.6-.288.887-.448.154-.085.311-.163.461-.254.351-.213.688-.448,1.016-.7.074-.057.155-.1.23-.163a12.109,12.109,0,0,0,1.113-1c.115-.116.216-.244.326-.364.177-.194.361-.381.526-.587v9.746Zm1.262-1.837V28.9a15.168,15.168,0,0,0,8.417-10.5c.018.006.038.008.056.014a3.494,3.494,0,0,0,.723.184c.043.006.086.006.13.01a3.74,3.74,0,0,0,.377.03c.072,0,.139-.018.21-.021.054,0,.11.008.164,0A16.813,16.813,0,0,1,24.767,30.725ZM35.378,17.19a2.233,2.233,0,0,1-1.386.117,2.17,2.17,0,0,1-.89-.389,2.254,2.254,0,0,1-.928-1.834,2.3,2.3,0,1,1,3.2,2.105Z" transform="translate(-1.55 -2.745)"/>
    </g>
  </g>
</svg>
