<svg id="feature_wifi" xmlns="http://www.w3.org/2000/svg" width="33.597" height="22.8" viewBox="0 0 33.597 22.8">
  <path id="Контур_41" data-name="Контур 41" d="M44.048,61.546a3.545,3.545,0,1,0,3.545,3.546A3.549,3.549,0,0,0,44.048,61.546Zm0,5.3A1.756,1.756,0,1,1,45.8,65.092,1.758,1.758,0,0,1,44.048,66.847Z" transform="translate(-27.25 -45.836)"/>
  <path id="Контур_42" data-name="Контур 42" d="M41.344,48.487a8.865,8.865,0,0,0-12.109,3.244.9.9,0,0,0,.326,1.222.92.92,0,0,0,1.223-.327,7.073,7.073,0,0,1,12.254,0,.9.9,0,0,0,.775.446.895.895,0,0,0,.773-1.342A8.9,8.9,0,0,0,41.344,48.487Z" transform="translate(-20.113 -36.908)"/>
  <path id="Контур_43" data-name="Контур 43" d="M36.387,35.264A14.06,14.06,0,0,0,17.179,40.41a.9.9,0,0,0,.327,1.222.92.92,0,0,0,1.222-.327,12.272,12.272,0,0,1,21.257,0,.891.891,0,0,0,1.221.327.894.894,0,0,0,.326-1.222A14.124,14.124,0,0,0,36.387,35.264Z" transform="translate(-12.558 -28.185)"/>
  <path id="Контур_44" data-name="Контур 44" d="M38.476,29.087a19.258,19.258,0,0,0-33.355,0,.894.894,0,1,0,1.548.9,17.469,17.469,0,0,1,30.259,0,.9.9,0,0,0,.775.446.894.894,0,0,0,.773-1.342Z" transform="translate(-5 -19.461)"/>
</svg>
