<svg xmlns="http://www.w3.org/2000/svg" width="41.932" height="29.797" viewBox="0 0 41.932 29.797">
  <g id="feature_truck_rental" transform="translate(-481.081 -486.435)">
    <g id="Сгруппировать_31" data-name="Сгруппировать 31" transform="translate(481.081 486.435)">
      <g id="Сгруппировать_24" data-name="Сгруппировать 24" transform="translate(0 0)">
        <path id="Контур_110" data-name="Контур 110" d="M148.355,252.24H133.288a.888.888,0,0,1-.606-.242,5.232,5.232,0,0,0-7.216,0,.888.888,0,0,1-.606.242h-4.484a.875.875,0,0,1-.876-.876V230.376a.875.875,0,0,1,.876-.876H148.36a.875.875,0,0,1,.876.876v20.988A.89.89,0,0,1,148.355,252.24Zm-14.73-1.746h13.854V231.252H121.246v19.237h3.272a6.983,6.983,0,0,1,9.106.006Z" transform="translate(-119.5 -229.5)"/>
      </g>
      <g id="Сгруппировать_25" data-name="Сгруппировать 25" transform="translate(11.32 25.362)">
        <path id="Контур_111" data-name="Контур 111" d="M345.112,691.652H325.876a.876.876,0,1,1,0-1.752h19.236a.876.876,0,1,1,0,1.752Z" transform="translate(-325 -689.9)"/>
      </g>
      <g id="Сгруппировать_26" data-name="Сгруппировать 26" transform="translate(3.448 20.988)">
        <path id="Контур_112" data-name="Контур 112" d="M185.6,616.626h-2.622a.875.875,0,0,1-.876-.876v-4.374a.876.876,0,1,1,1.752,0v3.5H185.6a.876.876,0,1,1,0,1.752Z" transform="translate(-182.1 -610.5)"/>
      </g>
      <g id="Сгруппировать_27" data-name="Сгруппировать 27" transform="translate(28.095 6.126)">
        <path id="Контур_113" data-name="Контур 113" d="M642.457,361.688h-4.374a.876.876,0,1,1,0-1.752h3.5v-6.39a3.848,3.848,0,0,0-.683-2.187l-5.823-8.384a1.209,1.209,0,0,0-1-.523h-3.7a.876.876,0,1,1,0-1.752h3.7a2.969,2.969,0,0,1,2.446,1.278l5.823,8.384a5.6,5.6,0,0,1,1,3.184v7.266A.883.883,0,0,1,642.457,361.688Z" transform="translate(-629.5 -340.7)"/>
      </g>
      <g id="Сгруппировать_28" data-name="Сгруппировать 28" transform="translate(30.557 22.801)">
        <path id="Контур_114" data-name="Контур 114" d="M677.7,650.4a3.5,3.5,0,1,1,3.5-3.581v.083A3.5,3.5,0,0,1,677.7,650.4Zm0-5.244a1.744,1.744,0,0,0-1.752,1.708,1.761,1.761,0,0,0,1.752,1.79,1.743,1.743,0,0,0,1.746-1.746l.876-.061-.876.022A1.736,1.736,0,0,0,677.7,645.152Z" transform="translate(-674.2 -643.4)"/>
      </g>
      <g id="Сгруппировать_29" data-name="Сгруппировать 29" transform="translate(6.952 23.677)">
        <path id="Контур_115" data-name="Контур 115" d="M250.944,661.922a2.622,2.622,0,1,1-5.244,0v-.061a2.623,2.623,0,0,1,5.244,0Z" transform="translate(-245.7 -659.3)" fill="none"/>
      </g>
      <g id="Сгруппировать_30" data-name="Сгруппировать 30" transform="translate(6.071 22.801)">
        <path id="Контур_116" data-name="Контур 116" d="M233.2,650.4a3.5,3.5,0,1,1,3.5-3.581v.083A3.5,3.5,0,0,1,233.2,650.4Zm0-5.244a1.744,1.744,0,0,0-1.752,1.708,1.761,1.761,0,0,0,1.752,1.79,1.743,1.743,0,0,0,1.746-1.746l.876-.061-.876.022A1.733,1.733,0,0,0,233.2,645.152Z" transform="translate(-229.7 -643.4)"/>
      </g>
    </g>
  </g>
</svg>
