<svg xmlns="http://www.w3.org/2000/svg" width="28.051" height="33.461" viewBox="0 0 28.051 33.461">
  <g id="feature_highways" transform="translate(4.025 4.73)">
    <g id="Сгруппировать_39" data-name="Сгруппировать 39" transform="translate(-3.525 -4.23)">
      <g id="Сгруппировать_38" data-name="Сгруппировать 38">
        <path id="Контур_131" data-name="Контур 131" d="M14.353,12.41A1.352,1.352,0,0,1,13,11.058V8.353a1.353,1.353,0,0,1,2.705,0v2.705a1.352,1.352,0,0,1-1.353,1.353" transform="translate(4.583 2.468)" stroke="#fff" stroke-width="1" fill-rule="evenodd"/>
        <path id="Контур_132" data-name="Контур 132" d="M14.353,18.41A1.352,1.352,0,0,1,13,17.058V14.353a1.353,1.353,0,0,1,2.705,0v2.705a1.352,1.352,0,0,1-1.353,1.353" transform="translate(4.583 4.583)" stroke="#fff" stroke-width="1" fill-rule="evenodd"/>
        <path id="Контур_133" data-name="Контур 133" d="M14.353,24.41A1.352,1.352,0,0,1,13,23.058V20.353a1.353,1.353,0,0,1,2.705,0v2.705a1.352,1.352,0,0,1-1.353,1.353" transform="translate(4.583 6.698)" stroke="#fff" stroke-width="1" fill-rule="evenodd"/>
        <path id="Контур_134" data-name="Контур 134" d="M14.353,6.763A1.352,1.352,0,0,1,13,5.41V1.353a1.353,1.353,0,0,1,2.705,0V5.41a1.352,1.352,0,0,1-1.353,1.353" transform="translate(4.583)" stroke="#fff" stroke-width="1" fill-rule="evenodd"/>
        <path id="Контур_135" data-name="Контур 135" d="M2.705,19.058H5.41V17.705H2.705Zm4.058,2.705H1.353A1.352,1.352,0,0,1,0,20.41V16.353A1.352,1.352,0,0,1,1.353,15h5.41a1.352,1.352,0,0,1,1.353,1.353V20.41a1.352,1.352,0,0,1-1.353,1.353Z" transform="translate(0 5.288)" stroke="#fff" stroke-width="1" fill-rule="evenodd"/>
        <path id="Контур_136" data-name="Контур 136" d="M8.705,9.41H11.41V6.705H8.705Zm4.058,2.705H7.353A1.352,1.352,0,0,1,6,10.763V5.353A1.352,1.352,0,0,1,7.353,4h5.41a1.352,1.352,0,0,1,1.353,1.353v5.41a1.352,1.352,0,0,1-1.353,1.353Z" transform="translate(2.115 1.41)" stroke="#fff" stroke-width="1" fill-rule="evenodd"/>
        <path id="Контур_137" data-name="Контур 137" d="M3.353,20.878A1.352,1.352,0,0,1,2,19.525V12.763A6.77,6.77,0,0,1,8.763,6a1.353,1.353,0,0,1,0,2.705,4.063,4.063,0,0,0-4.058,4.058v6.763a1.352,1.352,0,0,1-1.353,1.353" transform="translate(0.705 2.115)" stroke="#fff" stroke-width="1" fill-rule="evenodd"/>
        <path id="Контур_138" data-name="Контур 138" d="M22.878,32.461H9.353A1.352,1.352,0,0,1,8,31.108V12.173a1.353,1.353,0,0,1,2.705,0V29.756h10.82V2.705H10.705V6.763A1.353,1.353,0,0,1,8,6.763V1.353A1.352,1.352,0,0,1,9.353,0H22.878A1.352,1.352,0,0,1,24.23,1.353V31.108a1.352,1.352,0,0,1-1.353,1.353" transform="translate(2.82)" stroke="#fff" stroke-width="1" fill-rule="evenodd"/>
      </g>
    </g>
  </g>
</svg>
