<svg id="feature_video" xmlns="http://www.w3.org/2000/svg" width="31.367" height="33.084" viewBox="0 0 31.367 33.084">
  <g id="Сгруппировать_5" data-name="Сгруппировать 5" transform="translate(0 0)">
    <path id="Контур_10" data-name="Контур 10" d="M28.155,18.954h-.216L7.175,13.56a.686.686,0,0,1-.485-.378.79.79,0,0,1-.108-.593L9.332,2.073A.8.8,0,0,1,10.3,1.48L35.436,8.005a.693.693,0,0,1,.539.539.918.918,0,0,1-.108.755L28.8,18.63A.94.94,0,0,1,28.155,18.954Zm-19.793-6.8,19.47,5.07,6.094-7.982L10.735,3.206Z" transform="translate(-4.64 -1.456)"/>
    <path id="Контур_11" data-name="Контур 11" d="M27.374,18.8h-.216L9.9,14.319l.431-1.564L27.05,17.07,30.826,12l1.294.971-4.1,5.5A.843.843,0,0,1,27.374,18.8Z" transform="translate(-6.179 -6.313)"/>
    <path id="Контур_12" data-name="Контур 12" d="M51.549,25.64a4.72,4.72,0,0,1-.863-.108,3.505,3.505,0,0,1-1.187-.593l.971-1.294a1.47,1.47,0,0,0,.647.324,1.937,1.937,0,0,0,1.348-.162,1.633,1.633,0,0,0,.809-1.079,1.722,1.722,0,0,0-.647-1.834L53.6,19.6a3.435,3.435,0,0,1,1.24,3.56,3.338,3.338,0,0,1-1.564,2.049A3.892,3.892,0,0,1,51.549,25.64Z" transform="translate(-24.422 -9.815)"/>
    <path id="Контур_13" data-name="Контур 13" d="M24.367,30.684a5.314,5.314,0,0,1-.917-.108A3.713,3.713,0,0,1,20.807,26.1l1.564.431a2.034,2.034,0,1,0,3.937,1.025l1.564.431A3.627,3.627,0,0,1,24.367,30.684Z" transform="translate(-11.153 -12.809)"/>
    <path id="Контур_14" data-name="Контур 14" d="M3.809,48.15a1,1,0,0,1-.378-.108.842.842,0,0,1-.431-.7V43.135a.922.922,0,0,1,.378-.7l9.87-6.526V31h1.618v5.339a.922.922,0,0,1-.378.7l-9.87,6.526v2.319l11.919-7.551V31.809h1.618V38.82a.922.922,0,0,1-.378.7L4.24,47.989A.612.612,0,0,1,3.809,48.15Z" transform="translate(-3 -15.066)"/>
  </g>
</svg>
