<svg id="feature_ventilation" xmlns="http://www.w3.org/2000/svg" width="31.949" height="31.949" viewBox="0 0 31.949 31.949">
  <path id="Контур_40" data-name="Контур 40" d="M28.571,12.6a8.4,8.4,0,0,0-8.342,7.561A6.824,6.824,0,0,1,20.194,6.6v5.928a.781.781,0,0,0,1.562,0V5.781A.788.788,0,0,0,20.975,5a8.38,8.38,0,0,0-.816,16.72A6.824,6.824,0,0,1,6.6,21.756h5.928a.781.781,0,0,0,0-1.562H5.781A.788.788,0,0,0,5,20.975a8.38,8.38,0,0,0,16.72.816,6.824,6.824,0,0,1,.035,13.561V29.423a.781.781,0,0,0-1.562,0v6.745a.788.788,0,0,0,.781.781,8.38,8.38,0,0,0,.816-16.72,6.824,6.824,0,0,1,13.561-.035H29.423a.781.781,0,0,0,0,1.562h6.745a.788.788,0,0,0,.781-.781A8.393,8.393,0,0,0,28.571,12.6Z" transform="translate(-5 -5)"/>
</svg>
