<svg xmlns="http://www.w3.org/2000/svg" width="55.41" height="27" viewBox="0 0 55.41 27">
  <g id="feature_truck" transform="translate(-1 -17.312)">
    <g id="Layer_3" data-name="Layer 3" transform="translate(1 17.5)">
      <g id="Сгруппировать_33" data-name="Сгруппировать 33">
        <path id="Контур_118" data-name="Контур 118" d="M10.469,46.437a4.469,4.469,0,1,1,4.469-4.469A4.469,4.469,0,0,1,10.469,46.437Zm0-7.15a2.681,2.681,0,1,0,2.681,2.681A2.681,2.681,0,0,0,10.469,39.287Z" transform="translate(-1.531 -19.626)"/>
        <path id="Контур_119" data-name="Контур 119" d="M43.469,46.437a4.469,4.469,0,1,1,4.469-4.469A4.469,4.469,0,0,1,43.469,46.437Zm0-7.15a2.681,2.681,0,1,0,2.681,2.681A2.681,2.681,0,0,0,43.469,39.287Z" transform="translate(-5.039 -19.626)"/>
        <path id="Контур_120" data-name="Контур 120" d="M54.469,46.437a4.469,4.469,0,1,1,4.469-4.469A4.469,4.469,0,0,1,54.469,46.437Zm0-7.15a2.681,2.681,0,1,0,2.681,2.681A2.681,2.681,0,0,0,54.469,39.287Z" transform="translate(-6.208 -19.626)"/>
        <rect id="Прямоугольник_103" data-name="Прямоугольник 103" width="2" height="1" transform="translate(42.41 21.811)"/>
        <rect id="Прямоугольник_104" data-name="Прямоугольник 104" width="22" height="1" transform="translate(12.41 21.811)"/>
        <path id="Контур_121" data-name="Контур 121" d="M55.516,40.949H52.835V39.162h1.787V34.693H33.174a.894.894,0,0,1-.894-.894V21.287H24.487l-4.263,2.556a.894.894,0,0,1-.456.125h-3.8l-1.564,5.6a.894.894,0,0,1-.894.652H4.575v7.15a.894.894,0,0,1-.894.894H2.787v.894H6.362v1.787H1.894A.894.894,0,0,1,1,40.055V37.374a.894.894,0,0,1,.894-.894h.894v-7.15a.894.894,0,0,1,.894-.894h9.161l1.564-5.6a.894.894,0,0,1,.894-.652h4.218l4.263-2.556a.894.894,0,0,1,.456-.125h8.937a.894.894,0,0,1,.894.894V32.906H55.516a.894.894,0,0,1,.894.894v6.256A.894.894,0,0,1,55.516,40.949Z" transform="translate(-1 -17.713)"/>
        <rect id="Прямоугольник_105" data-name="Прямоугольник 105" width="2" height="1" transform="translate(42.41 21.811)"/>
        <path id="Контур_122" data-name="Контур 122" d="M29.256,30.756H23.894A.894.894,0,0,1,23,29.862V25.394a.894.894,0,0,1,.894-.894h5.362a.894.894,0,0,1,.894.894v4.469A.894.894,0,0,1,29.256,30.756Zm-4.469-1.787h3.575V26.287H24.787Z" transform="translate(-3.338 -18.244)"/>
        <path id="Контур_123" data-name="Контур 123" d="M19.362,30.543H14.894a.891.891,0,0,1-.858-1.135l1.787-6.256a.894.894,0,0,1,.894-.652H19.4a.894.894,0,0,1,.894.894V29.65a.894.894,0,0,1-.929.894Zm-3.28-1.787h2.386V24.287H17.352Z" transform="translate(-2.382 -18.031)"/>
        <rect id="Прямоугольник_106" data-name="Прямоугольник 106" width="2" height="3" transform="translate(22.41 -0.189)"/>
        <rect id="Прямоугольник_107" data-name="Прямоугольник 107" width="3.575" height="1.787" transform="translate(26.811 14.746)"/>
        <rect id="Прямоугольник_108" data-name="Прямоугольник 108" width="1.787" height="5.809" transform="translate(31.28 16.534)"/>
      </g>
    </g>
  </g>
</svg>
