<svg xmlns="http://www.w3.org/2000/svg" width="39.5" height="39.5" viewBox="0 0 39.5 39.5">
  <g id="feature_fire" transform="translate(0.831 0.896)">
    <circle id="Эллипс_5" data-name="Эллипс 5" cx="19" cy="19" r="19" transform="translate(-0.081 -0.147)" fill="none" stroke="#000" stroke-linecap="round" stroke-linejoin="round" stroke-width="1.5"/>
    <path id="Контур_15" data-name="Контур 15" d="M7.086,20.657A14.95,14.95,0,0,1,20.657,7.086" transform="translate(-2.936 -2.957)" fill="none" stroke="#000" stroke-linecap="round" stroke-linejoin="round" stroke-width="1.5"/>
    <path id="Контур_16" data-name="Контур 16" d="M11.1,22.068A12.352,12.352,0,0,1,22.068,11.1" transform="translate(-4.347 -4.368)" fill="none" stroke="#000" stroke-linecap="round" stroke-linejoin="round" stroke-width="1.5"/>
    <path id="Контур_17" data-name="Контур 17" d="M15.133,23.482a9.754,9.754,0,0,1,8.35-8.349" transform="translate(-5.761 -5.782)" fill="none" stroke="#000" stroke-linecap="round" stroke-linejoin="round" stroke-width="1.5"/>
    <path id="Контур_18" data-name="Контур 18" d="M45.657,20.571A14.95,14.95,0,0,0,32.086,7" transform="translate(-11.713 -2.927)" fill="none" stroke="#000" stroke-linecap="round" stroke-linejoin="round" stroke-width="1.5"/>
    <path id="Контур_19" data-name="Контур 19" d="M43.05,21.982A12.352,12.352,0,0,0,32.086,11.018" transform="translate(-11.714 -4.338)" fill="none" stroke="#000" stroke-linecap="round" stroke-linejoin="round" stroke-width="1.5"/>
    <path id="Контур_20" data-name="Контур 20" d="M40.435,23.4a9.754,9.754,0,0,0-8.35-8.349" transform="translate(-11.713 -5.752)" fill="none" stroke="#000" stroke-linecap="round" stroke-linejoin="round" stroke-width="1.5"/>
    <path id="Контур_21" data-name="Контур 21" d="M7.086,32A14.95,14.95,0,0,0,20.657,45.571" transform="translate(-2.936 -11.704)" fill="none" stroke="#000" stroke-linecap="round" stroke-linejoin="round" stroke-width="1.5"/>
    <path id="Контур_22" data-name="Контур 22" d="M11.1,32A12.352,12.352,0,0,0,22.068,42.964" transform="translate(-4.347 -11.704)" fill="none" stroke="#000" stroke-linecap="round" stroke-linejoin="round" stroke-width="1.5"/>
    <path id="Контур_23" data-name="Контур 23" d="M15.133,32a9.754,9.754,0,0,0,8.35,8.349" transform="translate(-5.761 -11.704)" fill="none" stroke="#000" stroke-linecap="round" stroke-linejoin="round" stroke-width="1.5"/>
    <path id="Контур_24" data-name="Контур 24" d="M45.657,32.086A14.95,14.95,0,0,1,32.086,45.657" transform="translate(-11.713 -11.735)" fill="none" stroke="#000" stroke-linecap="round" stroke-linejoin="round" stroke-width="1.5"/>
    <path id="Контур_25" data-name="Контур 25" d="M43.05,32.086A12.352,12.352,0,0,1,32.086,43.05" transform="translate(-11.714 -11.735)" fill="none" stroke="#000" stroke-linecap="round" stroke-linejoin="round" stroke-width="1.5"/>
    <path id="Контур_26" data-name="Контур 26" d="M40.435,32.087a9.754,9.754,0,0,1-8.35,8.349" transform="translate(-11.713 -11.735)" fill="none" stroke="#000" stroke-linecap="round" stroke-linejoin="round" stroke-width="1.5"/>
    <path id="Контур_27" data-name="Контур 27" d="M24.711,31.625a2.816,2.816,0,0,1-.466-2.916,5.633,5.633,0,0,1,.565-.8,3.128,3.128,0,0,0,.46-.883,2.446,2.446,0,0,0,.042-1.52,2.132,2.132,0,0,0-.6-.964" transform="translate(-8.885 -9.086)" fill="none" stroke="#000" stroke-linecap="round" stroke-linejoin="round" stroke-width="1.5"/>
    <path id="Контур_28" data-name="Контур 28" d="M29.711,31.625a2.816,2.816,0,0,1-.466-2.916,5.633,5.633,0,0,1,.565-.8,3.128,3.128,0,0,0,.46-.883,2.446,2.446,0,0,0,.042-1.52,2.132,2.132,0,0,0-.6-.964" transform="translate(-10.641 -9.086)" fill="none" stroke="#000" stroke-linecap="round" stroke-linejoin="round" stroke-width="1.5"/>
    <path id="Контур_29" data-name="Контур 29" d="M34.547,31.625a2.816,2.816,0,0,1-.466-2.916,5.633,5.633,0,0,1,.565-.8,3.128,3.128,0,0,0,.46-.883,2.446,2.446,0,0,0,.042-1.52,2.132,2.132,0,0,0-.6-.964" transform="translate(-12.338 -9.086)" fill="none" stroke="#000" stroke-linecap="round" stroke-linejoin="round" stroke-width="1.5"/>
  </g>
</svg>
