<svg xmlns="http://www.w3.org/2000/svg" width="497.668" height="446.339" viewBox="0 0 497.668 446.339">
  <g id="img_moving_service_location" transform="translate(-2542.971 -1695.113)">
    <g id="Сгруппировать_2896" data-name="Сгруппировать 2896" transform="translate(2875.864 1695.113)">
      <g id="Сгруппировать_2833" data-name="Сгруппировать 2833" transform="translate(25.15 154.035)">
        <g id="Сгруппировать_2829" data-name="Сгруппировать 2829" transform="translate(0 0.036)">
          <path id="Контур_10124" data-name="Контур 10124" d="M2764.051,1964.685a21.4,21.4,0,0,1,10.465,1.349.275.275,0,0,1,.1.068l.254-.348c.2-.28.656.008.453.29a7.7,7.7,0,0,1-3.069,2.908,3.431,3.431,0,0,1-1.848.229,6.465,6.465,0,0,0-2.615.024,3.815,3.815,0,0,1-1.883.07c-.429-.1-.833-.284-1.258-.4a3.3,3.3,0,0,0-1.947.1c-1.014.255-2,.321-2.646-.7C2758.441,1965.726,2762.476,1964.882,2764.051,1964.685Z" transform="translate(-2759.683 -1964.525)" fill="#faa28e"/>
        </g>
        <g id="Сгруппировать_2830" data-name="Сгруппировать 2830" transform="translate(2.341 0.326)">
          <path id="Контур_10125" data-name="Контур 10125" d="M2780.806,1965.228a9.693,9.693,0,0,0,1.015,3.1c.161.306-.3.578-.464.272a10.141,10.141,0,0,1-1.069-3.234C2780.237,1965.032,2780.755,1964.886,2780.806,1965.228Z" transform="translate(-2780.284 -1965.033)" fill="#de7552"/>
        </g>
        <g id="Сгруппировать_2831" data-name="Сгруппировать 2831" transform="translate(6.236)">
          <path id="Контур_10126" data-name="Контур 10126" d="M2774.6,1964.719a18.549,18.549,0,0,0,.68,3.5.269.269,0,0,1-.519.143,19.254,19.254,0,0,1-.7-3.646C2774.032,1964.375,2774.571,1964.378,2774.6,1964.719Z" transform="translate(-2774.064 -1964.462)" fill="#de7552"/>
        </g>
        <g id="Сгруппировать_2832" data-name="Сгруппировать 2832" transform="translate(10.237 0.267)">
          <path id="Контур_10127" data-name="Контур 10127" d="M2767.626,1965.121l.681,3.159c.073.337-.446.482-.519.143q-.34-1.579-.682-3.159C2767.034,1964.927,2767.553,1964.783,2767.626,1965.121Z" transform="translate(-2767.1 -1964.928)" fill="#de7552"/>
        </g>
      </g>
      <g id="Сгруппировать_2834" data-name="Сгруппировать 2834" transform="translate(31.339 63.148)">
        <path id="Контур_10128" data-name="Контур 10128" d="M2734.7,1805.535s-9.874,3.339-12.744,5.85-10.928,19.368-11.293,31.743-.9,21.341,11.114,18.651,14.167,1.614,18.113-6.994,9.094-20.086,8.134-23.4S2734.7,1805.535,2734.7,1805.535Z" transform="translate(-2710.523 -1805.535)" fill="#343b57"/>
      </g>
      <g id="Сгруппировать_2838" data-name="Сгруппировать 2838" transform="translate(13.02 360.209)">
        <g id="Сгруппировать_2836" data-name="Сгруппировать 2836" transform="translate(19.875)">
          <g id="Сгруппировать_2835" data-name="Сгруппировать 2835">
            <path id="Контур_10129" data-name="Контур 10129" d="M2751.318,2326.8l-.927,12.165,2.006,5.022,5.217-3.148,6.039-15.851Z" transform="translate(-2750.391 -2324.983)" fill="#ffae94"/>
          </g>
        </g>
        <g id="Сгруппировать_2837" data-name="Сгруппировать 2837" transform="translate(0 10.6)">
          <path id="Контур_10130" data-name="Контур 10130" d="M2759.46,2353.773c.027.877,23.344,6.133,24.345,5.96s1.329-1.56,1.867-3.508,1.738-9.695,1.738-9.695l-6.951-1.6s-.043-1.55-1.469-1.4a6.985,6.985,0,0,0-3.163,1.678,13.756,13.756,0,0,1-1.442.506l-.215.064c-.1.032-.2.064-.3.1-.076.022-.151.049-.231.07-.716.22-1.571.479-2.486.758-.173.049-.345.107-.527.156l-.167.049c-.172.054-.35.108-.528.162-3.987,1.188-8.629,2.544-9.184,2.717C2759.767,2350.1,2759.445,2352.9,2759.46,2353.773Z" transform="translate(-2759.46 -2343.519)" fill="#343b57"/>
        </g>
      </g>
      <g id="Сгруппировать_2842" data-name="Сгруппировать 2842" transform="translate(136.535 353.35)">
        <g id="Сгруппировать_2840" data-name="Сгруппировать 2840" transform="translate(6.106)">
          <g id="Сгруппировать_2839" data-name="Сгруппировать 2839">
            <path id="Контур_10131" data-name="Контур 10131" d="M2557.818,2322.058l6.815,10.119,4.688,2.7,2.141-5.7-5.091-16.181Z" transform="translate(-2557.818 -2312.989)" fill="#ffae94"/>
          </g>
        </g>
        <g id="Сгруппировать_2841" data-name="Сгруппировать 2841" transform="translate(0 13.892)">
          <path id="Контур_10132" data-name="Контур 10132" d="M2550.788,2360.3c.565.673,22.117-9.662,22.8-10.416s.075-2.05-.71-3.911-4.649-8.689-4.649-8.689l-6.445,3.055a1.361,1.361,0,0,0-2.018-.188,6.9,6.9,0,0,0-1.448,3.282,12.932,12.932,0,0,1-.818,1.286c-.048.07-.1.14-.15.215s-.1.156-.151.237-.1.146-.151.221c-.425.613-.925,1.339-1.469,2.114-.1.15-.2.3-.312.452l-.226.323c-.1.15-.21.3-.312.452-2.367,3.363-5.079,7.172-5.4,7.645C2548.749,2357.219,2550.229,2359.618,2550.788,2360.3Z" transform="translate(-2549.194 -2337.28)" fill="#343b57"/>
        </g>
      </g>
      <g id="Сгруппировать_2861" data-name="Сгруппировать 2861" transform="translate(45.486)">
        <g id="Сгруппировать_2843" data-name="Сгруппировать 2843">
          <path id="Контур_10133" data-name="Контур 10133" d="M2662.021,1725.367a10.479,10.479,0,0,0,1.032-3.73c.01-1.4-.7-2.584-1-3.913-.547-2.409,1.38-4.332,1.412-6.744a18.6,18.6,0,0,1-.07-3.772,7.259,7.259,0,0,1,1.516-2.883,26.084,26.084,0,0,1,3.761-3.8c.131-.221.27-.44.424-.655,2.436-3.389,7.486-4.353,11.378-4.656a40.965,40.965,0,0,1,7.66.21,33.844,33.844,0,0,1,6.875,1.226c4.048,1.339,8.2,4.3,10.264,8.087a14.739,14.739,0,0,1,.743,1.586,11.94,11.94,0,0,1,2.822,7.329,25.817,25.817,0,0,1-1.344,8.431,82.623,82.623,0,0,1-2.809,8.307q-.489,1.178-1.075,2.307a5.749,5.749,0,0,1,2.223.217c1.312.4,2.375,1.616,1.8,2.94a8.692,8.692,0,0,1,4.751,3.893c1.22,2.009.17,4.073-1.206,5.714-1.623,1.937-3.67,2.037-6.019,1.6-1.546-.287-3.415-.805-4.02-2.259a5.359,5.359,0,0,1-2.44-1.525c-.819-1.032-.935-3.007-.994-4.289-.011-.243-.008-.483,0-.721a9.056,9.056,0,0,1-.982-.72c-4.79-3.734-9.55-7.516-14.086-11.559a56.451,56.451,0,0,1-6.777-6.99,43.722,43.722,0,0,0-3.174-3.557,26.98,26.98,0,0,0-1.326,6.089c-.21,1.525-.344,4.473-2.022,5.217-1,.444-2.422-.28-3.2.781-.455.616-.385,1.529-.7,2.211-.666,1.427-2.106,1.094-3.1.183C2660.753,1728.477,2661.293,1727.187,2662.021,1725.367Z" transform="translate(-2661.309 -1695.113)" fill="#343b57"/>
        </g>
        <g id="Сгруппировать_2844" data-name="Сгруппировать 2844" transform="translate(6.195 7.377)">
          <path id="Контур_10134" data-name="Контур 10134" d="M2683.559,1735.435c1.824,12.5,4.729,19.406,14.214,18.572.231-.022.463-.038.694-.059,8.382-.71,14.585-.963,16.732-10.674.016-.075.032-.15.048-.231q.251-1.186.42-2.571c1.576-12.789-5.289-32.458-5.289-32.458s-20.987.2-24.571,1.829c-1.114.506-2.012,2.916-2.545,6.467A69.658,69.658,0,0,0,2683.559,1735.435Z" transform="translate(-2682.74 -1708.013)" fill="#faa28e"/>
        </g>
        <g id="Сгруппировать_2845" data-name="Сгруппировать 2845" transform="translate(20.653 39.254)">
          <path id="Контур_10135" data-name="Контур 10135" d="M2663.705,1776.489a11.746,11.746,0,0,1,1.27,1.323,12.794,12.794,0,0,1,2.33,4.1,9.519,9.519,0,0,1,.366,1.442c.592,3.411.64,12.676.64,12.676l12.966,3.228,12.019-8.608s-2.335-3.255-6.639-9.888c-2.739-4.223-4.17-9.964-4.853-13.574-.016-.1-.032-.194-.049-.286-.349-1.9-.479-3.152-.479-3.152l-.635.457Z" transform="translate(-2663.705 -1763.754)" fill="#faa28e"/>
        </g>
        <g id="Сгруппировать_2847" data-name="Сгруппировать 2847" transform="translate(8.168 26.608)">
          <g id="Сгруппировать_2846" data-name="Сгруппировать 2846">
            <path id="Контур_10136" data-name="Контур 10136" d="M2734.368,1741.641a1.124,1.124,0,0,1,.881.611,2.607,2.607,0,0,1,.255,1.147,2.934,2.934,0,0,1-.149,1.222,1.27,1.27,0,0,1-.879.8c-1.289.25-1.46-1.869-1.258-2.66.138-.542.528-1.1,1.087-1.121Z" transform="translate(-2733.146 -1741.641)" fill="#14192b"/>
          </g>
        </g>
        <g id="Сгруппировать_2849" data-name="Сгруппировать 2849" transform="translate(21.106 26.093)">
          <g id="Сгруппировать_2848" data-name="Сгруппировать 2848">
            <path id="Контур_10137" data-name="Контур 10137" d="M2711.744,1740.74a1.123,1.123,0,0,1,.881.611,2.606,2.606,0,0,1,.255,1.146,2.922,2.922,0,0,1-.149,1.222,1.269,1.269,0,0,1-.88.8c-1.288.25-1.46-1.868-1.258-2.66.138-.542.529-1.1,1.086-1.12Z" transform="translate(-2710.521 -1740.739)" fill="#14192b"/>
          </g>
        </g>
        <g id="Сгруппировать_2850" data-name="Сгруппировать 2850" transform="translate(21.923 49.073)">
          <path id="Контур_10138" data-name="Контур 10138" d="M2698.2,1785.162a12.782,12.782,0,0,1,2.329,4.1c.2-.124.414-.264.614-.409a17.21,17.21,0,0,0,5.649-7.935,17.933,17.933,0,0,1-3.406,2.109A40.274,40.274,0,0,1,2698.2,1785.162Z" transform="translate(-2698.203 -1780.923)" fill="#de7552"/>
        </g>
        <g id="Сгруппировать_2851" data-name="Сгруппировать 2851" transform="translate(12.135 29.567)">
          <path id="Контур_10139" data-name="Контур 10139" d="M2723.321,1750.813c.435-1.278.913-2.543,1.37-3.814.116-.323.636-.183.519.144a42.861,42.861,0,0,0-1.628,4.61c-.592,2.545,1.708,2.8,3.433,3.553.316.138.043.6-.271.464-1.458-.638-3.626-.828-3.832-2.8A5.146,5.146,0,0,1,2723.321,1750.813Z" transform="translate(-2722.896 -1746.816)" fill="#de7552"/>
        </g>
        <g id="Сгруппировать_2852" data-name="Сгруппировать 2852" transform="translate(12.562 40.036)">
          <path id="Контур_10140" data-name="Контур 10140" d="M2713,1766.244a8.689,8.689,0,0,0,4.327.828c1.466-.1,3.554-.588,4.473-1.836.2-.276.67-.007.464.272-.953,1.295-2.926,1.868-4.45,2.054a9.242,9.242,0,0,1-5.087-.853C2712.414,1766.562,2712.687,1766.1,2713,1766.244Z" transform="translate(-2712.588 -1765.121)" fill="#de7552"/>
        </g>
        <g id="Сгруппировать_2853" data-name="Сгруппировать 2853" transform="translate(6.719 6.659)">
          <path id="Контур_10141" data-name="Контур 10141" d="M2683.091,1708.821c3.584-1.631,26.293-2.063,26.293-2.063s6.866,20.148,5.291,32.936a25.872,25.872,0,0,1-1,3.1.172.172,0,0,1-.1-.054.144.144,0,0,1-.049-.065,15.225,15.225,0,0,1-1.017-2.862,43.323,43.323,0,0,1-.653-5.871s1.759-3,1.211-5.548c-.572-2.656-2.614-3.941-4.357-3.2a16.366,16.366,0,0,0,.727,2.8c.237,1,.242,2.986-1.167,3.191-1.3.188-1.442-1.721-1.834-2.5-.775-1.517-2.077-2.706-2.739-4.293-.8-1.932-.081-3.971-.554-5.94-.678-2.83-3.761-3.432-6.241-3.588-2.448-.156-4.917-.189-7.371-.156-1.27.016-6.548-.339-7.893,1.065C2682.175,1712.221,2681.978,1709.327,2683.091,1708.821Z" transform="translate(-2681.642 -1706.758)" fill="#343b57"/>
        </g>
        <g id="Сгруппировать_2854" data-name="Сгруппировать 2854" transform="translate(17.878 22.131)">
          <path id="Контур_10142" data-name="Контур 10142" d="M2704.926,1734.4a1.364,1.364,0,0,1,.286-.2,5.6,5.6,0,0,1,2.5-.368,8.748,8.748,0,0,1,3.669.5c.49.2,3.148,1.6,1.841,2.26-.9.452-2.831-.609-3.753-.625-1.279-.022-2.734.526-4,.181A1.013,1.013,0,0,1,2704.926,1734.4Z" transform="translate(-2704.597 -1733.812)" fill="#343b57"/>
        </g>
        <g id="Сгруппировать_2855" data-name="Сгруппировать 2855" transform="translate(2.573 22.131)">
          <path id="Контур_10143" data-name="Контур 10143" d="M2739.465,1736.144c-1.261.346-2.716-.2-3.995-.181-.922.016-2.853,1.077-3.753.625-1.308-.657,1.35-2.064,1.84-2.26a8.747,8.747,0,0,1,3.668-.5,5.6,5.6,0,0,1,2.5.368,1.372,1.372,0,0,1,.286.2A1.013,1.013,0,0,1,2739.465,1736.144Z" transform="translate(-2731.359 -1733.812)" fill="#343b57"/>
        </g>
        <g id="Сгруппировать_2856" data-name="Сгруппировать 2856" transform="translate(8.912 24.637)">
          <path id="Контур_10144" data-name="Контур 10144" d="M2697.175,1757.461s2.314,5.587,3.65,6.8c1.546,1.4,4.991,1.925,6.761,1.534.044-.01.089-.025.134-.037a9.272,9.272,0,0,0,3.249-1.7,7.734,7.734,0,0,0,3.429-4.157c.762-2.325,2.116-4.162,2.571-6.592a53.12,53.12,0,0,0,1.256-6.581c.2-.928.231-7.337.289-8.276a.271.271,0,0,1,.529-.071c.487,1.239.234,8.127.294,9.419a15.759,15.759,0,0,1-.257,4.125,16.137,16.137,0,0,1-.916,3.6c-.719,1.894-.339,4.034-1.164,5.86a27.634,27.634,0,0,0-1.632,2.939,4.285,4.285,0,0,1-1.2,1.949,7.616,7.616,0,0,1-5.026,1.551,4.58,4.58,0,0,1-3.856-.224c-.628-.239-1.39-.148-1.985-.414-.343-.153-.532-.5-.771-.764-.527-.589-1.495-.849-2.127-1.312a9.34,9.34,0,0,1-2.208-2.823A39.71,39.71,0,0,1,2697.175,1757.461Z" transform="translate(-2697.175 -1738.194)" fill="#343b57"/>
        </g>
        <g id="Сгруппировать_2857" data-name="Сгруппировать 2857" transform="translate(17.759 4.925)">
          <path id="Контур_10145" data-name="Контур 10145" d="M2691.855,1708.6a17.847,17.847,0,0,1,16.158-4.44c.338.077.195.6-.143.519a17.28,17.28,0,0,0-15.635,4.3C2691.985,1709.218,2691.6,1708.839,2691.855,1708.6Z" transform="translate(-2691.773 -1703.726)" fill="#14192b"/>
        </g>
        <g id="Сгруппировать_2858" data-name="Сгруппировать 2858" transform="translate(19.864 7.262)">
          <path id="Контур_10146" data-name="Контур 10146" d="M2705.14,1711.863a22.483,22.483,0,0,1,6.242-4.02c.31-.152.583.312.271.464a22.076,22.076,0,0,0-6.133,3.936A.269.269,0,0,1,2705.14,1711.863Z" transform="translate(-2705.061 -1707.812)" fill="#14192b"/>
        </g>
        <g id="Сгруппировать_2859" data-name="Сгруппировать 2859" transform="translate(8.57 5.879)">
          <path id="Контур_10147" data-name="Контур 10147" d="M2729.888,1712.871c.669-2.671,1.418-5.353,3.365-7.395.24-.251.619.13.38.38-1.877,1.969-2.583,4.585-3.226,7.157A.27.27,0,0,1,2729.888,1712.871Z" transform="translate(-2729.879 -1705.394)" fill="#14192b"/>
        </g>
        <g id="Сгруппировать_2860" data-name="Сгруппировать 2860" transform="translate(39.535 37.922)">
          <path id="Контур_10148" data-name="Контур 10148" d="M2678.792,1764.311c.588-.647,1.745-1.566,1.469-2.554a.269.269,0,0,1,.519-.143c.349,1.248-.861,2.255-1.608,3.077C2678.939,1764.948,2678.559,1764.567,2678.792,1764.311Z" transform="translate(-2678.719 -1761.424)" fill="#14192b"/>
        </g>
      </g>
      <g id="Сгруппировать_2862" data-name="Сгруппировать 2862" transform="translate(50.589 54.117)">
        <path id="Контур_10149" data-name="Контур 10149" d="M2630.523,1839.173c5.7,3.519,11.207,54.834,12.509,57.47s49.094-3.809,49.094-3.809-1.765-60.418-1.765-63.641.7-29.456-.468-31.657c-.4-.753-7.064-1.851-10.885-2.97-1.732-.506-3.631-1.017-5.514-1.5-6.1-1.581-11.567-3.322-11.567-3.322s-4.7,4.861-9.685,6.33-7.984-.972-7.984-.972a59.977,59.977,0,0,0-8.893,1.715c-1.921.608-3.987,1.3-5.789,1.958-2.712,1-4.815,1.937-4.885,2.48C2624.492,1802.814,2624.825,1835.655,2630.523,1839.173Z" transform="translate(-2624.651 -1789.743)" fill="#343b57"/>
      </g>
      <g id="Сгруппировать_2863" data-name="Сгруппировать 2863" transform="translate(58.313 142.36)">
        <path id="Контур_10150" data-name="Контур 10150" d="M2543.183,1947.7c.963-.151,1.931-.3,2.906-.436-.215-.952-.431-1.9-.641-2.851-.086-.366.479-.522.565-.156.221.974.436,1.953.656,2.927a28.586,28.586,0,0,1,10.777.215c2.523.635,4.874,1.76,7.489,2.007a35.851,35.851,0,0,0,7.919-.5,68.345,68.345,0,0,1,15.01.129c1.593.14,3.2.258,4.793.307l.522.016a26.9,26.9,0,0,0,9.883-1.416c.194-.07.35.113.371.286.893,7.758,3.573,13.65,3.578,21.451,2.75,15.979,5.988,33.663,8.479,49.68,1.3,8.388,2.814,16.8,3.234,25.292.215,4.245.032,8.5.049,12.74a73.131,73.131,0,0,0,1.285,13.042,75.71,75.71,0,0,1,1.635,13.606c.005,1.2-.027,2.4-.08,3.6a103.883,103.883,0,0,1,7.446,13.628c2.943,6.741,3.981,13.923,6.01,20.945,1.883,6.531,5.095,12.524,8.065,18.6,2.706,5.537,5.719,11.664,6.29,17.889.193,2.12-2.652,3.168-5.332,3.884l-.414.113c-1.291.328-2.5.6-3.26.877l-14.457,5.767a.3.3,0,0,1-.327-.134c-6.1-10.421-12.191-20.853-17.577-31.667-5.353-10.755-9.974-21.859-14.51-32.975-4.708-11.524-9.463-23.021-14.063-34.583-4.514-11.325-10.728-31.5-13.892-43.278-3.255-12.105-2-16.641-5.219-28.756-4.385-5.687-5.843-13.273-7.4-20.165q-3.374-14.97-6.752-29.934c-.957.124-1.915.264-2.883.414C2542.968,1948.324,2542.812,1947.759,2543.183,1947.7Z" transform="translate(-2542.971 -1944.047)" fill="#496b9e"/>
      </g>
      <g id="Сгруппировать_2864" data-name="Сгруппировать 2864" transform="translate(30.772 132.035)">
        <path id="Контур_10151" data-name="Контур 10151" d="M2666.037,2158.024c6.9,2.551,14.316,3.374,21.779,3.6,1.791-2.561,2.781-5.993,3.631-8.727a130.486,130.486,0,0,0,3.7-17.335q1.558-9.264,3.26-18.507c2.281-12.342,8.415-25.5,11.115-37.752q2.211-10.023,4.616-20.009,3.042-12.686,6.4-25.3v-.006q2.913-10.975,6.053-21.892a28.043,28.043,0,0,0,2.572,3.417c.258.29.683-.135.425-.431a28.659,28.659,0,0,1-2.782-3.745c.479-1.652.947-3.308,1.431-4.96a.3.3,0,0,0-.581-.162c-.431,1.474-.851,2.948-1.275,4.423a40.225,40.225,0,0,1-4.379-11.519c-2.378-10.421-5.87-20.4-8.781-30.72a70.121,70.121,0,0,0-16.054-28.552c-.172-.183-11.756-13.859-11.756-13.859s-2.625,45.624-4.32,61.064c-1.527,13.923-5.471,53.57-6.725,67.52C2673.021,2069.458,2666.871,2128.913,2666.037,2158.024Z" transform="translate(-2666.037 -1925.992)" fill="#496b9e"/>
      </g>
      <g id="Сгруппировать_2865" data-name="Сгруппировать 2865" transform="translate(50.143 86.701)">
        <path id="Контур_10152" data-name="Контур 10152" d="M2623.405,1958.267s17.066-40.119,23.79-39.985c4.433.086,22.527-5.041,34.33-8.538.167-.049.334-.1.5-.151,5.837-1.732,10.018-3.034,10.018-3.034s-.727-22.306-1.4-23.651c-.468-.942-6.074-2.54-9.678-3.922-.183-.07-.355-.139-.527-.2a5.974,5.974,0,0,1-2.437-1.388c-.807-1.479-5.649-29.456-5.649-30.4s-13.854.807-21.251,1.076-23.269-.926-24.614,0-.134,25.017-.269,32.415S2623.405,1958.267,2623.405,1958.267Z" transform="translate(-2623.405 -1846.72)" fill="#496b9e"/>
      </g>
      <g id="Сгруппировать_2866" data-name="Сгруппировать 2866" transform="translate(106.351 118.762)">
        <path id="Контур_10153" data-name="Контур 10153" d="M2553.863,1930.884l.1.791c.086.689.173,1.382.263,2.072,1.06,8.4,2.249,16.8,3.761,25.141,1.711,9.479,4.466,18.814,5.682,28.369.592,4.643.635,9.324.764,13.994a137.171,137.171,0,0,0,1.054,13.945c2.109,16.312,6.682,32.2,8.49,48.544a22.6,22.6,0,0,1-3.47-2.863.268.268,0,0,0-.382.377,22.756,22.756,0,0,0,3.923,3.169c.193,1.845.36,3.69.473,5.552a51.821,51.821,0,0,0,2.109,13.4,119.4,119.4,0,0,0,5.331,12.358l12.186,26.2c3.567,7.672,7.333,15.333,10.836,23.1l.415-.113c-.361-.791-.721-1.582-1.082-2.367-3.97-8.646-8.011-17.254-12.025-25.884-4.045-8.7-8.123-17.383-12.132-26.1a49.376,49.376,0,0,1-4.477-13.434c-.6-4.078-.678-8.22-1.033-12.325a22.9,22.9,0,0,0,5.273,2.313.268.268,0,0,0,.145-.517,22.469,22.469,0,0,1-5.488-2.48c-.038-.414-.076-.829-.124-1.243-2.044-18.222-7.645-35.874-9.114-54.183-.382-4.724-.371-9.463-.565-14.2a88.6,88.6,0,0,0-1.571-13.37c-1.808-9.27-4.089-18.411-5.628-27.74-1.087-6.58-2.023-13.181-2.857-19.8-.081-.635-.156-1.27-.237-1.9q-.412-3.406-.8-6.811c-.812-7.264-1.318-14.693-.027-21.892-.183-.07-.355-.139-.527-.2-.086.452-.162.9-.232,1.361C2551.56,1913.021,2552.776,1922.044,2553.863,1930.884Z" transform="translate(-2552.31 -1902.783)" fill="#1f3e73"/>
      </g>
      <g id="Сгруппировать_2867" data-name="Сгруппировать 2867" transform="translate(91.416 57.439)">
        <path id="Контур_10154" data-name="Контур 10154" d="M2653.1,1827.108a107.565,107.565,0,0,1,1.49-18.562,22.042,22.042,0,0,1,6.526-11.492c-1.732-.506-3.631-1.017-5.514-1.5a27.037,27.037,0,0,0-6,10.169c-1.883,6.725-2.018,21.386-2.018,21.386Z" transform="translate(-2647.588 -1795.553)" fill="#496b9e"/>
      </g>
      <g id="Сгруппировать_2868" data-name="Сгруппировать 2868" transform="translate(54.703 61.19)">
        <path id="Контур_10155" data-name="Контур 10155" d="M2725.113,1834.354s5.106.4,4.886,0-.721-7.129-1.05-17.754a46.233,46.233,0,0,1,1.555-14.489c-1.921.608-3.987,1.3-5.789,1.958-.549,2.657-.586,8.388-.785,12.531C2723.693,1821.576,2725.113,1834.354,2725.113,1834.354Z" transform="translate(-2723.903 -1802.111)" fill="#496b9e"/>
      </g>
      <g id="Сгруппировать_2869" data-name="Сгруппировать 2869" transform="translate(91.954 88.994)">
        <circle id="Эллипс_563" data-name="Эллипс 563" cx="2.287" cy="2.287" r="2.287" transform="translate(0)" fill="#fff"/>
      </g>
      <g id="Сгруппировать_2870" data-name="Сгруппировать 2870" transform="translate(55.335 88.994)">
        <circle id="Эллипс_564" data-name="Эллипс 564" cx="2.287" cy="2.287" r="2.287" transform="translate(0)" fill="#fff"/>
      </g>
      <g id="Сгруппировать_2877" data-name="Сгруппировать 2877" transform="translate(0 97.241)">
        <g id="Сгруппировать_2871" data-name="Сгруппировать 2871" transform="translate(0 0.002)">
          <rect id="Прямоугольник_2187" data-name="Прямоугольник 2187" width="105.11" height="58.966" fill="#f5b785"/>
        </g>
        <g id="Сгруппировать_2872" data-name="Сгруппировать 2872" transform="translate(0)">
          <rect id="Прямоугольник_2188" data-name="Прямоугольник 2188" width="62.958" height="58.966" transform="translate(0)" fill="#ffcda4"/>
        </g>
        <g id="Сгруппировать_2874" data-name="Сгруппировать 2874" transform="translate(49.383)">
          <g id="Сгруппировать_2873" data-name="Сгруппировать 2873" transform="translate(0)">
            <rect id="Прямоугольник_2189" data-name="Прямоугольник 2189" width="0.538" height="58.966" fill="#fff"/>
          </g>
        </g>
        <g id="Сгруппировать_2876" data-name="Сгруппировать 2876" transform="translate(12.019)">
          <g id="Сгруппировать_2875" data-name="Сгруппировать 2875" transform="translate(0)">
            <rect id="Прямоугольник_2190" data-name="Прямоугольник 2190" width="0.538" height="58.966" fill="#fff"/>
          </g>
        </g>
      </g>
      <g id="Сгруппировать_2878" data-name="Сгруппировать 2878" transform="translate(92.627 138.087)">
        <path id="Контур_10156" data-name="Контур 10156" d="M2635.176,1936.576l-15.154,16.275-2.869,5.918h9.012l20.713-11.7Z" transform="translate(-2617.153 -1936.576)" fill="#faa28e"/>
      </g>
      <g id="Сгруппировать_2879" data-name="Сгруппировать 2879" transform="translate(104.013 61.378)">
        <path id="Контур_10157" data-name="Контур 10157" d="M2574.154,1817.446a32.641,32.641,0,0,1-.8-3.869c-.331-2.347-.565-5.071,1-7.047,1.366-1.722,8.759-4.207,9.084-4.087,4,1.476,6.718,3.857,9.436,7.885,1.355,2.008,7.664,12.385,8.609,14.615,1.04,2.458,9.1,27.023,10.322,29.39,1.991,3.864,5.542,10.631,4.421,14.956a9.84,9.84,0,0,1-2.736,4.795,13.7,13.7,0,0,1-2.244,1.515c-1.525.936-1.417,2.5-2.016,3.991-1.679,4.177-6.152,6.458-9.808,8.613-2.686,1.583-5.342,3.423-8.143,4.792a1.385,1.385,0,0,1-1.462.052,6.643,6.643,0,0,1-1.362-1.461l-1.753-2.015c-1.169-1.344-6.56-6.779-7.729-8.122-.585-.672-1.348-1.344-1.192-2.308a12.828,12.828,0,0,1,1.787-3.625c.731-1.293,2.466-1.742,3.305-2.969a58.818,58.818,0,0,1,6.5-7.791,12.054,12.054,0,0,1-.317-2.171c-1.707-1.344-2.274-2.238-3.905-3.676-1.479-1.3-3.228-2.283-4.55-3.768a14.664,14.664,0,0,1-2.49-4.17,74.515,74.515,0,0,1-3.559-12.018,63.7,63.7,0,0,1-1.9-12.6A22.118,22.118,0,0,1,2574.154,1817.446Z" transform="translate(-2572.654 -1802.44)" fill="#343b57"/>
      </g>
      <g id="Сгруппировать_2883" data-name="Сгруппировать 2883" transform="translate(69.907 152.152)">
        <g id="Сгруппировать_2880" data-name="Сгруппировать 2880">
          <path id="Контур_10158" data-name="Контур 10158" d="M2681.052,1962.438s-9.981-1.462-13.134-1.246-7.674.395-9.355,1.246,0,2.018,2.628,1.928a17.1,17.1,0,0,1,5.361.861h-13.178a3.174,3.174,0,0,0,2.418,2.905c2.418.718.421,1.255,4.52,1.883s11.391,2.062,17.172,1.076a38.626,38.626,0,0,0,7.621-1.793v-3Z" transform="translate(-2653.373 -1961.17)" fill="#faa28e"/>
        </g>
        <g id="Сгруппировать_2881" data-name="Сгруппировать 2881" transform="translate(13.445 4.007)">
          <path id="Контур_10159" data-name="Контур 10159" d="M2679.944,1968.181l2.751.439c.341.055.2.573-.143.519l-2.752-.439C2679.46,1968.646,2679.6,1968.127,2679.944,1968.181Z" transform="translate(-2679.606 -1968.177)" fill="#de7552"/>
        </g>
        <g id="Сгруппировать_2882" data-name="Сгруппировать 2882" transform="translate(2.408 5.909)">
          <path id="Контур_10160" data-name="Контур 10160" d="M2686,1971.5c1.708.1,3.368.554,5.07.727a28.377,28.377,0,0,0,5.225.02c.345-.028.343.51,0,.538a28.561,28.561,0,0,1-5.225-.02c-1.7-.171-3.364-.629-5.07-.727C2685.657,1972.021,2685.655,1971.483,2686,1971.5Z" transform="translate(-2685.742 -1971.502)" fill="#de7552"/>
        </g>
      </g>
      <g id="Сгруппировать_2884" data-name="Сгруппировать 2884" transform="translate(71.519 204.22)">
        <path id="Контур_10161" data-name="Контур 10161" d="M2682.8,2076.782c2.915,7.354,2.2,3.766,1.84,16.323-.322,11.314,1.248,15.344,4.713,20.229q3.043-12.686,6.4-25.3v-.006l-9.856-35.815S2679.883,2069.432,2682.8,2076.782Z" transform="translate(-2682.001 -2052.216)" fill="#1f3e73"/>
      </g>
      <g id="Сгруппировать_2885" data-name="Сгруппировать 2885" transform="translate(66.735 174.179)">
        <path id="Контур_10162" data-name="Контур 10162" d="M2700.526,1999.881a111.191,111.191,0,0,0,7.69,27.29c.134.315-.329.59-.465.272a111.69,111.69,0,0,1-7.744-27.419C2699.957,1999.686,2700.475,1999.54,2700.526,1999.881Z" transform="translate(-2700.004 -1999.687)" fill="#1f3e73"/>
      </g>
      <g id="Сгруппировать_2886" data-name="Сгруппировать 2886" transform="translate(109.698 67.512)">
        <path id="Контур_10163" data-name="Контур 10163" d="M2627.481,1830.093c.5-2.477.229-4.839.331-7.333.167-4.111,2.743-6.862,5.614-9.519.254-.234.635.145.38.381a23.456,23.456,0,0,0-3.984,4.359,10.4,10.4,0,0,0-1.481,6.049,28.217,28.217,0,0,1-.294,5.976c-.4,2.024-1.071,4.109-.719,6.186.336,1.982,2.013,3.167,2.532,5.044.487,1.765.153,3.848.089,5.649-.152,4.321-.079,8.944,2.735,12.5.213.269-.165.652-.38.38-2.5-3.155-2.99-7.142-2.942-11.05.028-2.307.593-5.081-.021-7.332-.546-2-2.315-3.2-2.59-5.364A18.468,18.468,0,0,1,2627.481,1830.093Z" transform="translate(-2626.69 -1813.167)" fill="#14192b"/>
      </g>
      <g id="Сгруппировать_2887" data-name="Сгруппировать 2887" transform="translate(122.454 119.391)">
        <path id="Контур_10164" data-name="Контур 10164" d="M2597.043,1905.39a16.6,16.6,0,0,1,11.147-.958.269.269,0,0,1-.143.519,16.011,16.011,0,0,0-10.732.9C2597,1906,2596.728,1905.533,2597.043,1905.39Z" transform="translate(-2596.904 -1903.883)" fill="#14192b"/>
      </g>
      <g id="Сгруппировать_2888" data-name="Сгруппировать 2888" transform="translate(124.109 121.24)">
        <path id="Контур_10165" data-name="Контур 10165" d="M2590.224,1907.126a46.975,46.975,0,0,1,13.342,1.654.269.269,0,0,1-.143.519,46.458,46.458,0,0,0-13.2-1.634A.269.269,0,0,1,2590.224,1907.126Z" transform="translate(-2589.964 -1907.117)" fill="#14192b"/>
      </g>
      <g id="Сгруппировать_2889" data-name="Сгруппировать 2889" transform="translate(71.371 56.311)">
        <path id="Контур_10166" data-name="Контур 10166" d="M2676.648,1799.417a13.563,13.563,0,0,0,8.975.584c3.259-1.031,5.358-3.673,7.326-6.307.2-.274.672-.006.464.271-1.966,2.63-4.051,5.28-7.251,6.421a13.9,13.9,0,0,1-9.658-.452C2676.186,1799.81,2676.325,1799.29,2676.648,1799.417Z" transform="translate(-2676.324 -1793.579)" fill="#14192b"/>
      </g>
      <g id="Сгруппировать_2890" data-name="Сгруппировать 2890" transform="translate(41.88 72.713)">
        <path id="Контур_10167" data-name="Контур 10167" d="M2749.727,1822.4c1.617,3.73.691,7.783,1.539,11.657.439,2.007,1.705,3.577,2.355,5.489a16.816,16.816,0,0,1,.5,6.071c-.014.345-.552.347-.538,0,.086-2.259.163-4.6-.792-6.706a23.747,23.747,0,0,1-2.045-4.711c-.834-3.811.1-7.866-1.485-11.529C2749.126,1822.359,2749.589,1822.085,2749.727,1822.4Z" transform="translate(-2749.237 -1822.261)" fill="#14192b"/>
      </g>
      <g id="Сгруппировать_2891" data-name="Сгруппировать 2891" transform="translate(39.623 77.164)">
        <path id="Контур_10168" data-name="Контур 10168" d="M2756.333,1830.238a57.054,57.054,0,0,0,2.893,10.4c.124.324-.4.464-.519.143a57.019,57.019,0,0,1-2.892-10.4C2755.753,1830.042,2756.271,1829.9,2756.333,1830.238Z" transform="translate(-2755.809 -1830.043)" fill="#14192b"/>
      </g>
      <g id="Сгруппировать_2892" data-name="Сгруппировать 2892" transform="translate(27.197 373.068)">
        <path id="Контур_10169" data-name="Контур 10169" d="M2781.357,2353.4c-.016.344.521.344.538,0a9.744,9.744,0,0,0-1.646-5.934c-.1.032-.2.064-.3.1-.075.022-.15.049-.231.07A9.229,9.229,0,0,1,2781.357,2353.4Z" transform="translate(-2779.716 -2347.469)" fill="#fceade"/>
      </g>
      <g id="Сгруппировать_2893" data-name="Сгруппировать 2893" transform="translate(23.49 374.204)">
        <path id="Контур_10170" data-name="Контур 10170" d="M2788.1,2354.844c-.016.35.522.344.538,0a9.757,9.757,0,0,0-1.307-5.39l-.528.161A9.277,9.277,0,0,1,2788.1,2354.844Z" transform="translate(-2786.8 -2349.454)" fill="#fceade"/>
      </g>
      <g id="Сгруппировать_2894" data-name="Сгруппировать 2894" transform="translate(144.386 374.892)">
        <path id="Контур_10171" data-name="Контур 10171" d="M2571.536,2351.116a9.31,9.31,0,0,1,3.6,2.431c.237.253.613-.134.382-.388a9.7,9.7,0,0,0-3.68-2.5c-.048.075-.1.156-.15.237S2571.584,2351.04,2571.536,2351.116Z" transform="translate(-2571.536 -2350.658)" fill="#fceade"/>
      </g>
      <g id="Сгруппировать_2895" data-name="Сгруппировать 2895" transform="translate(142.067 378.239)">
        <path id="Контур_10172" data-name="Контур 10172" d="M2575.769,2356.962a9.325,9.325,0,0,1,3.5,2.389c.237.253.608-.13.376-.382a9.706,9.706,0,0,0-3.566-2.458C2575.978,2356.66,2575.871,2356.811,2575.769,2356.962Z" transform="translate(-2575.769 -2356.51)" fill="#fceade"/>
      </g>
    </g>
    <g id="Сгруппировать_2987" data-name="Сгруппировать 2987" transform="translate(2542.971 1736.097)">
      <g id="Сгруппировать_2898" data-name="Сгруппировать 2898" transform="translate(84.014 163.21)">
        <g id="Сгруппировать_2897" data-name="Сгруппировать 2897">
          <path id="Контур_10173" data-name="Контур 10173" d="M3141.538,2052.17l-24.39,50.483,41.277,21.253,24.313-51.586Z" transform="translate(-3117.149 -2052.17)" fill="#ffcda4"/>
        </g>
      </g>
      <g id="Сгруппировать_2900" data-name="Сгруппировать 2900" transform="translate(124.797 159.287)">
        <g id="Сгруппировать_2899" data-name="Сгруппировать 2899">
          <path id="Контур_10174" data-name="Контур 10174" d="M3028.084,2120.73l40.711,21.224,5.574-12.17,1.791-3.917,20.428-44.606,1.8-3.917,5.439-11.879-41.2-20.154-5.24,11.443-1.792,3.911v.005l-20.428,44.6-1.8,3.917Z" transform="translate(-3028.084 -2045.312)" fill="#dea57e"/>
        </g>
      </g>
      <g id="Сгруппировать_2901" data-name="Сгруппировать 2901" transform="translate(152.305 170.731)">
        <path id="Контур_10175" data-name="Контур 10175" d="M3037.595,2069.233v.005l41,20.59,1.8-3.917-41-20.59Z" transform="translate(-3037.595 -2065.322)" fill="#c7875c"/>
      </g>
      <g id="Сгруппировать_2902" data-name="Сгруппировать 2902" transform="translate(130.08 219.249)">
        <path id="Контур_10176" data-name="Контур 10176" d="M3076.458,2154.078l41,20.6,1.792-3.917-41-20.595Z" transform="translate(-3076.458 -2150.161)" fill="#c7875c"/>
      </g>
      <g id="Сгруппировать_2904" data-name="Сгруппировать 2904" transform="translate(55.512 214.756)">
        <g id="Сгруппировать_2903" data-name="Сгруппировать 2903">
          <path id="Контур_10177" data-name="Контур 10177" d="M3116.684,2142.306l18.2,9.313.479.247,42.314,21.655.484.248,19.729,10.1-30.258,65.174-21.343-11.148-.479-.247-42.148-22.011-.473-.247-17.221-8.991Z" transform="translate(-3085.969 -2142.306)" fill="#a86354"/>
        </g>
      </g>
      <g id="Сгруппировать_2909" data-name="Сгруппировать 2909" transform="translate(72.733 224.069)">
        <g id="Сгруппировать_2906" data-name="Сгруппировать 2906" transform="translate(42.621 21.902)">
          <g id="Сгруппировать_2905" data-name="Сгруппировать 2905">
            <path id="Контур_10178" data-name="Контур 10178" d="M3120.468,2261.015l.479.247,31.872-64.125-.484-.248Z" transform="translate(-3120.468 -2196.889)" fill="#6e3225"/>
          </g>
        </g>
        <g id="Сгруппировать_2908" data-name="Сгруппировать 2908">
          <g id="Сгруппировать_2907" data-name="Сгруппировать 2907">
            <path id="Контур_10179" data-name="Контур 10179" d="M3195.306,2222.361l.474.248,31.7-63.771-.479-.248Z" transform="translate(-3195.306 -2158.591)" fill="#6e3225"/>
          </g>
        </g>
      </g>
      <g id="Сгруппировать_2911" data-name="Сгруппировать 2911" transform="translate(0 267.056)">
        <g id="Сгруппировать_2910" data-name="Сгруппировать 2910">
          <path id="Контур_10180" data-name="Контур 10180" d="M3155.3,2266.809l.243-.484,16.431-32.566,52.816,27.659.473.248,50.712,26.556-17.248,34.191-.242.484-15.791,31.3-51.558-27-.473-.247-51.967-27.218Z" transform="translate(-3138.7 -2233.759)" fill="#dea57e"/>
        </g>
      </g>
      <g id="Сгруппировать_2913" data-name="Сгруппировать 2913" transform="translate(16.603 299.622)">
        <g id="Сгруппировать_2912" data-name="Сгруппировать 2912">
          <path id="Контур_10181" data-name="Контур 10181" d="M3168.861,2291.188l51.967,28.245.474.259,50.745,27.583.242-.484-50.74-27.579-.468-.258L3169.1,2290.7Z" transform="translate(-3168.861 -2290.704)" fill="#c7875c"/>
        </g>
      </g>
      <g id="Сгруппировать_2919" data-name="Сгруппировать 2919" transform="translate(209.796 375.232)">
        <g id="Сгруппировать_2915" data-name="Сгруппировать 2915" transform="translate(19.335)">
          <g id="Сгруппировать_2914" data-name="Сгруппировать 2914">
            <path id="Контур_10182" data-name="Контур 10182" d="M2956.784,2425.631l-.031,12.2,2.37,4.862,4.971-3.523,4.858-16.252Z" transform="translate(-2956.754 -2422.917)" fill="#ffae94"/>
          </g>
        </g>
        <g id="Сгруппировать_2916" data-name="Сгруппировать 2916" transform="translate(0 11.556)">
          <path id="Контур_10183" data-name="Контур 10183" d="M2964.068,2454.8c.09.875,23.73,4.4,24.714,4.156s1.209-1.652,1.606-3.635,1.021-9.8,1.021-9.8l-7.05-1.083s-.158-1.54-1.567-1.29a6.924,6.924,0,0,0-3.033,1.9,13.1,13.1,0,0,1-1.4.609q-.238.092-.5.2c-.741.29-1.656.644-2.648,1.027-.169.063-.337.131-.512.2-4.022,1.538-9.066,3.417-9.637,3.644C2964.1,2451.111,2963.985,2453.929,2964.068,2454.8Z" transform="translate(-2964.046 -2443.124)" fill="#343b57"/>
        </g>
        <g id="Сгруппировать_2917" data-name="Сгруппировать 2917" transform="translate(13.808 14.096)">
          <path id="Контур_10184" data-name="Контур 10184" d="M2984.975,2447.77c.332,1.6.686,3.19,1.049,4.775.077.342.607.247.53-.094q-.555-2.433-1.074-4.885Q2985.241,2447.657,2984.975,2447.77Z" transform="translate(-2984.975 -2447.566)" fill="#fceade"/>
        </g>
        <g id="Сгруппировать_2918" data-name="Сгруппировать 2918" transform="translate(10.648 15.327)">
          <path id="Контур_10185" data-name="Контур 10185" d="M2991.8,2454.266a.269.269,0,0,0,.53-.094c-.231-1.489-.478-2.97-.741-4.453-.169.063-.337.131-.512.2C2991.334,2451.365,2991.574,2452.809,2991.8,2454.266Z" transform="translate(-2991.077 -2449.719)" fill="#fceade"/>
        </g>
      </g>
      <g id="Сгруппировать_2925" data-name="Сгруппировать 2925" transform="translate(311.606 364.509)">
        <g id="Сгруппировать_2921" data-name="Сгруппировать 2921" transform="translate(9.31)">
          <g id="Сгруппировать_2920" data-name="Сгруппировать 2920">
            <path id="Контур_10186" data-name="Контур 10186" d="M2795.592,2412.02l5.411,10.934,4.288,3.3,2.88-5.37-2.9-16.714Z" transform="translate(-2795.592 -2404.167)" fill="#ffae94"/>
          </g>
        </g>
        <g id="Сгруппировать_2922" data-name="Сгруппировать 2922" transform="translate(0 14.352)">
          <path id="Контур_10187" data-name="Контур 10187" d="M2790.353,2449.754c.47.743,23.2-6.638,23.975-7.3s.347-2.017-.182-3.969-3.454-9.226-3.454-9.226l-6.793,2.173a1.363,1.363,0,0,0-1.978-.456,6.922,6.922,0,0,0-1.866,3.057,13.274,13.274,0,0,1-.982,1.169q-.172.188-.361.408c-.534.59-1.2,1.315-1.913,2.1-.123.132-.244.267-.371.4-2.915,3.17-6.592,7.1-7,7.558C2788.74,2446.436,2789.891,2449.011,2790.353,2449.754Z" transform="translate(-2789.213 -2429.262)" fill="#343b57"/>
        </g>
        <g id="Сгруппировать_2923" data-name="Сгруппировать 2923" transform="translate(9.499 20.295)">
          <path id="Контур_10188" data-name="Контур 10188" d="M2811.028,2440.062q1.515,1.923,3.068,3.807c.221.272.653-.049.433-.321q-1.582-1.932-3.14-3.894Q2811.217,2439.842,2811.028,2440.062Z" transform="translate(-2811.028 -2439.654)" fill="#fceade"/>
        </g>
        <g id="Сгруппировать_2924" data-name="Сгруппировать 2924" transform="translate(7.215 22.802)">
          <path id="Контур_10189" data-name="Контур 10189" d="M2818.464,2448.015a.269.269,0,0,0,.432-.32q-1.306-1.844-2.648-3.656c-.123.132-.244.268-.371.4C2816.754,2445.626,2817.613,2446.812,2818.464,2448.015Z" transform="translate(-2815.877 -2444.039)" fill="#fceade"/>
        </g>
      </g>
      <g id="Сгруппировать_2927" data-name="Сгруппировать 2927" transform="translate(229.16 158.382)">
        <g id="Сгруппировать_2926" data-name="Сгруппировать 2926">
          <path id="Контур_10190" data-name="Контур 10190" d="M2879.911,2263.292s4.272.855,8.57,1.484l.533.081c1.286.183,2.556.339,3.7.447,11.788,1.087,11.778-2.674,12.326-7.242s2.658-24.587,4.939-31.415,5.682-32.99,5.106-39.5,7.559-37,9.119-41.357c.726-2.028,3.324-12.605,5.907-23.36,2.98-12.39,5.918-25.012,5.918-25.012l-14.763-44.305-1.458-4.369s-4.035-1.549-8.221-2.921c-.9-.3-1.813-.587-2.689-.85-.167-.054-.339-.1-.5-.151a28.443,28.443,0,0,0-4.66-1.065,2.311,2.311,0,0,0-1.129.075,3.351,3.351,0,0,0-.947.807c-2.421,2.668-6.758,10.566-6.758,10.566s-4.724,1.3-5.224,6.187c-5.7,56.217-5.343,113.762-8.145,170.183Q2880.74,2247.442,2879.911,2263.292Z" transform="translate(-2879.911 -2043.729)" fill="#cf6955"/>
        </g>
      </g>
      <g id="Сгруппировать_2929" data-name="Сгруппировать 2929" transform="translate(255.939 146.798)">
        <g id="Сгруппировать_2928" data-name="Сгруппировать 2928">
          <path id="Контур_10191" data-name="Контур 10191" d="M2777.871,2093.136a161.537,161.537,0,0,0,4.734,21.294c2.717,9.485,6,18.642,8.915,26.475,1.792,4.815,3.438,9.13,4.729,12.719,2.034,5.671,4.853,12.633,8.1,20.213,13.848,32.345,35.449,75.865,36.692,77.414.92,1.152,8.785-2.275,15.145-5.606.161-.086.317-.167.473-.253,3.992-2.108,7.291-4.132,7.731-4.863,1.151-1.91-6.5-21.822-13.4-31.393s-6.51-22.2-13.02-31.393-10.233-19.266-11.1-45.559c-.6-18.066-5.267-50.288-9.765-69.484a151.78,151.78,0,0,0-7.71-23.9c-1.554-3.7-2.625-5.767-2.625-5.767s-2.6-2.254-5.736-4.573c-3.771-2.792-8.3-5.676-9.969-4.837-1.426.71-4.847,3.836-8.092,6.967-1.975,1.9-3.879,3.8-5.235,5.176-1.21,1.221-1.985,2.018-1.985,2.018s-.183,3.325-.28,8.726C2775.277,2057.154,2775.4,2075.872,2777.871,2093.136Z" transform="translate(-2775.415 -2023.471)" fill="#cf6955"/>
        </g>
      </g>
      <g id="Сгруппировать_2931" data-name="Сгруппировать 2931" transform="translate(216.998 4.173)">
        <g id="Сгруппировать_2930" data-name="Сгруппировать 2930">
          <path id="Контур_10192" data-name="Контур 10192" d="M2924.145,1786.669a3.287,3.287,0,0,0,.75-1.826c.031-.311-.027-.605.018-.927a6.34,6.34,0,0,1,.711-1.959c1.306-2.584,3-5.431,5.618-6.864a8.654,8.654,0,0,1,7.5-.312,10.354,10.354,0,0,1,5.62-.279,41.221,41.221,0,0,0,5.067.854,35.869,35.869,0,0,1,4.7.061,10.756,10.756,0,0,1,5.99,3.963,6.433,6.433,0,0,1,.721,1.179,12.635,12.635,0,0,1,4.324,2.486c2.055,1.7-.079,1.823.416,4.466.541,2.885,1.277,11.03,1.277,11.03a12.878,12.878,0,0,0-.843,3.722,9.358,9.358,0,0,1-.91,4.005,22.258,22.258,0,0,0-1.894,4.287,25.409,25.409,0,0,1-1.177,3.935,4.231,4.231,0,0,1-1.707,2.2c-1.057.441-2.388-.542-3.278-1.01a41.649,41.649,0,0,1-13.612-11.316,28.846,28.846,0,0,0-3.239-4.213,28.338,28.338,0,0,0-5.383-3.165c-1.849-1.008-3.72-1.984-5.549-3.029a7.825,7.825,0,0,1-2.5-2.023,3.452,3.452,0,0,1-3.108-2.709A2.777,2.777,0,0,1,2924.145,1786.669Z" transform="translate(-2923.54 -1774.075)" fill="#965244"/>
        </g>
      </g>
      <g id="Сгруппировать_2933" data-name="Сгруппировать 2933" transform="translate(218.201 10.933)">
        <g id="Сгруппировать_2932" data-name="Сгруппировать 2932">
          <path id="Контур_10193" data-name="Контур 10193" d="M2935.316,1823.87c.03.2.066.4.095.582.119.7.233,1.307.339,1.8,1.188,5.643,5.162,8.352,9.949,7.574.475-.077,1.016-.178,1.592-.3h.006c3.5-.713,8.542-2.079,11.471-2.97,3.095-.938,5.7-2.245,8.59-8.767.3-.683.606-1.42.915-2.222a20.144,20.144,0,0,0,.719-2.275c2.043-8.061-.528-17.559-1.61-21.486-1.187-4.306-4.9-8.465-4.9-8.465s-13.069-2.18-18.415-1.188c-5.21.968-10.57,10.3-10.57,10.3a30.087,30.087,0,0,0-.319,6.53c.215,2.3,1.295,3.648,1.435,6.336C2934.912,1815.1,2934.72,1820.212,2935.316,1823.87Z" transform="translate(-2933.103 -1785.896)" fill="#ffae94"/>
        </g>
      </g>
      <g id="Сгруппировать_2935" data-name="Сгруппировать 2935" transform="translate(232.39 38.517)">
        <g id="Сгруппировать_2934" data-name="Сгруппировать 2934">
          <path id="Контур_10194" data-name="Контур 10194" d="M2923.753,1854.178h.006c.226-.024,4.58-.493,5.31,1.966.737,2.524,4.331,16.122,4.331,16.122l8.809-.565,9.356-6.831-5.127-22.591-.986-4.336-.867-3.814s-3.992,1.871-8.287,3.95c-5.007,2.43-10.425,5.156-10.425,5.554C2925.874,1844.377,2923.753,1854.178,2923.753,1854.178Z" transform="translate(-2923.753 -1834.13)" fill="#ffae94"/>
        </g>
      </g>
      <g id="Сгруппировать_2937" data-name="Сгруппировать 2937" transform="translate(215.982 32.133)">
        <g id="Сгруппировать_2936" data-name="Сгруппировать 2936">
          <path id="Контур_10195" data-name="Контур 10195" d="M2991.545,1834.5c.277-.82,3.306-8.153,4.025-9.775-.048-.491-.089-.983-.14-1.474-.04-.38.554-.377.594,0,.031.3.058.609.089.913a.321.321,0,0,1,.167.422c-.034.077-.07.154-.1.232.308,3.183.544,6.372.687,9.567q.064,1.468.106,2.937C2996.984,1837.842,2990.789,1836.748,2991.545,1834.5Z" transform="translate(-2991.481 -1822.966)" fill="#ffae94"/>
        </g>
      </g>
      <g id="Сгруппировать_2939" data-name="Сгруппировать 2939" transform="translate(221.217 33.216)">
        <g id="Сгруппировать_2938" data-name="Сгруппировать 2938">
          <path id="Контур_10196" data-name="Контур 10196" d="M2988.879,1824.863a1.056,1.056,0,0,1,.894.467,2.459,2.459,0,0,1,.372,1.04,2.747,2.747,0,0,1,0,1.159,1.2,1.2,0,0,1-.727.85c-1.174.385-1.582-1.573-1.486-2.336a1.263,1.263,0,0,1,.883-1.173A.519.519,0,0,1,2988.879,1824.863Z" transform="translate(-2987.922 -1824.861)" fill="#14192b"/>
        </g>
      </g>
      <g id="Сгруппировать_2941" data-name="Сгруппировать 2941" transform="translate(220.414 46.361)">
        <g id="Сгруппировать_2940" data-name="Сгруппировать 2940">
          <path id="Контур_10197" data-name="Контур 10197" d="M2983.252,1850.392c.03.2.066.4.1.582a7.676,7.676,0,0,0,5.59-2.613c.249-.285-.167-.707-.422-.416A7.213,7.213,0,0,1,2983.252,1850.392Z" transform="translate(-2983.252 -1847.846)" fill="#de7552"/>
        </g>
      </g>
      <g id="Сгруппировать_2943" data-name="Сгруппировать 2943" transform="translate(219.485 28.784)">
        <g id="Сгруппировать_2942" data-name="Сгруппировать 2942">
          <path id="Контур_10198" data-name="Контур 10198" d="M2981.148,1818.207a1.747,1.747,0,0,1,.677-.562,6.705,6.705,0,0,1,2.72-.535c1.73-.006,3.87.619,4.376,2.5a.3.3,0,0,1-.365.365,16.122,16.122,0,0,0-4.521-.483c-.741.068-1.826.612-2.57.238A.942.942,0,0,1,2981.148,1818.207Z" transform="translate(-2980.894 -1817.11)" fill="#965244"/>
        </g>
      </g>
      <g id="Сгруппировать_2945" data-name="Сгруппировать 2945" transform="translate(218.594 10.204)">
        <g id="Сгруппировать_2944" data-name="Сгруппировать 2944">
          <path id="Контур_10199" data-name="Контур 10199" d="M2931.28,1795.909a43.564,43.564,0,0,0,5.23.8,9.841,9.841,0,0,1,1.182.083c.386.036.772.072,1.158.125a33.421,33.421,0,0,1,3.309.761c1.259.285,2.566.291,3.825.558a7.429,7.429,0,0,1,4.14,2.038,6.782,6.782,0,0,1,.873,1.865,18.782,18.782,0,0,0,1.307,2.769c.018-.006.03,0,.047-.006a6.231,6.231,0,0,1,3.05.153c1.47.491,2.01,2.489,2.253,3.95.356,2.1-1.05,4.314-.6,6.394a5.593,5.593,0,0,0,.564,1.484,8.7,8.7,0,0,0,1.978,2.353c1.283,1.116,2.875,1.324,4.485,1.71.3.072.665.191,1.057.3a3.087,3.087,0,0,0,2.424,0,1.321,1.321,0,0,0,.2-.161l.041-4.363c2.043-8.061-.441-17.533-1.522-21.459-1.188-4.306-5.792-9.058-5.792-9.058s-13.588-2.329-18.934-1.337C2936.344,1785.835,2931.583,1792.342,2931.28,1795.909Z" transform="translate(-2931.28 -1784.621)" fill="#965244"/>
        </g>
      </g>
      <g id="Сгруппировать_2947" data-name="Сгруппировать 2947" transform="translate(239.682 34.589)">
        <g id="Сгруппировать_2946" data-name="Сгруппировать 2946">
          <path id="Контур_10200" data-name="Контур 10200" d="M2957,1827.327c1.351,1.115,1.438,2.852,1.2,4.469-.05.341-.569.2-.519-.143.209-1.435.135-2.955-1.063-3.945C2956.355,1827.487,2956.738,1827.109,2957,1827.327Z" transform="translate(-2956.532 -1827.261)" fill="#de7552"/>
        </g>
      </g>
      <g id="Сгруппировать_2949" data-name="Сгруппировать 2949" transform="translate(228.696 59.751)">
        <g id="Сгруппировать_2948" data-name="Сгруппировать 2948">
          <path id="Контур_10201" data-name="Контур 10201" d="M2901.845,1871.26s-13.185,3.09-19.319,9.636-10.378,20.832-9.059,31.713c0,0,6.05,17.005,6.257,31.936s9.1,35.355,24.035,33.057a287.463,287.463,0,0,0,29.868-6.508s-2.865-29.432-3.822-36.323-4.41-18.232-6.324-27.229-5.937-23.8-11.3-28.588A71.794,71.794,0,0,0,2901.845,1871.26Z" transform="translate(-2873.227 -1871.26)" fill="#fff"/>
        </g>
      </g>
      <g id="Сгруппировать_2951" data-name="Сгруппировать 2951" transform="translate(234.286 55.633)">
        <g id="Сгруппировать_2950" data-name="Сгруппировать 2950">
          <path id="Контур_10202" data-name="Контур 10202" d="M2947.118,1871.323s-1.7-7.263-3.407-7.263-10.4,2.062-16.051,6.545-6.816,6.815-6.906,10.312-9.324,8.608,5.292,6.1,19.637-2.062,20.355-4.3S2947.118,1871.323,2947.118,1871.323Z" transform="translate(-2917.795 -1864.06)" fill="#fff"/>
        </g>
      </g>
      <g id="Сгруппировать_2952" data-name="Сгруппировать 2952" transform="translate(228.937 99.59)">
        <path id="Контур_10203" data-name="Контур 10203" d="M2927.251,2025.917l-10.642-49.234s-18.917,4.661-30.753,4.661-14.341-1.685-15.953-12.983-5.659-27.439-5.659-27.439l-5.349,1.51s8.319,64.757,9.4,70.091,1.137,21.475,3.125,29.545,24.583,16.409,27,15.6S2927.251,2025.917,2927.251,2025.917Z" transform="translate(-2858.896 -1940.923)" fill="#cf6955"/>
      </g>
      <g id="Сгруппировать_2953" data-name="Сгруппировать 2953" transform="translate(237.73 132.98)">
        <path id="Контур_10204" data-name="Контур 10204" d="M2924.246,2245.76l.533.081a324.066,324.066,0,0,0,3.19-44.547c.011-4.363-.108-8.721-.216-13.084a56.369,56.369,0,0,1,.872-13.418c1.663-7.592,5.778-14.445,6.979-22.161,1.291-8.264-1.156-16.426-1.878-24.614-.78-8.824,1.657-17.249,2.824-25.911,1.157-8.576.958-17.248,1.318-25.879a220.421,220.421,0,0,1,2.9-25.98c1.3-8.081,2.771-16.167,3.89-24.291a156.256,156.256,0,0,0,1.721-26.384.269.269,0,0,0-.538,0c.065,2.13.081,4.261.032,6.4a171.17,171.17,0,0,1-1.716,19.836c-1.448,10.5-3.5,20.928-4.993,31.414a213.821,213.821,0,0,0-2.023,25.276,164.478,164.478,0,0,1-2.259,26.363,103.66,103.66,0,0,0-1.8,12.331,59.386,59.386,0,0,0,.8,12.385,108.427,108.427,0,0,1,1.55,12.842,35.646,35.646,0,0,1-1.84,12.138c-1.2,3.7-2.754,7.274-4.008,10.954a43.042,43.042,0,0,0-2.3,11.5c-.248,4.3.005,8.613.092,12.917q.137,6.577,0,13.16A325.3,325.3,0,0,1,2924.246,2245.76Z" transform="translate(-2924.246 -1999.31)" fill="#a8412d"/>
      </g>
      <g id="Сгруппировать_2955" data-name="Сгруппировать 2955" transform="translate(220.927 151.436)">
        <g id="Сгруппировать_2954" data-name="Сгруппировать 2954">
          <path id="Контур_10205" data-name="Контур 10205" d="M2941.657,2063.644l25.238-20.611-11.36-11.451-22.749,29.231s2.294,2.792,2.935,2.948S2941.657,2063.644,2941.657,2063.644Z" transform="translate(-2932.785 -2031.582)" fill="#ffae94"/>
        </g>
      </g>
      <g id="Сгруппировать_2957" data-name="Сгруппировать 2957" transform="translate(2.125 183.999)">
        <g id="Сгруппировать_2956" data-name="Сгруппировать 2956">
          <path id="Контур_10206" data-name="Контур 10206" d="M3079.251,2293.852a11.629,11.629,0,0,0,3.783-.638,11.489,11.489,0,0,0,6.771-6.132l87.033-189.772a6.736,6.736,0,0,1,8.686-3.437l17.366,7.082a2.421,2.421,0,1,0,1.828-4.483l-17.367-7.083a11.566,11.566,0,0,0-14.916,5.9l-87.033,189.771a6.753,6.753,0,0,1-9.25,3.177l-91.878-47.728a2.421,2.421,0,1,0-2.232,4.3l91.879,47.728A11.528,11.528,0,0,0,3079.251,2293.852Z" transform="translate(-2980.74 -2088.523)" fill="#496b9e"/>
        </g>
      </g>
      <g id="Сгруппировать_2966" data-name="Сгруппировать 2966" transform="translate(207.961 179.44)">
        <g id="Сгруппировать_2959" data-name="Сгруппировать 2959">
          <g id="Сгруппировать_2958" data-name="Сгруппировать 2958">
            <path id="Контур_10207" data-name="Контур 10207" d="M2990.235,2080.669c-3.122-.48-7.888.625-9.154,1.026s-4.579,4-4.579,4l3.946,1.632-3.244,4.792s-1.487,3.308.442,3.981,3.348,1.719,5.276,1.413,3.755,1.029,6.677.124,8.978-13.247,8.978-13.247S2993.356,2081.149,2990.235,2080.669Z" transform="translate(-2976.502 -2080.551)" fill="#ffae94"/>
          </g>
        </g>
        <g id="Сгруппировать_2961" data-name="Сгруппировать 2961" transform="translate(2.358 12.488)">
          <g id="Сгруппировать_2960" data-name="Сгруппировать 2960">
            <path id="Контур_10208" data-name="Контур 10208" d="M3006.075,2105.14a34.251,34.251,0,0,0,2.3-2.651c.213-.273.632.066.418.339a34.455,34.455,0,0,1-2.3,2.651C3006.255,2105.726,3005.835,2105.39,3006.075,2105.14Z" transform="translate(-3006.003 -2102.388)" fill="#de7552"/>
          </g>
        </g>
        <g id="Сгруппировать_2963" data-name="Сгруппировать 2963" transform="translate(6.949 14.137)">
          <g id="Сгруппировать_2962" data-name="Сгруппировать 2962">
            <path id="Контур_10209" data-name="Контур 10209" d="M2999.709,2107.288l1.36-1.911c.2-.282.618.057.418.339l-1.36,1.911C2999.927,2107.909,2999.51,2107.57,2999.709,2107.288Z" transform="translate(-2999.656 -2105.271)" fill="#de7552"/>
          </g>
        </g>
        <g id="Сгруппировать_2965" data-name="Сгруппировать 2965" transform="translate(10.23 14.691)">
          <g id="Сгруппировать_2964" data-name="Сгруппировать 2964">
            <path id="Контур_10210" data-name="Контур 10210" d="M2993.555,2108.2a9.362,9.362,0,0,0,1.586-1.848c.19-.289.607.052.418.339a9.909,9.909,0,0,1-1.686,1.943C2993.615,2108.862,2993.3,2108.427,2993.555,2108.2Z" transform="translate(-2993.46 -2106.239)" fill="#de7552"/>
          </g>
        </g>
      </g>
      <g id="Сгруппировать_2967" data-name="Сгруппировать 2967" transform="translate(237.982 80.832)">
        <path id="Контур_10211" data-name="Контур 10211" d="M2924.01,1908.122s9.322,33.618,6.725,45.121-1.882,18.293-6.725,22.328-2.066,5.32-7.8,11.567-11.837,9.953-13.182,9.415-13.8-10.51-13.8-10.51l3.475-8.859s4.118-10.222,7.491-29.859-.974-30.4,5.907-32.818S2924.01,1908.122,2924.01,1908.122Z" transform="translate(-2889.226 -1908.122)" fill="#fff"/>
      </g>
      <g id="Сгруппировать_2968" data-name="Сгруппировать 2968" transform="translate(229.545 61.993)">
        <path id="Контур_10212" data-name="Контур 10212" d="M2879.03,1900.806c1.011-4.864.667-8.874,3.469-13.063,2.41-3.6,5.624-7.729,9.18-10.247,3.223-2.282,7.456-2.681,11.263-2.044a18.718,18.718,0,0,1,10.418,5.55c3.112,3.316,4.717,7.85,7.21,11.622a36.894,36.894,0,0,1,5.435,12.644c1.022,4.623,1.475,9.366,2.742,13.937,1.537,5.543,3.416,9.646,4.489,15.361a122.639,122.639,0,0,1,1.375,13.97s-3.889,6.019-3.715,3.248a89.129,89.129,0,0,0-.62-13.525,34.263,34.263,0,0,0-3.607-12.309c-3.387-7.286-2.684-16.348-5-23.934a46.792,46.792,0,0,0-5.38-10.895c-2.179-3.583-3.684-7.178-7.263-9.684-3.024-2.118-7.377-3.909-11.029-3.228-4.137.771-8.371,4.569-10.895,7.667-3.347,4.108-3.9,10.142-4.99,15.262-1.155,5.427-.483,10.651-.255,16.225.113,2.77-4.191,2.764-4.3,0A69.675,69.675,0,0,1,2879.03,1900.806Z" transform="translate(-2877.505 -1875.18)" fill="#cf6955"/>
      </g>
      <g id="Сгруппировать_2969" data-name="Сгруппировать 2969" transform="translate(216.983)">
        <path id="Контур_10213" data-name="Контур 10213" d="M2963.337,1795.419s-42.122-9.394-43.326-12.577c-.312-.824,4.388-12.285,7.078-14.84s18.83-.762,26.766,2.2,10.895,8.182,11.433,10.816S2963.337,1795.419,2963.337,1795.419Z" transform="translate(-2919.996 -1766.778)" fill="#cf6955"/>
      </g>
      <g id="Сгруппировать_2970" data-name="Сгруппировать 2970" transform="translate(252.068 23.372)">
        <path id="Контур_10214" data-name="Контур 10214" d="M2885.248,1808.813c.269.09,26.631,9.089,26.811,10.463s1.076,2.27-4.394,1.015-29.844-9.282-29.844-9.282l3.392-3.361Z" transform="translate(-2877.821 -1807.647)" fill="#cf6955"/>
      </g>
      <g id="Сгруппировать_2971" data-name="Сгруппировать 2971" transform="translate(272.045 218.221)">
        <path id="Контур_10215" data-name="Контур 10215" d="M2878.288,2194.358v.016c1.791,4.815,3.438,9.13,4.729,12.719,2.034,5.671,4.853,12.633,8.1,20.213a18.293,18.293,0,0,0-.366-7.747c-2.152-7.709,2.69-13.09,1.5-23.49s-2.394-12.734-.737-20.8,0-26.9,0-26.9-1.479,4.842-4.886,15.065S2878.288,2194.358,2878.288,2194.358Z" transform="translate(-2878.288 -2148.364)" fill="#a8412d"/>
      </g>
      <g id="Сгруппировать_2972" data-name="Сгруппировать 2972" transform="translate(286.188 186.219)">
        <path id="Контур_10216" data-name="Контур 10216" d="M2872.181,2121.1a102.587,102.587,0,0,0,2.889-28.436c-.013-.347.525-.346.538,0a103.153,103.153,0,0,1-2.908,28.578A.269.269,0,0,1,2872.181,2121.1Z" transform="translate(-2872.172 -2092.405)" fill="#a8412d"/>
      </g>
      <g id="Сгруппировать_2973" data-name="Сгруппировать 2973" transform="translate(230.163 100.852)">
        <path id="Контур_10217" data-name="Контур 10217" d="M2970.863,1945.572c-.133-1.256.447-2.346,1.3-2.435s1.643.856,1.775,2.112-.448,2.347-1.3,2.436S2971,1946.828,2970.863,1945.572Z" transform="translate(-2970.844 -1943.131)" fill="#fff"/>
      </g>
      <g id="Сгруппировать_2977" data-name="Сгруппировать 2977" transform="translate(88.497 375.764)">
        <g id="Сгруппировать_2974" data-name="Сгруппировать 2974" transform="translate(0)">
          <circle id="Эллипс_565" data-name="Эллипс 565" cx="14.795" cy="14.795" r="14.795" fill="#343b57"/>
        </g>
        <g id="Сгруппировать_2975" data-name="Сгруппировать 2975" transform="translate(4.035 4.035)">
          <circle id="Эллипс_566" data-name="Эллипс 566" cx="10.76" cy="10.76" r="10.76" transform="translate(0)" fill="#14192b"/>
        </g>
        <g id="Сгруппировать_2976" data-name="Сгруппировать 2976" transform="translate(11.029 11.029)">
          <circle id="Эллипс_567" data-name="Эллипс 567" cx="3.766" cy="3.766" r="3.766" transform="translate(0)" fill="#fff"/>
        </g>
      </g>
      <g id="Сгруппировать_2979" data-name="Сгруппировать 2979" transform="translate(68.156 358.959)">
        <g id="Сгруппировать_2978" data-name="Сгруппировать 2978" transform="translate(0 0)">
          <rect id="Прямоугольник_2191" data-name="Прямоугольник 2191" width="4.842" height="50.46" transform="translate(0.964 14.788) rotate(-101.48)" fill="#496b9e"/>
        </g>
      </g>
      <g id="Сгруппировать_2980" data-name="Сгруппировать 2980" transform="translate(106.9 169.531)">
        <circle id="Эллипс_568" data-name="Эллипс 568" cx="4.573" cy="4.573" r="4.573" transform="translate(0)" fill="#fff"/>
      </g>
      <g id="Сгруппировать_2982" data-name="Сгруппировать 2982" transform="translate(51.966 294.715)">
        <g id="Сгруппировать_2981" data-name="Сгруппировать 2981">
          <path id="Контур_10218" data-name="Контур 10218" d="M3227.377,2347.648l.473.247,16.6-31.877.247-.479,17.275-33.168-.473-.247-17.27,33.157-.253.479Z" transform="translate(-3227.377 -2282.124)" fill="#c7875c"/>
        </g>
      </g>
      <g id="Сгруппировать_2983" data-name="Сгруппировать 2983" transform="translate(241.224 70.657)">
        <path id="Контур_10219" data-name="Контур 10219" d="M2946.892,1915.588a22.163,22.163,0,0,1-2.021-11.489c.464-4.765,2.218-9.26,4.085-13.627.135-.317.6-.043.465.272-1.8,4.207-3.484,8.539-3.987,13.12a21.721,21.721,0,0,0,.215,6.5,29.73,29.73,0,0,0,2.1,5.85,9.3,9.3,0,0,1,.925,4.876c-.286,2.118-1.606,4.069-1.277,6.261.291,1.935,1.671,3.46,2.666,5.075a11.082,11.082,0,0,1,1.594,5.078,61.234,61.234,0,0,1-.157,7.312q-.178,4.12-.354,8.24c-.015.345-.553.346-.538,0,.2-4.764.638-9.581.561-14.349a11.781,11.781,0,0,0-1.9-6.532,13.24,13.24,0,0,1-2.369-4.516c-.339-1.748.34-3.359.846-5C2948.539,1920.083,2947.952,1917.977,2946.892,1915.588Z" transform="translate(-2944.768 -1890.33)" fill="#f5ddce"/>
      </g>
      <g id="Сгруппировать_2984" data-name="Сгруппировать 2984" transform="translate(274.924 109.996)">
        <path id="Контур_10220" data-name="Контур 10220" d="M2894.493,1959.311a62.315,62.315,0,0,1,1.184,23.449c-.047.342-.565.2-.519-.143a61.6,61.6,0,0,0-1.184-23.163C2893.892,1959.118,2894.411,1958.974,2894.493,1959.311Z" transform="translate(-2893.966 -1959.119)" fill="#f5ddce"/>
      </g>
      <g id="Сгруппировать_2985" data-name="Сгруппировать 2985" transform="translate(249.466 128.388)">
        <path id="Контур_10221" data-name="Контур 10221" d="M2916.159,1991.4a54.09,54.09,0,0,1,14.775,1.027c.339.071.2.59-.143.519a53.55,53.55,0,0,0-14.632-1.008C2915.813,1991.966,2915.814,1991.428,2916.159,1991.4Z" transform="translate(-2915.9 -1991.28)" fill="#f5ddce"/>
      </g>
      <g id="Сгруппировать_2986" data-name="Сгруппировать 2986" transform="translate(251.441 124.848)">
        <path id="Контур_10222" data-name="Контур 10222" d="M2922.677,1986.742a24.285,24.285,0,0,1,9.039-1.651.269.269,0,0,1,0,.538,23.877,23.877,0,0,0-8.9,1.631C2922.5,1987.386,2922.357,1986.866,2922.677,1986.742Z" transform="translate(-2922.496 -1985.091)" fill="#f5ddce"/>
      </g>
    </g>
  </g>
</svg>
