<svg xmlns="http://www.w3.org/2000/svg" width="320.625" height="548.258" viewBox="0 0 320.625 548.258">
  <g id="img_self_storage_service" transform="translate(-848.153 -7394.379)">
    <path id="Контур_9946" data-name="Контур 9946" d="M976.131,415.968c-.294-3.092-.069-6.7,1.66-9.465-1.393-2.821-1.38-6.407,1.316-8.472a12.66,12.66,0,0,1,2.849-1.507,3.632,3.632,0,0,0,2.513-2.092c.213-.394.167-.8.424-1.215.984-1.578,3.341-2.108,5.039-2.71a89.848,89.848,0,0,1,9.148-3,17.446,17.446,0,0,1,13.2-2.079,16.183,16.183,0,0,1,11.227,9.968,41.918,41.918,0,0,1,5.609,1.842,25.811,25.811,0,0,1,8.454,5.1c5.936,5.719,4.357,13.41,1.808,20.221-1.628,4.349-3.36,8.667-5.043,13q-1.163,2.991-2.325,5.982a31.442,31.442,0,0,1-2.327,5.683c-1.5,2.344-5.489,3.136-8.185,3.36-4.216.35-8.23-2.09-11.818-3.808-4.28-2.051-9.1-4-12.717-7.014a18.932,18.932,0,0,1-3.4-4.311c-1.647-2.392-4.505-3.271-7.294-4.059l-.008,0c-1.789.61-4.088,1.006-5.275-.454a4.876,4.876,0,0,1-.01-6.087A12.027,12.027,0,0,1,976.131,415.968Z" transform="translate(41.32 7009.446)" fill="#965244"/>
    <g id="Сгруппировать_2747" data-name="Сгруппировать 2747" transform="translate(946.752 7427.978)">
      <path id="Контур_9947" data-name="Контур 9947" d="M1085.389,471.859c.679-3.6,2.12-7.12,3.162-8.334,1.386-1.636,3.478-2.634,5.134-4.055,2.967-2.54,4.39-6.285,5.134-9.97.726-3.685.874-7.464,1.823-11.106a20.9,20.9,0,0,1,9.031-12.854c2.269-1.395,5.469-2.17,7.738-1.042.075.034.159.077.233.12a3.536,3.536,0,0,1,.6.413c.093.077.167.155.251.232a2.258,2.258,0,0,1,.316.336c1.47,1.8,1.153,4.425.679,6.7-1.088,5.235-2.6,10.762-6.826,14.378-2.511,2.161-5.989,3.65-7.245,6.595-1.6,3.7.93,8.351-1.4,11.717-1.758,2.531-5.534,3.125-7.784,5.295-1.758,1.662-2.372,4.038-3.311,6.2-.577,1.334-2.464,4.916-4.51,4.606a3.936,3.936,0,0,1-1.283-.4,3.256,3.256,0,0,1-.763-.577,3.538,3.538,0,0,1-.632-.861c-.01-.009-.01-.017-.019-.026v-.009C1084.589,477.094,1085.044,473.736,1085.389,471.859Z" transform="translate(-1084.999 -423.957)" fill="#428470"/>
    </g>
    <g id="Сгруппировать_2749" data-name="Сгруппировать 2749" transform="translate(921.572 7443.043)">
      <path id="Контур_9948" data-name="Контур 9948" d="M1126.227,442.481a.841.841,0,0,1,.223-.172,2.433,2.433,0,0,1,.623-.4,3.488,3.488,0,0,1,.93-.336.036.036,0,0,1,.028-.009,4.847,4.847,0,0,1,.632-.086,5.319,5.319,0,0,1,2.2.293,10.385,10.385,0,0,1,3.934,2.781c8.9,9.023,10.556,21.179,12.834,32.7.316,1.567.474,3.452-.567,4.58,0,0,.018,0,0,.017a2.056,2.056,0,0,1-.586.482,2.134,2.134,0,0,1-.521.232,2.109,2.109,0,0,1-.316.077,2.357,2.357,0,0,1-.6.043,4.621,4.621,0,0,1-3.758-2.712c-.855-1.885-.79-4.029-1.646-5.906-1.358-3.039-4.864-4.882-6.314-7.895-1.4-2.9-.624-6.311-1.628-9.333-1.144-3.392-4.362-5.863-5.868-9.143C1125.046,445.993,1124.832,443.815,1126.227,442.481Z" transform="translate(-1125.209 -441.456)" fill="#428470"/>
    </g>
    <g id="Сгруппировать_2751" data-name="Сгруппировать 2751" transform="translate(964.199 7436.282)">
      <path id="Контур_9949" data-name="Контур 9949" d="M1062.639,478.53c1.665-2.566,4.762-5.338,5.357-6.526,2.353-4.58,3.525-9.565,5.022-14.421,2.408-7.809,5.264-16.005,11.839-21.386,1.8-1.472,4.157-2.729,6.464-2.583a1.214,1.214,0,0,1,.177.009,4.395,4.395,0,0,1,.809.129c.149.043.3.086.447.138a1.655,1.655,0,0,1,.288.112c2.669,1.085,3.8,4.1,4.427,6.793.846,3.728,1.339,7.731-.2,11.27-1.655,3.805-5.338,6.457-8.77,9.04a169.542,169.542,0,0,0-19.475,17.133q10.854-4.068,21.725-8.1a15.446,15.446,0,0,1,5.152-1.274,5.471,5.471,0,0,1,3.98,1.472,2.93,2.93,0,0,1,.363.448,1.767,1.767,0,0,1,.158.258,2.717,2.717,0,0,1,.233.542.535.535,0,0,1,.037.112c.707,2.445-1.869,5.1-4.669,5.82-3.032.809-6.3.267-9.384.852-3.1.568-5.831,2.221-8.78,3.246a44.433,44.433,0,0,1-11.16,1.842,8.532,8.532,0,0,1-3.106-.121,2.4,2.4,0,0,1-.353-.112,2.041,2.041,0,0,1-.493-.207.212.212,0,0,1-.047-.026,2.115,2.115,0,0,1-.958-1.068C1061.374,480.984,1061.839,479.787,1062.639,478.53Z" transform="translate(-1061.608 -433.602)" fill="#428470"/>
    </g>
    <path id="Контур_9950" data-name="Контур 9950" d="M1126.875,441.922a27.33,27.33,0,0,1,6.91,10.392,38.207,38.207,0,0,1,1.572,7.464c.335,2.221,1.423,3.461,3.106,4.985,4.688,4.236,5.627,10.512,6.222,16.289.056.551.112,1.093.158,1.644.447,5.415.372,10.865.3,16.3,0,.551.93.551.93,0,.075-5.476.149-10.96-.307-16.418-.1-1.188-.223-2.376-.381-3.556-.651-4.864-1.618-10.168-5.283-13.947-1.274-1.309-2.883-2.307-3.534-4.055a21.442,21.442,0,0,1-.632-4.167,26.5,26.5,0,0,0-2.186-7.008,28.1,28.1,0,0,0-5.943-8.256A3.494,3.494,0,0,0,1126.875,441.922Z" transform="translate(-203.44 7001.569)" fill="#23614d"/>
    <path id="Контур_9951" data-name="Контур 9951" d="M1086.765,493.4c-.009.551.921.551.93,0a40.921,40.921,0,0,1,6.984-21.661c1.99-2.944,4.576-5.338,6.864-8.059a10.219,10.219,0,0,0,2.064-3.581c.642-2.032.558-4.15,1.618-6.078,1.488-2.686,4.045-4.709,4.576-7.809.307-1.808.186-3.582.772-5.355a18.041,18.041,0,0,1,2.455-4.641c2.027-2.9,4.594-5.441,6.808-8.214.651-.809,1.525-1.8,2.344-2.884a3.55,3.55,0,0,0-.6-.413c-.074-.043-.158-.086-.233-.121-.474.62-.939,1.188-1.3,1.679-1.172,1.558-2.464,3.048-3.757,4.529a37.535,37.535,0,0,0-5.813,7.895,13.833,13.833,0,0,0-1.293,3.978c-.307,1.929-.1,3.823-1.06,5.639-1.488,2.8-3.971,4.8-4.706,7.947-.456,1.98-.521,3.874-1.674,5.665a33.512,33.512,0,0,1-3.766,4.227,42.219,42.219,0,0,0-8.324,13.155v.009A41.2,41.2,0,0,0,1086.765,493.4Z" transform="translate(-142.191 7003.933)" fill="#23614d"/>
    <path id="Контур_9952" data-name="Контур 9952" d="M1062.7,498.557c2.511-5.717,6.771-10.392,10.788-15.222.623-.749,1.237-1.507,1.841-2.264a46.144,46.144,0,0,0,11.755-1.464c3.841-1.016,7.273-2.953,11.077-4,3.264-.9,6.668-.835,9.728-2.376a18.562,18.562,0,0,0,2.66-1.644,2.7,2.7,0,0,0-.232-.542,1.819,1.819,0,0,0-.158-.258,18.419,18.419,0,0,1-2.734,1.7c-3.236,1.619-6.9,1.446-10.3,2.531-3.5,1.111-6.706,2.815-10.286,3.754a44.938,44.938,0,0,1-10.826,1.429c.065-.086.14-.181.214-.267a28.1,28.1,0,0,0,4.538-9.092,21.279,21.279,0,0,1,5.673-8.765c4.334-4.322,9.347-8.11,11.021-14.059,1.079-3.84,1.265-7.766,3.106-11.425a29.438,29.438,0,0,1,1.656-2.841,4.4,4.4,0,0,0-.809-.129,1.217,1.217,0,0,0-.177-.009c-.409.62-.781,1.257-1.135,1.9-1.739,3.22-2.325,6.56-3.032,10.056a19.843,19.843,0,0,1-5.348,10.176c-2.176,2.29-4.641,4.322-6.817,6.612a20.839,20.839,0,0,0-4.576,6.87,58.729,58.729,0,0,1-2.139,6.044,30.046,30.046,0,0,1-3.218,4.8c-.065.078-.121.155-.186.232a.34.34,0,0,0-.14.181c-.67.844-1.358,1.679-2.046,2.505-4.036,4.864-8.258,9.582-10.788,15.342C1061.587,498.85,1062.489,499.065,1062.7,498.557Z" transform="translate(-107.321 7002.677)" fill="#23614d"/>
    <g id="Сгруппировать_2761" data-name="Сгруппировать 2761" transform="translate(892.308 7632.611)">
      <path id="Контур_9953" data-name="Контур 9953" d="M1158.872,661.922a9.763,9.763,0,0,1,2.8-.27,26.04,26.04,0,0,1,6.191,1.337q3.832,1.133,7.73,2.064a1.075,1.075,0,0,0,.841-.033c.2-.135.276-.4.5-.5.464-.221.831.418,1.277.67.261.148.607.17.815.379a.936.936,0,0,1,.108.926,6.363,6.363,0,0,1-3.786,4.107c-1.751.7-3.726.66-5.605.961-2.545.407-5.264,1.426-7.584.375a7.417,7.417,0,0,0-1.707-.742,8.537,8.537,0,0,0-1.461,0c-3.941-.007-5.574-5.176-3.134-7.641A6.409,6.409,0,0,1,1158.872,661.922Z" transform="translate(-1154.704 -661.641)" fill="#ffae94"/>
    </g>
    <path id="Контур_9954" data-name="Контур 9954" d="M1159.19,670.693l1.507-5.6c.145-.537,1.043-.31.9.229l-1.508,5.6C1159.943,671.46,1159.046,671.232,1159.19,670.693Z" transform="translate(-248.965 6970.532)" fill="#de7552"/>
    <path id="Контур_9955" data-name="Контур 9955" d="M1166.013,670.864a20.6,20.6,0,0,0,1.969-5.524c.111-.544,1.008-.314.9.229a21.452,21.452,0,0,1-2.064,5.729C1166.553,671.8,1165.751,671.36,1166.013,670.864Z" transform="translate(-262.553 6970.498)" fill="#de7552"/>
    <path id="Контур_9956" data-name="Контур 9956" d="M1173.1,670.065q.618-2.427,1.234-4.853c.137-.539,1.034-.311.9.229L1174,670.294C1173.863,670.833,1172.966,670.605,1173.1,670.065Z" transform="translate(-275.54 6970.515)" fill="#de7552"/>
    <path id="Контур_9957" data-name="Контур 9957" d="M983.376,405.348c4.836-5.915,12.593-9.324,22.674-8,13.216,1.722,24.069,9.918,25.39,22.669.781,7.559-4.762,21.472-5.189,22.54-.019.043-.028.069-.028.069s-.019.6-.065,1.524c0,.06-.009.1-.009.129v.009a80.043,80.043,0,0,1-1.7,9.668,185.6,185.6,0,0,0,6.166,35.058c.995-.2,1.99-.4,2.976-.62.7-.164.995.826.3.99-1,.232-2,.43-3,.628q.7,2.48,1.469,4.959c.2.637-.874.913-1.069.275q-.781-2.505-1.488-5.011a89.344,89.344,0,0,1-29.2.491.528.528,0,0,1-.391-.637,68.253,68.253,0,0,0,2.26-18.476c-.009-1.584-.065-3.168-.149-4.752-16.555-2.66-21.6-28.79-23.009-40.2-.046-.4-.093-.792-.13-1.18C978.382,417.918,979.154,410.522,983.376,405.348Z" transform="translate(46.025 7007.759)" fill="#ffae94"/>
    <path id="Контур_9958" data-name="Контур 9958" d="M991.534,484.63l-8.994-.973s-.885,7.995,2.37,8.712,18.445,3.3,22.321,2.727,11.165-8.089,11.165-8.089l-7.445-2.376Z" transform="translate(58.627 6995.718)" fill="#ffae94"/>
    <path id="Контур_9959" data-name="Контур 9959" d="M1092.876,484.787s-6.07.535-13.18,5.867S1047.3,517.56,1047.3,517.56l14.594,32s8.942-4.754,18.095-8.523c8.08-3.328,13.527-8.481,14.12-9.944s0-24.53,0-24.53Z" transform="translate(-77.689 6995.561)" fill="#343b57"/>
    <path id="Контур_9960" data-name="Контур 9960" d="M1143.393,525.484h22.389c1.584,0-2.582-35.124-2.582-35.124a2.375,2.375,0,0,0-2.309-1.625h-12.1a2.368,2.368,0,0,0-2.328,1.693S1141.84,525.484,1143.393,525.484Z" transform="translate(-238.522 6995.013)" fill="#a2a6ba"/>
    <path id="Контур_9961" data-name="Контур 9961" d="M1085.167,528.463h45.426l2.932-31.216a2.309,2.309,0,0,0-2.4-2.425h-46.487a2.307,2.307,0,0,0-2.4,2.425Z" transform="translate(-149.324 6994.167)" fill="#cf6955"/>
    <rect id="Прямоугольник_2182" data-name="Прямоугольник 2182" width="149.707" height="77.848" rx="1" transform="translate(848.153 7559.927)" fill="#c7875c"/>
    <path id="Контур_9962" data-name="Контур 9962" d="M895.33,960.572l16.26,22.04,6.563,4.009,4.471-9.825L909.64,952.618Z" transform="translate(235.406 6930.51)" fill="#ffae94"/>
    <path id="Контур_9963" data-name="Контур 9963" d="M887.055,1015.631c1.375,1.521,13.978-5.489,22.939-9.915,8.962-4.4,16.75-8.9,17.532-10.681.168-.4-.223-1.49-.96-2.9-2.446-4.747-8.723-13.291-10.064-12.775a49.409,49.409,0,0,0-6.213,3.805s-7.374-.684-8.346,1.581c-.839,1.975-.772,4.147-2.08,6.164l-.011.01a5.741,5.741,0,0,1-.659.858,3.258,3.258,0,0,1-.291.311c-.626.661-1.709,1.664-2.995,2.854-.368.341-.749.692-1.15,1.044-1.263,1.168-2.66,2.419-4.012,3.651-2.716,2.471-5.241,4.808-6.224,5.925C882.274,1008.122,885.659,1014.111,887.055,1015.631Z" transform="translate(241.214 6926.794)" fill="#343b57"/>
    <path id="Контур_9964" data-name="Контур 9964" d="M887.055,1017.7c1.375,1.521,13.978-5.489,22.939-9.915,8.962-4.4,16.75-8.9,17.532-10.681.168-.4-.223-1.49-.96-2.9l-28.672,15.2s-3.284-5.379-7.149-7.7c-2.716,2.471-5.241,4.808-6.224,5.925C882.274,1010.189,885.659,1016.177,887.055,1017.7Z" transform="translate(241.214 6924.727)" fill="#fff"/>
    <path id="Контур_9965" data-name="Контур 9965" d="M907.763,993.962q2.614,1.582,5.206,3.187a.751.751,0,0,0,.782-1.283c-1.676-1.013-3.351-2.048-5.027-3.083l-.011.01a5.754,5.754,0,0,1-.659.858A3.257,3.257,0,0,1,907.763,993.962Z" transform="translate(232.354 6924.924)" fill="#fff"/>
    <path id="Контур_9966" data-name="Контур 9966" d="M912.269,998.512l5.161,3.166a.751.751,0,0,0,.782-1.283c-1.586-.972-3.195-1.945-4.792-2.927C913.051,997.809,912.67,998.16,912.269,998.512Z" transform="translate(223.701 6924.274)" fill="#fff"/>
    <path id="Контур_9967" data-name="Контур 9967" d="M1097.039,965.03l-5.333,26.229,1.58,7.131,10.665-4.022,9.283-25.6Z" transform="translate(-137.84 6928.784)" fill="#ffae94"/>
    <path id="Контур_9968" data-name="Контур 9968" d="M890.355,723.334s1.674,6.965,4.511,17.684c.763,2.884,1.609,6.044,2.53,9.41.074.284.158.568.242.861,2.744,10.03,6.129,21.825,9.886,33.8.084.267.177.534.26.809,5.376,17.038,11.5,34.352,17.643,47.344.13.276.26.542.381.809a102.409,102.409,0,0,0,6.045,11.063c1.953,3.03,8.993,14.43,17.131,27.645.14.224.279.448.419.68,7.412,12.019,15.662,25.441,21.809,35.359.158.258.316.508.465.758,4.892,7.895,8.333,13.4,8.77,13.939.521.654,1.748.818,3.357.663.307-.034.623-.077.958-.129h.009a52.78,52.78,0,0,0,10.956-3.461c1.265-.525,2.7-1.111,4.185-1.7.493-.2.977-.4,1.451-.6.791-.318,1.581-.646,2.344-.973.288-.12.567-.241.846-.37,3.562-1.55,6.436-3.082,6.436-4.141,0-1.5-3.432-9.074-6.7-16.263h-.009c-.112-.267-.232-.534-.353-.8-.856-1.868-1.683-3.694-2.427-5.364-2.669-6.027-5.822-19.2-10.788-30.435-.112-.267-.233-.534-.353-.8a54.351,54.351,0,0,0-6.055-10.555c-8.24-10.779-12.741-20.68-16.685-26.75h-.009c-.149-.233-.3-.456-.437-.672h-.009c-.186-.284-.381-.56-.567-.818-4.2-5.854-4.2-22.927-7.366-38.037q-.153-.736-.307-1.627c-.056-.275-.1-.568-.158-.861-1.042-6.319-2.185-17.236-3.292-29.272-.028-.293-.056-.577-.084-.87-1.107-12.088-2.176-25.209-3.088-35.884-.028-.276-.047-.551-.065-.818h-.009c-.809-9.5-1.5-16.943-1.953-19.785-1.581-9.755-5.729-25.958-5.729-25.958s-45.032-6.655-47.134,1.136c-.5,1.86-1.172,5.975-1.888,11.149-1.7,12.174-3.711,30.263-4.641,38.9-.037.3-.065.594-.093.87C890.513,721.81,890.355,723.334,890.355,723.334Z" transform="translate(151.665 6970.564)" fill="#c98365"/>
    <path id="Контур_9969" data-name="Контур 9969" d="M1005.168,923.791c-.056.439.446.93,1.348,1.446.251.146.539.293.856.448,3.088,1.464,8.938,3.065,14.332,4.176l.9.181c4.9.956,9.263,1.481,10.6,1.068,2.706-.844,3.59-12.957,7.366-23.848.083-.267.177-.534.27-.792a38.922,38.922,0,0,1,4.213-8.635,68.168,68.168,0,0,0,8.091-16.771c.093-.267.177-.534.26-.8a97.261,97.261,0,0,0,4.3-24.485,87.029,87.029,0,0,1,1.841-12.51c.056-.293.121-.585.186-.878,3.023-14.275,8.724-32.647,12.574-45.2.084-.284.177-.568.26-.844.558-1.834,1.079-3.53,1.544-5.062,2.455-8.153,9.347-24.933,15.782-40.172.121-.276.233-.551.354-.826,1.311-3.1,2.6-6.121,3.832-8.988,4.25-9.927,7.738-17.951,8.742-20.5a6.68,6.68,0,0,0,.288-.973,18.4,18.4,0,0,0,.316-3.676c.028-4.744-.921-11.666-2.028-18.132-.307-1.808-.632-3.582-.958-5.26-1.284-6.784-2.5-12.062-2.5-12.062l-3.2-.921-13.783-3.978-.939-.267-14.592-4.21-1.534-.439-5.8-1.67-.939-.275-8.249-2.376s-3.423,19.268-7.561,42.367c-.056.284-.112.568-.158.852-1.628,9.083-3.358,18.734-5.031,28.007-.056.293-.1.577-.158.861-3.785,20.981-7.245,39.931-8.482,46.052-.279,1.369-.791,4.287-1.488,8.369-.047.275-.093.551-.14.844-1.488,8.816-3.72,22.583-6.185,37.916-.046.293-.093.594-.139.9-1.935,12.045-4,25.011-5.943,37.279-.037.276-.084.542-.13.818-1.8,11.433-3.516,22.23-4.9,31.054-.037.284-.084.56-.13.835C1006.545,914.837,1005.261,923.067,1005.168,923.791Z" transform="translate(-47.547 6970.286)" fill="#c98365"/>
    <path id="Контур_9970" data-name="Контур 9970" d="M902.316,903.1c-1.033-.129-2.065-.25-3.107-.37.047-.276.093-.551.13-.835,1.06.112,2.111.241,3.171.37q3.4-15.006,6.817-30.021c-1.693-.465-3.385-.938-5.087-1.4.047-.276.093-.543.13-.818,1.711.465,3.432.938,5.143,1.412q3.99-17.589,8-35.178c-2.427-1.128-4.818-2.307-7.2-3.513.046-.3.093-.6.14-.9,2.4,1.205,4.808,2.4,7.254,3.538,3.032-13.31,6.259-26.612,9.114-39.965q-5.106-.671-10.184-1.489c.047-.293.093-.568.14-.844,3.4.542,6.817,1.05,10.23,1.5,1.014-4.787,1.99-9.574,2.883-14.369a210.194,210.194,0,0,0,3.543-28.583c.167-3.642.223-7.284.316-10.934-2.316-.715-4.65-1.4-7-2.032.056-.284.1-.568.158-.861,2.3.62,4.585,1.309,6.864,2.032a114.71,114.71,0,0,1,1.237-15.342,100.642,100.642,0,0,1,3.32-13.474c-2.12-.43-4.25-.844-6.389-1.223.047-.284.1-.568.158-.852.893.155,1.776.327,2.66.491,1.274.241,2.548.5,3.823.766,4.269-13.594,10.035-26.913,9.328-41.248-.009-.232-.018-.473-.037-.706-.037-.551.893-.551.93,0,.019.327.037.654.046.982.623,14.266-5.115,27.628-9.365,41.162,9.114,1.937,18.126,4.365,27.268,6.182a177.006,177.006,0,0,0,4.027-41.024q-.07-4.21-.344-8.411c-.037-.56.893-.551.93,0q.279,4.339.354,8.678a177.787,177.787,0,0,1-4.055,40.929c3.088.6,6.185,1.128,9.31,1.533,1.3.172,2.595.31,3.887.413a101.338,101.338,0,0,0,12.927.232,118.043,118.043,0,0,1-2.586-26.147,90.578,90.578,0,0,1,3.274-22.824c.149-.534,1.051-.31.893.232a91.845,91.845,0,0,0-3.208,27.852,118.052,118.052,0,0,0,2.027,18.132q.251,1.356.53,2.712a245.012,245.012,0,0,0,25.194-2.9c4.417-.672,8.863-1.343,13.318-1.877l-.028-.646c-.577-11.2-3.394-22.144-6.213-33.009-.14-.534.763-.766.9-.224,2.381,9.2,4.762,18.459,5.8,27.895.223,1.963.335,3.917.418,5.88,2.7-.31,5.385-.568,8.091-.749h.009c.019.267.037.543.065.818-2.716.181-5.422.439-8.128.758.251,7.731-.27,15.488.112,23.228a103.639,103.639,0,0,0,1.488,12.2c.781-.026,1.562-.06,2.334-.086,2.427-.077,4.855-.155,7.282-.215.028.293.056.577.084.87-3.181.086-6.371.189-9.551.3a147.549,147.549,0,0,1,2.111,15.23,128.036,128.036,0,0,1-.13,14.008q5.427-.194,10.863-.267c.056.293.1.585.158.861q-5.538.064-11.058.258a110.541,110.541,0,0,0-.028,14.154c.781,9.832,3.5,19.449,6.278,28.928.158.542.316,1.085.484,1.627,4.213-1.421,8.389-2.936,12.565-4.485h.009c.139.215.288.439.437.672-4.241,1.593-8.472,3.2-12.76,4.658,2.223,7.249,5.069,14.593,10.677,20.181,3.041,3.013,7.05,4.993,10.1,7.981a18.533,18.533,0,0,1,4.232,6.7q5.2-1.317,10.5-2.213c.121.267.242.534.353.8q-5.329.891-10.565,2.2c.2.6.4,1.205.577,1.817,1.107,3.952,1.609,8.033,2.939,11.941a45.614,45.614,0,0,0,6.454,11.511,107.537,107.537,0,0,1,7.17,10.865c2.2-.878,4.408-1.73,6.64-2.54.121.267.242.534.354.8q-3.32,1.214-6.594,2.523c.112.2.214.4.316.6a121.31,121.31,0,0,1,5.571,14.438l.976,2.841c-.279.129-.558.25-.846.37a139.392,139.392,0,0,0-7.022-17.848c-3.59,1.438-7.17,2.919-10.742,4.417-2.883,1.205-5.776,2.4-8.686,3.556,2.344,5.613,4.7,11.227,7.505,16.616-.335.052-.651.095-.958.129-2.771-5.329-5.078-10.874-7.394-16.41q-2.358.93-4.734,1.808c-.149-.25-.307-.5-.465-.758q2.442-.891,4.864-1.851c-2.232-5.338-4.483-10.667-7.161-15.8-3.748-7.18-8.835-13.594-13.095-20.482-2.148.913-4.287,1.842-6.417,2.772-.14-.233-.279-.456-.419-.68,2.139-.938,4.269-1.877,6.408-2.807-.391-.646-.79-1.291-1.172-1.954-4.845-8.489-7.942-17.787-11.393-26.81-1.293-3.366-2.623-6.724-3.962-10.09-4.325,1.085-8.677,2.058-13.057,2.953-.121-.267-.251-.534-.381-.809q6.6-1.317,13.123-2.944c-5.859-14.757-11.783-29.6-14.7-45.071-.167-.887-.344-1.774-.512-2.652q-3.153.374-6.268.887a47.057,47.057,0,0,0-9.282,2.436c-.084-.275-.177-.542-.26-.809a38.221,38.221,0,0,1,4.9-1.558,83.719,83.719,0,0,1,10.742-1.842,142.587,142.587,0,0,0-6.715-24.916q-1-2.57-2.028-5.14c-.9,0-1.795.017-2.7.017-4.687-.009-9.393-.12-14.09-.362-.084-.293-.167-.577-.242-.861,5.552.284,11.123.387,16.694.37-2.688-6.793-5.338-13.586-7.384-20.594q-1.535-5.282-2.7-10.659h-.112a94.336,94.336,0,0,1-11.774-.164c-.446-.034-.893-.069-1.33-.12a129.73,129.73,0,0,1-13.281-1.989c-.521,2.325-1.088,4.649-1.7,6.957-1.293,4.873-2.827,9.686-4.5,14.455-.948,2.686-1.9,5.4-2.595,8.162a171.268,171.268,0,0,0,22.321,3.16c-.121.275-.233.551-.354.827a177.048,177.048,0,0,1-19.038-2.505c-1.051-.207-2.092-.431-3.134-.663a29.149,29.149,0,0,0-.818,5.872c-.158,4.985,1.469,9.78,2.186,14.688a38.857,38.857,0,0,1-.27,12.191,85.318,85.318,0,0,1-4.752,15.867c.762,0,1.534,0,2.306-.017,2.046-.034,4.12-.086,6.194-.2-.084.275-.177.56-.26.844h-.047c-2.846.163-5.682.241-8.528.232-1.219,3.16-2.474,6.294-3.618,9.453-3.311,9.169-4.781,18.588-6.259,28.119-.381,2.463-.809,4.9-1.3,7.309,2.381.138,4.78.155,7.18.086-.065.293-.13.585-.186.878-2.4.095-4.808.1-7.208-.017a100.558,100.558,0,0,1-6.389,20.206c-2.018,4.546-4.073,9.074-6.054,13.629q6.724,1.7,13.513,3.177c-.084.267-.167.534-.26.8-4.557-.981-9.086-2.066-13.588-3.211-1.795,4.158-3.534,8.343-5.124,12.587q-2.651,7.051-4.929,14.223,5.678.865,11.337,1.808c-.093.258-.186.525-.27.792q-5.664-.968-11.318-1.817-3.85,12.165-6.65,24.6l-.9-.181q2.79-12.385,6.622-24.554l-.837-.129q-7.492-1.072-15.011-1.98-2.553,11.248-5.106,22.488c-.316-.155-.6-.3-.856-.448Q899.8,914.18,902.316,903.1Zm154.719-16.832c3.953,6.586,6.919,13.612,9.858,20.646q2.344-.93,4.669-1.885c4.9-2.023,9.775-4.089,14.694-6.07a59.666,59.666,0,0,0-4.194-6.948,110.1,110.1,0,0,1-7.105-10.615,40.253,40.253,0,0,1-3.767-10.943,67.223,67.223,0,0,0-1.953-7.809c-4,1.042-7.952,2.256-11.83,3.659-3.618,1.317-7.161,2.764-10.677,4.262C1050.059,875.85,1053.816,880.9,1057.034,886.268Zm-25.827-51.476c3.59,9.35,6.817,18.915,11.141,28a73.125,73.125,0,0,0,3.934,7.068c2.4-1.033,4.818-2.049,7.254-3.013a135.778,135.778,0,0,1,15.41-4.985,19.514,19.514,0,0,0-1.683-3.435c-2.334-3.719-6.278-5.837-9.747-8.532-6.417-4.985-9.961-12.182-12.462-19.432-.391-1.119-.763-2.256-1.135-3.392-1.581.525-3.162,1.042-4.752,1.515-3.1.93-6.222,1.765-9.365,2.566C1030.277,832.364,1030.743,833.578,1031.208,834.792Zm-10.565-27.766c2.818,7.817,5.85,15.566,8.854,23.323,1.525-.387,3.051-.775,4.567-1.188,3.236-.9,6.426-1.885,9.589-2.936a175.124,175.124,0,0,1-5.692-22.591c-1.33-7.5-1.265-14.895-1.014-22.385-1.339.052-2.678.095-4.018.164-6.2.293-12.471.654-18.665,1.352A164.417,164.417,0,0,0,1020.642,807.026Zm-6.984-27.447c.14.775.288,1.532.437,2.3,4.157-.439,8.352-.7,12.462-.964,3.469-.233,6.938-.387,10.416-.525q.084-2.441.167-4.907a87.176,87.176,0,0,0-.651-14.774c-.437-3.194-1.014-6.371-1.562-9.556-9.858.353-19.726.723-29.584.775A142.488,142.488,0,0,1,1013.658,779.579Zm-17.354-53.9a207.278,207.278,0,0,0,8.7,25.415c9.942-.052,19.893-.456,29.77-.809-.223-1.317-.437-2.635-.623-3.96-1.525-10.452-.5-20.921-.893-31.407-12.769,1.541-25.511,4.227-38.345,4.89C995.337,721.775,995.8,723.738,996.3,725.683Zm-33.946,7.249c1.646-5.123,3.041-10.314,4.2-15.54-8.426-1.713-16.759-3.952-25.157-5.743l-2.176-.439c-.632,2.032-1.228,4.081-1.758,6.13a104.4,104.4,0,0,0-2.753,22.8c6.8,2.17,13.532,4.563,20.479,6.225.9.215,1.813.422,2.715.62C959.038,742.291,960.833,737.676,962.358,732.932Zm-5.682,55.6a51.626,51.626,0,0,0,2.6-13.853c.149-5.071-1.209-9.875-2.056-14.834a30.961,30.961,0,0,1,.5-12.053c-7.849-1.808-15.4-4.434-23.046-6.81-.037,1.326-.074,2.652-.1,3.986a208.381,208.381,0,0,1-2.437,27.611c-1.162,7.4-2.613,14.774-4.194,22.126q2.427.31,4.855.585a197.072,197.072,0,0,0,21.018,1.291C954.844,793.922,955.82,791.253,956.676,788.533Zm-9.291,26.3a168.875,168.875,0,0,1,6.11-17.391c-4.808-.034-9.616-.276-14.415-.68-3.785-.318-7.552-.74-11.309-1.223-2.39,11.055-5.078,22.058-7.58,33.069q-.809,3.577-1.628,7.172a93.729,93.729,0,0,0,9.672,3.84,58.424,58.424,0,0,0,14.2,2.652C944.176,833.138,945.013,823.857,947.385,814.835Zm-15.141,56.229c4.1-9.023,8.017-17.813,9.951-27.482.028-.12.047-.241.065-.362a57.641,57.641,0,0,1-6.864-.852,74.7,74.7,0,0,1-17.029-5.725q-3.976,17.525-7.961,35.041c6.417,1.765,12.834,3.53,19.289,5.174C930.523,874.92,931.37,872.983,932.244,871.063Zm-23.26,32.01c3.46.448,6.91.947,10.361,1.472.632-1.98,1.274-3.952,1.944-5.915q3.627-10.628,8.063-21c-6.11-1.558-12.165-3.22-18.135-4.873-.335-.086-.66-.181-.995-.267q-1.493,6.573-2.985,13.155-1.911,8.368-3.8,16.728C905.282,902.609,907.133,902.832,908.984,903.073Z" transform="translate(61.697 6970.264)" fill="#fff"/>
    <path id="Контур_9971" data-name="Контур 9971" d="M947.37,520.958s5.867-12.691,7.809-24.58q.516-3.161,1.052-6.32a7.071,7.071,0,0,1,1.131-3.243c1.385-1.809,4.169-2.326,6.67-2.672,7.78-1.077,17.239-1.93,24.963-.595,7.089,6.615,15.262,5.614,23.9,4.621,3.215-.369,6.333-1.458,9.575-1.367.393.01,1.163.1,1.163.1s8.572,4.56,12.4,8.172c6.18,5.838,14.078,15.167,15.608,23.138,1.579,8.225.928,16.428,1.65,24.691.29,3.319,1.077,6.525,1.581,9.814.718,4.68-.239,8.85-1.088,13.438-1.216,6.573-.511,12.717,1.08,19.183a111.534,111.534,0,0,1,3.558,26.119c.174,14.643.906,40.276,1.894,54.889a34.108,34.108,0,0,1-5.269.963,356.056,356.056,0,0,1-74.948-.157c-9.764-1.138-35.866-3.773-36.913-5.279s2.472-61.888,3.565-99.3C947.2,547.213,947.37,520.958,947.37,520.958Z" transform="translate(53.387 6995.829)" fill="#343b57"/>
    <path id="Контур_9972" data-name="Контур 9972" d="M1050.561,577.218v77.844h127.855A1.519,1.519,0,0,0,1180,653.6V578.681a1.529,1.529,0,0,0-1.58-1.463Z" transform="translate(-166.338 6982.709)" fill="#dea57e"/>
    <rect id="Прямоугольник_2183" data-name="Прямоугольник 2183" width="129.436" height="12.067" transform="translate(884.224 7591.375)" fill="#c7875c"/>
    <rect id="Прямоугольник_2184" data-name="Прямоугольник 2184" width="12.087" height="77.844" transform="translate(942.684 7559.927)" fill="#c7875c"/>
    <path id="Контур_9973" data-name="Контур 9973" d="M1100.525,1003.359c-.19,1.975,14.078,5.266,23.8,8,9.7,2.75,18.644,4.666,20.556,3.92.426-.175.979-1.2,1.532-2.677,1.9-4.958,3.983-15.109,2.64-15.621a52.326,52.326,0,0,0-7.3-1.375s-4.693-5.309-7.11-4.344c-2.1.849-3.713,2.428-6.178,3h-.016a6.615,6.615,0,0,1-1.122.176,3.921,3.921,0,0,1-.443.029c-.948.058-2.481.058-4.3.058-.522,0-1.058,0-1.612-.015-1.786,0-3.729-.029-5.625-.044-3.807-.029-7.379-.029-8.927.117C1102.879,994.92,1100.7,1001.371,1100.525,1003.359Z" transform="translate(-182.282 6925.152)" fill="#343b57"/>
    <path id="Контур_9974" data-name="Контур 9974" d="M1103.822,1003.893c-.19,1.975,14.078,5.266,23.8,8,9.7,2.75,18.644,4.666,20.556,3.92.426-.175.979-1.2,1.532-2.677l-31.884-8.015s1.785-5.953.821-10.121c-3.807-.029-7.379-.029-8.927.117C1106.177,995.454,1104,1001.9,1103.822,1003.893Z" transform="translate(-185.577 6924.618)" fill="#fff"/>
    <path id="Контур_9975" data-name="Контур 9975" d="M1121.811,994.97c.427,1.886.837,3.774,1.248,5.661.205.921,1.722.526,1.533-.4-.411-1.814-.805-3.642-1.2-5.47h-.016a6.62,6.62,0,0,1-1.121.176A3.9,3.9,0,0,1,1121.811,994.97Z" transform="translate(-177.212 6924.648)" fill="#fff"/>
    <path id="Контур_9976" data-name="Контур 9976" d="M1128.181,995.054q.617,2.808,1.232,5.617c.206.921,1.723.526,1.533-.4-.38-1.726-.774-3.466-1.153-5.207C1129.271,995.069,1128.735,995.069,1128.181,995.054Z" transform="translate(-189.491 6924.609)" fill="#fff"/>
    <path id="Контур_9977" data-name="Контур 9977" d="M975.581,627.709a.763.763,0,0,1,.843-.493c25.621-9.991,48.073-22.9,70.48-38.1,8.391-9.867,21.856-36.59,21.856-36.59s15.376,17.663,22.075,23.234c-4.9,6.453-22.511,29.154-31.8,34.591-11.144,6.52-23.853,12.58-36.341,16.333-14.542,4.371-28.87,10.517-43.978,12.677a.823.823,0,0,1-.971-.51C977.084,636.837,974.894,629.715,975.581,627.709Z" transform="translate(-7.318 6986.142)" fill="#ffae94"/>
    <path id="Контур_9978" data-name="Контур 9978" d="M1094.3,663.634a42.29,42.29,0,0,0,9.275-11.015c1.178-2.064,2.033-4.233,3.361-6.113a14.243,14.243,0,0,1-2.546.661,13.475,13.475,0,0,0-2.34,1.129c-1.481.886-7.135,7.507-8.729,4.313-1.168-2.341,2.078-4.96,3.642-6.373,2.225-2.008,4.415-4.621,7.2-5.941s6.181-1.105,9.23-1.148l14.3-.2a.732.732,0,1,1,0,1.463l-.1,0a6.667,6.667,0,0,1,4.016,6.216c-.1,4.216-3.616,7.684-6.452,10.646-3.183,3.326-6.643,7.4-11.1,9.316a29.445,29.445,0,0,1-15.318,1.55c-1.993.777-4.211,1.17-5.793.1C1090.636,666.693,1092.867,664.865,1094.3,663.634Z" transform="translate(-156.434 6974.126)" fill="#ffae94"/>
    <path id="Контур_9979" data-name="Контур 9979" d="M1069.113,514.412v52.407a1.519,1.519,0,0,0,1.58,1.463h117.964a1.519,1.519,0,0,0,1.58-1.463V514.412a1.509,1.509,0,0,0-1.58-1.463H1070.693A1.51,1.51,0,0,0,1069.113,514.412Z" transform="translate(-193.83 6991.646)" fill="#f5b785"/>
    <path id="Контур_9980" data-name="Контур 9980" d="M1069.113,512.949v55.332h76.947a1.519,1.519,0,0,0,1.58-1.463V514.412a1.509,1.509,0,0,0-1.58-1.463Z" transform="translate(-151.233 6991.646)" fill="#ffcda4"/>
    <g id="Сгруппировать_2827" data-name="Сгруппировать 2827" transform="translate(957.33 7504.594)">
      <rect id="Прямоугольник_2185" data-name="Прямоугольник 2185" width="0.93" height="55.333" transform="translate(0)" fill="#f5b785"/>
    </g>
    <path id="Контур_9981" data-name="Контур 9981" d="M1002.831,436.261a1.617,1.617,0,0,1,1.177.973,3.3,3.3,0,0,1,.166,1.594,3.736,3.736,0,0,1-.437,1.629,1.87,1.87,0,0,1-1.429.938c-1.929.125-1.8-2.771-1.362-3.809a1.952,1.952,0,0,1,1.79-1.336C1002.768,436.253,1002.8,436.256,1002.831,436.261Z" transform="translate(55.855 7002.311)" fill="#14192b"/>
    <path id="Контур_9982" data-name="Контур 9982" d="M1024.5,438.011a1.664,1.664,0,0,1,1.313.811,3.343,3.343,0,0,1,.4,1.557,3.716,3.716,0,0,1-.188,1.669,1.819,1.819,0,0,1-1.275,1.113c-1.892.372-2.2-2.513-1.922-3.6a1.9,1.9,0,0,1,1.572-1.553C1024.434,438.01,1024.466,438.01,1024.5,438.011Z" transform="translate(13.3 7002.066)" fill="#14192b"/>
    <path id="Контур_9983" data-name="Контур 9983" d="M995.709,429.044a4.567,4.567,0,0,1,2.328-1.342,14.034,14.034,0,0,1,9.218,1.2,4.667,4.667,0,0,1,2.437,2.33.683.683,0,0,1-.091.757.947.947,0,0,1-.644.141L998.93,431.9a5.729,5.729,0,0,1-2.61-.472C994.985,430.7,995.071,429.791,995.709,429.044Z" transform="translate(55.328 7003.541)" fill="#965244"/>
    <path id="Контур_9984" data-name="Контур 9984" d="M1034.382,432.917a5.691,5.691,0,0,1-2.569.641l-9.985.881a.96.96,0,0,1-.654-.1.688.688,0,0,1-.147-.75,4.593,4.593,0,0,1,2.253-2.482,13.97,13.97,0,0,1,9.1-1.8,4.627,4.627,0,0,1,2.424,1.189C1035.5,431.205,1035.658,432.108,1034.382,432.917Z" transform="translate(5.831 7003.295)" fill="#965244"/>
    <path id="Контур_9985" data-name="Контур 9985" d="M1011.877,458.5a35.36,35.36,0,0,0,8.149-1.557,17.268,17.268,0,0,1-2.36,3.35,9.757,9.757,0,0,1-6.636,2.127,9.538,9.538,0,0,1-7.354-4.35A32.061,32.061,0,0,0,1011.877,458.5Z" transform="translate(37.238 6999.432)" fill="#fff"/>
    <path id="Контур_9986" data-name="Контур 9986" d="M991.695,476.455c.084,1.584.14,3.168.149,4.752a19.155,19.155,0,0,0,10.63-3.194,23.2,23.2,0,0,0,9.291-11.967,64.224,64.224,0,0,1-8.826,6.44A29.919,29.919,0,0,1,991.695,476.455Z" transform="translate(56.642 6998.168)" fill="#de7552"/>
    <path id="Контур_9987" data-name="Контур 9987" d="M985.121,404.411c4.836-5.915,14.1-9.5,24.181-8.179,13.216,1.722,23.79,10.639,25.111,23.389.781,7.559-5.632,21.716-6.06,22.783.158-3.194.27-9.944-1.33-12.432-.939-1.455-2.9-1.61-3.832-2.988a6.767,6.767,0,0,1-.614-3.177c-.288-3.091.14-8.127-3.3-9.875-1.665-.835-3.748-.956-5.506-1.593a21.87,21.87,0,0,1-3.916-1.9c-1.916,3.375-4.65,6.285-9.263,6.035-1.906-.1-3.766-.542-5.6.25-1.4.611-2.511,1.67-3.841,2.4a8.975,8.975,0,0,1-2.855.99,12.484,12.484,0,0,1-2.734,2.531c-1.19.852-2.483,1.584-3.739,2.342-.186.112-.372.224-.549.344C980.484,417.764,980.9,409.585,985.121,404.411Z" transform="translate(43.923 7007.914)" fill="#965244"/>
    <path id="Контур_9988" data-name="Контур 9988" d="M983.864,435.538a.334.334,0,0,1-.165-.449,4.115,4.115,0,0,1,6.845-1.325c1.387,1.586,1.529,4.139,1.664,6.092a12.5,12.5,0,0,1-1.014,6.269c-.705,1.48-4.78,6.652-6.684,3.931-1.059-1.514-.87-4.727-.926-6.438A76.624,76.624,0,0,1,983.864,435.538Z" transform="translate(83.724 7002.841)" fill="#ffae94"/>
    <path id="Контур_9989" data-name="Контур 9989" d="M1012.8,447.572l.784-5.856c.073-.543,1-.55.93,0-.3,2.231-.607,4.461-.9,6.692-.2,1.585.022,3.437,2.227,3.477.985.018,1.9-.145,2.89-.034.587.065.594.927,0,.861-2-.225-5.163.74-6.084-1.622C1012.226,450.008,1012.651,448.651,1012.8,447.572Z" transform="translate(29.915 7001.608)" fill="#de7552"/>
    <path id="Контур_9990" data-name="Контур 9990" d="M998.736,400.961a9.038,9.038,0,0,1,7.994-2.453.434.434,0,1,1-.247.831c-2.745-.662-5.7.743-7.519,2.641-1.872,1.955-1.7,4.513-1.458,6.942.056.552-.875.549-.93,0C996.279,405.98,996.31,403.145,998.736,400.961Z" transform="translate(56.929 7007.586)" fill="#6e3225"/>
    <path id="Контур_9991" data-name="Контур 9991" d="M1006.965,410a11.317,11.317,0,0,1,4.922-6.729c2.2-1.523,5.327-3.429,8.173-3.359a.431.431,0,1,1,0,.861c-2.68-.065-6.1,2.014-8.143,3.557a10.291,10.291,0,0,0-4.055,5.9C1007.739,410.767,1006.842,410.538,1006.965,410Z" transform="translate(33.707 7007.364)" fill="#6e3225"/>
    <path id="Контур_9992" data-name="Контур 9992" d="M1024.636,406.87c.3-.477,1.108-.045.8.435a17.484,17.484,0,0,0-2.706,7.628c-.059.547-.99.552-.93,0A18.467,18.467,0,0,1,1024.636,406.87Z" transform="translate(14.902 7006.425)" fill="#6e3225"/>
    <path id="Контур_9993" data-name="Контур 9993" d="M1029.134,405.918a20.109,20.109,0,0,1,12.025-7.691c.586-.1.836.73.247.831a19.352,19.352,0,0,0-11.47,7.295C1029.62,406.821,1028.815,406.389,1029.134,405.918Z" transform="translate(-8.088 7007.599)" fill="#6e3225"/>
    <path id="Контур_9994" data-name="Контур 9994" d="M988.582,411.56c6.6,1.712,8.41,7.037,8.91,12.772.048.553-.882.549-.93,0-.464-5.325-2.078-10.347-8.227-11.942A.433.433,0,1,1,988.582,411.56Z" transform="translate(74.344 7005.746)" fill="#6e3225"/>
    <path id="Контур_9995" data-name="Контур 9995" d="M985.082,420.962a11,11,0,0,1,.087,5.184c-.12.542-1.016.313-.9-.229a9.989,9.989,0,0,0-.087-4.726C984.047,420.652,984.944,420.422,985.082,420.962Z" transform="translate(89.966 7004.479)" fill="#6e3225"/>
    <path id="Контур_9996" data-name="Контур 9996" d="M1116.894,669.136a51.851,51.851,0,0,0,8.832-9.111c.341-.451,1.147-.022.8.434a52.8,52.8,0,0,1-8.978,9.286C1117.1,670.109,1116.442,669.5,1116.894,669.136Z" transform="translate(-174.504 6971.221)" fill="#de7552"/>
    <path id="Контур_9997" data-name="Контур 9997" d="M1115.385,670.983c2.282-.875,3.727-2.816,5.06-4.646.333-.456,1.139-.026.8.435-1.491,2.045-3.079,4.067-5.616,5.042C1115.08,672.026,1114.84,671.193,1115.385,670.983Z" transform="translate(-167.67 6970.345)" fill="#de7552"/>
    <path id="Контур_9998" data-name="Контур 9998" d="M1111.039,669.705a3.355,3.355,0,0,0,1.775-1.861c.193-.522,1.092-.3.9.228a4.241,4.241,0,0,1-2.2,2.377C1110.976,670.7,1110.5,669.957,1111.039,669.705Z" transform="translate(-156.106 6970.149)" fill="#de7552"/>
    <path id="Контур_9999" data-name="Контур 9999" d="M1016.333,708.2c2.255,6.165,4.51,12.336,6.349,18.621,1.7,5.793,2.515,12.04,6.055,17.193.322.468-.483.9-.8.435-3.438-5-4.306-10.98-5.92-16.613-1.88-6.556-4.23-12.985-6.578-19.407C1015.244,707.9,1016.141,707.674,1016.333,708.2Z" transform="translate(17.541 6964.538)" fill="#a35737"/>
    <path id="Контур_10000" data-name="Контур 10000" d="M1022.617,723.537q3.749,5.331,7.718,10.521c.346.453-.459.883-.8.435q-3.969-5.192-7.718-10.521C1021.486,723.506,1022.291,723.075,1022.617,723.537Z" transform="translate(10.047 6962.391)" fill="#a35737"/>
    <path id="Контур_10001" data-name="Контур 10001" d="M980.984,544.754c6.927-11.641,9.278-25.028,16-36.757.28-.49,1.083-.055.8.435-6.72,11.728-9.07,25.113-16,36.757C981.5,545.673,980.694,545.239,980.984,544.754Z" transform="translate(80.582 6992.365)" fill="#14192b"/>
    <path id="Контур_10002" data-name="Контур 10002" d="M957.9,579.755a31.8,31.8,0,0,0,3.122-2.538c1.137-1.1,1.661-2.526,2.712-3.637,1.5-1.591,7.314-2.526,6.639-5.464-.125-.541.772-.771.9-.229.611,2.659-2.2,3.733-4.289,4.8a8.444,8.444,0,0,0-3.235,2.556c-.307.408-.539.857-.857,1.264a21.874,21.874,0,0,1-4.331,3.857C958.1,580.708,957.435,580.1,957.9,579.755Z" transform="translate(128.626 6984.049)" fill="#14192b"/>
    <path id="Контур_10003" data-name="Контур 10003" d="M1063.267,499.644c.087-.548,1-.369.91.178a262.187,262.187,0,0,0-3.344,41.744c0,.552-.928.608-.928.053A263.507,263.507,0,0,1,1063.267,499.644Z" transform="translate(-59.213 6993.542)" fill="#14192b"/>
    <path id="Контур_10004" data-name="Контур 10004" d="M1064.127,503.417c-.023-.553.9-.607.928-.052a137.326,137.326,0,0,0,1.449,15.012c.084.548-.845.6-.928.052A137.325,137.325,0,0,1,1064.127,503.417Z" transform="translate(-65.465 6993.033)" fill="#14192b"/>
    <path id="Контур_10005" data-name="Контур 10005" d="M989,438.86a4.051,4.051,0,0,1,1.051,5.442c-.29.484-1.094.05-.8-.435a3.239,3.239,0,0,0-.906-4.4C987.887,439.111,988.549,438.5,989,438.86Z" transform="translate(80.987 7001.963)" fill="#de7552"/>
  </g>
</svg>
