<svg xmlns="http://www.w3.org/2000/svg" width="461.581" height="603.613" viewBox="0 0 461.581 603.613">
  <g id="img_motorcycle" transform="translate(-113.322 -133.025)">
    <path id="Контур_2373" data-name="Контур 2373" d="M436.806,154.735c.306-.03.83-.13,1.291-.227l1.457-.286c.521-.092,1.046-.227,1.6-.338.545-.127,1.108-.241,1.67-.384l1.711-.4,1.708-.432c.569-.133,1.125-.294,1.671-.438,1.091-.293,2.126-.613,3.035-.913s1.686-.6,2.241-.842a9.231,9.231,0,0,0,.881-.4,10.583,10.583,0,0,0-3.207-1.291,16.091,16.091,0,0,0-11.086,1.485,14.985,14.985,0,0,0-1.568.962,14.113,14.113,0,0,0-1.3,1.054c-.371.362-.633.64-.981,1.02-.256.319-.463.626-.637.872a8.453,8.453,0,0,0-.514.825,8.621,8.621,0,0,0,.968-.088C436.039,154.866,436.406,154.821,436.806,154.735Z" transform="translate(-129.252 -6.173)" fill="#fff" fill-rule="evenodd"/>
    <path id="Контур_2374" data-name="Контур 2374" d="M374.027,171.531c8.31,2.66,11.674,9.628,16.057,14.233,4.96,5.21,14.165,10.486,32.845,10.036v-8.576c-15.245.031-23.528-4.443-28.284-8.576-4.948-4.3-10.339-11.934-17.882-12.408-.969-.061-3.985-.13-7.482,0-3.416.127-6.243.4-8.211.639l2.19,4.014A22.865,22.865,0,0,1,374.027,171.531Z" transform="translate(-99.617 -13.326)" fill="#fff" fill-rule="evenodd"/>
    <path id="Контур_2375" data-name="Контур 2375" d="M417.52,238.7v-5.291a69.98,69.98,0,0,0-20.437,2.432v3.589a60.221,60.221,0,0,1,20.437-.73Z" transform="translate(-114.098 -40.352)" fill="#fff" fill-rule="evenodd"/>
    <path id="Контур_2376" data-name="Контур 2376" d="M408.16,256.318h-8.941v91.965h8.12Z" transform="translate(-114.956 -49.575)" fill="#fff" fill-rule="evenodd"/>
    <path id="Контур_2377" data-name="Контур 2377" d="M427.95,256.318h-4.927v12.59s4.561-6.752,4.927-7.3S427.95,256.318,427.95,256.318Z" transform="translate(-124.528 -49.575)" fill="#fff" fill-rule="evenodd"/>
    <path id="Контур_2378" data-name="Контур 2378" d="M424.773,388.655V356.722l-5.565,4.015v27.918S424.773,389.385,424.773,388.655Z" transform="translate(-122.994 -89.947)" fill="#fff" fill-rule="evenodd"/>
    <path id="Контур_2379" data-name="Контур 2379" d="M405.234,484.647a22.318,22.318,0,0,0-12.043,0l-.822,80.1-3.831,8.576a29.862,29.862,0,0,1,21.622,0L406.6,565.3Q405.919,524.974,405.234,484.647Z" transform="translate(-110.662 -141.051)" fill="#fff" fill-rule="evenodd"/>
    <path id="Контур_2380" data-name="Контур 2380" d="M484.287,211.2a16.473,16.473,0,0,1,17.791,0q-.012-4.683.045-9.489.058-4.712.183-9.306a22.245,22.245,0,0,0-18.248,0q.124,4.594.182,9.306Q484.3,206.516,484.287,211.2Z" transform="translate(-149.07 -23.069)" fill="#fff" fill-rule="evenodd"/>
    <path id="Контур_2381" data-name="Контур 2381" d="M489.379,242.626a45.587,45.587,0,0,1,14.78,2.368,20.684,20.684,0,0,0-14.78-9.124,20.681,20.681,0,0,0-14.78,9.124,45.586,45.586,0,0,1,14.78-2.368Z" transform="translate(-145.266 -41.353)" fill="#fff" fill-rule="evenodd"/>
    <path id="Контур_2382" data-name="Контур 2382" d="M500.4,316.875c-.008,0,0,.005-.006.008C500.425,316.876,500.4,316.869,500.4,316.875Z" transform="translate(-155.638 -73.923)" fill="#fff" fill-rule="evenodd"/>
    <path id="Контур_2383" data-name="Контур 2383" d="M449.514,327.184c.675.584,1.424,1.074,2.126,1.613l1.068.789,1.135.68c.762.439,1.49.935,2.271,1.324l2.356,1.119a37.636,37.636,0,0,0,9.767,2.784,37.062,37.062,0,0,0,4.917.416l.551.031.625-.028,1.246-.056c.817-.057,1.674-.03,2.442-.154a37.865,37.865,0,0,0,4.567-.813l2.227-.56,2.133-.749a41.271,41.271,0,0,0,7.769-3.812,39.094,39.094,0,0,0,10.944-10.548,36.094,36.094,0,0,0,5.1-10.7q.326-1.2.619-2.268c.166-.718.249-1.407.356-2.042s.194-1.225.279-1.765.072-1.039.108-1.482c.1-1.768.153-2.713.154-2.722s-.053-.966-.149-2.727c-.035-.444-.027-.947-.106-1.486l-.276-1.763c-.106-.634-.188-1.322-.354-2.04l-.618-2.27a36.057,36.057,0,0,0-5.1-10.706,39.4,39.4,0,0,0-10.931-10.581,40.9,40.9,0,0,0-16.758-6.074c-.786-.136-1.595-.121-2.4-.192a22.9,22.9,0,0,0-2.407-.1,37.86,37.86,0,0,0-5.021.326,36.954,36.954,0,0,0-9.914,2.645l-2.407,1.1c-.8.385-1.545.877-2.326,1.314l-1.164.676-1.093.792c-.719.544-1.482,1.04-2.172,1.63l-2.042,1.819c-.7.6-1.257,1.332-1.895,1.993l-.932,1.021c-.3.351-.56.733-.842,1.1-.547.745-1.133,1.467-1.63,2.25a41.128,41.128,0,0,0-4.671,10.141,37.977,37.977,0,0,0,.393,22.133,40.592,40.592,0,0,0,4.8,9.915,41.231,41.231,0,0,0,7.247,8.02Zm1.083-4.994h0a33.769,33.769,0,0,1-2.435-2.654l3.282-2.736-.847,5.39Zm13.519,8.019h0a33.061,33.061,0,0,1-3.169-1.142l-2.02-12.852L457.2,327.2a33.269,33.269,0,0,1-4.416-3.049l-1.177-7.484,5.873-4.9c.228.169.455.338.691.509a28.022,28.022,0,0,0,8.135,4.007l-2.19,13.925Zm7.182,1.327h0c-.881-.064-1.756-.152-2.618-.285l-2.352-14.961c.62.19,1.247.368,1.889.518.956.237,1.944.371,2.93.524.779.114,1.567.143,2.354.184l-2.2,14.019Zm-1.837-20.966h0c-.778-.178-1.578-.253-2.341-.454-.757-.216-1.536-.347-2.268-.6-1.138-.345-2.234-.733-3.293-1.151l7.03-5.861a10.675,10.675,0,0,0,1.59.8,10.889,10.889,0,0,0,3.628.7l.4-.01.137-.008.273-.017a8.39,8.39,0,0,0,.909-.1,10.1,10.1,0,0,0,1.926-.488,10.416,10.416,0,0,0,2.063-1.057l7.845,6.539c-.456.156-.908.31-1.372.472l-2.206.616c-.765.136-1.515.356-2.294.487l-1.177.175a9.108,9.108,0,0,1-1.158.165l-1.127.1-.563.059c-.2.019-.444.017-.664.026l-1.356.039-.643.019h-.018l-.038,0-.152-.01-.3-.017a36.647,36.647,0,0,1-4.823-.418Zm9.272,20.682h0c-.862.132-1.736.221-2.618.285l-2.2-14c.075.005.15.007.225.013l.375.016.188.007.047,0,.188,0,.085,0,.679-.035,1.355-.069c.231-.015.439-.016.688-.042l.776-.111,1.539-.235c.317-.056.622-.126.931-.193l-2.258,14.364Zm18.083-9.062h0l-.939-5.975-1.247,7.934a33.387,33.387,0,0,1-4.416,3.049l-1.727-10.984-2.02,12.852a33.059,33.059,0,0,1-3.17,1.142l-2.1-13.364a30.889,30.889,0,0,0,4.42-1.37c.851-.376,1.687-.743,2.479-1.148.77-.451,1.542-.844,2.241-1.315.377-.249.741-.5,1.1-.756l8.185,6.824a33.79,33.79,0,0,1-2.8,3.11Zm8.077-12.487h0l-7.745-2.932c.546-.707.984-1.376,1.343-1.941a16.77,16.77,0,0,0,.938-1.68c.2-.4.28-.619.28-.619s-.789.535-2.145,1.379c-.676.423-1.511.908-2.462,1.434-.227.126-.46.257-.7.388l-13.063-4.945a10.014,10.014,0,0,0,2.019-3.251l8.131.634.008.073.008-.072,8.716.68.172,1.582.169-1.555,6.325.493a33.311,33.311,0,0,1-1.995,10.332Zm-2.444-28.159h0a33.332,33.332,0,0,1,4.042,11.463l-5.357.617,1.315-12.08Zm-8.107-9.438h0a33.427,33.427,0,0,1,3.3,3.021l2.031,18.665-7.787.9,2.457-22.583Zm-8.593-4.975h0c.844.331,1.673.691,2.482,1.088l2.89,26.559-7.27.837a9.694,9.694,0,0,0,.081-2.575,10.114,10.114,0,0,0-.221-1.329l-.017-.079-.008-.039,0-.02c0,.019-.007-.239-.008-.136l-.045-.119-.092-.236-.189-.495c-.038-.109-.078-.2-.117-.306l2.518-23.149Zm-17.513-1.821h0c.743-.124,1.493-.228,2.252-.3l2.065,18.978c-.181.026-.372.056-.582.1a10.143,10.143,0,0,0-4.993,2.627,11.12,11.12,0,0,0-1.226,1.426l2.484-22.829Zm-8.969,2.865h0c.757-.369,1.534-.7,2.321-1.014l2.623,24.105-.037.12c0-.1,0,.159,0,.138l0,.015-.009.031-.018.061a4.4,4.4,0,0,0-.252,1.154c-.023.253-.047.53-.056.781l-.007.719a8.651,8.651,0,0,0,.125,1.373l-7.578-.872,2.9-26.611Zm-9.4,6.857h0A33.513,33.513,0,0,1,453,272.165l2.45,22.516-7.628-.878,2.042-18.769Zm-4.965,6.629h0l1.3,11.953-5.276-.607a33.331,33.331,0,0,1,3.975-11.346Zm-5.382,13.3h0L467.3,296.44a9,9,0,0,1-.821-1.7,8.15,8.15,0,0,1-.413-2.177,7.733,7.733,0,0,1,0-1.015c.024-.383.074-.692.126-1.029a8.655,8.655,0,0,1,1.455-3.378,8.146,8.146,0,0,1,2.211-2.084,8.29,8.29,0,0,1,2.122-.927,6.659,6.659,0,0,1,1.466-.232l.525-.016.525.025c.106.006.228.017.364.033l2.06-18.937c.787.077,1.564.185,2.333.316l2.431,22.34c-.251-.3-.508-.582-.753-.841a10.463,10.463,0,0,0-2.707-1.92,10.225,10.225,0,0,0-2.252-.786,8.6,8.6,0,0,0-1.075-.169,6.886,6.886,0,0,1,1.059.219,8.319,8.319,0,0,1,2.106.962,8.165,8.165,0,0,1,2.178,2.121,8.43,8.43,0,0,1,1.044,7.621,8.916,8.916,0,0,1-.767,1.546l27.373-1.461.047,2.19-27.682-.295c-.016.023-.027.048-.043.071a8.964,8.964,0,0,1-1.7,1.709,7.759,7.759,0,0,1-1.568.875L505,314.71l-1.1,1.891-27.131-17.013c-.15.06-.29.136-.443.188a8.89,8.89,0,0,1-2.484.4,8.431,8.431,0,0,1-2.491-.451L444.429,316.6l-1.1-1.891,27.818-15.079a7.211,7.211,0,0,1-1.959-1.082,8.841,8.841,0,0,1-1.634-1.7l-28.08.3.047-2.19Zm7.256,3.926h0l.248,2.279.253-2.318,8.557-.667.086.8.088-.809,8.443-.659a10.008,10.008,0,0,0,2.163,3.424l-11.473,4.343c-.509-.274-.967-.573-1.417-.838-.927-.568-1.744-1.082-2.4-1.534-1.32-.9-2.086-1.466-2.086-1.466s.075.225.255.628a16.888,16.888,0,0,0,.874,1.715,23.659,23.659,0,0,0,1.645,2.51c.032.042.068.087.1.13l-9.476,3.588a33.318,33.318,0,0,1-2.1-10.636Z" transform="translate(-129.594 -51.173)" fill="#fff" fill-rule="evenodd"/>
    <path id="Контур_2384" data-name="Контур 2384" d="M501.294,299.857l-.038,0h0Z" transform="translate(-155.985 -67.08)" fill="#fff" fill-rule="evenodd"/>
    <path id="Контур_2385" data-name="Контур 2385" d="M493.619,321.464a8.524,8.524,0,0,0,1.676.79,6.792,6.792,0,0,0,1.827.271,7.5,7.5,0,0,0,.953-.063,6.634,6.634,0,0,0,.878-.178,8.5,8.5,0,0,0,1.687-.763c.074-.047.139-.106.21-.156l-3.879-.041-3.489.037C493.53,321.393,493.572,321.432,493.619,321.464Z" transform="translate(-152.859 -75.713)" fill="#fff" fill-rule="evenodd"/>
    <path id="Контур_2386" data-name="Контур 2386" d="M493.2,300.059a6.358,6.358,0,0,0-2.038,1.018,6.784,6.784,0,0,0-1.916,2.191,7.257,7.257,0,0,0-.894,3.234c0,.287,0,.615.025.875a6.723,6.723,0,0,0,.141.935,7.6,7.6,0,0,0,.6,1.717,7.206,7.206,0,0,0,1.989,2.419l3.8.2,4.239-.226a7.26,7.26,0,0,0,1.911-2.3,7.468,7.468,0,0,0,.823-3.531,7.234,7.234,0,0,0-.836-3.226,6.768,6.768,0,0,0-1.877-2.224,6.354,6.354,0,0,0-2.019-1.054,6.637,6.637,0,0,0-1.447-.3l-.524-.039-.524.031a6.589,6.589,0,0,0-1.451.271Zm2.86-.206h0a5.058,5.058,0,0,1,1.07.289,5.369,5.369,0,0,1,1.874,1.229A5.238,5.238,0,0,1,500.5,305.3a3.984,3.984,0,0,1-.316,1.39l-.138.451-.072.243-.036.122c0,.112,0-.136-.007-.106l-.006.01-.012.02-.024.041a4.652,4.652,0,0,1-.391.617,5.006,5.006,0,0,1-.959.965,4.892,4.892,0,0,1-1.989.876c-.3.045-.553.06-.783.085-.1-.016-.228.008-.213-.01a.975.975,0,0,1-.172.009l-.274.007-.124,0h-.025l1.106-10.166Zm-2.438,10.065h0a7.168,7.168,0,0,1-.958-.3,5.612,5.612,0,0,1-1.03-.618c-.15-.141-.342-.28-.494-.447l-.239-.258-.2-.2c-.151-.062-.265-.508-.39-.795l-.023-.06-.011-.029-.006-.015c0-.032,0,.218,0,.108l-.035-.085-.071-.171c-.044-.115-.1-.235-.139-.353a5.208,5.208,0,0,1,1.3-5.391,5.385,5.385,0,0,1,1.9-1.195,5,5,0,0,1,.549-.158l1.1,10.066A7.6,7.6,0,0,1,493.626,309.918Z" transform="translate(-150.798 -67.041)" fill="#fff" fill-rule="evenodd"/>
    <path id="Контур_2387" data-name="Контур 2387" d="M375.669,350.831c-.236-5.04-.278-9.206-.274-12.043l-5.2-6.022a81.792,81.792,0,0,0,.547,12.59c1.352,11.161,4.891,20.984,5.748,20.8C377.063,366.036,376.168,361.507,375.669,350.831Z" transform="translate(-103.268 -80.314)" fill="#fff" fill-rule="evenodd"/>
    <path id="Контур_2388" data-name="Контур 2388" d="M389.251,656.478l0,0C389.255,656.485,389.255,656.483,389.251,656.478Z" transform="translate(-110.948 -210.476)" fill="#fff" fill-rule="evenodd"/>
    <path id="Контур_2389" data-name="Контур 2389" d="M362.393,608.279a1.807,1.807,0,0,0-.109-1.121l-.1-.315-.059-.159-.057-.161-.066-.169-.032-.064-.065-.129a7.111,7.111,0,0,0-3.025-3.021,14.945,14.945,0,0,0-3.659-1.393,30.484,30.484,0,0,0-7.793-.8,31.39,31.39,0,0,0-7.748,1.07,15,15,0,0,0-3.61,1.5,8.192,8.192,0,0,0-1.666,1.3l-.383.416c-.148.2-.287.4-.416.607l-.185.31c-.046.086-.055.117-.084.178l-.144.321-.1.24-.022.076-.042.151-.077.3c-.038.2-.076.4-.113.591a1.927,1.927,0,0,0,.052,1.093,5.613,5.613,0,0,0,.894,1.537,7.035,7.035,0,0,0,1.825,1.564,9.451,9.451,0,0,0,1.281.665l.378.149v42.786a10.417,10.417,0,0,0-8.211,10.167v41.905a6.558,6.558,0,0,0,3.389,5.717l-2.75.55v12.956l-2.936-3.906a29.946,29.946,0,0,1-5.977-18.494l1.851-94.87a26.193,26.193,0,0,1,2.951-11.546l4.459-8.548V553.273l1.018-12.278-.93-.728a20.736,20.736,0,0,0-14.405-4.289,20.115,20.115,0,0,0-5.719,1.363,13.986,13.986,0,0,0-8.584,10.611l-11.292,62.992.066.012c-1.2,5.289.638,11.451,4.906,16.307L292.178,651.2H263.189a2.828,2.828,0,0,0-2.828,2.828v3.943a2.828,2.828,0,0,0,1.165,2.287l4.113,2.991a2.829,2.829,0,0,0,1.663.541h30.066a2.827,2.827,0,0,0,2.159-1l1.494-1.766a2.829,2.829,0,0,0,.67-1.827v1.825a.17.17,0,0,0,.169.169h10.053L310,698.2c-.72,14.865,4.121,26.515,12.636,30.4a16.394,16.394,0,0,0,5.877,1.423l3.54.209-1.356-1.8,2.152.094v.1a10.705,10.705,0,0,0,10.013,10.665L358.9,740.3V612.725l.161-.1a8.829,8.829,0,0,0,1.159-.853,6.784,6.784,0,0,0,1.55-1.851,5.637,5.637,0,0,0,.628-1.644Zm-97.242,51.131h0l-.548-7.116H265.7l-.547,7.116Zm61.614-70.471h0l-1.592,3.049-1-23.589,2.594-5.823V588.94ZM305.74,548.725h0a9.853,9.853,0,0,1,3.207-5.66q-.4,9.323-.961,18.9-.718,12.27-1.642,24.08l7.773-45.4a15.718,15.718,0,0,1,2-.309,16.263,16.263,0,0,1,10.389,2.7l-1.228,14.807L319.7,570.362a45.958,45.958,0,0,0-3.929,16.38l-.641,12.368a22.373,22.373,0,0,0-15.271.892,19.229,19.229,0,0,0-3.7,2.165l9.579-53.441Zm-10.961,62.137h0A12.437,12.437,0,0,1,301.64,604a18.112,18.112,0,0,1,13.256-.371v.021a18.8,18.8,0,0,0-12.748,3.025,18.312,18.312,0,0,0-6.341,7.74,11.987,11.987,0,0,1,7.938-4c5.411-.368,9.033,3.394,10.214,4.84a11.9,11.9,0,0,0-7.939-3.03h0a12.259,12.259,0,0,0-9.364,4.817l-.349.466-.4,3.244a12.568,12.568,0,0,1-1.127-9.892Zm5.723,8.395h0a7.821,7.821,0,0,1,5.62-2.649,7.477,7.477,0,0,1,5.852,2.908q-3.123,5.289-6.285,10.594c-2.709,4.545-5.448,9.116-8.188,13.663l3-24.516Zm-32.066,40.154h0l-.547-7.116h1.095l-.548,7.116Zm3.285,0h0l-.548-7.116h1.095l-.547,7.116Zm3.284,0h0l-.548-7.116h1.095L275,659.411Zm3.284,0h0l-.547-7.116h1.095l-.548,7.116Zm3.284,0h0l-.547-7.116h1.095l-.548,7.116Zm3.285,0h0l-.548-7.116h1.095l-.547,7.116Zm3.284,0h0l-.548-7.116h1.1l-.548,7.116Zm3.284,0h0l-.547-7.116h1.095l-.548,7.116Zm3.284,0h0l-.547-7.116h1.095l-.548,7.116Zm3.285,0h0l-.548-7.116h1.095L298,659.411Zm3.864-6.541h0a.169.169,0,0,0-.169.169v.989a2.828,2.828,0,0,0-2.829-2.828h-.74c3.785-6.252,7.585-12.566,11.329-18.849q2.178-3.655,4.335-7.3l-.364,7.012-10.5,17.13h9.613l-.191,3.677ZM324,725.614h0c-7.156-3.269-11.364-13.967-10.721-27.252l5.776-111.451a42.708,42.708,0,0,1,1.614-9.638v24.4a29.455,29.455,0,0,0-1.31,8.1l-1.851,94.87a33.237,33.237,0,0,0,6.634,20.532l.546.726q-.35-.134-.689-.288Zm13.262-113.044h0c-.072-.309-.152-.781-.248-1.33a7.554,7.554,0,0,1-.069-1.843,1.625,1.625,0,0,1,.287-.781c.079-.1.069-.146.028-.206-.009-.023-.025-.055-.015-.075l0-.005.093-.209a1.433,1.433,0,0,1,.068-.144l.02.014,0,0,.124-.123a3.861,3.861,0,0,1,.774-.593,10.746,10.746,0,0,1,2.559-1.044,27.11,27.11,0,0,1,6.625-.9,26.189,26.189,0,0,1,6.638.663,10.664,10.664,0,0,1,2.584.964,2.92,2.92,0,0,1,1.214,1.079l.017.025,0,0,.028.081.054.161c0,.012-.019.008-.027.011-.057-.029-.035.091.074.166a1.794,1.794,0,0,1,.411.743,6.486,6.486,0,0,1,.224,1.813c-.008.353-.018.673-.033.942l-.4-.42a14.217,14.217,0,0,0-9.73-4.429,14.449,14.449,0,0,0-10.7,4.426l-.6.633v.447l-.015-.07Zm5.876,122.343h0a6.318,6.318,0,0,1-5.909-6.294V710.592l-2.237-.649a2.154,2.154,0,0,1-1.547-2.059V665.98a6.029,6.029,0,0,1,6.022-6.021h10.1l.362-30.187a4.054,4.054,0,0,1,.979-2.589v63.431l2.7,2.372.383-67.24h.529V735.633l-11.383-.72ZM354,621.366h0a8.485,8.485,0,0,0-8.453,8.352l-.31,25.862h-3.584V614a10,10,0,0,1,6.767-2.488,9.856,9.856,0,0,1,6.1,2.481v7.373Z" transform="translate(-59.123 -161.992)" fill="#fff" fill-rule="evenodd"/>
    <path id="Контур_2390" data-name="Контур 2390" d="M397.174,770.976l2.326-2.737-.273-14.78h-6.569v48.432a12.4,12.4,0,0,0,4.75,9.759l5.377,4.214V782.746l-5.064-3.011Z" transform="translate(-112.318 -249.471)" fill="#fff" fill-rule="evenodd"/>
    <path id="Контур_2391" data-name="Контур 2391" d="M368.867,763.477v-59.3a7.116,7.116,0,0,1,7.116-7.116q.386-19.525.772-39.049a17.019,17.019,0,0,1-5.516-5.657,22.908,22.908,0,0,1-2.372-8.758,14.287,14.287,0,0,0-2.19,3.831,14.62,14.62,0,0,0-.912,5.657c.089,4.025-.633,43.412-1.642,97.987Z" transform="translate(-100.845 -205.295)" fill="#fff" fill-rule="evenodd"/>
    <path id="Контур_2392" data-name="Контур 2392" d="M330.114,596.932l2.821-44.455-8.485,53.2Z" transform="translate(-84.892 -168.658)" fill="#fff" fill-rule="evenodd"/>
    <path id="Контур_2393" data-name="Контур 2393" d="M336.122,145.882V161.95l4.377-1.623-.057-.075H340.3a3.08,3.08,0,0,1,0-6.16h3.076a3.077,3.077,0,0,1,2.565,1.382l-.094-7.965Z" transform="translate(-89.586 -5.17)" fill="#fff" fill-rule="evenodd"/>
    <path id="Контур_2394" data-name="Контур 2394" d="M251.079,190.3l2.168-.263-.011-.065a12.228,12.228,0,0,1,.12-4.708c-.536.066-1.062.12-1.6.186a7.672,7.672,0,0,0-.6,1.686A8.061,8.061,0,0,0,251.079,190.3Z" transform="translate(-55.342 -21.003)" fill="#fff" fill-rule="evenodd"/>
    <path id="Контур_2395" data-name="Контур 2395" d="M243.9,191.134l2.167-.263-.011-.109a11.959,11.959,0,0,1,.109-4.7c-.536.054-1.062.12-1.6.186a7.337,7.337,0,0,0-.6,1.675A8.072,8.072,0,0,0,243.9,191.134Z" transform="translate(-52.45 -21.327)" fill="#fff" fill-rule="evenodd"/>
    <path id="Контур_2396" data-name="Контур 2396" d="M236.7,191.928l.011.044,2.167-.262-.022-.164a12.077,12.077,0,0,1,.109-4.675c-.536.055-1.073.121-1.61.175a7.228,7.228,0,0,0-.58,1.665A7.933,7.933,0,0,0,236.7,191.928Z" transform="translate(-49.557 -21.651)" fill="#fff" fill-rule="evenodd"/>
    <path id="Контур_2397" data-name="Контур 2397" d="M222.313,193.507l.022.142,2.179-.262-.011-.054a.085.085,0,0,1-.011-.044l-.022-.164a12.343,12.343,0,0,1,.1-4.642c-.526.054-1.062.109-1.6.175a7.6,7.6,0,0,0-.581,1.642A8.3,8.3,0,0,0,222.313,193.507Z" transform="translate(-43.776 -22.299)" fill="#fff" fill-rule="evenodd"/>
    <path id="Контур_2398" data-name="Контур 2398" d="M207.933,195.078l.033.208.011.033c.723-.088,1.445-.164,2.168-.252l-.011-.065-.022-.1v-.033l-.022-.164a12.293,12.293,0,0,1,.1-4.631c-.536.054-1.073.12-1.62.186a7.163,7.163,0,0,0-.569,1.61A8.072,8.072,0,0,0,207.933,195.078Z" transform="translate(-37.99 -22.939)" fill="#fff" fill-rule="evenodd"/>
    <path id="Контур_2399" data-name="Контур 2399" d="M200.74,195.873l.033.208.022.077c.723-.087,1.457-.175,2.179-.252l-.033-.12-.022-.088v-.044l-.022-.164a12.2,12.2,0,0,1,.087-4.609c-.536.054-1.073.12-1.62.186a7.436,7.436,0,0,0-.547,1.6A8.069,8.069,0,0,0,200.74,195.873Z" transform="translate(-35.099 -23.263)" fill="#fff" fill-rule="evenodd"/>
    <path id="Контур_2400" data-name="Контур 2400" d="M186.35,197.452l.044.208.022.142.011.044,2.179-.263-.044-.208-.022-.1a.081.081,0,0,1-.011-.044l-.022-.153a12.29,12.29,0,0,1,.087-4.587c-.536.054-1.073.12-1.62.175a7.454,7.454,0,0,0-.548,1.576A8.3,8.3,0,0,0,186.35,197.452Z" transform="translate(-29.315 -23.911)" fill="#fff" fill-rule="evenodd"/>
    <path id="Контур_2401" data-name="Контур 2401" d="M171.97,199.033l.033.2.022.142.033.087.011.055,2.179-.262-.077-.307-.022-.088v-.044l-.022-.164a11.967,11.967,0,0,1,.087-4.566c-.548.066-1.095.132-1.642.186a7.73,7.73,0,0,0-.537,1.544A8.153,8.153,0,0,0,171.97,199.033Z" transform="translate(-23.53 -24.552)" fill="#fff" fill-rule="evenodd"/>
    <path id="Контур_2402" data-name="Контур 2402" d="M534.109,195.8c18.68.45,27.885-4.826,32.845-10.036,4.384-4.605,7.747-11.573,16.057-14.233a22.865,22.865,0,0,1,10.766-.639l2.19-4.014c-1.968-.234-4.8-.512-8.211-.639-3.5-.13-6.512-.061-7.482,0-7.543.474-12.933,8.107-17.882,12.408-4.756,4.133-13.039,8.607-28.283,8.576Z" transform="translate(-169.194 -13.326)" fill="#fff" fill-rule="evenodd"/>
    <path id="Контур_2403" data-name="Контур 2403" d="M587.811,235.841a69.981,69.981,0,0,0-20.437-2.432V238.7a60.221,60.221,0,0,1,20.437.73Z" transform="translate(-182.57 -40.352)" fill="#fff" fill-rule="evenodd"/>
    <path id="Контур_2404" data-name="Контур 2404" d="M585.286,348.283h8.12V256.318h-8.941Z" transform="translate(-189.442 -49.575)" fill="#fff" fill-rule="evenodd"/>
    <path id="Контур_2405" data-name="Контур 2405" d="M567.265,261.609c.365.547,4.927,7.3,4.927,7.3v-12.59h-4.927S566.9,261.062,567.265,261.609Z" transform="translate(-182.461 -49.575)" fill="#fff" fill-rule="evenodd"/>
    <path id="Контур_2406" data-name="Контур 2406" d="M570.121,388.655c0,.73,5.565,0,5.565,0V360.737l-5.565-4.015Z" transform="translate(-183.674 -89.947)" fill="#fff" fill-rule="evenodd"/>
    <path id="Контур_2407" data-name="Контур 2407" d="M457.842,420.506l-61.31.365q-.182,13.138-.365,26.276h10.766c.834-3.57,2.925-9.927,8.576-13.5,4.184-2.648,8.425-2.571,12.773-2.555,6.747.025,16.539-.086,29.56-.73,13.021.644,22.813.755,29.561.73,4.349-.016,8.589-.093,12.773,2.555,5.651,3.576,7.742,9.933,8.576,13.5h10.766q-.183-13.138-.365-26.276Z" transform="translate(-113.729 -115.594)" fill="#fff" fill-rule="evenodd"/>
    <path id="Контур_2408" data-name="Контур 2408" d="M590.9,484.647a22.319,22.319,0,0,0-12.043,0q-.684,40.327-1.369,80.652-1.778,4.015-3.558,8.029a29.864,29.864,0,0,1,21.623,0l-3.831-8.576Q591.315,524.7,590.9,484.647Z" transform="translate(-185.208 -141.051)" fill="#fff" fill-rule="evenodd"/>
    <path id="Контур_2409" data-name="Контур 2409" d="M570.877,155.013a6.731,6.731,0,0,0-2.816-.609,7.166,7.166,0,0,0-4.973,2.023q-1.39.02-2.747.019a174.865,174.865,0,0,1-36.063-3.644c-1.287-.271-2.627-.571-4.023-.884-7.908-1.767-17.749-3.967-30.365-3.967-1.981,0-4,.056-6,.164-2.745.149-5.518.4-8.239.752l-.3.039-.268.145a6.233,6.233,0,0,0-3.135,4.652,5.993,5.993,0,0,0,3.121,5.791l.363.2.414,0a244.3,244.3,0,0,1,33.078,2.628c3.367.5,5.769.923,7.7,1.266.752.133,1.447.256,2.121.371a142.212,142.212,0,0,0,20.353,1.874,1.634,1.634,0,0,0,.621.295,4.133,4.133,0,0,1,1.837.9c1.77,1.577,2.237,5.475,1.164,9.7-1.02,4.015-2.966,6.508-4.279,6.816a3.71,3.71,0,0,1-2.219-.255,3.237,3.237,0,0,1-.525-.313h2.026c.635-.7,4.325-4.861,3.952-10.445-.022-.35-.066-.712-.12-1.073a12.616,12.616,0,0,0-2-5.014L489.588,161.4l-.087.832a4.414,4.414,0,0,1,.58.428,6.387,6.387,0,0,1,1.248,1.434,5.719,5.719,0,0,1,.481.843l2.7.3c-.011-.055-.022-.109-.033-.164-.153-.69-.328-1.281-.46-1.7-.12-.362-.208-.6-.219-.657a4.449,4.449,0,0,1,.58.416,6.985,6.985,0,0,1,1.248,1.434,5.31,5.31,0,0,1,.481.854c.9.087,1.8.2,2.7.3-.011-.066-.022-.12-.033-.186-.153-.679-.328-1.27-.46-1.686-.109-.372-.208-.6-.219-.657a3.418,3.418,0,0,1,.569.4,6.674,6.674,0,0,1,1.259,1.434,7.186,7.186,0,0,1,.493.865c.9.1,1.8.2,2.7.307-.011-.066-.033-.132-.044-.2-.164-.689-.329-1.281-.471-1.7s-.219-.668-.219-.668a4.434,4.434,0,0,1,.58.427,6.688,6.688,0,0,1,1.259,1.434,6.059,6.059,0,0,1,.482.876c.9.1,1.806.2,2.715.307-.011-.077-.033-.154-.044-.219-.164-.679-.329-1.271-.471-1.686s-.219-.668-.219-.668a4.324,4.324,0,0,1,.58.427,6.137,6.137,0,0,1,1.248,1.434,6.709,6.709,0,0,1,.5.887c.9.1,1.8.2,2.694.306-.011-.077-.033-.153-.044-.23-.153-.69-.328-1.27-.46-1.686s-.219-.668-.219-.668a3.587,3.587,0,0,1,.58.416,6.361,6.361,0,0,1,1.248,1.434,6.574,6.574,0,0,1,.515.908l2.682.3c-.011-.077-.033-.154-.044-.23-.154-.689-.329-1.281-.46-1.7-.121-.361-.208-.6-.219-.657a4.389,4.389,0,0,1,.581.416,6.986,6.986,0,0,1,1.248,1.434,6.091,6.091,0,0,1,.515.92l2.693.3c-.022-.088-.033-.164-.054-.252-.153-.679-.329-1.27-.46-1.686s-.23-.668-.23-.668a4.393,4.393,0,0,1,.581.428,6.412,6.412,0,0,1,1.259,1.434,6.308,6.308,0,0,1,.526.931c.887.1,1.784.2,2.682.3-.022-.087-.033-.175-.055-.262-.164-.69-.328-1.27-.471-1.7s-.219-.657-.219-.657a3.607,3.607,0,0,1,.581.416,6.373,6.373,0,0,1,1.248,1.434,6.5,6.5,0,0,1,.526.952c.9.088,1.8.2,2.694.3a2.352,2.352,0,0,0-.055-.274c-.164-.689-.328-1.281-.471-1.7s-.219-.668-.219-.668a4.367,4.367,0,0,1,.58.427,6.376,6.376,0,0,1,1.248,1.434,7.716,7.716,0,0,1,.537.952c.887.1,1.773.2,2.672.306a2.9,2.9,0,0,0-.055-.3c-.153-.679-.328-1.27-.46-1.686-.109-.361-.208-.6-.219-.657a4.351,4.351,0,0,1,.58.416,6.418,6.418,0,0,1,1.248,1.434,5.385,5.385,0,0,1,.536.963l2.672.3a2.877,2.877,0,0,0-.055-.3c-.153-.689-.328-1.27-.46-1.7-.12-.361-.208-.591-.219-.646a3.394,3.394,0,0,1,.569.4,6.689,6.689,0,0,1,1.259,1.434,6.989,6.989,0,0,1,.547.985l1.456.164a7.26,7.26,0,0,1,.175,5.211l-1.128-.132-.077.307a7.785,7.785,0,0,1-.252.777,8.994,8.994,0,0,1-.7,1.423,8.019,8.019,0,0,1-1.817,2.047,7.1,7.1,0,0,1-1.609,1,4.593,4.593,0,0,1-.679.252l.4-.581c.241-.372.581-.887.942-1.5a18.943,18.943,0,0,0,1.029-2.113c.154-.383.3-.8.416-1.193.044-.208.1-.372.153-.624l.011-.054c-.7-.088-1.4-.175-2.1-.252v-.011l.022-.087.022-.132.033-.208a8.083,8.083,0,0,0-.065-3.208,7.326,7.326,0,0,0-.548-1.566c-.548-.054-1.095-.12-1.631-.175a11.97,11.97,0,0,1,.1,4.566l-.032.164v.044l-.022.087-.055.263,2.179.262-.1.35a7.775,7.775,0,0,1-.252.778,8.626,8.626,0,0,1-.7,1.423,8.034,8.034,0,0,1-1.817,2.047,6.99,6.99,0,0,1-1.61,1.007,5.52,5.52,0,0,1-.668.241l.394-.581c.252-.361.58-.887.942-1.489a17.324,17.324,0,0,0,1.029-2.113c.154-.395.3-.81.416-1.2.054-.2.109-.361.164-.624l.022-.1c-.7-.087-1.412-.175-2.113-.252l-.011.044-.1.35a7.18,7.18,0,0,1-.252.788,8.078,8.078,0,0,1-.7,1.412,7.99,7.99,0,0,1-1.806,2.048,7.207,7.207,0,0,1-1.61,1.007,4.029,4.029,0,0,1-.679.241s.142-.208.394-.58.58-.876.942-1.489a18.968,18.968,0,0,0,1.04-2.113c.142-.383.285-.8.405-1.2.054-.2.109-.361.164-.624l.032-.142c-.7-.087-1.412-.175-2.112-.252l.032-.142.033-.2a8.132,8.132,0,0,0-.077-3.219,7.23,7.23,0,0,0-.558-1.577c-.536-.066-1.073-.131-1.609-.186a12.37,12.37,0,0,1,.087,4.6l-.022.164a.068.068,0,0,1-.011.044l-.011.087-.044.164,2.178.262L526.8,174l-.088.361a5.911,5.911,0,0,1-.262.777,7.848,7.848,0,0,1-.7,1.424,8,8,0,0,1-1.806,2.047,7.094,7.094,0,0,1-1.61,1,5.191,5.191,0,0,1-.679.252s.142-.219.394-.581.58-.887.941-1.5a19.027,19.027,0,0,0,1.04-2.113c.142-.383.3-.8.405-1.193.054-.208.109-.361.164-.624l.044-.2-2.114-.263-.011.055-.022.087-.087.362a7.949,7.949,0,0,1-.252.777,8.633,8.633,0,0,1-.7,1.423,8.23,8.23,0,0,1-1.818,2.047,7.178,7.178,0,0,1-1.609,1.007,5.207,5.207,0,0,1-.679.241s.143-.208.405-.581c.241-.361.581-.887.942-1.489a19.159,19.159,0,0,0,1.029-2.113c.153-.394.3-.81.405-1.2.054-.2.109-.362.164-.624l.055-.241-2.113-.262-.011.109-.033.087-.087.35a7.229,7.229,0,0,1-.252.789,8.544,8.544,0,0,1-.7,1.412,8.021,8.021,0,0,1-1.818,2.047,6.829,6.829,0,0,1-1.609,1.007,3.691,3.691,0,0,1-.679.24s.154-.208.405-.58.58-.876.942-1.489a19.145,19.145,0,0,0,1.029-2.113c.153-.383.3-.8.416-1.193.044-.208.1-.373.153-.624l.077-.3-2.124-.262.044-.186a8.361,8.361,0,0,0-.077-3.219,7.666,7.666,0,0,0-.569-1.62c-.548-.065-1.084-.12-1.62-.175a12.075,12.075,0,0,1,.109,4.631l-.033.164v.044l-.022.087v.022c.723.077,1.445.164,2.168.252v.011l-.022.142-.021.088-.1.361a8.047,8.047,0,0,1-.252.777,8.652,8.652,0,0,1-.7,1.424,8.031,8.031,0,0,1-1.818,2.047,6.857,6.857,0,0,1-1.61,1,4.816,4.816,0,0,1-.668.252s.142-.219.395-.58.58-.887.941-1.5a17.315,17.315,0,0,0,1.03-2.113c.153-.383.3-.8.416-1.193.055-.208.109-.361.164-.624l.077-.34v-.011c-.7-.077-1.412-.164-2.113-.252l-.011.066-.033.132-.022.087-.087.362c-.055.219-.175.526-.263.777a7.783,7.783,0,0,1-.7,1.423,7.985,7.985,0,0,1-1.806,2.047,7.181,7.181,0,0,1-1.61,1.007,5.988,5.988,0,0,1-.679.241s.142-.208.394-.581.58-.887.942-1.489a19.015,19.015,0,0,0,1.04-2.113c.142-.394.3-.81.4-1.2.055-.2.109-.361.164-.624l.077-.361.011-.033c-.7-.077-1.412-.164-2.113-.252l-.022.109-.033.142-.022.087-.087.351a5.61,5.61,0,0,1-.263.788,7.7,7.7,0,0,1-.7,1.412,7.815,7.815,0,0,1-1.806,2.047,6.82,6.82,0,0,1-1.61,1.007,4.048,4.048,0,0,1-.679.24s.142-.207.394-.58.581-.876.942-1.489a18.938,18.938,0,0,0,1.04-2.113c.142-.383.3-.8.405-1.193.055-.208.109-.372.164-.624l.087-.361.011-.088,2.179.263.011-.1a8.092,8.092,0,0,0-.077-3.208,7.4,7.4,0,0,0-.591-1.653c-.537-.066-1.062-.12-1.587-.175a12.456,12.456,0,0,1,.1,4.664l-.022.164-.011.044c-.712-.077-1.412-.164-2.124-.252l-.022.153-.033.143L501,171.2l-.087.362a7.952,7.952,0,0,1-.252.777,8.594,8.594,0,0,1-.7,1.424,8.23,8.23,0,0,1-1.818,2.047,7.1,7.1,0,0,1-1.61,1,4.6,4.6,0,0,1-.679.252l.4-.58c.241-.373.581-.887.942-1.5a18.022,18.022,0,0,0,1.029-2.113,11.641,11.641,0,0,0,.405-1.193c.054-.207.109-.361.164-.624l.087-.361.022-.088v-.044c-.711-.088-1.412-.164-2.124-.252l-.033.207-.022.132-.022.1-.1.35a6.962,6.962,0,0,1-.252.777,8.612,8.612,0,0,1-.7,1.424,8.031,8.031,0,0,1-1.817,2.047,6.974,6.974,0,0,1-1.61,1.007,5.522,5.522,0,0,1-.668.241s.142-.208.394-.58.581-.887.942-1.489a17.28,17.28,0,0,0,1.029-2.113c.153-.394.3-.81.416-1.2.044-.2.109-.361.164-.624l.077-.361.022-.087v-.044l.011-.044c-.712-.087-1.412-.164-2.124-.252v.044l-.044.208-.022.142-.022.088-.1.361a7.766,7.766,0,0,1-.252.777,9.061,9.061,0,0,1-.7,1.424,8.21,8.21,0,0,1-1.806,2.047,7.128,7.128,0,0,1-1.62,1,3.846,3.846,0,0,1-.668.241s.142-.208.394-.581.58-.876.942-1.489a17.324,17.324,0,0,0,1.029-2.113c.153-.383.3-.8.416-1.193.054-.208.109-.373.164-.624l.077-.361.022-.087a.065.065,0,0,1,.011-.044l.011-.1c-.668-.076-1.346-.164-2.014-.24a5.711,5.711,0,0,0,0-4.741c.635.066,1.27.142,1.9.208-.011-.055-.022-.109-.033-.153-.154-.69-.329-1.281-.46-1.7s-.219-.668-.219-.668l.087-.832-5.332-.537-1.828,3.941-15.32-.1.721-.033c7.122-.343,12.986-1.474,12.956-2.147-.027-.576-4.312.255-7.482-2.506A7.681,7.681,0,0,1,470.565,154a7.6,7.6,0,0,1,4.744-6.25h-8.393V135.7l-23.9-1.46-14.461,4.12v10.566c-1.355-.074-3.25-.17-5.516-.268-3.01-.131-5.584-.243-8-.276-.878-.012-1.681-.027-2.418-.04-3.613-.067-5.794-.107-7.726.38-5.286,1.332-8.043,4.466-10.963,7.784-2.71,3.08-5.512,6.265-10.912,8.777-.1.048-.205.093-.308.14V151.944c-.566-.377-1.158-.744-1.779-1.095a32.225,32.225,0,0,0-17.517-3.832v-2.629a9.242,9.242,0,0,0,.881.4c.554.241,1.333.54,2.241.842s1.944.62,3.035.913c.547.145,1.1.306,1.671.438l1.708.432,1.711.4c.562.143,1.125.258,1.67.384.551.111,1.076.246,1.6.338l1.457.286c.461.1.985.2,1.291.227.4.085.768.131,1.065.175a8.63,8.63,0,0,0,.968.088,8.461,8.461,0,0,0-.514-.825c-.174-.246-.38-.553-.637-.872-.348-.38-.61-.658-.981-1.02a14.1,14.1,0,0,0-1.3-1.054,14.975,14.975,0,0,0-1.568-.962,16.091,16.091,0,0,0-11.086-1.485,10.6,10.6,0,0,0-3.207,1.29v-1.2q-1.211-.29-2.464-.548a87.075,87.075,0,0,0-33.665,0q-1.253.257-2.463.548v3.831A32.226,32.226,0,0,0,307.3,150.85c-.621.351-1.213.717-1.779,1.095v13.483c-.1-.047-.205-.092-.308-.14-5.4-2.512-8.2-5.7-10.912-8.777-2.92-3.318-5.678-6.452-10.963-7.784-1.932-.487-4.113-.447-7.726-.38-.737.013-1.54.028-2.418.04-2.419.032-4.993.145-8,.276-2.266.1-4.16.195-5.516.268V138.365l-14.46-4.12-23.9,1.46v12.043h-8.393A7.6,7.6,0,0,1,217.66,154a7.678,7.678,0,0,1-2.737,6.022c-3.169,2.761-7.454,1.93-7.481,2.506-.031.673,5.833,1.8,12.955,2.147l.721.033-15.32.1-1.828-3.941-5.332.537.087.832s-.087.252-.219.668-.306,1.007-.46,1.7c-.011.044-.022.1-.033.153.635-.066,1.27-.142,1.9-.208a5.71,5.71,0,0,0,0,4.741c-.668.077-1.346.164-2.014.24l.011.1a.065.065,0,0,1,.011.044l.022.087.077.361c.055.252.11.416.164.624.12.394.263.81.416,1.193a17.324,17.324,0,0,0,1.029,2.113c.362.613.69,1.128.942,1.489s.394.581.394.581a3.847,3.847,0,0,1-.668-.241,7.128,7.128,0,0,1-1.62-1,8.21,8.21,0,0,1-1.806-2.047,9.06,9.06,0,0,1-.7-1.424,7.747,7.747,0,0,1-.252-.777l-.1-.361-.022-.088-.022-.142-.044-.208v-.044c-.712.088-1.412.164-2.124.252l.011.044v.044l.022.087.077.361c.055.263.121.427.164.624.12.394.263.81.416,1.2a17.277,17.277,0,0,0,1.029,2.113c.361.6.7,1.128.942,1.489s.394.58.394.58a5.52,5.52,0,0,1-.668-.241,6.961,6.961,0,0,1-1.61-1.007,8.03,8.03,0,0,1-1.817-2.047,8.616,8.616,0,0,1-.7-1.424,6.959,6.959,0,0,1-.252-.777l-.1-.35-.022-.1-.022-.132-.033-.207c-.712.087-1.413.164-2.124.252v.044l.022.088.088.361c.054.262.109.416.164.624a11.641,11.641,0,0,0,.405,1.193,18.019,18.019,0,0,0,1.029,2.113c.361.613.7,1.128.942,1.5l.4.58a4.6,4.6,0,0,1-.679-.252,7.1,7.1,0,0,1-1.61-1,8.229,8.229,0,0,1-1.818-2.047,8.591,8.591,0,0,1-.7-1.424,7.965,7.965,0,0,1-.252-.777l-.087-.362-.022-.087-.033-.143-.022-.153c-.712.088-1.412.175-2.124.252l-.011-.044-.022-.164a12.456,12.456,0,0,1,.1-4.664c-.525.055-1.051.109-1.587.175a7.369,7.369,0,0,0-.591,1.653,8.091,8.091,0,0,0-.077,3.208l.011.1,2.179-.263.011.088.087.361c.055.252.109.416.164.624.109.394.262.81.4,1.193a19.028,19.028,0,0,0,1.04,2.113c.361.613.689,1.128.942,1.489s.394.58.394.58a4.062,4.062,0,0,1-.679-.24,6.832,6.832,0,0,1-1.609-1.007,7.816,7.816,0,0,1-1.806-2.047,7.7,7.7,0,0,1-.7-1.412,5.531,5.531,0,0,1-.263-.788l-.087-.351-.022-.087-.033-.142-.022-.109c-.7.087-1.412.175-2.112.252l.011.033.077.361c.055.263.109.427.164.624.109.394.262.81.4,1.2a19.031,19.031,0,0,0,1.04,2.113c.361.6.689,1.128.942,1.489s.394.581.394.581a5.963,5.963,0,0,1-.679-.241,7.19,7.19,0,0,1-1.609-1.007,8,8,0,0,1-1.807-2.047,7.817,7.817,0,0,1-.7-1.423c-.088-.252-.208-.558-.263-.777l-.087-.362-.022-.087-.033-.132-.011-.066c-.7.088-1.412.176-2.113.252v.011l.077.34c.054.262.109.416.164.624.12.394.262.81.416,1.193a17.239,17.239,0,0,0,1.03,2.113c.361.613.689,1.128.941,1.5s.395.58.395.58a4.785,4.785,0,0,1-.668-.252,6.858,6.858,0,0,1-1.61-1,8.032,8.032,0,0,1-1.818-2.047,8.661,8.661,0,0,1-.7-1.424,8.074,8.074,0,0,1-.252-.777l-.1-.361-.022-.088-.022-.142v-.011c.723-.087,1.445-.175,2.168-.252v-.022l-.022-.087v-.044l-.033-.164a12.062,12.062,0,0,1,.109-4.631c-.536.055-1.073.11-1.62.175a7.663,7.663,0,0,0-.569,1.62,8.359,8.359,0,0,0-.077,3.219l.044.186-2.124.262.077.3c.055.252.109.416.153.624.121.394.263.81.416,1.193a19.154,19.154,0,0,0,1.029,2.113c.361.613.7,1.127.942,1.489s.405.58.405.58a3.693,3.693,0,0,1-.679-.24,6.831,6.831,0,0,1-1.609-1.007,8.021,8.021,0,0,1-1.818-2.047,8.492,8.492,0,0,1-.7-1.412,7.223,7.223,0,0,1-.252-.789l-.087-.35L170,172.98l-.011-.109-2.113.262.055.241c.054.262.109.427.164.624.109.394.252.81.405,1.2a19.159,19.159,0,0,0,1.029,2.113c.361.6.7,1.128.942,1.489.262.372.4.581.4.581a5.22,5.22,0,0,1-.679-.241,7.19,7.19,0,0,1-1.61-1.007,8.227,8.227,0,0,1-1.817-2.047,8.588,8.588,0,0,1-.7-1.423,7.8,7.8,0,0,1-.252-.777l-.088-.362-.022-.087-.011-.055-2.113.263.044.2c.054.263.109.416.164.624.109.394.263.81.405,1.193a19.031,19.031,0,0,0,1.04,2.113c.361.613.69,1.128.942,1.5s.394.581.394.581a5.192,5.192,0,0,1-.679-.252,7.093,7.093,0,0,1-1.61-1,8.005,8.005,0,0,1-1.806-2.047,7.806,7.806,0,0,1-.7-1.424,5.907,5.907,0,0,1-.263-.777l-.087-.361-.022-.088,2.178-.262-.044-.164-.011-.087a.065.065,0,0,1-.011-.044l-.022-.164a12.37,12.37,0,0,1,.087-4.6c-.536.055-1.073.12-1.609.186a7.23,7.23,0,0,0-.558,1.577,8.131,8.131,0,0,0-.077,3.219l.033.2.032.142c-.7.077-1.412.164-2.113.252l.033.142c.055.263.109.428.164.624.12.405.262.821.4,1.2a19.084,19.084,0,0,0,1.04,2.113c.361.613.69,1.128.942,1.489s.394.58.394.58a4.027,4.027,0,0,1-.679-.241,7.207,7.207,0,0,1-1.61-1.007,8.241,8.241,0,0,1-2.507-3.46,7.054,7.054,0,0,1-.252-.788l-.1-.35-.011-.044c-.7.077-1.412.164-2.113.252l.022.1c.055.262.109.427.164.624.12.395.262.81.416,1.2a17.233,17.233,0,0,0,1.029,2.113c.361.6.689,1.128.942,1.489s.394.581.394.581a5.519,5.519,0,0,1-.668-.241,6.987,6.987,0,0,1-1.61-1.007,8.02,8.02,0,0,1-1.817-2.047,8.586,8.586,0,0,1-.7-1.423,7.758,7.758,0,0,1-.252-.778l-.1-.35,2.178-.262-.054-.263-.022-.087v-.044l-.033-.164a11.982,11.982,0,0,1,.1-4.566c-.536.055-1.083.121-1.631.175a7.327,7.327,0,0,0-.548,1.566,8.084,8.084,0,0,0-.065,3.208l.032.208.022.132.022.087v.011c-.7.077-1.4.164-2.1.252l.011.054c.055.252.11.416.154.624.12.394.262.81.416,1.193a19.052,19.052,0,0,0,1.03,2.113c.361.613.7,1.128.941,1.5l.405.581a4.593,4.593,0,0,1-.679-.252,7.087,7.087,0,0,1-1.61-1,8,8,0,0,1-1.817-2.047,9.05,9.05,0,0,1-.7-1.423,8.131,8.131,0,0,1-.252-.777l-.077-.307-1.128.132a7.251,7.251,0,0,1,.175-5.211l1.457-.164a6.921,6.921,0,0,1,.547-.985,6.671,6.671,0,0,1,1.259-1.434,3.366,3.366,0,0,1,.569-.4c-.011.054-.1.285-.219.646-.132.427-.307,1.007-.46,1.7a2.7,2.7,0,0,0-.055.3l2.671-.3a5.348,5.348,0,0,1,.536-.963,6.418,6.418,0,0,1,1.248-1.434,4.349,4.349,0,0,1,.58-.416c-.011.054-.109.3-.219.657-.132.416-.307,1.007-.46,1.686a2.721,2.721,0,0,0-.055.3c.9-.109,1.785-.207,2.671-.306a7.807,7.807,0,0,1,.536-.952,6.379,6.379,0,0,1,1.248-1.434,4.369,4.369,0,0,1,.58-.427s-.087.252-.219.668-.307,1.007-.471,1.7a2.336,2.336,0,0,0-.055.274c.9-.1,1.8-.208,2.694-.3a6.553,6.553,0,0,1,.525-.952,6.373,6.373,0,0,1,1.248-1.434,3.621,3.621,0,0,1,.58-.416s-.087.241-.219.657-.307,1.007-.471,1.7c-.022.087-.033.175-.055.262.9-.1,1.8-.2,2.682-.3a6.307,6.307,0,0,1,.526-.931,6.412,6.412,0,0,1,1.259-1.434,4.419,4.419,0,0,1,.58-.428s-.087.252-.23.668-.307,1.007-.46,1.686c-.022.088-.033.164-.055.252l2.694-.3a6.041,6.041,0,0,1,.515-.92,6.986,6.986,0,0,1,1.248-1.434,4.446,4.446,0,0,1,.58-.416c-.011.055-.1.3-.219.657-.131.416-.306,1.007-.46,1.7-.011.077-.033.154-.044.23l2.682-.3a6.467,6.467,0,0,1,.515-.908,6.377,6.377,0,0,1,1.248-1.434,3.6,3.6,0,0,1,.581-.416s-.088.241-.219.668-.307,1-.46,1.686c-.011.077-.033.153-.044.23.9-.109,1.8-.208,2.694-.306a6.714,6.714,0,0,1,.5-.887,6.152,6.152,0,0,1,1.248-1.434,4.346,4.346,0,0,1,.581-.427s-.087.252-.219.668-.307,1.007-.471,1.686c-.011.065-.033.142-.044.219.909-.11,1.818-.208,2.715-.307a6.063,6.063,0,0,1,.482-.876,6.673,6.673,0,0,1,1.259-1.434,4.437,4.437,0,0,1,.58-.427s-.087.252-.219.668-.307,1.007-.471,1.7c-.011.066-.032.132-.044.2.909-.109,1.807-.208,2.7-.307a7.11,7.11,0,0,1,.493-.865,6.658,6.658,0,0,1,1.259-1.434,3.393,3.393,0,0,1,.569-.4c-.011.054-.109.285-.219.657-.132.416-.307,1.007-.46,1.686-.011.066-.022.12-.033.186.909-.1,1.806-.208,2.7-.3a5.308,5.308,0,0,1,.482-.854,6.986,6.986,0,0,1,1.248-1.434,4.447,4.447,0,0,1,.58-.416c-.011.055-.1.3-.219.657-.132.416-.307,1.007-.46,1.7-.011.055-.022.109-.033.164l2.7-.3a5.716,5.716,0,0,1,.481-.843,6.387,6.387,0,0,1,1.248-1.434,4.414,4.414,0,0,1,.58-.428l-.087-.832-49.957,5.058a12.616,12.616,0,0,0-2,5.014c-.054.361-.1.722-.12,1.073h0c-.373,5.584,3.317,9.744,3.952,10.445h2.026a3.241,3.241,0,0,1-.525.313,3.711,3.711,0,0,1-2.219.255c-1.313-.308-3.259-2.8-4.279-6.816-1.073-4.225-.606-8.124,1.164-9.7a4.133,4.133,0,0,1,1.837-.9,1.635,1.635,0,0,0,.621-.295,142.213,142.213,0,0,0,20.353-1.874c.674-.115,1.369-.238,2.12-.371,1.931-.343,4.332-.769,7.7-1.266a244.3,244.3,0,0,1,33.078-2.628l.415,0,.362-.2a5.992,5.992,0,0,0,3.122-5.791,6.233,6.233,0,0,0-3.135-4.652l-.268-.145-.3-.039c-2.722-.35-5.494-.6-8.239-.752-2-.109-4.02-.164-6-.164-12.616,0-22.457,2.2-30.365,3.967-1.4.313-2.737.612-4.023.884a174.865,174.865,0,0,1-36.063,3.644q-1.357,0-2.747-.019a7.166,7.166,0,0,0-4.973-2.023,6.588,6.588,0,1,0-.177,13.17,6.18,6.18,0,0,0,.689-.038,6.718,6.718,0,0,0,4.562-2.722q9.345.973,18.126,1.062c-2.128,3.109-1.994,7.894-1.034,11.671,1,3.923,3.283,8.4,6.712,9.206a6.518,6.518,0,0,0,1.453.156,6.9,6.9,0,0,0,2.9-.63,7.245,7.245,0,0,0,3.331-3.294l43.2-4.762,1.861,7.97,8.945-.328,3.416-1.434.526,5.113h1.351v7.112c0,.5.033,1,.083,1.486-1-.083-1.992-.187-2.986-.257a6.046,6.046,0,0,1-4.768-5.567l-.361-6.252-4.372.252.361,6.252a10.421,10.421,0,0,0,8.426,9.638l.265.035c1.538.107,3.08.257,4.621.395a14.608,14.608,0,0,0,9.155,8.056c4.933,1.5,9.9,3.118,14.768,4.811,9.332,3.247,18.636,6.893,27.726,10.859a32.883,32.883,0,0,0-2.179,2.567c-18.905,24.852,4.137,66.91,6.826,71.623l.2-.113-.008,2.253a14.493,14.493,0,0,0-1.667,1.65c-3.255,3.81-3.347,7.872-3.514,15.244l-.021.908c-.062,2.666-.132,5.036-.193,7.164-.356,12.2-.489,16.758,2.27,23.545.321.79.669,1.578,1.039,2.352q.193.416.414.842a2.179,2.179,0,0,0,1.425,1.117v69.168l-3.433,8.643a2.2,2.2,0,0,0-.154.808V441.8a2.19,2.19,0,0,0,3.76,1.526,15.918,15.918,0,0,1,3.369-2.648c3.327-1.949,6.424-2.082,12.063-2.163,5.855-.086,8.547-.047,10.981,1.759a9.83,9.83,0,0,1,2.461,2.691,2.19,2.19,0,0,0,4.044-1.165v-5.748a2.171,2.171,0,0,0-.063-.519l-2.673-10.96.107-20.163a77.929,77.929,0,0,1,15.051-9.335,54.567,54.567,0,0,1,50.115,0,79.122,79.122,0,0,1,15.085,9.29l.108,20.209-2.673,10.96a2.173,2.173,0,0,0-.063.519V441.8a2.19,2.19,0,0,0,4.044,1.165,9.83,9.83,0,0,1,2.461-2.691c2.435-1.806,5.126-1.845,10.981-1.759,5.639.081,8.736.215,12.063,2.163a15.933,15.933,0,0,1,3.369,2.648,2.19,2.19,0,0,0,3.76-1.526v-7.663a2.187,2.187,0,0,0-.155-.808l-3.433-8.643V355.517a2.178,2.178,0,0,0,1.426-1.117q.221-.426.414-.842c.37-.773.718-1.561,1.039-2.352,2.759-6.787,2.625-11.349,2.27-23.545-.062-2.128-.131-4.5-.193-7.164l-.021-.908c-.167-7.372-.259-11.434-3.514-15.244a14.488,14.488,0,0,0-1.667-1.65l-.009-2.253.2.113c2.689-4.713,25.732-46.771,6.826-71.623a32.748,32.748,0,0,0-2.179-2.567c9.09-3.966,18.395-7.613,27.726-10.859,4.866-1.693,9.836-3.311,14.769-4.811a14.609,14.609,0,0,0,9.155-8.056c1.541-.138,3.082-.288,4.621-.395l.265-.035a10.421,10.421,0,0,0,8.426-9.638l.361-6.252-4.372-.252-.361,6.252a6.045,6.045,0,0,1-4.767,5.567c-.995.07-1.991.174-2.986.257.049-.49.082-.984.082-1.486v-7.112h1.352l.526-5.113,3.416,1.434,8.945.328,1.861-7.97,43.2,4.762a7.25,7.25,0,0,0,3.332,3.294,6.9,6.9,0,0,0,2.9.63,6.523,6.523,0,0,0,1.453-.156c3.428-.8,5.715-5.283,6.711-9.206.96-3.777,1.094-8.563-1.034-11.671q8.77-.092,18.126-1.062a6.719,6.719,0,0,0,4.562,2.722,6.181,6.181,0,0,0,.689.038,6.53,6.53,0,0,0,2.639-12.561Zm-406.25,1h0c1.3-.274,2.651-.576,4.062-.891,7.749-1.733,17.395-3.888,29.649-3.888h.016q-2.256.226-4.6.526a159.355,159.355,0,0,0-19.706,3.832c18.755-2.291,27.016-1.846,30.838-.73,1.016.3,5.107,1.631,7.663-.365a4.382,4.382,0,0,0,.465-.425,2.68,2.68,0,0,1-1.129,2.346,247.809,247.809,0,0,0-33.06,2.659c-3.413.5-5.842.935-7.793,1.281-.743.132-1.43.253-2.1.366a151.534,151.534,0,0,1-33.009,1.631,91.767,91.767,0,0,0,23.247-2.292,90.888,90.888,0,0,0,12.682-3.923c-2.744.076-6.98.282-12.135.912q-.992.121-1.906.247,3.439-.576,6.807-1.286Zm-31.186,3.632h0a181.142,181.142,0,0,0,20.043-1.677c-1.662.286-2.845.523-3.43.634a77.252,77.252,0,0,1-16.614,1.042Zm-8.846,1.8h0l-1.106-.12-.522.984a3.869,3.869,0,0,1-2.654,1.966,3.3,3.3,0,1,1-.149-6.584,3.908,3.908,0,0,1,2.883,1.3c-.391-.037-.784-.075-1.184-.115-1.669-1.1-3.556-.6-4.106.456a2.485,2.485,0,0,0,1.095,3.011,2.9,2.9,0,0,0,3.832-1.277c1.336.222,2.754.429,4.243.612-.775-.076-1.551-.152-2.332-.237Zm78.828,22.069h0q-.822-5.88-1.642-11.769l6.569,11.244-4.927.526Zm235.345-20.786h0a14,14,0,0,0,2.784-1.065,78.818,78.818,0,0,0,15.465,2.874c.558.047,1.1.085,1.623.117l-18.156-.114c.23-.548.471-1.095.7-1.642q-1.254-.1-2.417-.17Zm28.4-13.4h0c1.675.025,3.352.083,5.036.244-1.643.408-3.292.713-4.945.985s-3.308.5-4.966.7-3.318.369-4.981.5c-1.516.149-3.037.219-4.557.316a8.942,8.942,0,0,0-1.385,2.01,8.2,8.2,0,0,0-.855,2.741,6.162,6.162,0,0,0-.074.729,5.94,5.94,0,0,0-.007.752,9.619,9.619,0,0,0,.175,1.48,10.873,10.873,0,0,0,1.085,2.925,7.961,7.961,0,0,1-1.915-2.652,7.6,7.6,0,0,1-.535-1.617,7.077,7.077,0,0,1-.139-.833,7.645,7.645,0,0,1-.063-.861,9.216,9.216,0,0,1,.618-3.413,10.592,10.592,0,0,1,1.813-3l.259-.3.433-.035c1.662-.134,3.321-.314,4.988-.4,1.664-.117,3.332-.191,5-.242s3.34-.07,5.015-.038ZM433.2,139.6h0c.865-.315,1.733-.624,2.608-.908,1.748-.575,3.484-1.186,5.243-1.724l.054-.017.072,0q5.631-.248,11.267-.277c1.879-.026,3.758.02,5.638.035s3.761.089,5.642.184c-1.874.185-3.749.352-5.626.457s-3.752.244-5.63.309q-5.6.24-11.213.27c-1.746.493-3.513.917-5.269,1.375-.889.236-1.785.447-2.683.651s-1.794.42-2.7.6c.86-.337,1.727-.645,2.594-.956ZM384.86,169.258h0c6.234-2.9,9.485-6.595,12.353-9.855,2.67-3.034,4.778-5.431,8.744-6.429,1.367-.344,3.328-.308,6.575-.249.744.014,1.553.029,2.439.041,2.354.032,4.9.142,7.841.27,2.344.1,4.267.2,5.619.274l.118-2.187v4.471a11.874,11.874,0,0,0,.24,3.141l3.005-3.966-1.06-.393.147-12.476,11.9-1.99v18.934l-6.163-2.285-4.52,5.965h0l-4.7,6.2c2.255.186,4.938.35,8.167.471l-1.045,1.159-8-.466-3.183,4.2,11.419.665,2,2.192,27.787,1.281,1.27,11.32h2.01v7.112a10.41,10.41,0,0,1-.175,1.872c-7.366.752-14.725,1.846-21.962,3.271a239.89,239.89,0,0,0-28.59,7.5V199.2a2.189,2.189,0,0,0-.71-1.614,36.156,36.156,0,0,0-3.359-2.726c.03-.865.052-1.731.054-2.588,0-1.437-.03-2.888-.1-4.312a2.191,2.191,0,0,0-1.251-1.871,40.4,40.4,0,0,0-7.615-2.7q-1.474-.361-2.969-.608,1.123-.668,2.234-1.414h-.117c.444-.265.885-.535,1.315-.822h7.613a10.563,10.563,0,0,0,8.375-4.161l16.393-21.637h.553a2.258,2.258,0,0,0,0-4.517h-3.076a2.265,2.265,0,0,0-2.258,2.258,2.127,2.127,0,0,0,.016.249c0,.029.008.057.012.085.008.051.017.1.029.152.008.035.016.069.024.1s.021.065.031.1a2.321,2.321,0,0,0,.108.271l.007.014a2.288,2.288,0,0,0,.744.878L421.592,169.6l-3.206,4.231-.435.575a7.26,7.26,0,0,1-5.757,2.86h-3.648l.814-.5a1.68,1.68,0,0,0,.379-.322h.066a14.492,14.492,0,0,1,7.528-2.584l3.273-4.319-1.32-.077a18.946,18.946,0,0,0-11.192,2.853q.724-.488,1.528-1.033c2.584-1.751,4.117-2.8,6.569-3.284a13.612,13.612,0,0,1,4.927,0c.186.033.394.066.591.088l4.073-5.376c-9.755.635-12.93,2.661-14.057,3.471-1.62,1.138-1.631,1.577-3.931,3.831a58.933,58.933,0,0,1-15.776,10.948,40.157,40.157,0,0,0,6.842-2.737,93.951,93.951,0,0,0,8.154-5.183q-.718.521-1.394,1.113c-5.6,4.926-11.665,8.046-17.525,9.022a91.726,91.726,0,0,1-11.187.792,123.853,123.853,0,0,1-12.927-.371l.093-10.205c.365.008.728.013,1.092.013a48.755,48.755,0,0,0,12.776-1.693,42.075,42.075,0,0,0,6.92-2.454ZM382.712,223.7h0a55.355,55.355,0,0,0-15.608-17.86V188.194c2.294.124,4.6.188,6.9.188q1.5,0,3.006-.035c.488-.011,1.161-.027,1.956-.053V212.16a2.184,2.184,0,0,0,.337,1.167l10.52,16.709v29.017l-.944-1.238a56.49,56.49,0,0,0-6.166-34.112Zm-38.6,76.317H306.889V271.389a44.033,44.033,0,0,0,74.448,0V300.02Zm-44.765-42.205h0l-.944,1.238V230.036l10.52-16.709a2.189,2.189,0,0,0,.337-1.167V188.294c.8.026,1.468.041,1.956.053q1.5.035,3.006.035c2.3,0,4.6-.064,6.9-.188v17.649a55.355,55.355,0,0,0-15.608,17.86,56.49,56.49,0,0,0-6.166,34.112Zm-26.746-43.4h0l.114-.33,1.4,1.048-.026,6.722c-.569.409-1.126.827-1.665,1.263-9.741-4.307-19.741-8.257-29.773-11.747-4.921-1.712-9.946-3.349-14.935-4.865a10.311,10.311,0,0,1-4.977-3.312c6.358.72,12.7,1.674,18.952,2.9a235.313,235.313,0,0,1,30.914,8.316Zm23.3-27.724h0a30.73,30.73,0,0,0,3.3.768,58.493,58.493,0,0,0-5.975.645,42.718,42.718,0,0,0-13.7,4.1c0-.894.011-1.793.04-2.686a35.771,35.771,0,0,1,16.338-2.826ZM275.5,203.763h0v-3.577a31.65,31.65,0,0,1,4.581-3.293c5.2-3.072,9.987-3.846,13.834-4.468a54.642,54.642,0,0,1,10.963-.642V200.5l-21.036.166a13.077,13.077,0,0,0-8.341,3.1Zm68.609-38.5h0a21.96,21.96,0,0,1,10.187,2.569,21.5,21.5,0,0,1,5.406,4.116l-.211,23.272a27.412,27.412,0,0,0-15.018-7.391,2.17,2.17,0,0,0-.258-.028c-.035,0-.071,0-.106,0s-.07,0-.105,0a2.17,2.17,0,0,0-.258.028,27.412,27.412,0,0,0-15.018,7.391l-.211-23.272a21.5,21.5,0,0,1,5.406-4.116,21.96,21.96,0,0,1,10.187-2.569Zm-8.932,30.392h0a23.3,23.3,0,0,1,8.932-3.449,23.1,23.1,0,0,1,15.683,10.2,2.187,2.187,0,0,0,2.93.7v3.852a2.206,2.206,0,0,0,.044.417,43.9,43.9,0,0,0-37.313.007,2.173,2.173,0,0,0,.045-.424v-3.852a2.19,2.19,0,0,0,2.93-.7,23.292,23.292,0,0,1,6.75-6.75ZM306.3,259.038h0l-.668-2.827a9.217,9.217,0,0,1-.259-1.434l-.193-1.452a45.192,45.192,0,0,1-.353-5.765A43.543,43.543,0,0,1,306.7,236.2a41.884,41.884,0,0,1,4.889-10.279,44.689,44.689,0,0,1,7.4-8.407c.689-.619,1.453-1.146,2.174-1.721l1.094-.845,1.161-.742c.78-.481,1.527-1.017,2.329-1.448l2.429-1.238a40.314,40.314,0,0,1,15.324-3.7c.23-.011.371-.031.674-.034l.64.024,1.275.051c.846.053,1.7.024,2.524.147a38.39,38.39,0,0,1,17.513,6.541,39.54,39.54,0,0,1,15.431,22.625l.554,2.307c.143.73.208,1.43.315,2.07s.182,1.238.262,1.783.062,1.044.093,1.489l.126,2.733v.005s-.042.953-.121,2.74c-.031.446-.017.949-.091,1.494s-.166,1.139-.259,1.781-.169,1.338-.312,2.068l-.552,2.308a39.737,39.737,0,0,1-15.416,22.666,38.973,38.973,0,0,1-17.573,6.682c-.847.138-1.647.118-2.481.185l-1.245.071-.625.035c-.33.006-.462-.014-.7-.02a38.226,38.226,0,0,1-5.223-.445,37.494,37.494,0,0,1-10.352-3.027l-2.48-1.223c-.821-.426-1.586-.959-2.385-1.436L321.9,280.7l-1.119-.849c-.736-.58-1.515-1.112-2.22-1.738A39.22,39.22,0,0,1,306.3,259.038Zm86.026-72.349h0a35.771,35.771,0,0,1,16.338,2.826c.029.893.042,1.792.04,2.686a42.718,42.718,0,0,0-13.7-4.1,58.491,58.491,0,0,0-5.975-.645,30.73,30.73,0,0,0,3.3-.768Zm-8.984,5.095h0a54.642,54.642,0,0,1,10.963.642c3.848.622,8.635,1.4,13.834,4.468a31.651,31.651,0,0,1,4.581,3.293v3.577a13.077,13.077,0,0,0-8.341-3.1l-21.036-.166v-8.715Zm30.795,30.069h0l-.026-6.722,1.4-1.048.114.33a235.287,235.287,0,0,1,30.914-8.316c6.25-1.231,12.594-2.184,18.951-2.9a10.3,10.3,0,0,1-4.977,3.312c-4.989,1.516-10.014,3.153-14.935,4.865-10.032,3.491-20.032,7.44-29.773,11.747-.538-.436-1.1-.854-1.665-1.263ZM407.8,178.407h0c1.586-.114,3.172-.195,4.758-.257a7.562,7.562,0,0,0,2.261-.276,5.867,5.867,0,0,0,1.946-1.043,5.725,5.725,0,0,0,.779-.765l.719-.932,1.46-1.879c.982-1.245,1.956-2.5,2.958-3.727l3.024-3.677,1.467-1.873,1.409-1.917c.914-1.3,1.8-2.619,2.742-3.892.869-1.2,1.805-2.356,2.723-3.523a2.241,2.241,0,0,1-.306-.325l1.055.391-.057.078c-.946,1.272-1.864,2.567-2.86,3.8-.979,1.248-2.021,2.448-3.031,3.672l-1.478,1.865-1.419,1.91-2.749,3.887c-.922,1.291-1.873,2.561-2.814,3.837l-1.427,1.9c-.236.3-.481.651-.739.948a6.531,6.531,0,0,1-.936.878,6.081,6.081,0,0,1-2.27,1.091,7.9,7.9,0,0,1-2.457.164c-1.586-.063-3.172-.143-4.758-.258v-.083Zm-26.642-24.684h0v10.812L377.87,151.58l3.284,2.144Zm-20.8-8.712h0l3.057,4.561c.045.548,0,13.5,0,13.5l-3.057-2.554v-15.51Zm-35.536,4.561h0l3.056-4.561v15.51l-3.056,2.554s-.046-12.955,0-13.5Zm-17.745,4.151h0l3.284-2.144-3.284,12.956V153.723Zm17.061,12.728h0a23.709,23.709,0,0,1,3.284-2.737,27.058,27.058,0,0,1,16.7-4.38,27.057,27.057,0,0,1,16.7,4.38,23.709,23.709,0,0,1,3.284,2.737h16.07c-1.413.5-2.6.826-3.369,1.035a44.539,44.539,0,0,1-13.885,1.483,25.887,25.887,0,0,0-6.541-4.995,26.319,26.319,0,0,0-12.243-3.088H344.1a26.319,26.319,0,0,0-12.243,3.088,25.887,25.887,0,0,0-6.541,4.995,44.539,44.539,0,0,1-13.885-1.483c-.772-.209-1.956-.531-3.369-1.035Zm-64.458-10.857h0v-4.471l.119,2.187c1.352-.073,3.275-.172,5.619-.274,2.944-.128,5.487-.239,7.841-.27.886-.012,1.7-.027,2.439-.041,3.247-.059,5.208-.1,6.575.249,3.967,1,6.075,3.395,8.744,6.429,2.869,3.26,6.12,6.955,12.353,9.855a42.1,42.1,0,0,0,6.92,2.454,48.758,48.758,0,0,0,12.776,1.693c.364,0,.727-.005,1.092-.013l.093,10.205a123.855,123.855,0,0,1-12.927.371,91.727,91.727,0,0,1-11.187-.792c-5.859-.976-11.919-4.1-17.525-9.022q-.674-.593-1.394-1.113a94.129,94.129,0,0,0,8.153,5.183,40.185,40.185,0,0,0,6.843,2.737,58.934,58.934,0,0,1-15.776-10.948c-2.3-2.255-2.31-2.693-3.931-3.831-1.128-.81-4.3-2.836-14.057-3.471l4.073,5.376c.2-.022.4-.055.591-.088a13.613,13.613,0,0,1,4.927,0c2.453.482,3.985,1.533,6.569,3.284q.805.546,1.528,1.033a18.947,18.947,0,0,0-11.192-2.853l-1.32.077,3.272,4.319a14.492,14.492,0,0,1,7.528,2.584h.066a1.68,1.68,0,0,0,.379.322l.814.5h-3.648a7.26,7.26,0,0,1-5.757-2.86l-.435-.575-3.206-4.231-11.559-15.256a2.287,2.287,0,0,0,.744-.878l.007-.014a2.374,2.374,0,0,0,.108-.271c.01-.032.022-.064.031-.1s.016-.069.025-.1c.011-.05.021-.1.029-.152,0-.028.008-.056.012-.085a2.243,2.243,0,0,0-2.243-2.507h-3.076a2.258,2.258,0,1,0,0,4.517h.553l16.393,21.637a10.563,10.563,0,0,0,8.375,4.161h7.613c.43.287.871.556,1.315.822h-.117q1.11.749,2.234,1.414-1.494.248-2.969.608a40.4,40.4,0,0,0-7.615,2.7,2.191,2.191,0,0,0-1.251,1.871c-.071,1.424-.105,2.875-.1,4.312,0,.857.024,1.723.054,2.588a36.148,36.148,0,0,0-3.359,2.726,2.189,2.189,0,0,0-.71,1.614V209.3a239.891,239.891,0,0,0-28.59-7.5c-7.238-1.425-14.6-2.52-21.962-3.271a10.407,10.407,0,0,1-.175-1.872v-7.112h2.01l1.27-11.32,27.787-1.281,2-2.192,11.419-.665-3.183-4.2-8,.466-1.045-1.159c3.23-.12,5.912-.285,8.167-.471l-4.7-6.2h0l-4.52-5.965-6.163,2.285V139.91l11.9,1.99.147,12.476-1.06.393,3.005,3.966a11.84,11.84,0,0,0,.24-3.141Zm-5.184-1.273h0a2.244,2.244,0,0,1-.306.325c.918,1.167,1.855,2.319,2.723,3.523.946,1.274,1.828,2.595,2.743,3.892l1.409,1.917,1.467,1.873,3.024,3.677c1,1.23,1.977,2.482,2.959,3.727l1.46,1.879.719.932a5.751,5.751,0,0,0,.779.765,5.87,5.87,0,0,0,1.947,1.043,7.562,7.562,0,0,0,2.261.276c1.586.062,3.172.143,4.758.257v.083c-1.586.114-3.172.195-4.758.258a7.9,7.9,0,0,1-2.457-.164,6.083,6.083,0,0,1-2.27-1.091,6.531,6.531,0,0,1-.936-.878c-.258-.3-.5-.644-.739-.948l-1.427-1.9c-.941-1.277-1.892-2.546-2.814-3.837l-2.749-3.887-1.419-1.91-1.478-1.865c-1.01-1.224-2.052-2.424-3.031-3.672-1-1.235-1.914-2.53-2.86-3.8l-.057-.078,1.055-.391Zm-24.346-17.614h0c1.879-.015,3.76-.062,5.638-.035q5.636.032,11.267.277l.072,0,.054.017c1.759.538,3.5,1.149,5.243,1.724.875.284,1.742.593,2.608.908s1.735.619,2.594.956c-.9-.184-1.8-.394-2.7-.6s-1.794-.416-2.683-.651c-1.757-.459-3.523-.882-5.269-1.375q-5.61-.027-11.213-.27c-1.877-.065-3.753-.2-5.63-.309s-3.751-.272-5.626-.457c1.881-.094,3.762-.17,5.641-.184Zm-14.126,12.865h0c1.684-.161,3.361-.219,5.036-.244s3.345-.006,5.015.038,3.336.124,5,.242c1.667.083,3.326.264,4.988.4l.433.035.259.3a10.591,10.591,0,0,1,1.813,3,9.216,9.216,0,0,1,.618,3.413,7.5,7.5,0,0,1-.064.861,6.962,6.962,0,0,1-.139.833,7.6,7.6,0,0,1-.535,1.617,7.963,7.963,0,0,1-1.915,2.652,10.875,10.875,0,0,0,1.086-2.925,9.687,9.687,0,0,0,.175-1.48,6.038,6.038,0,0,0-.007-.752,6.29,6.29,0,0,0-.074-.729,8.208,8.208,0,0,0-.855-2.741,8.959,8.959,0,0,0-1.385-2.01c-1.52-.1-3.042-.167-4.557-.316-1.663-.13-3.323-.3-4.981-.5s-3.314-.423-4.966-.7-3.3-.576-4.945-.985Zm15.19,14.963h0a78.813,78.813,0,0,0,15.464-2.874,14.022,14.022,0,0,0,2.785,1.065q-1.164.07-2.418.17c.23.548.471,1.095.7,1.642l-18.156.114c.526-.032,1.065-.071,1.623-.117Zm-12.946,25.009h0c0,.026.082,1.168.175,3.152.054,1,.078,2.223.128,3.621a16.83,16.83,0,0,0,.239,2.328c-.28-.007-.563.01-.847.026a12.959,12.959,0,0,1-.107-2.355c.05-1.4.074-2.617.129-3.621.093-1.984.173-3.126.175-3.152Zm-5.478,10.994h0l-.035,0-.024-.005a9.788,9.788,0,0,1-1.1-.285,7.372,7.372,0,0,1-1.049-.429,8.871,8.871,0,0,1-1.871-1.267,8.5,8.5,0,0,1-2.463-3.715,8.064,8.064,0,0,1-.273-1.091,7.9,7.9,0,0,1-.125-1.1c-.026-.384-.025-.722-.038-1.085l-.03-1.072c-.016-1.431-.048-2.86-.035-4.293l.109-.006c.178,1.421.311,2.845.459,4.268l.094,1.068c.034.35.057.726.1,1.054a7.017,7.017,0,0,0,.178,1.021,7.438,7.438,0,0,0,.307.971,7.9,7.9,0,0,0,2.312,3.287,8.3,8.3,0,0,0,3.59,1.726c1.273.112,2.548.193,3.816.357l3.847.485,3.839.524c1.281.16,2.555.37,3.838.517l7.68,1.018c2.561.347,5.112.771,7.652,1.247s5.073,1.009,7.592,1.586,5.021,1.242,7.507,1.954c2.478.737,4.954,1.483,7.4,2.324q2.549.862,5.06,1.83v.358l-5.277-1.483c-2.486-.677-4.967-1.366-7.466-1.985-4.989-1.264-9.981-2.515-15.013-3.6-2.515-.553-5.036-1.072-7.562-1.587s-5.066-.958-7.619-1.314c-1.274-.2-2.558-.318-3.839-.462s-2.566-.239-3.852-.329l-7.712-.484Zm39.765,17.375h0l-6.179-2.387c-2.116-.8-4.231-1.644-6.4-2.411-2.157-.784-4.325-1.535-6.47-2.245-2.151-.688-4.271-1.354-6.344-1.934a12.536,12.536,0,0,1-5.54-3.043,13.1,13.1,0,0,1-1.884-2.3c-.121-.208-.229-.417-.338-.625.378.015.755.037,1.133.045a14.059,14.059,0,0,0,1.745,2.216,16.074,16.074,0,0,0,2.279,1.828,13.9,13.9,0,0,0,2.787,1.322c2.017.752,4.123,1.462,6.267,2.173,2.151.689,4.346,1.36,6.551,2,2.212.608,4.4,1.355,6.54,2.074,2.139.735,4.231,1.495,6.255,2.234,4.04,1.5,7.757,3.036,10.9,4.444,1.577.7,3.018,1.34,4.281,1.946.995.475,1.891.894,2.664,1.274-.132.121-.267.239-.4.361l-6.915-2.7-10.94-4.267Zm18.563,14.333h0a27.9,27.9,0,0,1,2.946-3.284l-.233,59.808c-6.18-13.83-15.129-40.2-2.713-56.524Zm7.059,65.3h0l.352-90.63a8.585,8.585,0,0,1,5.39-1.875l20.967-.166v6.65l-10.52,16.709a2.189,2.189,0,0,0-.337,1.167v36.129a2.19,2.19,0,0,0,3.931,1.328l4.194-5.5q.174.532.361,1.058v37.6H278.7a2.182,2.182,0,0,0-.535.069l.008-2.151.167-.1c-.032-.056-.088-.155-.165-.293Zm24.063,138.866h0c-3.589-2.417-7.453-2.361-13.17-2.279-5.652.082-9.735.14-14.213,2.764q-.27.158-.536.325v-2.67l3.433-8.643a2.188,2.188,0,0,0,.155-.808V344.013a25.373,25.373,0,0,1,10.712-2.125,26.431,26.431,0,0,1,11.311,2.173l-.43,80.758a2.2,2.2,0,0,0,.063.53l2.674,10.966v.1Zm73.893-43.769h0c-.969-.438-2.136-.957-3.468-1.519-1.342-.545-2.834-1.156-4.477-1.735-.823-.285-1.658-.613-2.554-.872-.445-.135-.886-.292-1.338-.442l-1.394-.393c-1.866-.561-3.858-1.013-5.9-1.442-1.022-.211-2.075-.353-3.122-.554-1.059-.143-2.134-.248-3.2-.412-1.044-.074-2.058-.13-3.124-.237l-3.434-.084-3.294.075c-1.088.118-2.184.135-3.263.246-1.07.167-2.151.24-3.206.408-1.046.2-2.1.321-3.123.551-2.045.423-4.037.877-5.9,1.438l-1.393.4-1.339.44c-.9.256-1.728.593-2.554.873-1.642.581-3.135,1.19-4.477,1.737-1.331.563-2.5,1.082-3.466,1.522l-3.069,1.435.48-.76c.335-.475.817-1.2,1.508-2.053a36.456,36.456,0,0,1,2.664-2.936,41.127,41.127,0,0,1,3.921-3.37,40.619,40.619,0,0,1,5.187-3.341c.952-.561,1.986-1.022,3.041-1.51,1.043-.526,2.174-.889,3.306-1.327a45.012,45.012,0,0,1,7.247-1.9c1.263-.2,2.546-.366,3.836-.5,1.293-.079,2.6-.118,3.9-.174l.123,0,.266.005.225.011.45.022.9.043,1.795.086c1.315.117,2.671.321,3.977.5a46.044,46.044,0,0,1,7.249,1.9,43.045,43.045,0,0,1,6.349,2.837,40.418,40.418,0,0,1,5.187,3.343,40.877,40.877,0,0,1,3.92,3.375,36.241,36.241,0,0,1,2.662,2.94c.691.851,1.168,1.578,1.5,2.054l.481.762-3.071-1.432Zm-5.042-13.623h0c-10.518-5.157-20.149-7.383-27.1-7.383s-16.563,2.226-27.031,7.383a102.92,102.92,0,0,0-12.869,7.218l.166-31.3a2.186,2.186,0,0,0,3.629-.881,14.422,14.422,0,0,0,.751-4.449q.172-1.283.3-2.572a87.4,87.4,0,0,0,.338-10c0-.787-.007-1.63-.008-2.545a252.683,252.683,0,0,1,69.7,0c0,.912,0,1.754-.008,2.54a87.405,87.405,0,0,0,.338,10q.128,1.287.3,2.572a14.42,14.42,0,0,0,.751,4.449,2.186,2.186,0,0,0,3.629.881l.167,31.381a102.882,102.882,0,0,0-13.056-7.3ZM344.069,322.19h0l.044-2.188.044,2.188c7.086-.143,14.214-.021,21.186.362,6.924.38,10.892.854,13.475,1.565.086,3.074.134,6.152.144,9.181a253.87,253.87,0,0,0-69.7,0c.01-3.027.058-6.1.144-9.177,2.584-.711,6.551-1.185,13.474-1.565,6.972-.383,14.1-.505,21.186-.362Zm69.839,115.035h0q-.265-.167-.536-.325c-4.477-2.623-8.56-2.682-14.213-2.764-5.716-.083-9.581-.139-13.169,2.279v-.1l2.674-10.966a2.17,2.17,0,0,0,.062-.53l-.429-80.758a26.431,26.431,0,0,1,11.311-2.173,25.374,25.374,0,0,1,10.712,2.125V425.1a2.2,2.2,0,0,0,.154.808l3.433,8.643v2.67ZM415.277,320.6h0c.063,2.676.132,5.054.194,7.19.2,6.77.32,10.975-.061,14.442-3.523-3.391-10.1-4.693-15.779-4.722-5.648-.069-12.242,1.194-16.27,4.465-.04-1.516-.033-3.056-.025-4.918,0-.868.008-1.8.008-2.823,0-2.569-.032-5.179-.089-7.8,2.7,2.365,4.457,5.845,5.229,10.355l4.316-.738c-.958-5.607-3.363-10.161-6.956-13.171s-7.958-4.029-20.263-4.7c-7.067-.387-14.292-.511-21.47-.368-7.177-.143-14.4-.019-21.469.368-12.3.676-16.66,1.687-20.263,4.7s-6,7.564-6.955,13.171l4.316.738c.772-4.51,2.532-7.99,5.229-10.355-.057,2.616-.087,5.227-.089,7.8,0,1.024,0,1.955.008,2.823.008,1.862.015,3.4-.025,4.918-4.029-3.271-10.622-4.534-16.27-4.465-5.683.029-12.255,1.332-15.779,4.722-.381-3.467-.259-7.672-.061-14.442.062-2.136.132-4.514.194-7.19l.021-.91c.154-6.78.224-9.874,2.465-12.5a11.047,11.047,0,0,1,3.733-2.79h129.89a11.044,11.044,0,0,1,3.733,2.79c2.242,2.625,2.311,5.719,2.465,12.5l.021.91Zm-5.213-20.509h0a2.182,2.182,0,0,0-.535-.069H385.716v-37.6q.187-.526.361-1.058l4.194,5.5a2.19,2.19,0,0,0,3.931-1.328V229.4a2.189,2.189,0,0,0-.337-1.167l-10.52-16.709v-6.65l20.967.166a8.585,8.585,0,0,1,5.39,1.875l.352,90.63c-.077.138-.133.237-.165.293l.167.1.008,2.151ZM414.4,288.77h0l-.233-59.808a27.888,27.888,0,0,1,2.946,3.284c12.416,16.321,3.467,42.694-2.713,56.524Zm54.09-85.18h0a13.072,13.072,0,0,1-1.884,2.3,12.53,12.53,0,0,1-5.539,3.043c-2.073.581-4.193,1.246-6.344,1.934-2.145.709-4.313,1.46-6.47,2.245-2.166.767-4.282,1.616-6.4,2.411l-6.179,2.387-10.94,4.267-6.915,2.7c-.13-.123-.265-.24-.4-.361.774-.38,1.669-.8,2.664-1.274,1.263-.606,2.7-1.251,4.281-1.946,3.146-1.408,6.863-2.948,10.9-4.444,2.024-.739,4.115-1.5,6.255-2.234,2.139-.719,4.327-1.466,6.54-2.074,2.206-.637,4.4-1.307,6.551-2,2.144-.711,4.25-1.422,6.267-2.173a13.915,13.915,0,0,0,2.787-1.322,16.071,16.071,0,0,0,2.279-1.828,14.021,14.021,0,0,0,1.744-2.216c.378-.008.756-.03,1.134-.045-.109.208-.218.417-.339.625Zm6.841-4h0a8.307,8.307,0,0,0,3.59-1.726,7.9,7.9,0,0,0,2.311-3.287,7.338,7.338,0,0,0,.307-.971,7.009,7.009,0,0,0,.178-1.021c.044-.327.066-.7.1-1.054l.094-1.068c.148-1.423.281-2.847.459-4.268l.109.006c.013,1.433-.019,2.862-.035,4.293l-.029,1.072c-.014.363-.011.7-.038,1.085a7.812,7.812,0,0,1-.126,1.1,7.967,7.967,0,0,1-.273,1.091,8.5,8.5,0,0,1-2.463,3.715,8.871,8.871,0,0,1-1.871,1.267,7.368,7.368,0,0,1-1.049.429,9.758,9.758,0,0,1-1.1.285l-.023.005-.035,0-7.712.484c-1.286.09-2.572.182-3.852.329s-2.565.262-3.839.462c-2.553.356-5.092.807-7.619,1.314s-5.047,1.034-7.562,1.587c-5.031,1.088-10.024,2.339-15.013,3.6-2.5.619-4.979,1.308-7.465,1.985l-5.277,1.483v-.358q2.512-.964,5.06-1.83c2.445-.84,4.92-1.587,7.4-2.324,2.485-.712,4.987-1.37,7.506-1.954s5.056-1.1,7.593-1.586,5.091-.9,7.652-1.247l7.68-1.018c1.283-.147,2.557-.357,3.838-.517l3.839-.524,3.847-.485c1.268-.164,2.544-.245,3.816-.357Zm-5.083-6.889h0c.054,1,.078,2.223.128,3.621a12.907,12.907,0,0,1-.107,2.355c-.283-.017-.567-.033-.847-.026a16.724,16.724,0,0,0,.238-2.328c.05-1.4.074-2.617.129-3.621.093-1.984.173-3.126.175-3.152h.11c0,.026.082,1.168.175,3.152Zm14.556-9.184h0l-4.927-.526,6.569-11.244q-.822,5.879-1.642,11.769Zm32.387-23.152h0c-1.951-.347-4.379-.777-7.793-1.281a247.808,247.808,0,0,0-33.06-2.659,2.68,2.68,0,0,1-1.129-2.346,4.371,4.371,0,0,0,.465.425c2.555,2,6.648.662,7.663.365,3.821-1.116,12.083-1.561,30.838.73a159.344,159.344,0,0,0-19.707-3.832q-2.342-.3-4.6-.526h.016c12.254,0,21.9,2.155,29.649,3.888,1.41.315,2.762.617,4.061.891q3.367.711,6.808,1.286-.914-.125-1.906-.247c-5.155-.63-9.391-.836-12.135-.912a90.905,90.905,0,0,0,12.682,3.923,91.772,91.772,0,0,0,23.247,2.292,151.531,151.531,0,0,1-33.009-1.631c-.665-.113-1.352-.234-2.1-.366Zm37.594-.714h0a77.252,77.252,0,0,1-16.614-1.042c-.584-.111-1.769-.349-3.43-.634a181.143,181.143,0,0,0,20.043,1.677Zm16.8,1.894h0a3.45,3.45,0,0,1-3.671,2.731,3.869,3.869,0,0,1-2.654-1.966l-.522-.984-1.107.12c-.781.085-1.556.161-2.332.237,1.489-.182,2.908-.39,4.243-.612a2.9,2.9,0,0,0,3.832,1.277,2.485,2.485,0,0,0,1.095-3.011c-.55-1.055-2.436-1.552-4.106-.456-.4.04-.793.078-1.184.115a3.908,3.908,0,0,1,2.883-1.3,3.537,3.537,0,0,1,3.522,3.852Z" transform="translate(0 -0.491)" fill="#fff" fill-rule="evenodd"/>
    <path id="Контур_2410" data-name="Контур 2410" d="M508.023,495.624V474.476q-4.272-.449-8.82-.781c-8.82-.634-17.086-.788-24.677-.639-7.591-.15-15.857,0-24.677.639q-4.547.326-8.82.781v21.148l-3.171,4.116q-.1,8.481-.2,16.961c2.767-2.04,16.086-11.421,36.835-11.43,20.79-.01,34.138,9.4,36.9,11.43q-.1-8.481-.2-16.961Z" transform="translate(-130.413 -136.702)" fill="#fff" fill-rule="evenodd"/>
    <path id="Контур_2411" data-name="Контур 2411" d="M618.578,350.831c-.5,10.676-1.394,15.205-.821,15.327.857.182,4.4-9.641,5.748-20.8a81.785,81.785,0,0,0,.547-12.59l-5.2,6.022C618.856,341.625,618.814,345.791,618.578,350.831Z" transform="translate(-202.754 -80.314)" fill="#fff" fill-rule="evenodd"/>
    <path id="Контур_2412" data-name="Контур 2412" d="M497.89,387.674a60.964,60.964,0,0,1-42.546,0,53.911,53.911,0,0,1-12.484-6.842v16.422h67.514V380.832A53.9,53.9,0,0,1,497.89,387.674Z" transform="translate(-132.504 -99.641)" fill="#fff" fill-rule="evenodd"/>
    <path id="Контур_2413" data-name="Контур 2413" d="M509.049,691.731a.423.423,0,0,0-.389-.261h-2.483q-.064-59.2-1.325-116.385a59.548,59.548,0,0,0-8.3-4.379,68.468,68.468,0,0,0-50.91,0c-.851.366-1.669.746-2.466,1.133.782.64,1.629,1.294,2.537,1.952a55.823,55.823,0,0,0,5.094,3.245,44.114,44.114,0,0,1,5.147,3.379c.794.619,1.482,1.232,2.149,1.862s1.251,1.23,1.784,1.808a31.268,31.268,0,0,1,2.382,2.948c.53.744.8,1.19.8,1.19l-.964-1.057c-.608-.675-1.529-1.588-2.652-2.649-.564-.529-1.192-1.084-1.876-1.644s-1.445-1.128-2.2-1.69a57.9,57.9,0,0,0-5.123-3.2,43.076,43.076,0,0,1-5.122-3.421,32.292,32.292,0,0,1-2.681-2.354c-1.851.931-3.565,1.9-5.111,2.879q-1.242,57.167-1.325,116.385h-2.483a.424.424,0,0,0-.39.261v-38.34h-4.014V812.505h4.014v-38.34a.424.424,0,0,0,.39.261h3q.812,59.572,2.811,117.063a37.059,37.059,0,0,0,9.853,11.5,35.112,35.112,0,0,0,43.793,0,37.062,37.062,0,0,0,9.854-11.5q.332-9.635.63-19.335c-.007.027-.155.634-.486,1.675a29.3,29.3,0,0,1-1.736,4.3,28.409,28.409,0,0,1-3.593,5.5,37.693,37.693,0,0,1-5.519,5.116c-2.005,1.573-3.967,3.192-5.71,4.816s-3.32,3.2-4.609,4.606c-2.593,2.8-4.158,4.825-4.158,4.825l1.037-1.415c.673-.89,1.635-2.167,2.892-3.614s2.77-3.1,4.514-4.747,3.7-3.3,5.693-4.9a37.431,37.431,0,0,0,5.5-5,30.383,30.383,0,0,0,3.68-5.33A34.367,34.367,0,0,0,502.9,873.8c.386-1.024.567-1.625.573-1.647q1.492-48.136,2.18-97.727h3.005a.423.423,0,0,0,.389-.261v38.34h4.014V653.391h-4.014v38.34ZM439.043,598.2h0c.741.766,1.817,1.833,3.177,3.008a37.746,37.746,0,0,0,4.908,3.586c1.886,1.166,4.04,2.113,6.264,3.372.283.163.526.331.833.529.253.182.488.333.755.542a17.606,17.606,0,0,1,1.484,1.25,18.275,18.275,0,0,1,2.414,2.808,21.453,21.453,0,0,1,1.723,2.954,24.018,24.018,0,0,1,1.145,2.8c.306.883.527,1.707.7,2.44s.289,1.38.393,1.907c.158,1.069.226,1.678.226,1.678s-.249-.567-.645-1.557l-.767-1.757c-.3-.672-.665-1.418-1.068-2.22a30.792,30.792,0,0,0-3.251-5.091,21.779,21.779,0,0,0-2.3-2.408,15.447,15.447,0,0,0-1.3-1.056c-.213-.163-.493-.337-.737-.506l-.719-.436c-.99-.6-2.069-1.153-3.136-1.738a31.121,31.121,0,0,1-3.067-1.909,23.592,23.592,0,0,1-2.642-2.144,24.984,24.984,0,0,1-2.094-2.164,25.369,25.369,0,0,1-2.636-3.63c-.552-.929-.814-1.486-.814-1.486l1.158,1.223Zm-.141,35.6h0c.65,1.128,1.61,2.706,2.859,4.5.633.9,1.335,1.821,2.121,2.8.774.955,1.645,1.912,2.571,2.883s1.934,1.91,3,2.845l3.372,2.9c.526.489,1.1,1.053,1.647,1.633.536.564,1.031,1.162,1.513,1.757a29.822,29.822,0,0,1,2.517,3.708,33.21,33.21,0,0,1,1.849,3.721,33.7,33.7,0,0,1,1.26,3.47c.346,1.085.59,2.1.787,3s.32,1.694.435,2.342c.176,1.31.237,2.059.237,2.059s-.34-.68-.863-1.874l-1-2.121c-.392-.811-.847-1.716-1.343-2.694s-1.092-2-1.7-3.082c-.645-1.062-1.342-2.165-2.115-3.257s-1.605-2.19-2.515-3.242c-.456-.525-.934-1.036-1.417-1.544s-.965-.962-1.532-1.48c-1.006-.92-2.209-1.914-3.28-2.957a33.71,33.71,0,0,1-3.024-3.267,31.464,31.464,0,0,1-2.4-3.415,28.048,28.048,0,0,1-1.74-3.262,28.554,28.554,0,0,1-1.833-5.186,20.4,20.4,0,0,1-.414-2.034l1.016,1.791Zm-1.016,40.359h0l.89,2.374a62.757,62.757,0,0,0,2.657,5.962c.611,1.185,1.332,2.428,2.133,3.7l.622.959.308.456.355.5c.488.706.933,1.282,1.429,1.915a41.409,41.409,0,0,0,3.35,3.693l3.9,3.734a36.026,36.026,0,0,1,3.778,4.315c.282.4.551.757.837,1.183.239.372.477.74.731,1.17.5.827.927,1.624,1.324,2.447a31.5,31.5,0,0,1,2.806,9.353c.1.7.18,1.373.242,2.012q.05.961.1,1.82c.042,1.14.009,2.132-.038,2.946-.017.811-.128,1.451-.16,1.883l-.081.663-.626-2.46c-.189-.778-.464-1.71-.751-2.772-.315-1.057-.692-2.234-1.125-3.5s-1-2.588-1.607-3.96a39.173,39.173,0,0,0-2.177-4.149c-.426-.678-.865-1.393-1.328-2.04-.216-.316-.484-.676-.753-1.034l-.758-.976a43.642,43.642,0,0,0-3.491-3.794c-1.251-1.254-2.606-2.515-3.875-3.9a31.932,31.932,0,0,1-3.44-4.377c-.486-.768-1-1.578-1.354-2.288l-.289-.544-.161-.31-.139-.285c-.186-.378-.37-.751-.529-1.13a32.345,32.345,0,0,1-1.561-4.326,30.958,30.958,0,0,1-1.174-6.694,21.456,21.456,0,0,1-.044-2.559ZM462.2,774.818h0c-.548-1.434-1.36-3.461-2.408-5.833-.535-1.182-1.139-2.446-1.792-3.768s-1.424-2.673-2.216-4.062c-.407-.7-.811-1.36-1.273-2.086L453.137,757q-1.423-2.073-3.006-4.137c-1.03-1.393-2.1-2.8-3.118-4.224s-1.933-2.91-2.784-4.353c-.423-.717-.838-1.458-1.2-2.17L442,740.012c-.664-1.378-1.21-2.718-1.684-3.964a50.43,50.43,0,0,1-1.921-6.129c-.368-1.5-.506-2.38-.506-2.38L439,729.691c.707,1.364,1.731,3.293,3.012,5.558.645,1.129,1.371,2.334,2.135,3.6l1.226,1.934c.443.647.837,1.3,1.3,1.968.888,1.34,1.893,2.656,2.9,4.017s2.1,2.714,3.177,4.112c1.061,1.413,2.114,2.869,3.053,4.37.482.747.915,1.5,1.345,2.27.4.726.816,1.52,1.183,2.265a46.917,46.917,0,0,1,3.237,8.563,45.151,45.151,0,0,1,1.265,6.307c.2,1.537.235,2.422.235,2.422l-.869-2.262Zm.869,51.53h0s-.188-.829-.573-2.252a59.807,59.807,0,0,0-1.872-5.772,51.811,51.811,0,0,0-3.679-7.64c-.781-1.332-1.7-2.633-2.654-3.948s-2.019-2.6-3.082-3.913c-1.045-1.324-2.1-2.659-3.1-4.009s-1.938-2.741-2.786-4.065c-.881-1.336-1.648-2.678-2.361-3.956s-1.34-2.511-1.892-3.66c-1.11-2.3-1.9-4.269-2.416-5.66s-.768-2.2-.768-2.2l1.16,2.018c.735,1.281,1.8,3.1,3.121,5.242s2.924,4.6,4.749,7.139c.906,1.308,1.885,2.55,2.88,3.871s2.053,2.6,3.118,3.912c1.047,1.323,2.1,2.662,3.087,4.041a37.436,37.436,0,0,1,2.624,4.246,36.411,36.411,0,0,1,1.915,4.239,38.932,38.932,0,0,1,2.382,10.038c.142,1.482.145,2.33.145,2.33Zm-24.515-3.271h0c-.233-.695-.387-1.25-.5-1.626l-.169-.577.866,2.13c.548,1.355,1.4,3.263,2.475,5.516s2.477,4.814,4.079,7.479a84.455,84.455,0,0,0,5.553,8.029c1.994,2.674,4.018,5.36,5.758,7.983,1.758,2.617,3.216,5.157,4.45,7.352s2.132,4.086,2.775,5.4.959,2.093.959,2.093l-1.147-1.994c-.72-1.273-1.809-3.056-3.117-5.189s-2.931-4.565-4.7-7.128-3.806-5.2-5.848-7.859a84.614,84.614,0,0,1-5.494-8.2,69.289,69.289,0,0,1-3.826-7.712c-1-2.312-1.648-4.31-2.114-5.7Zm27.07,70.328h0l-1.115-1.643c-.707-1.045-1.77-2.5-3.078-4.221-.655-.856-1.381-1.773-2.182-2.716s-1.657-1.923-2.555-2.926c-1.8-2.008-3.879-3.987-5.956-6-1.024-1.024-2.035-2.069-2.977-3.151a37.058,37.058,0,0,1-2.574-3.341,31.274,31.274,0,0,1-2.012-3.376c-.576-1.11-1.067-2.185-1.479-3.193a38.2,38.2,0,0,1-1.635-4.99c-.16-.613-.263-1.1-.332-1.431l-.108-.508s.2.7.592,1.894a46.594,46.594,0,0,0,1.9,4.851c.446.98.972,2.021,1.58,3.091s1.3,2.146,2.079,3.265a36.215,36.215,0,0,0,2.558,3.233c.938,1.049,1.947,2.068,2.978,3.072,2.043,2.028,4.122,4.061,5.911,6.111a69.879,69.879,0,0,1,4.579,5.844,60.661,60.661,0,0,1,3.82,6.137Zm-3.509,10.072h0l-2.346-1.51c-.845-.528-1.689-1.119-2.621-1.665-1.843-1.122-3.843-2.253-5.838-3.416-.99-.594-1.974-1.21-2.9-1.883a22.745,22.745,0,0,1-2.569-2.165,25.105,25.105,0,0,1-3.7-4.644,27.337,27.337,0,0,1-1.925-3.719c-.4-.927-.594-1.47-.594-1.47s.224.532.677,1.431a32.489,32.489,0,0,0,2.1,3.59,26.8,26.8,0,0,0,3.768,4.467,27.226,27.226,0,0,0,5.424,3.923c1.974,1.177,3.972,2.337,5.807,3.482.932.548,1.778,1.19,2.594,1.737l2.3,1.585,4.707,3.323-4.878-3.066Zm16.951-259.741h0a20.693,20.693,0,0,1,.623-4.814,18.443,18.443,0,0,1,1.065-3.113q.178-.4.378-.81c.074-.143.12-.253.219-.426l.213-.387a16.708,16.708,0,0,1,1-1.613,20,20,0,0,1,2.617-2.994c.98-.92,2.02-1.766,3.044-2.593,2.084-1.6,4.061-3.227,5.841-4.863.859-.83,1.734-1.644,2.493-2.441s1.486-1.575,2.133-2.3c1.286-1.466,2.319-2.736,3.033-3.64l1.119-1.429s-.242.617-.75,1.661a35.771,35.771,0,0,1-2.4,4.174c-.552.833-1.18,1.72-1.9,2.614-.361.453-.74.915-1.119,1.363-.4.469-.822.907-1.248,1.372-.881.893-1.784,1.836-2.792,2.683-.992.863-2.026,1.707-3.048,2.526a31.984,31.984,0,0,0-5.48,5.024c-.342.453-.677.89-1.013,1.4l-.249.365c-.059.076-.144.225-.214.334l-.42.71a25.129,25.129,0,0,0-1.332,2.772,30.466,30.466,0,0,0-1.383,4.48c-.252,1.115-.37,1.773-.37,1.773s-.009-.165-.026-.475-.043-.765-.034-1.349Zm-3.862,53.7h0s.016-.223.044-.642c.044-.417.059-1.03.178-1.806.094-.781.232-1.727.445-2.8s.484-2.287.881-3.583a36.463,36.463,0,0,1,1.465-4.139,34.941,34.941,0,0,1,2.185-4.422,37.129,37.129,0,0,1,2.958-4.378,50.58,50.58,0,0,1,3.647-4.069c1.278-1.261,2.537-2.457,3.7-3.672s2.26-2.447,3.242-3.724c.469-.58.986-1.32,1.43-1.91.455-.61.89-1.244,1.3-1.86.814-1.241,1.561-2.438,2.212-3.571,1.294-2.269,2.27-4.244,2.93-5.647l1.022-2.224s-.091.892-.4,2.429a38.394,38.394,0,0,1-1.847,6.252,36.212,36.212,0,0,1-1.8,4c-.362.693-.739,1.395-1.163,2.117-.426.749-.831,1.357-1.344,2.114a39.067,39.067,0,0,1-3.239,4.184c-1.192,1.354-2.5,2.6-3.726,3.837a47.463,47.463,0,0,0-3.485,3.716c-1.082,1.32-2.1,2.6-2.993,3.937s-1.717,2.654-2.431,3.953-1.358,2.553-1.908,3.738-1.027,2.29-1.439,3.279c-.388,1-.749,1.865-1.011,2.591l-.855,2.3Zm27.742,145.282h0a43.091,43.091,0,0,1-1.712,5.5,43.9,43.9,0,0,1-3.635,7.319,58.9,58.9,0,0,1-5.733,7.4c-2.12,2.351-4.181,4.73-6.01,7.053s-3.506,4.515-4.857,6.461-2.481,3.568-3.23,4.733L476.569,883s.349-.712,1.012-1.93,1.622-2.957,2.9-4.964,2.808-4.334,4.619-6.7,3.855-4.81,5.937-7.193a58.314,58.314,0,0,0,5.756-7.194,50.994,50.994,0,0,0,3.865-7.043,56.012,56.012,0,0,0,2.076-5.323c.436-1.313.655-2.075.655-2.075s-.125.784-.45,2.134Zm.019-44h0a49.256,49.256,0,0,1-1.762,6.407c-.45,1.306-.979,2.7-1.634,4.154a48.852,48.852,0,0,1-2.229,4.458,49.513,49.513,0,0,1-2.856,4.517c-1.052,1.48-2.17,2.936-3.271,4.374-1.119,1.422-2.209,2.845-3.224,4.3s-2,2.879-2.889,4.31c-1.8,2.85-3.334,5.607-4.585,8.013s-2.224,4.458-2.889,5.9l-1.052,2.277.164-.635c.114-.413.246-1.027.481-1.791a65.688,65.688,0,0,1,2.158-6.273,67.437,67.437,0,0,1,4.073-8.481c.861-1.494,1.773-3.031,2.8-4.524s2.119-2.979,3.228-4.43a94.3,94.3,0,0,0,6.2-8.538c.88-1.435,1.689-2.816,2.422-4.2.711-1.356,1.366-2.673,1.932-3.9,1.126-2.457,1.958-4.566,2.509-6.058l.851-2.356s-.114.907-.432,2.476Zm.072-43.932h0a46.336,46.336,0,0,1-1.625,6.4c-.424,1.3-.929,2.706-1.558,4.151-.318.738-.648,1.475-.987,2.2-.366.77-.752,1.505-1.171,2.268a50.387,50.387,0,0,1-2.776,4.547c-1.018,1.5-2.129,2.942-3.21,4.37-1.1,1.412-2.182,2.814-3.192,4.228-.987,1.405-2.018,2.8-2.914,4.191s-1.779,2.736-2.566,4.042-1.524,2.551-2.184,3.716c-1.314,2.33-2.375,4.312-3.113,5.7l-1.169,2.2s.161-.894.563-2.432a57.089,57.089,0,0,1,2.022-6.274c.486-1.277,1.051-2.649,1.727-4.065s1.4-2.911,2.258-4.395,1.743-3,2.78-4.5c1.016-1.489,2.1-2.962,3.18-4.406,1.1-1.428,2.189-2.832,3.221-4.222,1.016-1.4,2.009-2.772,2.881-4.169.45-.683.848-1.409,1.267-2.057q.635-1.055,1.182-2.028c.731-1.33,1.414-2.6,2.015-3.789,1.189-2.386,2.117-4.427,2.744-5.873l.985-2.285s-.078.908-.359,2.474Zm.047-54.753h0a40.555,40.555,0,0,1-1.679,6.716,43.487,43.487,0,0,1-1.71,4.333c-.343.758-.743,1.547-1.122,2.282-.413.789-.849,1.552-1.321,2.335a42.393,42.393,0,0,1-3.205,4.611c-1.176,1.5-2.459,2.912-3.669,4.3-1.231,1.37-2.385,2.736-3.445,4.122l-.762,1.032-.768,1.082c-.481.714-.947,1.428-1.39,2.142a62.491,62.491,0,0,0-4.234,8.248c-1.057,2.536-1.845,4.736-2.37,6.286l-.836,2.465s-.008-.237-.023-.683-.042-1.1,0-1.93c.025-.837.074-1.851.212-3.007a35.137,35.137,0,0,1,.622-3.876,39.533,39.533,0,0,1,1.218-4.517,38.406,38.406,0,0,1,2.017-4.858c.4-.826.853-1.639,1.327-2.456l.728-1.193.817-1.22a48.8,48.8,0,0,1,3.6-4.534l3.677-4.109c1.159-1.348,2.249-2.694,3.248-4.06.509-.67.978-1.376,1.445-2.028.491-.71.907-1.357,1.334-2.011.844-1.319,1.624-2.587,2.312-3.784,1.355-2.4,2.417-4.477,3.143-5.952l1.143-2.335s-.047.953-.312,2.6Zm-.1-117.729h0a17.2,17.2,0,0,1-1.7,3.673,15.611,15.611,0,0,1-3.886,4.273,15.4,15.4,0,0,1-2.839,1.66c-1.016.461-2.069.84-3.094,1.229a25.871,25.871,0,0,0-2.975,1.261,19.618,19.618,0,0,0-2.633,1.632,19.115,19.115,0,0,0-3.894,3.917,26.546,26.546,0,0,0-2.131,3.348c-.459.848-.7,1.35-.7,1.35l.126-.378c.083-.246.194-.61.381-1.06s.408-1,.706-1.61a16.522,16.522,0,0,1,1.113-2,18.2,18.2,0,0,1,3.808-4.326A18,18,0,0,1,488,593.461a26.912,26.912,0,0,1,3.078-1.348,24.273,24.273,0,0,0,5.758-2.649,16.121,16.121,0,0,0,3.935-3.833,20.875,20.875,0,0,0,2.014-3.407c.41-.872.613-1.39.613-1.39A14.027,14.027,0,0,1,502.978,582.3Z" transform="translate(-126.982 -174.01)" fill="#fff" fill-rule="evenodd"/>
    <path id="Контур_2414" data-name="Контур 2414" d="M609.385,656.48l0,0S609.379,656.485,609.385,656.48Z" transform="translate(-199.46 -210.476)" fill="#fff" fill-rule="evenodd"/>
    <path id="Контур_2415" data-name="Контур 2415" d="M592.326,768.239l2.327,2.737-.547,8.759-5.064,3.011v33.118l5.376-4.214a12.4,12.4,0,0,0,4.751-9.759V753.459H592.6Z" transform="translate(-191.283 -249.471)" fill="#fff" fill-rule="evenodd"/>
    <path id="Контур_2416" data-name="Контур 2416" d="M623.464,647.425a14.289,14.289,0,0,0-2.19-3.831,22.909,22.909,0,0,1-2.372,8.758,17.016,17.016,0,0,1-5.517,5.657q.387,19.525.773,39.049a7.116,7.116,0,0,1,7.116,7.116v59.3l4.744-12.408c-1.01-54.575-1.732-93.962-1.642-97.987A14.636,14.636,0,0,0,623.464,647.425Z" transform="translate(-201.071 -205.295)" fill="#fff" fill-rule="evenodd"/>
    <path id="Контур_2417" data-name="Контур 2417" d="M668.481,605.679,660,552.476l2.821,44.455Z" transform="translate(-219.813 -168.658)" fill="#fff" fill-rule="evenodd"/>
    <path id="Контур_2418" data-name="Контур 2418" d="M648.663,154.091h3.076a3.08,3.08,0,0,1,0,6.16h-.145l-.057.075,4.377,1.623V145.882l-9.722,1.626-.094,7.965A3.077,3.077,0,0,1,648.663,154.091Z" transform="translate(-214.224 -5.17)" fill="#fff" fill-rule="evenodd"/>
    <path id="Контур_2419" data-name="Контур 2419" d="M743.788,189.967l-.011.065,2.167.263a8.051,8.051,0,0,0-.077-3.164,7.671,7.671,0,0,0-.6-1.686c-.536-.066-1.062-.12-1.6-.186A12.23,12.23,0,0,1,743.788,189.967Z" transform="translate(-253.456 -21.003)" fill="#fff" fill-rule="evenodd"/>
    <path id="Контур_2420" data-name="Контур 2420" d="M750.973,190.762l-.011.109,2.167.263a8.073,8.073,0,0,0-.066-3.208,7.364,7.364,0,0,0-.6-1.675c-.536-.066-1.062-.132-1.6-.186A11.961,11.961,0,0,1,750.973,190.762Z" transform="translate(-256.35 -21.327)" fill="#fff" fill-rule="evenodd"/>
    <path id="Контур_2421" data-name="Контур 2421" d="M758.169,191.545l-.022.164,2.167.262.011-.044a7.932,7.932,0,0,0-.077-3.219,7.232,7.232,0,0,0-.58-1.665c-.536-.054-1.073-.12-1.61-.175A12.076,12.076,0,0,1,758.169,191.545Z" transform="translate(-259.243 -21.651)" fill="#fff" fill-rule="evenodd"/>
    <path id="Контур_2422" data-name="Контур 2422" d="M772.57,193.124l-.022.164a.085.085,0,0,1-.011.044l-.011.054,2.179.262.022-.142a8.3,8.3,0,0,0-.077-3.208,7.6,7.6,0,0,0-.581-1.642c-.536-.066-1.073-.121-1.6-.175A12.369,12.369,0,0,1,772.57,193.124Z" transform="translate(-265.038 -22.299)" fill="#fff" fill-rule="evenodd"/>
    <path id="Контур_2423" data-name="Контур 2423" d="M786.944,194.706l-.022.164v.033l-.022.1-.011.065c.723.088,1.445.164,2.168.252l.011-.033.033-.208a8.072,8.072,0,0,0-.066-3.208,7.162,7.162,0,0,0-.569-1.61c-.548-.066-1.084-.132-1.62-.186A12.293,12.293,0,0,1,786.944,194.706Z" transform="translate(-270.817 -22.939)" fill="#fff" fill-rule="evenodd"/>
    <path id="Контур_2424" data-name="Контур 2424" d="M794.147,195.49l-.022.164v.044l-.022.088-.032.12c.722.076,1.456.164,2.178.252l.022-.077.033-.208a8.067,8.067,0,0,0-.077-3.208,7.431,7.431,0,0,0-.547-1.6c-.548-.066-1.084-.132-1.621-.186A12.182,12.182,0,0,1,794.147,195.49Z" transform="translate(-273.718 -23.263)" fill="#fff" fill-rule="evenodd"/>
    <path id="Контур_2425" data-name="Контур 2425" d="M808.532,197.079l-.022.153a.082.082,0,0,1-.011.044l-.022.1-.044.208,2.178.263.011-.044.022-.142.044-.208a8.279,8.279,0,0,0-.076-3.208,7.414,7.414,0,0,0-.547-1.576c-.548-.055-1.084-.121-1.62-.175A12.3,12.3,0,0,1,808.532,197.079Z" transform="translate(-279.498 -23.911)" fill="#fff" fill-rule="evenodd"/>
    <path id="Контур_2426" data-name="Контур 2426" d="M822.891,198.651l-.022.164v.044l-.022.088-.076.307,2.179.262.011-.055.033-.087.022-.142.033-.2a8.154,8.154,0,0,0-.066-3.219,7.731,7.731,0,0,0-.537-1.544c-.547-.054-1.095-.12-1.642-.186A11.98,11.98,0,0,1,822.891,198.651Z" transform="translate(-285.263 -24.552)" fill="#fff" fill-rule="evenodd"/>
    <path id="Контур_2427" data-name="Контур 2427" d="M508.483,556.252c-.777-.722-1.744-1.58-2.915-2.493a45.528,45.528,0,0,0-4.094-2.86c-.782-.479-1.594-.989-2.471-1.452l-1.334-.715-1.413-.663a45.42,45.42,0,0,0-6.208-2.4c-1.1-.36-2.253-.61-3.4-.926-1.162-.271-2.356-.469-3.555-.685l-3.71-.412c-1.223-.049-2.334-.119-3.656-.151-1.238.052-2.477.085-3.707.157-1.226.139-2.451.245-3.657.414a49.82,49.82,0,0,0-6.958,1.611,44.663,44.663,0,0,0-6.207,2.4,43.23,43.23,0,0,0-5.218,2.829,46.11,46.11,0,0,0-4.1,2.857c-1.171.913-2.138,1.77-2.916,2.491s-1.348,1.333-1.74,1.741l-.587.639.7-.506c.46-.327,1.153-.78,2.024-1.362s1.966-1.23,3.214-1.966c1.266-.71,2.7-1.48,4.3-2.25.8-.374,1.632-.78,2.521-1.126l1.336-.567,1.4-.526c.938-.373,1.926-.684,2.938-.993,1-.336,2.05-.592,3.105-.883,1.051-.308,2.157-.469,3.253-.717,1.1-.215,2.238-.332,3.365-.533,1.137-.141,2.29-.219,3.442-.334l3.483-.092,3.536.1,3.391.326,3.364.538c1.1.247,2.2.427,3.253.718a62.115,62.115,0,0,1,6.042,1.877l1.4.524,1.335.57c.888.348,1.718.749,2.521,1.126,1.6.767,3.036,1.54,4.3,2.249,1.248.735,2.337,1.391,3.214,1.965s1.564,1.036,2.025,1.362l.7.505-.588-.64C509.83,557.586,509.263,556.973,508.483,556.252Z" transform="translate(-131.61 -165.046)" fill="#fff" fill-rule="evenodd"/>
    <path id="Контур_2428" data-name="Контур 2428" d="M473.578,137.9c.86-.361,1.809-.717,2.828-1.05a29.577,29.577,0,0,1,3.257-.878,33.61,33.61,0,0,1,3.568-.575c1.23-.121,2.467-.186,3.739-.188,1.221.02,2.489.086,3.717.229a30.875,30.875,0,0,1,3.563.6,33.918,33.918,0,0,1,6.066,1.988,31.759,31.759,0,0,1,3.989,2.078c.923.569,1.421.935,1.421.935l-.3-.362c-.205-.224-.5-.575-.911-.958a20.927,20.927,0,0,0-3.73-2.882,25.879,25.879,0,0,0-2.8-1.481,26.523,26.523,0,0,0-3.337-1.223,27.8,27.8,0,0,0-3.732-.814c-.633-.107-1.333-.169-2.009-.221s-1.251-.055-1.883-.081c-.762,0-1.353.041-2.034.061-.659.045-1.313.124-1.959.2a26.481,26.481,0,0,0-3.738.784,25.53,25.53,0,0,0-3.348,1.193,25.1,25.1,0,0,0-2.817,1.45,21.058,21.058,0,0,0-3.758,2.843c-.419.379-.718.729-.922.948l-.3.358s.5-.361,1.431-.921A32.134,32.134,0,0,1,473.578,137.9Z" transform="translate(-142.668)" fill="#fff" fill-rule="evenodd"/>
    <path id="Контур_2429" data-name="Контур 2429" d="M474.252,141.871c1.774-.323,3.815-.622,5.971-.842,1.078-.117,2.19-.182,3.314-.256l1.7-.062c.547,0,1.189-.02,1.661-.008.6.016,1.271,0,1.81.034s1.073.019,1.645.078c1.123.081,2.234.154,3.311.288,2.155.237,4.189.564,5.961.9s3.287.66,4.374.888,1.732.363,1.732.363-.55-.285-1.523-.748a44.363,44.363,0,0,0-4.114-1.692,38.633,38.633,0,0,0-6.035-1.617c-1.119-.228-2.29-.369-3.479-.5s-2.384-.175-3.631-.186c-1.2-.01-2.424.04-3.613.145-1.189.124-2.362.251-3.483.466a38.813,38.813,0,0,0-6.051,1.558,44.324,44.324,0,0,0-4.129,1.654c-.977.454-1.53.734-1.53.734s.657-.121,1.734-.349S472.478,142.191,474.252,141.871Z" transform="translate(-142.668 -2.207)" fill="#fff" fill-rule="evenodd"/>
    <path id="Контур_2430" data-name="Контур 2430" d="M673.369,622.111v-.746h-1.095v.729h-.912v-.729h-1.095v.729h-.912v-.729h-1.095v.729h-.913v-.729h-1.095v.729h-.912v-.729h-1.095v.729h-.912v-.729h-1.095v.729h-.913v-.729h-1.095v.729h-.912v-.729h-1.095v.729h-.912v-.729h-1.095v.729H655.3v-.729H654.21v.729H653.3v-.729H652.2v.729h-.912v-.729H650.2v.729h-.913v-.729h-1.095v.729h-.912v-.729h-1.095v.729h-.912v-.729h-1.095v.76a1.533,1.533,0,0,0-.328.125,1.087,1.087,0,0,0-.853-.778,1.107,1.107,0,0,0-1.219.709l-5.213,14.511-.5.193-1.178-9.623c4.268-4.856,6.1-11.018,4.906-16.307l.066-.012-11.291-62.992a13.986,13.986,0,0,0-8.584-10.611,20.119,20.119,0,0,0-5.719-1.363,20.735,20.735,0,0,0-14.405,4.289l-.93.728,1.019,12.278v36.472l4.459,8.548a26.193,26.193,0,0,1,2.951,11.546l1.851,94.87a29.95,29.95,0,0,1-5.977,18.494l-2.936,3.906V714.152l-2.751-.55a6.558,6.558,0,0,0,3.39-5.717V665.98a10.418,10.418,0,0,0-8.211-10.167V613.027l.378-.149a9.459,9.459,0,0,0,1.281-.665,7.047,7.047,0,0,0,1.825-1.564,5.613,5.613,0,0,0,.894-1.537,1.927,1.927,0,0,0,.052-1.093l-.113-.591-.077-.3-.042-.151-.022-.076-.1-.24-.144-.321c-.029-.061-.038-.093-.084-.178l-.185-.31c-.129-.207-.268-.41-.416-.607l-.383-.416a8.21,8.21,0,0,0-1.666-1.3,14.99,14.99,0,0,0-3.611-1.5,31.382,31.382,0,0,0-7.747-1.07,30.482,30.482,0,0,0-7.793.8,14.939,14.939,0,0,0-3.659,1.393,7.116,7.116,0,0,0-3.025,3.021l-.065.129-.032.064-.066.169-.057.161-.059.159-.1.315a1.8,1.8,0,0,0-.109,1.121,5.636,5.636,0,0,0,.628,1.644,6.783,6.783,0,0,0,1.55,1.851,8.829,8.829,0,0,0,1.159.853l.161.1v14.662h0V740.3l16.038-1.013a10.705,10.705,0,0,0,10.013-10.665v-.1l2.152-.094-1.356,1.8,3.539-.209a16.4,16.4,0,0,0,5.878-1.423c8.515-3.888,13.357-15.538,12.636-30.4l-1.918-37.008H628.13a.17.17,0,0,0,.169-.169V659.2a2.832,2.832,0,0,0,.669,1.827l1.495,1.766a2.827,2.827,0,0,0,2.158,1h30.066a2.83,2.83,0,0,0,1.664-.541l4.113-2.991a2.828,2.828,0,0,0,1.165-2.287v-3.943A2.829,2.829,0,0,0,666.8,651.2H637.812l-.955-7.8,4.186-1.776a1.1,1.1,0,0,0,.644-.781l2.19-10.338a1.069,1.069,0,0,0,.023-.227v-1.338a1.533,1.533,0,0,0,.274.1v.988h1.095v-.957h.912v.957h1.095v-.957h.912v.957h1.095v-.957h.913v.957h1.095v-.957h.912v.957H653.3v-.957h.912v.957H655.3v-.957h.913v.957h1.095v-.957h.912v.957h1.095v-.957h.912v.957h1.095v-.957h.913v.957h1.095v-.957h.912v.957h1.095v-.957h.912v.957h1.095v-.957h.913v.957h1.095v-.957h.912v.957h1.095v-.957h.912v.957h1.095v-.973a1.574,1.574,0,0,0,1.415-1.558V623.67a1.574,1.574,0,0,0-1.415-1.558Zm-97.378-.746h-.517v-7.373a9.855,9.855,0,0,1,6.1-2.481A10,10,0,0,1,588.338,614v41.58h-3.585l-.31-25.862a8.485,8.485,0,0,0-8.453-8.352Zm-4.506-12.138h0a1.793,1.793,0,0,1,.411-.743c.109-.074.131-.195.073-.166-.008,0-.025,0-.028-.011l.054-.161.028-.081,0,0,.017-.025a2.922,2.922,0,0,1,1.214-1.079,10.683,10.683,0,0,1,2.584-.964,26.194,26.194,0,0,1,6.638-.663,27.11,27.11,0,0,1,6.625.9,10.748,10.748,0,0,1,2.559,1.044,3.861,3.861,0,0,1,.774.593l.124.123,0,0,.02-.014a1.445,1.445,0,0,1,.068.144l.094.209,0,.005c.009.02-.006.052-.015.075-.042.06-.051.111.028.206a1.632,1.632,0,0,1,.287.781,7.611,7.611,0,0,1-.069,1.843c-.1.549-.176,1.021-.248,1.33l-.015.07v-.447l-.6-.633a14.451,14.451,0,0,0-10.7-4.426,14.216,14.216,0,0,0-9.73,4.429l-.4.42c-.015-.269-.024-.589-.033-.942a6.445,6.445,0,0,1,.224-1.813Zm21.281,101.364h0v18.027a6.318,6.318,0,0,1-5.909,6.294l-11.383.72V625.745H576l.384,67.24,2.7-2.372V627.182a4.057,4.057,0,0,1,.979,2.589l.362,30.187h10.1a6.028,6.028,0,0,1,6.021,6.021v41.905A2.153,2.153,0,0,1,595,709.944l-2.237.649Zm72.62-58.3h0l-.547,7.116-.548-7.116ZM622.67,642.018h0l-6.1-9.956-.364-7.011q2.16,3.646,4.335,7.3,2.537,4.259,5.1,8.527l-2.974,1.14Zm7.129-2.732h0q-2.759-4.591-5.5-9.176-3.161-5.307-6.284-10.594a7.477,7.477,0,0,1,5.851-2.908,7.822,7.822,0,0,1,5.62,2.649l2.356,19.244-2.046.784Zm4.285-18.531h0l-.4-3.244-.349-.466a12.259,12.259,0,0,0-9.364-4.817h0a11.905,11.905,0,0,0-7.94,3.03c1.181-1.446,4.8-5.208,10.214-4.84a11.985,11.985,0,0,1,7.937,4,18.31,18.31,0,0,0-6.341-7.74,18.8,18.8,0,0,0-12.749-3.025v-.021A18.112,18.112,0,0,1,628.35,604a12.438,12.438,0,0,1,6.861,6.86,12.566,12.566,0,0,1-1.128,9.892ZM613.876,540.34h0a15.707,15.707,0,0,1,2,.309l7.773,45.4q-.919-11.808-1.643-24.08-.56-9.584-.96-18.9a9.852,9.852,0,0,1,3.206,5.66l9.579,53.441a19.231,19.231,0,0,0-3.7-2.165,22.374,22.374,0,0,0-15.271-.892l-.641-12.368a45.944,45.944,0,0,0-3.93-16.38l-5.574-12.512-1.228-14.807a16.262,16.262,0,0,1,10.389-2.7Zm-10.65,48.6h0V562.578l2.594,5.823-1,23.589-1.592-3.049Zm2.769,136.674h0q-.339.153-.689.288l.546-.726a33.244,33.244,0,0,0,6.634-20.532l-1.851-94.87a29.456,29.456,0,0,0-1.31-8.1v-24.4a42.716,42.716,0,0,1,1.614,9.638l5.776,111.451c.644,13.286-3.564,23.983-10.72,27.252Zm26-66.2h0l-.548-7.116h1.095l-.547,7.116Zm3.284,0h0l-.547-7.116h1.095l-.548,7.116Zm26.823-7.116h0l-.547,7.116-.548-7.116Zm-3.284,0h0l-.548,7.116-.547-7.116Zm-3.284,0h0l-.548,7.116-.548-7.116Zm-3.285,0h0l-.547,7.116-.548-7.116Zm-3.284,0h0l-.548,7.116-.547-7.116Zm-3.284,0h0l-.548,7.116-.547-7.116Zm-3.285,0h0l-.547,7.116-.548-7.116Zm-3.284,0h0l-.548,7.116-.547-7.116Zm-7.243-1.095h-.74a2.828,2.828,0,0,0-2.828,2.828v-.989a.169.169,0,0,0-.169-.169H617.646l-.067-1.29,5.626-2.387h3.863l-.8-1.3,2.867-1.216q1.366,2.266,2.731,4.524Zm9.843-21.036h0l-2.047,9.668-22.039,9.349V648.9l19.25-8.645-19.25,6.42V646.3l20.19-7.738a1.1,1.1,0,0,0,.638-.652l3.258-9.068v1.327Zm4.014-5.195h0l-.548-2.417h1.095l-.547,2.417Zm2.007,0h0l-.547-2.417h1.095l-.548,2.417Zm2.007,0h0l-.547-2.417h1.095l-.548,2.417Zm2.007,0h0l-.547-2.417h1.095l-.548,2.417Zm2.007,0h0l-.547-2.417H654.3l-.548,2.417Zm2.007,0h0l-.547-2.417h1.095l-.548,2.417Zm2.007,0h0l-.547-2.417h1.095l-.548,2.417Zm2.007,0h0l-.547-2.417h1.095l-.548,2.417Zm2.008,0h0l-.548-2.417h1.095l-.547,2.417Zm2.006,0h0l-.547-2.417h1.095l-.548,2.417Zm2.007,0h0l-.547-2.417h1.095l-.548,2.417Zm2.007,0h0l-.547-2.417h1.095l-.548,2.417Zm2.007,0h0l-.547-2.417h1.095l-.548,2.417Zm2.007,0h0l-.547-2.417h1.095Z" transform="translate(-182.641 -161.992)" fill="#fff" fill-rule="evenodd"/>
  </g>
</svg>
