<svg xmlns="http://www.w3.org/2000/svg" width="370.367" height="481.809" viewBox="0 0 370.367 481.809">
  <g id="img_car_storge" transform="translate(-983 -182.5)">
    <g id="Сгруппировать_1424" data-name="Сгруппировать 1424" transform="translate(-488.737 189.541)">
      <path id="Контур_4295" data-name="Контур 4295" d="M1473.62,684.157a1.67,1.67,0,0,1,0-3.34h339.975c2.162,0,2.042,3.34,0,3.34Zm349.01-3.34h17.46a1.67,1.67,0,0,1,0,3.34h-17.46A1.677,1.677,0,1,1,1822.63,680.817Zm-311.693,10.021a1.67,1.67,0,0,1,0-3.341h14.87a1.67,1.67,0,0,1,0,3.341ZM1535,687.5h288.17a1.67,1.67,0,0,1,0,3.341H1535A1.67,1.67,0,0,1,1535,687.5Z" transform="translate(0 -216.07)" fill="#201c1b" fill-rule="evenodd"/>
      <g id="Сгруппировать_1423" data-name="Сгруппировать 1423" transform="translate(1494.97 351.013)">
        <path id="Контур_4296" data-name="Контур 4296" d="M2176.579,594.949h-9.27a3.58,3.58,0,0,0-3.569,3.568v15.409a3.58,3.58,0,0,0,3.569,3.568h9.27a3.577,3.577,0,0,0,3.566-3.568V598.517A3.578,3.578,0,0,0,2176.579,594.949Z" transform="translate(-1948.178 -510.827)" fill="#201c1b" fill-rule="evenodd"/>
        <path id="Контур_4297" data-name="Контур 4297" d="M1835.687,521.854a19.38,19.38,0,0,0-8.063-1.768c-13.008,0-23.55,13.157-23.55,29.385s10.542,29.385,23.55,29.385h16.129c7.211,0,13.663-4.043,17.981-10.409h2a3.577,3.577,0,0,0,3.566-3.568v-15.2l0-.211c0-16.229-10.546-29.385-23.553-29.385A19.386,19.386,0,0,0,1835.687,521.854Zm-67.195,57c13.008,0,23.553-13.156,23.553-29.385s-10.545-29.385-23.553-29.385a19.271,19.271,0,0,1-16.125,0c-13.008,0-23.553,13.156-23.553,29.385s10.546,29.385,23.553,29.385Zm-81.751,0c7.211,0,13.663-4.043,17.984-10.409h2a3.577,3.577,0,0,0,3.566-3.568v-15.9c0-.079,0-.156-.007-.234-.31-15.892-10.732-28.656-23.547-28.656a19.261,19.261,0,0,1-16.125,0c-13.008,0-23.553,13.157-23.553,29.385s10.546,29.385,23.553,29.385Zm-90.807,0h16.129c7.211,0,13.66-4.043,17.981-10.408h2.1a3.577,3.577,0,0,0,3.566-3.568v-15.9a3.523,3.523,0,0,0-.121-.92c-.593-15.572-10.9-27.969-23.526-27.969a19.375,19.375,0,0,0-8.063,1.768,19.4,19.4,0,0,0-8.066-1.768c-13.008,0-23.553,13.156-23.553,29.385S1582.926,578.855,1595.934,578.855Z" transform="translate(-1560.751 -461.78)" fill="#201c1b" fill-rule="evenodd"/>
        <path id="Контур_4298" data-name="Контур 4298" d="M1851.419,379.959c5.89.731,5.987,28.756,8.645,31.482,3.638,3.733,2.355,19.07-.486,26.545-2.442,6.433-7.38,6.57-14.367,7.657v-6.61l0-.329c0-16.229-10.546-29.385-23.554-29.385-12.874,0-23.336,12.89-23.55,28.889h0v9.867c0,2.89-3.345,6.038-6.235,6.038H1688.2v-15.9h0c0-.1,0-.2-.01-.3-.338-15.861-10.749-28.591-23.543-28.591-13.008,0-23.554,13.157-23.554,29.385v10.148c0,2.607-3.183,5.26-5.79,5.26H1543.25c-7.125-.492-.093-13.848-1.955-18.245-4.452-12.988-4.656-29.244,10.573-35.739,11.853-5.054,27.3-10.374,54.735-14.952,20.664-13.846,35.651-20.357,53.19-25.292,29.592-8.325,53.214-8.556,76.354-8.814,28-.314,53.78.328,76.481,10.435a182.835,182.835,0,0,1,18.223,9.525C1838.376,375.455,1845.325,379.2,1851.419,379.959Z" transform="translate(-1538.659 -351.013)" fill="#d1cfc9" fill-rule="evenodd"/>
        <path id="Контур_4299" data-name="Контур 4299" d="M1639.6,368.8c8.946-3.724,11.663-6.511,19.867-8.821,29.589-8.325,53.549-8.649,76.689-8.908,26.433-.293,51.477.259,72.7,8.832a202.761,202.761,0,0,0-89.749-2.459c-12.456,2.49-23.388,6.883-36.93,11.553C1672.873,372.2,1649.92,366.094,1639.6,368.8Zm199.819,42.179c-4.842-6.478-9.877-10.451-21.181-10.451-7.566,0-16.56,5.609-22.83,14.364-6.9,9.632-8.649,9.506-16.484,9.915l-79.22,1.5c-5.483.1-7.556,4.5-2.069,4.4l80.468-1.484c14.411-.3,10.18,12.128-.31,12.128h-78.417c-7.821-.129-7.459-3.029-7.669-7.536-.486-10.489-3.766-15.39-7.952-21.133-3.99-5.475-16.481-10.242,2.3-11.74,31.947-2.55,77.261-2.281,114.3-4.71a360.125,360.125,0,0,0,55.418-8c-.741-2.883-1.824-8.049-4.469-8.269-2.407-.2-9.194-2.269-20.06-8.7,1.8,10.132-10.439,14.591-32.058,15.488-29.467,1.224-75.8,1.379-109.949,4.253-26.388,2.22-55.925,13.23-58.225,42.845-.479,6.222-20.354,6.615-29.209,6.961-12.38.484-7.246-10.325-15.26-10.325h-34.889c-5.78,0,.138,13.633-10.056,8.226-.234,3.447-1.776,8.274-1.593,11.6h85.441c8.732,0,11.453-5.176,11.453-11.6,0-18.2,11.829-32.951,26.416-32.951,13.287,0,25.906,12.142,26.136,28.187l.131,9.3c.062,4.485,4.056,5.523,8.025,5.523h90.314c2.742,0,5.935-2.985,5.914-5.726l-.041-5.715c.583-17.557,12.173-31.569,26.388-31.569,10.177,0,19.008,7.178,23.419,17.7,1.828,4.362,15.318,2.9,18.584,1.187.945-6.149-.983-14.128-2.973-15.17.048,2.241-5.338,3.317-12.508,4.01C1842.242,413.908,1842.035,414.478,1839.421,410.98Zm-287.543-10.85c11.853-5.054,27.3-10.374,54.735-14.952,5.176-2.949,10.156-5.59,14.963-7.973,35.606-3.517,55.563-3.8,56.4,2.835.231,1.831.886,6.69-3.156,7.347-23.385,3.463-41.91,13.221-45.128,18.078-.627,3.125-.883,1.223,7.487,1.6,7.018,6.873-18.391,17.238-24.336,17.235l-12.67.011a4.94,4.94,0,0,1-4.369-1.95l-3.552-4.708c-6.407-9.5-5.021-9.4-14.515-9.4h-27.309c-4.7,0-6.7,16.037-11.635,16.02a35.432,35.432,0,0,1-.031-5.391C1539.428,410.144,1543.949,403.51,1551.877,400.131Z" transform="translate(-1538.669 -351.015)" fill="#f4f2e9" fill-rule="evenodd"/>
        <path id="Контур_4300" data-name="Контур 4300" d="M1606.779,394c12.639-8.421,24.147-16.619,47.145-23.8,20.408-6.369,47.993-6.3,62.3-5.076,7.18.61,5.607.872,1.166,3.007-12.273,5.89-25.981,16.567-36.782,24.781-5.276,4.011-4.99,3.821-10.832,2.36C1648.941,390.051,1618.37,391.3,1606.779,394Zm-4.135,60.121c-3.093-.155-3.093-9.788,0-9.634h11.349c3.469,0,7.383,9.634,3.911,9.634Zm-61.97,0c.666-3.63,1.638-7.444.8-9.43l-.069-.2h.593c3.049-.154,5.918,9.479,2.873,9.634Zm-1.579-26.276c-.059,0-.176.021-.166-.141a22.37,22.37,0,0,1,4.431-12.2l1.7,1.166c.91.621.91,3.662-.39,6.045l-1.976,3.628c-.459.912-1.007,1.5-1.49,1.5Zm9.811,5.284c-4.4-.22-2.076-13.932,2.328-13.712h32.2c4.942,0,10.508,13.712,5.569,13.712Zm51.694-16.456,27.8-4.722a4.994,4.994,0,0,1,3.866.715l5.087,3.225c2.393,1.514,1,4.841-2.362,6.187L1619.5,427.3a7.306,7.306,0,0,1-2.7.54l-15.187.009a3.8,3.8,0,0,1-3.366-1.5l-2.738-3.628C1593.7,420.331,1596.913,417.29,1600.6,416.668Zm159.892-51.285c6.932.166,14.073.179,20.9,1.421,9.987,1.817,20.353,5.973,27.157,10.449,10.611,6.98,12.546,14.739-9.191,15.622-36.664,1.479-73.274,2.142-109.95,4.252C1712.694,373.009,1726.792,364.97,1760.491,365.384Z" transform="translate(-1538.835 -359.833)" fill="#201c1b" fill-rule="evenodd"/>
        <path id="Контур_4301" data-name="Контур 4301" d="M1722.639,512.261l17.515-2.964a3.724,3.724,0,0,1,2.886.534l3.8,2.41c1.786,1.131.745,3.617-1.766,4.623l-8.321,3.338a5.459,5.459,0,0,1-2.017.4l-11.346.006a2.837,2.837,0,0,1-2.514-1.123l-2.045-2.711C1717.487,515,1719.884,512.726,1722.639,512.261Z" transform="translate(-1656.448 -454.665)" fill="#714e3a" fill-rule="evenodd"/>
        <path id="Контур_4302" data-name="Контур 4302" d="M1751.068,516.221a1.066,1.066,0,0,1-.334-2.1l1.51-.244a1.066,1.066,0,1,1,.334,2.105Zm-13.373,2.161a1.066,1.066,0,1,1-.334-2.1l9.552-1.544a1.066,1.066,0,1,1,.334,2.1Z" transform="translate(-1668.248 -457.701)" fill="#fff" fill-rule="evenodd"/>
        <path id="Контур_4303" data-name="Контур 4303" d="M1733.536,609.493a1.065,1.065,0,1,1,0-2.13h8.063a1.065,1.065,0,1,1,0,2.13Z" transform="translate(-1665.634 -518.96)" fill="#f36a10" fill-rule="evenodd"/>
        <path id="Контур_4304" data-name="Контур 4304" d="M1872.763,586.838c9.08,0,16.443-9.184,16.443-20.513s-7.363-20.513-16.443-20.513S1856.32,555,1856.32,566.324,1863.683,586.838,1872.763,586.838Zm-2.338-11.787c2.155.159,2.469.445,3,1.229l.5.875,1.217,2.125c1.255,2.177,1.821,3.6-2.38,3.6a11.185,11.185,0,0,1-6.173-1.9c-2.269-1.489-1.648-2.129-.748-3.59l.893-1.337C1868.283,573.738,1868.5,574.909,1870.425,575.051Zm6.49-5.464c.824-2.553.445-2.149,3.311-2.667l2.8-.507c2.517-.5,3.355-.972,2.793,2.894a18.614,18.614,0,0,1-2.693,7.362c-2.238,3.486-2.5,2.742-4.1-.008l-1.479-2.589C1876.194,571.7,1876.135,571.995,1876.915,569.587Zm-.931-8.556c-1.314-2.15-.921-2.208-.155-4.8l.69-2.348c.8-2.708.972-3.432,3.1-1.739a16.75,16.75,0,0,1,4.838,6.365c1.266,2.882.621,2.872-1.69,3.221l-2.969.537C1877.042,562.76,1877.332,563.227,1875.984,561.031Zm-7.7-3.011c-1.811.72-1.469,1.7-3.018.239l-1.055-.995c-1.607-1.327-1.755-1.844.217-3.832a11.889,11.889,0,0,1,6.08-3.431c2.442-.478,2.1.825,1.617,2.262l-.783,2.668C1870.469,557.911,1870.807,557.018,1868.286,558.02Zm-4.856,8.3a10.9,10.9,0,0,0,.217,2.173c.534,2.6,1.062,2.192-.514,4.553-1.438,2.1-1.845,2.319-2.821-.976a20.233,20.233,0,0,1-.824-5.75,20.7,20.7,0,0,1,.248-3.2c.476-3.038.9-2.98,2.5-1.3C1864.3,563.755,1863.431,563.642,1863.431,566.324Z" transform="translate(-1746.773 -478.634)" fill="#d1cfc9" fill-rule="evenodd"/>
        <path id="Контур_4305" data-name="Контур 4305" d="M2328.063,586.838c9.08,0,16.443-9.184,16.443-20.513s-7.363-20.513-16.443-20.513S2311.62,555,2311.62,566.324,2318.983,586.838,2328.063,586.838Zm-2.338-11.787c2.155.159,2.466.445,3,1.229l.5.875,1.214,2.125c1.259,2.177,1.824,3.6-2.376,3.6a11.177,11.177,0,0,1-6.173-1.9c-2.273-1.489-1.652-2.129-.748-3.59l.893-1.337C2323.58,573.738,2323.8,574.909,2325.725,575.051Zm6.487-5.464c.828-2.553.445-2.149,3.311-2.667l2.8-.507c2.521-.5,3.359-.972,2.8,2.894a18.667,18.667,0,0,1-2.694,7.362c-2.238,3.486-2.5,2.742-4.1-.008l-1.479-2.589C2331.491,571.7,2331.436,571.995,2332.211,569.587Zm-.927-8.556c-1.314-2.15-.921-2.208-.155-4.8l.69-2.348c.8-2.708.972-3.432,3.093-1.739a16.723,16.723,0,0,1,4.842,6.365c1.262,2.882.617,2.872-1.693,3.221l-2.969.537C2332.339,562.76,2332.629,563.227,2331.284,561.031Zm-7.7-3.011c-1.811.72-1.466,1.7-3.014.239l-1.055-.995c-1.607-1.327-1.755-1.844.218-3.832a11.888,11.888,0,0,1,6.08-3.431c2.441-.478,2.1.825,1.617,2.262l-.786,2.668C2325.766,557.911,2326.1,557.018,2323.583,558.02Zm-4.855,8.3a10.65,10.65,0,0,0,.22,2.173c.534,2.6,1.062,2.192-.514,4.553-1.438,2.1-1.845,2.319-2.821-.976a20.108,20.108,0,0,1-.824-5.75,20.7,20.7,0,0,1,.248-3.2c.476-3.038.9-2.98,2.5-1.3C2319.6,563.755,2318.728,563.642,2318.728,566.324Z" transform="translate(-2045.061 -478.634)" fill="#d1cfc9" fill-rule="evenodd"/>
        <path id="Контур_4306" data-name="Контур 4306" d="M2434.367,448.278c3.683-.328,5.973,12.4,2.476,12.655l-6.921-.639a3.8,3.8,0,0,1-3.366-1.5l-2.738-3.628c-1.8-2.383,1.407-5.423,5.094-6.047Z" transform="translate(-2118.229 -414.732)" fill="#ec4115" fill-rule="evenodd"/>
        <path id="Контур_4307" data-name="Контур 4307" d="M1743.5,393.762c11.58-7.718,26.8-15,47.907-21.467,18.143-5.556,39.279-6.118,52.394-5,6.58.562,5.142.8,1.069,2.755-11.246,5.4-23.812,15.184-33.706,22.712-4.835,3.676-4.576,3.5-9.928,2.162C1782.138,390.145,1754.121,391.289,1743.5,393.762Zm149.125-25.419,2.1.045a228.865,228.865,0,0,1,2.759,25.243c-19.567.634-39.124,1.228-58.7,2.224v-8.208C1854.629,373.1,1867.4,368.032,1892.625,368.343Zm7.256.186a78.684,78.684,0,0,1,11.177,1.069A69.161,69.161,0,0,1,1935,378.809c9.356,6.156,11.063,13-8.1,13.777q-11.106.45-22.212.807A127.293,127.293,0,0,0,1899.881,368.529Z" transform="translate(-1672.86 -361.371)" fill="#714e3a" fill-rule="evenodd"/>
        <path id="Контур_4308" data-name="Контур 4308" d="M1828.807,384.33a530.88,530.88,0,0,1,53.856-3.859c-.472-4.259-1.048-8.342-1.672-12.084l-2.1-.045C1855.685,368.06,1843.019,372.322,1828.807,384.33Zm-78.427,36.508a4.043,4.043,0,0,1-2.628,2.731l-8.321,3.339a5.461,5.461,0,0,1-2.017.4l-11.346.007a2.836,2.836,0,0,1-2.514-1.124l-1.024-1.355,23.788-3.964C1747.825,420.625,1749.1,420.29,1750.38,420.839Zm-20.619-27.077c11.066-7.914,21.422-15,42.531-21.467,18.143-5.556,44.655-6.118,57.77-5,6.58.562,5.142.8,1.069,2.755a133.011,133.011,0,0,0-18.7,11.508C1787.708,377.764,1746.866,385.1,1729.762,393.762Zm159.319-13.356a313.008,313.008,0,0,1,36.523,1.866,26.62,26.62,0,0,0-4.338-3.462,69.161,69.161,0,0,0-23.947-9.211,78.682,78.682,0,0,0-11.177-1.069C1887.157,372,1888.2,376.078,1889.081,380.406Z" transform="translate(-1659.121 -361.371)" fill="#b09889" fill-rule="evenodd"/>
        <path id="Контур_4309" data-name="Контур 4309" d="M2026.215,415.833l-6.9-.4c-4.417-.255-8.2,1.807-9.856,4.821-1.955,3.569-3.293,8.183,1.955,7.508l17.429-.8C2032.471,426.758,2032.53,416.2,2026.215,415.833Z" transform="translate(-1845.967 -393.201)" fill="#d1cfc9" fill-rule="evenodd"/>
        <path id="Контур_4310" data-name="Контур 4310" d="M2026.67,415.833l-6.9-.4c-4.418-.255-8.2,1.807-9.856,4.821a16.515,16.515,0,0,0-1.49,3.538,5.289,5.289,0,0,0,2.1.072l17.36-.793c1.769-.1,2.687-2.662,2.428-5.3A4.778,4.778,0,0,0,2026.67,415.833Z" transform="translate(-1846.421 -393.201)" fill="#f4f2e9" fill-rule="evenodd"/>
        <path id="Контур_4311" data-name="Контур 4311" d="M2434.422,448.278c1.29-.114,2.407,1.369,3.166,3.356l-14.112,2.792c-.672-2.577,2.483-4.8,5.49-5.31Z" transform="translate(-2118.283 -414.732)" fill="#fb9e5d" fill-rule="evenodd"/>
        <path id="Контур_4312" data-name="Контур 4312" d="M2432.641,461.03a1.067,1.067,0,0,1-.4-2.1l5.2-1a1.067,1.067,0,1,1,.4,2.1Z" transform="translate(-2123.516 -421.051)" fill="#fff" fill-rule="evenodd"/>
        <path id="Контур_4313" data-name="Контур 4313" d="M1962.556,446.106a.426.426,0,0,1,.848-.081c.686,7.314,1.141,14.907,1.348,22.238a.428.428,0,0,1-.855.023C1963.694,461.064,1963.235,453.318,1962.556,446.106Zm80.958-3.508a.426.426,0,0,1,.848-.08c1.562,16.657,1.679,32.278,1.531,48.912a.428.428,0,0,1-.855-.007C2045.19,474.886,2045.073,459.154,2043.514,442.6Zm54.47-7.121c-.273-.348.162-1.09.762-.407a13.31,13.31,0,0,1,2.648,8.9c-.386,5.569-5.456,10.834-6.228,9.847-.793-1.018,4.873-2.66,5.376-9.9a12.438,12.438,0,0,0-2.473-8.324h0Z" transform="translate(-1816.372 -405.9)" fill="#aba29f" fill-rule="evenodd"/>
        <path id="Контур_4314" data-name="Контур 4314" d="M2106.5,383.191a1.067,1.067,0,0,1-.342-2.107q4.744-.781,9.608-1.231,4.837-.45,9.739-.593a1.066,1.066,0,0,1,.059,2.131q-4.837.145-9.6.583Q2111.214,382.418,2106.5,383.191Z" transform="translate(-1909.865 -369.518)" fill="#fff" fill-rule="evenodd"/>
        <path id="Контур_4315" data-name="Контур 4315" d="M1841.076,386.351a1.067,1.067,0,0,1-.7-2.014q5.494-1.929,11.191-3.4,5.675-1.469,11.539-2.535a1.065,1.065,0,0,1,.376,2.1q-5.763,1.05-11.38,2.5Q1846.5,384.45,1841.076,386.351Zm26.688-6.583a1.064,1.064,0,0,1-.324-2.1c1.131-.179,2.193-.338,3.193-.476,1.138-.159,2.207-.3,3.218-.424a1.068,1.068,0,0,1,.259,2.121q-1.7.207-3.183.414C1869.8,379.458,1868.744,379.613,1867.764,379.768Z" transform="translate(-1735.857 -367.879)" fill="#fff" fill-rule="evenodd"/>
      </g>
    </g>
    <g id="Сгруппировать_1427" data-name="Сгруппировать 1427" transform="translate(693.296 -488.368)">
      <path id="Контур_4316" data-name="Контур 4316" d="M291.587,1175.333a1.67,1.67,0,0,1,0-3.34H631.561c2.16,0,2.04,3.34,0,3.34Zm349.007-3.34h17.462a1.67,1.67,0,0,1,0,3.34H640.593A1.677,1.677,0,1,1,640.593,1171.993ZM328.9,1182.014a1.67,1.67,0,0,1,0-3.34h14.869a1.67,1.67,0,0,1,0,3.34Zm24.061-3.34h288.17a1.67,1.67,0,0,1,0,3.34H352.966A1.67,1.67,0,0,1,352.966,1178.673Z" transform="translate(0 -218.06)" fill="#201c1b" fill-rule="evenodd"/>
      <path id="Контур_4317" data-name="Контур 4317" d="M997.68,1086.179h-9.218a3.56,3.56,0,0,0-3.548,3.548v15.323a3.559,3.559,0,0,0,3.548,3.548h9.218a3.556,3.556,0,0,0,3.546-3.548v-15.323A3.556,3.556,0,0,0,997.68,1086.179Z" transform="translate(-456.651 -161.674)" fill="#201c1b" fill-rule="evenodd"/>
      <path id="Контур_4318" data-name="Контур 4318" d="M655.387,1013.073a19.269,19.269,0,0,0-8.014-1.758c-12.935,0-23.422,13.083-23.422,29.221s10.487,29.221,23.422,29.221a19.268,19.268,0,0,0,8.014-1.759,19.289,19.289,0,0,0,8.021,1.759c7.171,0,13.587-4.02,17.884-10.351h1.989a3.56,3.56,0,0,0,3.549-3.548v-15.322c0-16.138-10.487-29.221-23.422-29.221A19.292,19.292,0,0,0,655.387,1013.073Zm-66.818,56.683c12.935,0,23.421-13.082,23.421-29.22s-10.486-29.221-23.421-29.221a19.288,19.288,0,0,0-8.018,1.758,19.29,19.29,0,0,0-8.019-1.758c-12.935,0-23.422,13.083-23.422,29.221s10.487,29.22,23.422,29.22Zm-81.293,0c7.169,0,13.585-4.02,17.881-10.351h1.993a3.558,3.558,0,0,0,3.548-3.548v-15.815c0-.078,0-.156-.008-.232-.308-15.8-10.674-28.5-23.415-28.5a19.289,19.289,0,0,0-8.021,1.759,19.28,19.28,0,0,0-8.016-1.759c-12.935,0-23.421,13.083-23.421,29.221s10.486,29.221,23.421,29.221Zm-90.3,0h16.037c7.17,0,13.586-4.02,17.882-10.35h2.085a3.558,3.558,0,0,0,3.548-3.548v-15.815a3.506,3.506,0,0,0-.121-.915c-.589-15.484-10.837-27.813-23.395-27.813a19.285,19.285,0,0,0-8.018,1.758,19.286,19.286,0,0,0-8.019-1.758c-12.935,0-23.421,13.083-23.421,29.221S404.042,1069.756,416.976,1069.756Z" transform="translate(-68.084 -112.482)" fill="#201c1b" fill-rule="evenodd"/>
      <path id="Контур_4319" data-name="Контур 4319" d="M670.843,871.029c5.854.727,5.95,28.594,8.594,31.3,3.621,3.713,2.342,18.963-.483,26.4-2.428,6.4-7.339,6.533-14.283,7.614v-6.9c0-16.138-10.487-29.221-23.422-29.221-12.8,0-23.206,12.817-23.415,28.728h-.007v9.811c0,2.874-3.326,6-6.2,6H508.539V928.952h0c0-.1,0-.2-.012-.3-.336-15.772-10.687-28.43-23.41-28.43-12.935,0-23.422,13.083-23.422,29.221v10.091c0,2.593-3.166,5.231-5.76,5.231H364.4c-7.086-.489-.092-13.771-1.943-18.142-4.428-12.915-4.63-29.081,10.514-35.539,11.785-5.026,27.143-10.315,54.427-14.868,20.548-13.769,35.453-20.244,52.9-25.151,29.424-8.279,52.915-8.507,75.925-8.764,27.842-.311,53.479.324,76.058,10.378a182.464,182.464,0,0,1,18.12,9.469C657.874,866.549,664.78,870.278,670.843,871.029Z" transform="translate(-45.925 -1.391)" fill="#d1cfc9" fill-rule="evenodd"/>
      <path id="Контур_4320" data-name="Контур 4320" d="M583.257,991.016l-10.435.2c-5.453.1-7.513,4.477-2.058,4.376l15.271-.282C603.514,994.987,590.982,990.871,583.257,991.016Zm38,15.159H572.5c-7.78-.128-7.419-3.012-7.628-7.494-.485-10.431-3.746-15.3-7.908-21.015-3.5-4.806-13.594-9.072-3.061-11.021,12.416-2.3.378-9.932-8.911-7.719-20.464,4.876-38.691,16.8-40.474,39.781-.479,6.187-20.242,6.578-29.045,6.922-12.311.482-7.206-10.267-15.176-10.267H448.669c-2.985.071-4.33-.148-5.455,4.732-.643,2.792-1.338,5.525-2.148,8.066-2.461,7.724,1.284,6.922,4.47,6.922h53.443c8.681,0,11.39-5.147,11.39-11.539,0-18.1,11.759-32.767,26.265-32.767,13.216,0,25.764,12.074,25.991,28.03l.131,9.248c.063,4.46,4.035,5.492,7.981,5.492h60.894C644.743,1013.545,636.667,1006.055,621.259,1006.175Zm-85.9-51.082c-17.013,4.391-29.567,11.489-32.155,15.4-.625,3.108-.879,1.216,7.446,1.594,6.976,6.835-18.289,17.141-24.2,17.138l-12.6.011a4.9,4.9,0,0,1-4.342-1.94l-3.533-4.681c-4.581-6.789-5.12-9.222-8.623-9.158-3.817.069-9.83.594-2.394-5.75,2.26-1.929,5.331-2.592,11.6-4.125C483.825,959.36,513.883,954.327,535.357,955.093Z" transform="translate(-98.78 -75.489)" fill="#f4f2e9" fill-rule="evenodd"/>
      <path id="Контур_4321" data-name="Контур 4321" d="M423.458,1035.112c-3.076-.154-3.076-9.733,0-9.579h11.285c3.452,0,7.341,9.579,3.889,9.579Zm-61.623,0c.66-3.61,1.629-7.4.792-9.378l-.068-.2h.589c3.03-.153,5.885,9.426,2.854,9.579Zm-1.571-26.129c-.06,0-.174.021-.166-.14a22.264,22.264,0,0,1,4.407-12.13l1.686,1.16c.906.618.906,3.642-.385,6.011l-1.965,3.608c-.455.906-1,1.495-1.482,1.495Zm9.757,5.254c-4.378-.219-2.067-13.854,2.312-13.635h32.021c4.912,0,10.449,13.635,5.537,13.635Zm51.4-16.364,27.639-4.7a4.963,4.963,0,0,1,3.844.711l5.06,3.207c2.378,1.505.993,4.814-2.349,6.153l-15.4,5.193a7.263,7.263,0,0,1-2.686.537l-15.1.009a3.781,3.781,0,0,1-3.347-1.494l-2.723-3.608C414.568,1001.514,417.76,998.491,421.424,997.873Z" transform="translate(-46.1 -100.501)" fill="#201c1b" fill-rule="evenodd"/>
      <path id="Контур_4322" data-name="Контур 4322" d="M543.786,1003.474l17.417-2.948a3.71,3.71,0,0,1,2.872.531l3.781,2.4c1.776,1.124.742,3.6-1.755,4.6l-8.274,3.319a5.44,5.44,0,0,1-2.007.4l-11.282.006a2.825,2.825,0,0,1-2.5-1.117l-2.034-2.7C538.663,1006.2,541.048,1003.936,543.786,1003.474Z" transform="translate(-164.059 -105.346)" fill="#714e3a" fill-rule="evenodd"/>
      <path id="Контур_4323" data-name="Контур 4323" d="M572.162,1007.438a1.06,1.06,0,0,1-.333-2.094l1.5-.243a1.06,1.06,0,1,1,.333,2.093Zm-13.3,2.149a1.06,1.06,0,1,1-.333-2.093l9.5-1.535a1.06,1.06,0,0,1,.333,2.094Z" transform="translate(-175.896 -108.391)" fill="#fff" fill-rule="evenodd"/>
      <path id="Контур_4324" data-name="Контур 4324" d="M554.7,1100.711a1.059,1.059,0,0,1,0-2.118h8.019a1.059,1.059,0,1,1,0,2.118Z" transform="translate(-173.272 -169.83)" fill="#f36a10" fill-rule="evenodd"/>
      <path id="Контур_4325" data-name="Контур 4325" d="M693.845,1077.839c9.03,0,16.35-9.132,16.35-20.4s-7.32-20.4-16.35-20.4-16.35,9.132-16.35,20.4S684.815,1077.839,693.845,1077.839Zm-2.326-11.721c2.144.158,2.454.442,2.984,1.223l.5.87,1.208,2.113c1.251,2.165,1.812,3.584-2.364,3.584a11.12,11.12,0,0,1-6.139-1.886c-2.257-1.481-1.64-2.118-.744-3.57l.887-1.33C689.389,1064.812,689.607,1065.977,691.52,1066.118Zm6.453-5.434c.821-2.538.442-2.137,3.291-2.651l2.789-.5c2.506-.5,3.337-.967,2.778,2.878a18.518,18.518,0,0,1-2.678,7.321c-2.226,3.466-2.482,2.727-4.079-.009l-1.472-2.574C697.255,1062.789,697.2,1063.079,697.972,1060.684Zm-.923-8.508c-1.308-2.138-.916-2.2-.156-4.778l.687-2.335c.792-2.693.967-3.412,3.078-1.73a16.626,16.626,0,0,1,4.812,6.33c1.258,2.866.616,2.856-1.681,3.2l-2.953.534C698.1,1053.9,698.387,1054.36,697.049,1052.177Zm-7.657-2.994c-1.8.716-1.458,1.689-3,.238l-1.049-.989c-1.6-1.319-1.747-1.834.215-3.81a11.811,11.811,0,0,1,6.045-3.411c2.428-.476,2.086.82,1.609,2.249l-.78,2.653C691.563,1049.074,691.9,1048.186,689.392,1049.182Zm-4.828,8.258a10.726,10.726,0,0,0,.218,2.161c.531,2.589,1.056,2.18-.51,4.528-1.43,2.087-1.835,2.306-2.807-.97a20.1,20.1,0,0,1-.818-5.718,20.589,20.589,0,0,1,.247-3.183c.474-3.021.895-2.963,2.49-1.3C685.426,1054.886,684.564,1054.773,684.564,1057.44Z" transform="translate(-254.654 -129.387)" fill="#d1cfc9" fill-rule="evenodd"/>
      <path id="Контур_4326" data-name="Контур 4326" d="M1149.141,1077.839c9.029,0,16.351-9.132,16.351-20.4s-7.321-20.4-16.351-20.4-16.351,9.132-16.351,20.4S1140.111,1077.839,1149.141,1077.839Zm-2.325-11.721c2.143.158,2.455.442,2.984,1.223l.5.87,1.211,2.113c1.248,2.165,1.811,3.584-2.366,3.584a11.122,11.122,0,0,1-6.138-1.886c-2.256-1.481-1.643-2.118-.744-3.57l.888-1.33C1144.686,1064.812,1144.9,1065.977,1146.816,1066.118Zm6.454-5.434c.82-2.538.442-2.137,3.289-2.651l2.791-.5c2.5-.5,3.337-.967,2.778,2.878a18.51,18.51,0,0,1-2.678,7.321c-2.225,3.466-2.483,2.727-4.081-.009l-1.471-2.574C1152.553,1062.789,1152.495,1063.079,1153.269,1060.684Zm-.926-8.508c-1.307-2.138-.916-2.2-.154-4.778l.686-2.335c.792-2.693.967-3.412,3.079-1.73a16.659,16.659,0,0,1,4.811,6.33c1.259,2.866.614,2.856-1.68,3.2l-2.953.534C1153.4,1053.9,1153.681,1054.36,1152.344,1052.177Zm-7.654-2.994c-1.8.716-1.461,1.689-3,.238l-1.049-.989c-1.6-1.319-1.745-1.834.216-3.81a11.821,11.821,0,0,1,6.046-3.411c2.428-.476,2.085.82,1.608,2.249l-.782,2.653C1146.86,1049.074,1147.193,1048.186,1144.689,1049.182Zm-4.828,8.258a10.843,10.843,0,0,0,.216,2.161c.532,2.589,1.056,2.18-.511,4.528-1.43,2.087-1.835,2.306-2.805-.97a20.118,20.118,0,0,1-.82-5.718,20.6,20.6,0,0,1,.247-3.183c.473-3.021.9-2.963,2.49-1.3C1140.722,1054.886,1139.861,1054.773,1139.861,1057.44Z" transform="translate(-553.817 -129.387)" fill="#d1cfc9" fill-rule="evenodd"/>
      <path id="Контур_4327" data-name="Контур 4327" d="M571.4,1014.122a4.026,4.026,0,0,1-2.614,2.716l-8.274,3.32a5.436,5.436,0,0,1-2.007.4l-11.282.007a2.825,2.825,0,0,1-2.5-1.117L543.7,1018.1l23.655-3.942C568.855,1013.91,570.125,1013.577,571.4,1014.122Z" transform="translate(-166.742 -114.133)" fill="#b09889" fill-rule="evenodd"/>
      <g id="Сгруппировать_1426" data-name="Сгруппировать 1426" transform="translate(311.186 840.129)">
        <g id="Сгруппировать_1425" data-name="Сгруппировать 1425">
          <path id="Контур_4328" data-name="Контур 4328" d="M367.478,949.755c13.233-4.706,13.115-34.688,19.672-48.842,5.406-11.67,6-11.483,18.768-14.6,21.715-5.306,62-11.795,85.04-8.389,10.96,1.62,14.621,5.633,20.405,12.752.654.8,1.335,1.65,2.057,2.535,21.206,26.009,42.249,35.6,92.993,41.662,23.734,2.835,67.577,10.3,70.252-11.32,1.289-10.4-.357-28.506-3.755-46.018-2.2-11.341-11.982-9.1-19.7-13-25.2-12.742-43.016-26.718-113.6-24.075-45.237,1.694-71.728,6.73-100.169,21.863-14.177,7.543-16.895,11.246-32.3,14.288a229.324,229.324,0,0,0-38.456,11.154c-28.991,8.743-11.025,40.363-13.8,51.835C353.72,944.412,359.836,950.753,367.478,949.755Z" transform="translate(-351.897 -840.129)" fill="#ec4115" fill-rule="evenodd"/>
          <path id="Контур_4329" data-name="Контур 4329" d="M405.8,890.408c3.465-3.452,8.089-5.461,15.455-7.261,18.654-4.557,51.88-10.86,75.4-10.305,9.287.219,9.732.756,17.243-5.87,7.26-6.406,19.224-16.236,36.546-19.7a202.109,202.109,0,0,1,86.306,1.7,140.5,140.5,0,0,0-27.585-6.56,329.5,329.5,0,0,0-41.717-2.225c-52.336.584-85.105,5.934-118.816,26.18-18.167,11.406-39.537,10.955-66.1,22.288C364.509,896.352,394.141,902.029,405.8,890.408ZM523,877.725c29.648,32.347,110.657,5.2,147.178.553,33.5-4.261,1.752-11.157-21.529-5.529C614.443,881.019,555.757,897.425,523,877.725Zm11.389,15.6c19.177,12.315,40.052,21.608,74.725,25.329,7.167-.148,9.609,2.852,9.132,5.919-.888,5.715,5.456,7.582,6.56.507,2.572-16.535,12.458-29.766,26.151-29.766a23.242,23.242,0,0,1,16.32,7.088c6.3,6.193,5.871,2.2,2.809-1.891-4.815-6.442-9.821-10.392-21.062-10.392-7.524,0-16.467,5.578-22.7,14.283-6.859,9.579-8.6,9.452-16.392,9.859C584.059,911.679,558.621,906.329,534.392,893.324Z" transform="translate(-368.301 -840.155)" fill="#f26b32" fill-rule="evenodd"/>
        </g>
        <path id="Контур_4330" data-name="Контур 4330" d="M823.112,919.086c22.335,6.852,65.011,9.537,83.889,1.8-18.809,2.573-48.363,4.267-66.865-6.932C830.415,908.072,812.744,915.9,823.112,919.086Z" transform="translate(-659.447 -887.239)" fill="#f26b32" fill-rule="evenodd"/>
      </g>
    </g>
    <g id="Сгруппировать_1428" data-name="Сгруппировать 1428" transform="translate(-485.953 -657.617)">
      <path id="Контур_4331" data-name="Контур 4331" d="M1470.6,1175.339a1.673,1.673,0,0,1,0-3.346h340.524c2.167,0,2.044,3.346,0,3.346Zm349.574-3.346h17.49a1.673,1.673,0,0,1,0,3.346h-17.49A1.68,1.68,0,1,1,1820.178,1171.993Zm-312.2,10.037a1.673,1.673,0,0,1,0-3.346h14.893a1.673,1.673,0,0,1,0,3.346Zm24.1-3.346h288.634a1.673,1.673,0,0,1,0,3.346H1532.083A1.673,1.673,0,0,1,1532.083,1178.684Z" transform="translate(0 -217.883)" fill="#201c1b" fill-rule="evenodd"/>
      <path id="Контур_4332" data-name="Контур 4332" d="M1803.338,1096.526c0,16.164,10.5,29.268,23.46,29.268a19.2,19.2,0,0,1,16.065,0c7.179,0,13.605-4.027,17.909-10.367h2a3.562,3.562,0,0,0,3.552-3.554v-15.138l0-.209Zm-35.437,29.268c12.956,0,23.46-13.1,23.46-29.268h-62.984c0,16.165,10.5,29.268,23.46,29.268Zm-81.426,0c7.182,0,13.609-4.027,17.909-10.367h2a3.562,3.562,0,0,0,3.552-3.554v-15.347h-62.984c0,16.164,10.507,29.268,23.46,29.268Zm-90.445,0h16.064c7.179,0,13.605-4.027,17.909-10.367h2.088a3.565,3.565,0,0,0,3.555-3.554v-15.347H1572.57C1572.57,1112.691,1583.074,1125.794,1596.03,1125.794Z" transform="translate(-68.027 -168.337)" fill="#201c1b" fill-rule="evenodd"/>
      <path id="Контур_4333" data-name="Контур 4333" d="M1546.607,948.655c54.792-7.818,72.4,4.356,108.207,0,48.256-5.871,96.072-8.045,142.679,0,23.59,4.072,56.125,1.794,58.8-19.858,1.288-10.416-.408-33.676-3.809-51.215-2.205-11.359-12-9.119-19.729-13.025-25.249-12.762-43.086-26.761-113.782-24.113-45.309,1.7-71.846,6.741-100.331,21.9-14.2,7.556-16.923,11.264-32.356,14.311a229.751,229.751,0,0,0-38.521,11.173c-29.038,8.757-10.995,45.552-13.773,57.041C1532.827,949.691,1538.951,949.655,1546.607,948.655Z" transform="translate(-40.718 0)" fill="#ec4115" fill-rule="evenodd"/>
      <path id="Контур_4334" data-name="Контур 4334" d="M1550.982,933.682c-5.654-1.693-2.871-5.52,2.782-3.827,21.722,2.743,43.526,2.042,64.176-.067,5.746-1.368,7.993,2.592,2.246,3.96C1597.341,939.24,1573.7,940.519,1550.982,933.682Zm67.851-38.333c22.975-3.475,51.347-12.717,69.064-28.346,7.272-6.416,19.256-16.262,36.6-19.73a202.428,202.428,0,0,1,86.444,1.7,140.688,140.688,0,0,0-27.63-6.571,330.052,330.052,0,0,0-41.781-2.228c-52.422.585-85.245,5.943-119.009,26.222-18.2,11.425-39.6,10.973-66.2,22.325C1531.743,899.211,1586.68,900.211,1618.833,895.349Zm78.176-17.576c29.7,32.4,110.838,5.206,147.419.554,33.555-4.267,1.755-11.175-21.564-5.538C1788.6,881.073,1729.815,897.505,1697.009,877.773Zm11.407,15.624c19.208,12.335,40.115,21.644,74.848,25.37,7.175-.148,9.621,2.857,9.147,5.928-.89,5.724,5.465,7.594,6.567.509,2.58-16.562,12.482-29.815,26.2-29.815a23.266,23.266,0,0,1,16.343,7.1c6.31,6.2,5.884,2.207,2.817-1.894-4.823-6.452-9.837-10.41-21.1-10.41-7.539,0-16.494,5.587-22.738,14.307-6.87,9.594-8.615,9.468-16.418,9.875C1758.166,911.782,1732.687,906.423,1708.416,893.4Zm-2.428-21.356c22.371,6.863,65.117,9.553,84.022,1.8-18.84,2.577-48.438,4.273-66.972-6.943C1713.3,861.009,1695.6,868.855,1705.988,872.041Z" transform="translate(-51.821 -0.025)" fill="#f26b32" fill-rule="evenodd"/>
    </g>
  </g>
</svg>
