<svg xmlns="http://www.w3.org/2000/svg" width="422.996" height="446.734" viewBox="0 0 422.996 446.734">
  <g id="img_moving_storge" transform="translate(-159.684 -148.997)">
    <path id="Контур_3236" data-name="Контур 3236" d="M581.143,845.653c0,4.9-94.347,8.87-210.729,8.87s-210.73-3.972-210.73-8.87,94.347-8.869,210.73-8.869S581.143,840.754,581.143,845.653Z" transform="translate(0 -258.792)" fill="#b2b2b2" style="mix-blend-mode: multiply;isolation: isolate"/>
    <g id="Сгруппировать_836" data-name="Сгруппировать 836" transform="translate(161.221 148.997)">
      <g id="Сгруппировать_742" data-name="Сгруппировать 742">
        <g id="Сгруппировать_741" data-name="Сгруппировать 741" transform="translate(76.905 12.473)">
          <rect id="Прямоугольник_801" data-name="Прямоугольник 801" width="253.619" height="38.295" transform="translate(7.015 325.077)" fill="#020507"/>
          <g id="Сгруппировать_740" data-name="Сгруппировать 740" transform="translate(0.044 8.212)">
            <g id="Сгруппировать_738" data-name="Сгруппировать 738" transform="translate(3.346 355.159)">
              <path id="Прямоугольник_802" data-name="Прямоугольник 802" d="M13.992,0H25.644A13.993,13.993,0,0,1,39.638,13.993V48.028A13.992,13.992,0,0,1,25.645,62.02H13.993A13.993,13.993,0,0,1,0,48.027V13.992A13.992,13.992,0,0,1,13.992,0Z" fill="#302c2c"/>
              <rect id="Прямоугольник_803" data-name="Прямоугольник 803" width="1.149" height="53.9" transform="translate(9.067 8.119)"/>
              <rect id="Прямоугольник_804" data-name="Прямоугольник 804" width="1.15" height="53.9" transform="translate(12.919 8.119)"/>
              <rect id="Прямоугольник_805" data-name="Прямоугольник 805" width="1.15" height="53.9" transform="translate(29.421 8.119)"/>
              <rect id="Прямоугольник_806" data-name="Прямоугольник 806" width="1.151" height="53.9" transform="translate(25.569 8.119)"/>
            </g>
            <g id="Сгруппировать_739" data-name="Сгруппировать 739" transform="translate(224.577 355.159)">
              <path id="Прямоугольник_807" data-name="Прямоугольник 807" d="M13.992,0H25.645A13.993,13.993,0,0,1,39.638,13.993V48.028A13.992,13.992,0,0,1,25.646,62.02H13.993A13.993,13.993,0,0,1,0,48.027V13.992A13.992,13.992,0,0,1,13.992,0Z" fill="#302c2c"/>
              <rect id="Прямоугольник_808" data-name="Прямоугольник 808" width="1.151" height="53.9" transform="translate(29.421 8.119)"/>
              <rect id="Прямоугольник_809" data-name="Прямоугольник 809" width="1.149" height="53.9" transform="translate(25.569 8.119)"/>
              <rect id="Прямоугольник_810" data-name="Прямоугольник 810" width="1.151" height="53.9" transform="translate(9.066 8.119)"/>
              <rect id="Прямоугольник_811" data-name="Прямоугольник 811" width="1.152" height="53.9" transform="translate(12.918 8.119)"/>
            </g>
            <rect id="Прямоугольник_812" data-name="Прямоугольник 812" width="267.561" height="285.373" fill="#240c00"/>
            <rect id="Прямоугольник_813" data-name="Прямоугольник 813" width="6.971" height="285.376" fill="#ebba01"/>
            <rect id="Прямоугольник_814" data-name="Прямоугольник 814" width="6.971" height="285.376" transform="translate(260.59)" fill="#ebba01"/>
          </g>
          <rect id="Прямоугольник_815" data-name="Прямоугольник 815" width="267.561" height="38.742" transform="translate(0.044 293.588)" fill="#4e5958"/>
          <rect id="Прямоугольник_816" data-name="Прямоугольник 816" width="253.619" height="38.746" transform="translate(7.015 368.095)" fill="#6e6663"/>
          <rect id="Прямоугольник_817" data-name="Прямоугольник 817" width="55.481" height="17.63" transform="translate(13.606 345.742)" fill="#bf1e2f"/>
          <rect id="Прямоугольник_818" data-name="Прямоугольник 818" width="62.753" height="17.34" transform="translate(102.626 339.177)" fill="#fff9d9"/>
          <rect id="Прямоугольник_819" data-name="Прямоугольник 819" width="264.214" height="13.748" transform="translate(1.895 363.372)" fill="#5e524e"/>
          <rect id="Прямоугольник_820" data-name="Прямоугольник 820" width="267.561" height="7.456" transform="translate(0.044 286.13)" fill="#ebba01"/>
          <rect id="Прямоугольник_821" data-name="Прямоугольник 821" width="267.561" height="7.456" transform="translate(0.044 8.212)" fill="#ebba01"/>
          <rect id="Прямоугольник_822" data-name="Прямоугольник 822" width="108.561" height="7.456" transform="translate(79.545 8.212)" fill="#7d8991"/>
          <rect id="Прямоугольник_823" data-name="Прямоугольник 823" width="267.561" height="8.212" transform="translate(0.044)" fill="#4e5958"/>
          <rect id="Прямоугольник_824" data-name="Прямоугольник 824" width="22.485" height="10.522" transform="translate(0.044 325.077)" fill="#302724"/>
          <rect id="Прямоугольник_825" data-name="Прямоугольник 825" width="22.486" height="10.522" transform="translate(245.119 325.077)" fill="#302724"/>
          <rect id="Прямоугольник_826" data-name="Прямоугольник 826" width="15.656" height="17.63" transform="translate(53.431 345.742)" fill="#f9ecee"/>
          <rect id="Прямоугольник_827" data-name="Прямоугольник 827" width="55.479" height="17.63" transform="translate(198.918 345.742)" fill="#bf1e2f"/>
          <rect id="Прямоугольник_828" data-name="Прямоугольник 828" width="15.655" height="17.63" transform="translate(198.918 345.742)" fill="#f9ecee"/>
          <rect id="Прямоугольник_829" data-name="Прямоугольник 829" width="14.864" height="23.462" transform="translate(0 136)" fill="#7d8991"/>
          <rect id="Прямоугольник_830" data-name="Прямоугольник 830" width="14.864" height="23.463" transform="translate(0 27.208)" fill="#7d8991"/>
          <rect id="Прямоугольник_831" data-name="Прямоугольник 831" width="14.864" height="23.462" transform="translate(0 244.791)" fill="#7d8991"/>
          <rect id="Прямоугольник_832" data-name="Прямоугольник 832" width="14.862" height="23.462" transform="translate(252.786 136)" fill="#7d8991"/>
          <rect id="Прямоугольник_833" data-name="Прямоугольник 833" width="14.862" height="23.463" transform="translate(252.786 27.208)" fill="#7d8991"/>
          <rect id="Прямоугольник_834" data-name="Прямоугольник 834" width="14.862" height="23.462" transform="translate(252.786 244.791)" fill="#7d8991"/>
        </g>
        <path id="Контур_3237" data-name="Контур 3237" d="M249.337,447.6l-78.5,14.554V149l78.5,28.142Z" transform="translate(-165.416 -148.997)" fill="#245864"/>
        <rect id="Прямоугольник_835" data-name="Прямоугольник 835" width="5.418" height="313.157" fill="#e6f1f3"/>
        <path id="Контур_3238" data-name="Контур 3238" d="M703.308,447.6l78.5,14.554V149l-78.5,28.142Z" transform="translate(-365.769 -148.997)" fill="#245864"/>
        <rect id="Прямоугольник_836" data-name="Прямоугольник 836" width="5.418" height="313.157" transform="translate(416.041)" fill="#e6f1f3"/>
      </g>
      <g id="Сгруппировать_744" data-name="Сгруппировать 744" transform="translate(236.278 82.806)">
        <path id="Контур_3239" data-name="Контур 3239" d="M617.076,281.755H556.294c-6.9,0-12.485,4.276-12.485,9.551V445.358a17.222,17.222,0,0,0,.107,1.894h0v12.761h85.65V447.252h-.108a17.22,17.22,0,0,0,.108-1.894V291.306C629.562,286.031,623.972,281.755,617.076,281.755Z" transform="translate(-542.032 -281.755)" fill="#dadada" style="mix-blend-mode: multiply;isolation: isolate"/>
        <g id="Сгруппировать_743" data-name="Сгруппировать 743" transform="translate(0)">
          <rect id="Прямоугольник_837" data-name="Прямоугольник 837" width="85.651" height="12.761" transform="translate(0.104 165.497)" fill="#a3b7b0"/>
          <path id="Контур_3240" data-name="Контур 3240" d="M626.714,351.733V291.306c0-5.275-5.591-9.551-12.486-9.551H553.445c-6.9,0-12.485,4.276-12.485,9.551v60.427Z" transform="translate(-540.96 -281.755)" fill="#f0f7f4"/>
          <path id="Контур_3241" data-name="Контур 3241" d="M626.715,395.385v92.732c0,8.087-5.6,14.648-12.488,14.648h-60.78a11.116,11.116,0,0,1-6.685-2.273,15.374,15.374,0,0,1-5.8-12.375V395.385Z" transform="translate(-540.96 -324.51)" fill="#f0f7f4"/>
          <path id="Контур_3242" data-name="Контур 3242" d="M553.986,458.929a1.515,1.515,0,0,1-1.6,1.413h0a1.515,1.515,0,0,1-1.6-1.413V291.761a1.515,1.515,0,0,1,1.6-1.413h0a1.515,1.515,0,0,1,1.6,1.413Z" transform="translate(-544.657 -284.988)" fill="#fff"/>
          <rect id="Прямоугольник_838" data-name="Прямоугольник 838" width="85.754" height="0.897" transform="translate(0 69.978)" fill="#91a69e"/>
          <path id="Контур_3243" data-name="Контур 3243" d="M579.332,383.384a2.009,2.009,0,0,1-2.123,1.872h-24.3a2.009,2.009,0,0,1-2.122-1.872h0a2.011,2.011,0,0,1,2.122-1.876h24.3a2.011,2.011,0,0,1,2.123,1.876Z" transform="translate(-544.657 -319.289)" fill="#b7d1d0"/>
          <path id="Контур_3244" data-name="Контур 3244" d="M556.14,384.4a.924.924,0,0,1-.976.861h0a.924.924,0,0,1-.976-.861v-2.026a.925.925,0,0,1,.976-.861h0a.925.925,0,0,1,.976.861Z" transform="translate(-545.937 -319.289)" fill="#fff"/>
          <path id="Контур_3245" data-name="Контур 3245" d="M579.332,403.182a2.009,2.009,0,0,1-2.123,1.874h-24.3a2.009,2.009,0,0,1-2.122-1.874h0a2.011,2.011,0,0,1,2.122-1.876h24.3a2.011,2.011,0,0,1,2.123,1.876Z" transform="translate(-544.657 -326.738)" fill="#b7d1d0"/>
          <path id="Контур_3246" data-name="Контур 3246" d="M556.14,404.194a.925.925,0,0,1-.976.862h0a.925.925,0,0,1-.976-.862v-2.025a.926.926,0,0,1,.976-.863h0a.926.926,0,0,1,.976.863Z" transform="translate(-545.937 -326.738)" fill="#fff"/>
        </g>
      </g>
      <g id="Сгруппировать_751" data-name="Сгруппировать 751" transform="translate(99.7 125.254)">
        <g id="Сгруппировать_746" data-name="Сгруппировать 746">
          <g id="Сгруппировать_745" data-name="Сгруппировать 745">
            <rect id="Прямоугольник_839" data-name="Прямоугольник 839" width="36.838" height="6.179" fill="#28a6a8"/>
            <rect id="Прямоугольник_840" data-name="Прямоугольник 840" width="36.838" height="1.482" transform="translate(0 4.697)" fill="#28a6a8" opacity="0.5" style="mix-blend-mode: multiply;isolation: isolate"/>
          </g>
          <rect id="Прямоугольник_841" data-name="Прямоугольник 841" width="0.765" height="4.148" transform="translate(26.32 1.015)" fill="#b9ecee"/>
          <rect id="Прямоугольник_842" data-name="Прямоугольник 842" width="0.764" height="4.148" transform="translate(23.557 1.015)" fill="#b9ecee"/>
          <rect id="Прямоугольник_843" data-name="Прямоугольник 843" width="7.742" height="4.148" transform="translate(1.337 1.015)" fill="#b9ecee"/>
        </g>
        <g id="Сгруппировать_748" data-name="Сгруппировать 748" transform="translate(0 6.794)">
          <g id="Сгруппировать_747" data-name="Сгруппировать 747">
            <rect id="Прямоугольник_844" data-name="Прямоугольник 844" width="36.838" height="6.177" fill="#ffac07"/>
            <rect id="Прямоугольник_845" data-name="Прямоугольник 845" width="36.838" height="1.48" transform="translate(0 4.697)" fill="#ebc950" opacity="0.5" style="mix-blend-mode: multiply;isolation: isolate"/>
          </g>
          <rect id="Прямоугольник_846" data-name="Прямоугольник 846" width="0.765" height="4.148" transform="translate(26.32 1.016)" fill="#ffde9c"/>
          <rect id="Прямоугольник_847" data-name="Прямоугольник 847" width="0.764" height="4.148" transform="translate(23.557 1.016)" fill="#ffde9c"/>
          <rect id="Прямоугольник_848" data-name="Прямоугольник 848" width="7.742" height="4.148" transform="translate(1.337 1.016)" fill="#ffde9c"/>
        </g>
        <g id="Сгруппировать_750" data-name="Сгруппировать 750" transform="translate(0 13.587)">
          <g id="Сгруппировать_749" data-name="Сгруппировать 749">
            <rect id="Прямоугольник_849" data-name="Прямоугольник 849" width="36.838" height="6.178" fill="#ef5a33"/>
            <rect id="Прямоугольник_850" data-name="Прямоугольник 850" width="36.838" height="1.481" transform="translate(0 4.696)" fill="#ebc950" opacity="0.5" style="mix-blend-mode: multiply;isolation: isolate"/>
          </g>
          <rect id="Прямоугольник_851" data-name="Прямоугольник 851" width="0.765" height="4.149" transform="translate(26.32 1.014)" fill="#f6b5c1"/>
          <rect id="Прямоугольник_852" data-name="Прямоугольник 852" width="0.764" height="4.149" transform="translate(23.557 1.014)" fill="#f6b5c1"/>
          <rect id="Прямоугольник_853" data-name="Прямоугольник 853" width="7.742" height="4.149" transform="translate(1.337 1.014)" fill="#f6b5c1"/>
        </g>
      </g>
      <g id="Сгруппировать_756" data-name="Сгруппировать 756" transform="translate(136.438 126.495)">
        <g id="Сгруппировать_753" data-name="Сгруппировать 753" transform="translate(0 0.249)">
          <g id="Сгруппировать_752" data-name="Сгруппировать 752" transform="translate(0 0)">
            <rect id="Прямоугольник_854" data-name="Прямоугольник 854" width="4.938" height="29.442" transform="translate(0 3.055) rotate(-38.213)" fill="#28a6a8"/>
            <rect id="Прямоугольник_855" data-name="Прямоугольник 855" width="1.184" height="29.443" transform="translate(2.947 0.735) rotate(-38.229)" fill="#28a6a8" opacity="0.5" style="mix-blend-mode: multiply;isolation: isolate"/>
          </g>
          <rect id="Прямоугольник_856" data-name="Прямоугольник 856" width="3.316" height="0.611" transform="matrix(0.786, -0.619, 0.619, 0.786, 5.46, 8.678)" fill="#b9ecee"/>
          <rect id="Прямоугольник_857" data-name="Прямоугольник 857" width="3.315" height="0.61" transform="matrix(0.786, -0.619, 0.619, 0.786, 6.826, 10.413)" fill="#b9ecee"/>
          <rect id="Прямоугольник_858" data-name="Прямоугольник 858" width="3.315" height="6.188" transform="matrix(0.786, -0.619, 0.619, 0.786, 14.362, 19.985)" fill="#b9ecee"/>
        </g>
        <g id="Сгруппировать_755" data-name="Сгруппировать 755" transform="translate(6.532 0)">
          <g id="Сгруппировать_754" data-name="Сгруппировать 754" transform="translate(0)">
            <rect id="Прямоугольник_859" data-name="Прямоугольник 859" width="4.937" height="29.443" transform="translate(0 3.055) rotate(-38.213)" fill="#ffac07"/>
            <rect id="Прямоугольник_860" data-name="Прямоугольник 860" width="1.183" height="29.442" transform="matrix(0.786, -0.618, 0.618, 0.786, 2.951, 0.732)" fill="#ebc950" opacity="0.5" style="mix-blend-mode: multiply;isolation: isolate"/>
          </g>
          <rect id="Прямоугольник_861" data-name="Прямоугольник 861" width="3.315" height="0.611" transform="matrix(0.786, -0.619, 0.619, 0.786, 5.46, 8.678)" fill="#ffde9c"/>
          <rect id="Прямоугольник_862" data-name="Прямоугольник 862" width="3.315" height="0.61" transform="matrix(0.786, -0.619, 0.619, 0.786, 6.826, 10.413)" fill="#ffde9c"/>
          <rect id="Прямоугольник_863" data-name="Прямоугольник 863" width="3.315" height="6.188" transform="matrix(0.786, -0.619, 0.619, 0.786, 14.362, 19.985)" fill="#ffde9c"/>
        </g>
      </g>
      <path id="Контур_3247" data-name="Контур 3247" d="M626.715,498.2v23.377c0,8.087-5.6,14.648-12.488,14.648H590.808l-44.046-2.273a15.374,15.374,0,0,1-5.8-12.375V484.31h42.872V498.2Z" transform="translate(-304.682 -275.164)" fill="#c6c6c6" style="mix-blend-mode: multiply;isolation: isolate"/>
      <g id="Сгруппировать_757" data-name="Сгруппировать 757" transform="translate(190.857 57.738)">
        <path id="Контур_3248" data-name="Контур 3248" d="M500.068,241.566H473.552L468.139,275.2H505.48Z" transform="translate(-468.139 -241.566)" fill="#cc4b59"/>
        <rect id="Прямоугольник_864" data-name="Прямоугольник 864" width="2.423" height="110.037" transform="translate(17.46 33.636)" fill="#b19770"/>
        <path id="Контур_3249" data-name="Контур 3249" d="M499.373,310.656a3.278,3.278,0,1,1-3.278-3.278A3.279,3.279,0,0,1,499.373,310.656Z" transform="translate(-477.425 -266.329)" fill="#b19770"/>
        <path id="Контур_3250" data-name="Контур 3250" d="M499.373,425.857a3.278,3.278,0,1,0-3.278,3.28A3.278,3.278,0,0,0,499.373,425.857Z" transform="translate(-477.425 -309.676)" fill="#b19770"/>
        <path id="Прямоугольник_865" data-name="Прямоугольник 865" d="M1.539,0H17.265a1.541,1.541,0,0,1,1.541,1.541v.118A1.538,1.538,0,0,1,17.269,3.2H1.537A1.537,1.537,0,0,1,0,1.66V1.539A1.539,1.539,0,0,1,1.539,0Z" transform="translate(9.267 143.673)" fill="#b19770"/>
        <path id="Контур_3251" data-name="Контур 3251" d="M499.552,319.264c0,.759-1.669,1.374-3.727,1.374s-3.726-.614-3.726-1.374,1.668-1.373,3.726-1.373S499.552,318.5,499.552,319.264Z" transform="translate(-477.155 -270.285)" fill="#b19770"/>
        <path id="Контур_3252" data-name="Контур 3252" d="M499.552,304.157c0,.759-1.669,1.373-3.727,1.373s-3.726-.614-3.726-1.373,1.668-1.373,3.726-1.373S499.552,303.4,499.552,304.157Z" transform="translate(-477.155 -264.6)" fill="#b19770"/>
        <path id="Контур_3253" data-name="Контур 3253" d="M499.552,419.548c0,.758-1.669,1.374-3.727,1.374s-3.726-.616-3.726-1.374,1.668-1.373,3.726-1.373S499.552,418.79,499.552,419.548Z" transform="translate(-477.155 -308.018)" fill="#b19770"/>
        <path id="Контур_3254" data-name="Контур 3254" d="M499.552,434.465c0,.758-1.669,1.373-3.727,1.373s-3.726-.615-3.726-1.373,1.668-1.373,3.726-1.373S499.552,433.706,499.552,434.465Z" transform="translate(-477.155 -313.631)" fill="#b19770"/>
        <path id="Контур_3255" data-name="Контур 3255" d="M487.4,275.2h-8.974l3.105-33.636H487.4Z" transform="translate(-472.011 -241.566)" fill="#bf1e2f" opacity="0.6" style="mix-blend-mode: screen;isolation: isolate"/>
      </g>
      <g id="Сгруппировать_791" data-name="Сгруппировать 791" transform="translate(264.369 138.093)">
        <path id="Контур_3256" data-name="Контур 3256" d="M639.126,424.459a19.911,19.911,0,0,0-2.839-2.875,15.591,15.591,0,0,0-3.5-2.184,11.835,11.835,0,0,0-1.985-.677,13.21,13.21,0,0,0-2.293-.35,14.447,14.447,0,0,0-4.555.453,14.342,14.342,0,0,0-2.232-1.53c-.2-.109-.407-.211-.615-.309l.043-.069c.8.066,1.831.176,2.942.338,1.211.176,2.509.416,3.686.677s2.232.54,2.986.73,1.741.42,2.78.722a26.085,26.085,0,0,1,3.1,1.1,18.752,18.752,0,0,1,2.427,1.25c.6.369.958.633.959.631s-.254-.286-.72-.728a16.81,16.81,0,0,0-2.015-1.614,20.215,20.215,0,0,0-2.953-1.666,23.138,23.138,0,0,0-3.2-1.2,19.664,19.664,0,0,0-3.545-.644,30.234,30.234,0,0,0-3.8-.11c-.918.029-1.75.1-2.43.169.082-.131.166-.261.252-.394.344-.535.717-1.081,1.1-1.614.1-.065.2-.124.294-.168a25.76,25.76,0,0,1,3.253-1.348,23.683,23.683,0,0,1,2.753-.734,16.036,16.036,0,0,1,2.594-.374,9.335,9.335,0,0,1,2.987.318,9.15,9.15,0,0,1,2.33,1.03c.568.353.892.621.9.618s-.225-.284-.661-.713a8.928,8.928,0,0,0-1.987-1.475,8.7,8.7,0,0,0-1.468-.631,9.463,9.463,0,0,0-1.671-.377,11.2,11.2,0,0,0-3.343.081,12.391,12.391,0,0,0-3.3,1.128c-.364.179-.719.378-1.07.582.609-.729,1.182-1.356,1.614-1.828.536-.589,1.23-1.357,2.035-2.117a19.359,19.359,0,0,1,2.63-2.1,15.746,15.746,0,0,1,2.471-1.333c.671-.284,1.107-.419,1.106-.42s-.393.039-1.042.171a14.14,14.14,0,0,0-2.552.78,16.388,16.388,0,0,0-3.086,1.685,18.568,18.568,0,0,0-2.711,2.29,17.277,17.277,0,0,0-2.277,2.966c-.407.653-.778,1.337-1.113,2.016a10.013,10.013,0,0,0-1.163,1.244c0-.027,0-.056,0-.084l-.013-.014a14.618,14.618,0,0,1,.982-2.67A18.422,18.422,0,0,1,624,408.923a24.262,24.262,0,0,1,3.7-3.384c.619-.462,1.312-.952,2.067-1.419a15.3,15.3,0,0,1,2.416-1.251c.211-.081.422-.154.629-.211a2.953,2.953,0,0,1,.6-.1,5,5,0,0,1,1.306.1,11.744,11.744,0,0,1,2.573.889,23.759,23.759,0,0,1,2.22,1.188c.666.4,1.248.781,1.73,1.11.962.66,1.523,1.106,1.523,1.1s-.553-.584-1.519-1.437c-.482-.427-1.068-.92-1.745-1.431a20.524,20.524,0,0,0-2.3-1.524,12.638,12.638,0,0,0-1.361-.665,8.077,8.077,0,0,0-1.514-.468,4.859,4.859,0,0,0-1.675-.054c-.148.024-.276.051-.407.084s-.258.064-.382.1c-.252.074-.5.156-.73.245a15.692,15.692,0,0,0-2.517,1.234c-.537.321-1.014.643-1.43.949a21.156,21.156,0,0,0-2.724.448c-.331.077-.674.168-1.02.27.143-.2.288-.392.43-.575a24.766,24.766,0,0,1,2.144-2.472,16.915,16.915,0,0,1,5.253-3.559c.676-.289,1.1-.431,1.1-.434s-.5.049-1.3.216a14.856,14.856,0,0,0-3.016.987,14.3,14.3,0,0,0-3.25,2.026,12.7,12.7,0,0,0-2.2,2.33c-.1.143-.21.3-.316.47.327-.891.652-1.673.921-2.287A22.254,22.254,0,0,1,624.983,398a11.948,11.948,0,0,1,1.362-1.712,8.709,8.709,0,0,1,1.675-1.355,7.642,7.642,0,0,1,1.807-.816,8.335,8.335,0,0,1,1.624-.319,9.892,9.892,0,0,1,1.136-.042c.268.006.419.017.419.016s-.127-.029-.362-.072a9.851,9.851,0,0,0-1.016-.126,8.639,8.639,0,0,0-1.566.035,8.027,8.027,0,0,0-1.935.472,8.715,8.715,0,0,0-2.011,1.093,11.035,11.035,0,0,0-1.8,1.645,16.6,16.6,0,0,0-2.475,3.834,45.993,45.993,0,0,1,1.49-4.437,30.389,30.389,0,0,1,2.331-4.822,15.017,15.017,0,0,1,1.721-2.285,10.645,10.645,0,0,1,2.1-1.771,8.785,8.785,0,0,1,2.255-1.027,8.424,8.424,0,0,1,2.008-.331,6.678,6.678,0,0,1,1.879.154,4.469,4.469,0,0,0-.545-.178,7.65,7.65,0,0,0-1.535-.245,8.58,8.58,0,0,0-2.307.172,9.394,9.394,0,0,0-2.65,1.011,11.652,11.652,0,0,0-2.459,1.883,15.607,15.607,0,0,0-1.86,2.248c.513-1.466,1.058-2.882,1.6-4.164a61.519,61.519,0,0,1,2.88-6c.582-1.041,1.219-2.073,1.9-3.048a28.353,28.353,0,0,1,2.148-2.718,21.813,21.813,0,0,1,2.235-2.162,16.664,16.664,0,0,1,2.045-1.474,9.427,9.427,0,0,1,2.086-1,5.4,5.4,0,0,0-.675.173,11.936,11.936,0,0,0-1.756.712,17.117,17.117,0,0,0-2.4,1.449,21.975,21.975,0,0,0-2.6,2.2,27.4,27.4,0,0,0-2.458,2.774,33.577,33.577,0,0,0-2.1,3.046,37.711,37.711,0,0,0-2.751,5.471,44.621,44.621,0,0,0-1.747,5.452c-.359,1.39-.669,2.848-.931,4.278-.248.708-.495,1.531-.717,2.426.25-7.074-.157-17.533-.157-17.533s-1,10.783-1.367,17.024c0-.074-.008-.147-.011-.221-.077-1.445-.226-3.074-.478-4.7a34.819,34.819,0,0,0-1.03-4.668,22.957,22.957,0,0,0-2.007-4.683,19.757,19.757,0,0,0-3.273-4.319A15.374,15.374,0,0,0,610.9,377.8a12.329,12.329,0,0,0-1.632-.988,6.877,6.877,0,0,0-1.612-.608,7.381,7.381,0,0,1,1.629.931,13.017,13.017,0,0,1,1.532,1.3,16.409,16.409,0,0,1,1.591,1.821,22.9,22.9,0,0,1,2.6,4.516,42.277,42.277,0,0,1,1.508,4.049c.344,1.045.78,2.414,1.174,3.9s.759,3.094,1.039,4.579c.3,1.577.508,3.008.643,4.01-.013.87-.011,1.859,0,2.909-.209-.908-.488-2-.835-3.164a44.123,44.123,0,0,0-1.617-4.533,27.484,27.484,0,0,0-1.807-3.586,20.616,20.616,0,0,0-2.292-3.023,16.805,16.805,0,0,0-3.3-2.823,12.5,12.5,0,0,0-1.728-.925,10.734,10.734,0,0,0-1.5-.523,9.27,9.27,0,0,0-1.428-.264,9.932,9.932,0,0,1,1.2.42,11.315,11.315,0,0,1,2.683,1.622,16.946,16.946,0,0,1,2.8,2.92c.125.162.242.327.362.493-.273.932-.661,2.325-1.051,3.967-.357,1.5-.711,3.211-1,4.936s-.513,3.469-.651,5.031a45.758,45.758,0,0,0-.123,5.37c.06,1.9.227,3.854.451,5.607-.058-.211-.118-.424-.182-.64a28.047,28.047,0,0,0-1.408-3.8,17.735,17.735,0,0,0-1.682-2.95,13.367,13.367,0,0,0-2.209-2.346,12,12,0,0,0-1.517-1.079,10.354,10.354,0,0,0-1.647-.8,9.247,9.247,0,0,0-2.916-.607,8.857,8.857,0,0,0-1.216.031,9.7,9.7,0,0,1,1.052.17,9.458,9.458,0,0,1,2.449.906,11.212,11.212,0,0,1,2.653,2.025,18.031,18.031,0,0,1,2.093,2.616c.58.861,1.26,1.907,1.905,3.033.474.818.928,1.674,1.34,2.506-.34-.594-.707-1.174-1.09-1.71a15.657,15.657,0,0,0-2.043-2.368,13.852,13.852,0,0,0-2.375-1.74,16.207,16.207,0,0,0-3.04-1.383,16.52,16.52,0,0,0-2.635-.644c-.682-.107-1.107-.136-1.106-.138s.354.106.927.32a18.186,18.186,0,0,1,2.22.992,18.7,18.7,0,0,1,2.628,1.682,22.574,22.574,0,0,1,2.323,2.05c.676.675,1.476,1.486,2.255,2.38a31.955,31.955,0,0,1,2.172,2.782c.636.916,1.155,1.779,1.5,2.413.084.152.159.292.224.415.029.142.059.278.087.408.034.156.065.3.1.438-.113-.206-.4-.71-.835-1.39a30.4,30.4,0,0,0-2.482-3.329,24.315,24.315,0,0,0-3.6-3.449,17.679,17.679,0,0,0-1.917-1.287,13.812,13.812,0,0,0-1.709-.839,12.074,12.074,0,0,0-3.9-.838,11.622,11.622,0,0,0-2.29.125,11.858,11.858,0,0,0-2.168.553,13.653,13.653,0,0,0-3.214,1.68c-.754.532-1.176.912-1.178.909s.418-.262,1.145-.632a14.562,14.562,0,0,1,3.025-1.14,12.02,12.02,0,0,1,1.984-.321,11.342,11.342,0,0,1,2.1.032,13.3,13.3,0,0,1,3.916,1.077,24.078,24.078,0,0,1,3.813,2.094,31.051,31.051,0,0,1,3.7,2.936,36.756,36.756,0,0,1,2.665,2.719c.516.585.848,1,.958,1.142.013.056.025.109.037.163a.535.535,0,0,0-.048-.034,10.694,10.694,0,0,0-.831-.847,13.657,13.657,0,0,0-2.908-2.03,13.494,13.494,0,0,0-1.977-.835c-.322-.107-.65-.2-.978-.281-.458-.231-.914-.458-1.361-.667a31.683,31.683,0,0,0-3.369-1.371,24.673,24.673,0,0,0-3.327-.816,23.618,23.618,0,0,0-3.9-.374,15.907,15.907,0,0,0-3.2.278,11.039,11.039,0,0,0-1.281.329s.434-.067,1.157-.092a16.349,16.349,0,0,1,2.87.173,27.258,27.258,0,0,1,3.639.8c1.244.357,2.468.782,3.554,1.179l.729.26c-.075.01-.152.017-.222.028a13.288,13.288,0,0,0-3.222.917,18.86,18.86,0,0,0-3.305,1.8,24.279,24.279,0,0,0-2.412,1.869c-.586.513-.929.85-.929.85s.348-.23.942-.589,1.437-.84,2.429-1.317a22.7,22.7,0,0,1,3.3-1.3,18.2,18.2,0,0,1,3.415-.693,18.865,18.865,0,0,1,3.633-.075c.251.021.505.054.758.089.9.334,1.781.674,2.6,1,1.942.766,3.528,1.466,4.138,1.739l.124.1,0,.02h-.01c-.2-.041-.574-.115-1.091-.189a24.541,24.541,0,0,0-3.011-.241,21.6,21.6,0,0,0-3.618.23,14.537,14.537,0,0,0-2.947.744,12.064,12.064,0,0,0-2.534,1.363,12.369,12.369,0,0,0-2.408,2.209,11.68,11.68,0,0,0-1.447,2.212c-.3.6-.438.99-.441.988s.2-.3.56-.767a12.553,12.553,0,0,1,1.617-1.7,13.352,13.352,0,0,1,2.467-1.693,17.9,17.9,0,0,1,2.742-1.163c.869-.294,1.917-.634,3.029-.92a33.68,33.68,0,0,1,3.353-.69c1.072-.165,2.042-.259,2.745-.3.319-.021.579-.034.772-.04-.235.04-.6.11-1.066.224a21.428,21.428,0,0,0-3.141,1.035,20.2,20.2,0,0,0-3.5,1.872,15.255,15.255,0,0,0-2.555,2.131,13.677,13.677,0,0,0-1.844,2.532,15.724,15.724,0,0,0-1.394,3.26,16.688,16.688,0,0,0-.586,2.815c-.085.725-.1,1.175-.1,1.175s.092-.379.288-1a19.125,19.125,0,0,1,.94-2.4,17.9,17.9,0,0,1,1.686-2.841,20.122,20.122,0,0,1,2.144-2.478,34.571,34.571,0,0,1,2.564-2.328c.656-.535,1.357-1.045,2.055-1.511a11.768,11.768,0,0,0-1.015,1,10.994,10.994,0,0,0-1.523,2.141,11.377,11.377,0,0,0-.878,2.29,16.359,16.359,0,0,0-.488,2.722,20.648,20.648,0,0,0-.053,3.166,28.362,28.362,0,0,1,.7-2.751,22.7,22.7,0,0,1,.913-2.431,20.927,20.927,0,0,1,1.176-2.268c.4-.672.868-1.472,1.422-2.257a15.67,15.67,0,0,1,1.846-2.187,12.629,12.629,0,0,1,1.805-1.473c.286-.19.517-.322.662-.4l.127-.049h.048l0,.017c-.206.578-.711,2.036-1.2,3.739-.319,1.1-.634,2.3-.882,3.42s-.431,2.142-.517,2.884a23.673,23.673,0,0,0-.127,2.755,28.813,28.813,0,0,0,.187,3.151,20.394,20.394,0,0,0,.455,2.552c.16.644.3,1.027.3,1.027s-.038-.352-.06-.939a22.913,22.913,0,0,1,.039-2.336c.057-.932.167-1.979.306-3.02s.3-2.083.452-3.012.268-2.045.389-3.2l.346-3.429c.142-1.421.276-2.639.351-3.308.288,2.286,2.262,15.706,7.223,20.037-.276,4.843-.472,9.166-.472,11.7a81.567,81.567,0,0,1-.545,10.109H606.458v5.453h.289v12.7l19.151.07,3.073.037V468.659h.287v-5.453h-9.7s-.771-6.509-.771-10.02c0-.11,0-.263.008-.456v0c.193-.168,5.036-5.094,4.251-13.894-.553-6.2-1.9-14.038-2.554-17.577.127.25.261.516.4.791.356.72.725,1.5,1.059,2.22s.631,1.367.865,1.821.573,1.022.928,1.638.727,1.275,1.045,1.895.582,1.2.76,1.626.274.7.276.7a14.316,14.316,0,0,0-.284-2.348,20.041,20.041,0,0,0-.555-2.148,20.3,20.3,0,0,0-.79-2.083,12.751,12.751,0,0,0-1.187-2.022,22.654,22.654,0,0,0-1.544-1.951c-.325-.371-.634-.7-.911-.984l.239-.081a17.032,17.032,0,0,1,3.148-.695c.6.333,1.133.662,1.537.923.506.33.814.549.815.547s-.213-.248-.588-.644c-.238-.25-.546-.562-.906-.9a15.56,15.56,0,0,1,1.855-.029,15.26,15.26,0,0,1,2.151.256,17.511,17.511,0,0,1,3.391,1.04,20.955,20.955,0,0,1,2.994,1.494,21.805,21.805,0,0,1,3.13,2.323,28,28,0,0,1,2.31,2.306c.561.629.889,1.038.891,1.038s-.218-.4-.621-1.046A25.249,25.249,0,0,0,639.126,424.459Zm-23.3-18.163c.281.7.54,1.436.775,2.128a16.275,16.275,0,0,0-2.817,3.336,20.736,20.736,0,0,0-2.11,4.362,22.133,22.133,0,0,0-.944,3.688c-.059.359-.1.666-.125.908-.009-.09-.017-.18-.025-.278.026-.155.088-.534.193-1.056.137-.693.349-1.641.619-2.655s.6-2.094.942-3.063.688-1.829.93-2.443.536-1.415.921-2.24a12.93,12.93,0,0,1,1.394-2.381C615.655,406.493,615.739,406.4,615.822,406.3Zm3.79,8.839c.021-.166.044-.344.07-.537.009.22.017.43.028.636Zm-.081-4.455c-.062.838-.094,1.624-.109,2.33-.14-.79-.312-1.624-.505-2.392-.163-.65-.34-1.244-.509-1.725.316-.273.664-.564,1.042-.857C619.476,408.928,619.5,409.817,619.532,410.681Zm-1.831.637c.337.793.7,1.61,1.021,2.352a9.256,9.256,0,0,1,.692,2.708c-.178-.046-.355-.092-.529-.125a6.6,6.6,0,0,0-1.556-.106,6.99,6.99,0,0,0-1.708.3,7.4,7.4,0,0,0-1.614.713,8.151,8.151,0,0,0-1.336,1,9.147,9.147,0,0,0-1.649,2.03c-.15.254-.259.465-.337.625.077-.277.187-.644.339-1.088a25.5,25.5,0,0,1,1.588-3.659,23.261,23.261,0,0,1,4.556-6.034C617.332,410.439,617.512,410.873,617.7,411.318ZM610.631,421a8.732,8.732,0,0,1,.669-.743,9.718,9.718,0,0,1,2.1-1.605,7.891,7.891,0,0,1,1.4-.617,7.3,7.3,0,0,1,1.447-.322,9,9,0,0,1,2.415.075c.206.029.438.071.682.117-.181,2.4-.453,6.119-.742,10.3a13.031,13.031,0,0,0-4.249-5.365,11.321,11.321,0,0,0-2.678-1.462,7.7,7.7,0,0,0-1.029-.31C610.637,421.044,610.634,421.02,610.631,421Zm9.838-4.323-.069.009c-.06-.022-.12-.045-.18-.065.127-.117.273-.253.434-.4C620.59,416.38,620.528,416.532,620.469,416.681Zm3.787-11.432a22.19,22.19,0,0,1,2.333-.811,19.826,19.826,0,0,0-3.166,3.222,19.391,19.391,0,0,0-1.516,2.242,17.113,17.113,0,0,0-1.153,2.4,15.108,15.108,0,0,0-.665,2.2c.064-1.039.138-2.23.215-3.5.138-.424.3-.893.5-1.395a22.742,22.742,0,0,1,1.341-2.876c.127-.23.26-.457.395-.679C623.105,405.755,623.685,405.482,624.256,405.249Zm-13.785,4.309c.09-1.833.217-3.5.294-4.689s.152-2.743.269-4.4.269-3.416.448-5.027c.191-1.761.416-3.337.579-4.409.647.908,1.229,1.846,1.73,2.718.629,1.094,1.375,2.409,2.1,3.8s1.422,2.855,2.017,4.2c.636,1.425,1.147,2.708,1.488,3.6q.008.521.021,1.053a17.848,17.848,0,0,0-1.636,1.067,16.2,16.2,0,0,0-1.222-1.964,7.45,7.45,0,0,1,.637-.545,7.364,7.364,0,0,1,.819-.538,6.738,6.738,0,0,0-.832.291,7.123,7.123,0,0,0-.88.447c-.118-.152-.239-.3-.359-.442a8.451,8.451,0,0,0-1.426-1.355,4.6,4.6,0,0,0-.691-.418,4.936,4.936,0,0,1,.471.515,8.466,8.466,0,0,1,.913,1.458c.12.234.236.487.35.745-.1.072-.192.14-.289.219a11.053,11.053,0,0,0-2,2.182,15.083,15.083,0,0,0-1.458,2.587,14.472,14.472,0,0,0-.9,2.978,23.4,23.4,0,0,0-.4,3.252c-.051.883-.05,1.679-.031,2.3-.069-1.12-.124-2.484-.136-3.942C610.333,413.39,610.381,411.39,610.471,409.558Zm.011,11.474v0h0Zm.166.073a8.293,8.293,0,0,1,1.017.566,12.4,12.4,0,0,1,2.383,2.022,14.973,14.973,0,0,1,2.111,2.978,23.411,23.411,0,0,1,1.239,2.736c.277.7.628,1.608.941,2.615-.167,2.5-.332,5.074-.48,7.557C613.083,435.571,610.895,422.7,610.647,421.1Zm9.9,27.048a11.655,11.655,0,0,1-1.679,2.534c.115-2.973.348-8.068.589-13.591.169,1.209.228,2.05.233,2.048s.049-.38.1-1.017.112-1.536.108-2.569a23.513,23.513,0,0,0-.237-3.321c.118-2.823.233-5.627.327-8.2.643,3.644,1.6,9.526,2.073,14.893A17.113,17.113,0,0,1,620.548,448.152Zm0-28-.164.09-.094-.093c-.076-.4-.126-.655-.144-.742.009-.275.016-.543.023-.807.077-.142.159-.288.245-.443.166.047.333.094.5.15a15.654,15.654,0,0,1,2.019.816A14.556,14.556,0,0,0,620.548,420.156Z" transform="translate(-586.416 -370.416)" fill="#a3a3a3" opacity="0.5" style="mix-blend-mode: multiply;isolation: isolate"/>
        <g id="Сгруппировать_790" data-name="Сгруппировать 790">
          <g id="Сгруппировать_788" data-name="Сгруппировать 788">
            <path id="Контур_3257" data-name="Контур 3257" d="M636.314,441.931s-2.274,29.406-2.274,38.024a81.856,81.856,0,0,1-.543,10.11h2.826s-.771-6.511-.771-10.021c0-2.518,1.309-28.143,1.441-37.417Z" transform="translate(-603.871 -397.311)" fill="#7d5211"/>
            <g id="Сгруппировать_758" data-name="Сгруппировать 758" transform="translate(32.255 10.448)">
              <path id="Контур_3258" data-name="Контур 3258" d="M638.2,424.59s-.647-12.805-.452-18.183,1.479-19.262,1.479-19.262.483,12.388.076,19.319S638.2,424.59,638.2,424.59Z" transform="translate(-637.71 -387.145)" fill="#548720"/>
            </g>
            <g id="Сгруппировать_759" data-name="Сгруппировать 759" transform="translate(32.201 47.894)">
              <path id="Контур_3259" data-name="Контур 3259" d="M659.834,456.833s-.329-.409-.89-1.039a28.5,28.5,0,0,0-2.31-2.306,21.985,21.985,0,0,0-3.131-2.322,21.035,21.035,0,0,0-3-1.494,17.5,17.5,0,0,0-3.391-1.04,15.344,15.344,0,0,0-2.15-.256,15.955,15.955,0,0,0-2.195.048,16.911,16.911,0,0,0-3.665.749,11.691,11.691,0,0,0-1.483.58,10.143,10.143,0,0,1,1.238-.765,14.926,14.926,0,0,1,3.36-1.318,14.443,14.443,0,0,1,4.6-.462,13,13,0,0,1,2.292.349,12.055,12.055,0,0,1,1.986.676,15.69,15.69,0,0,1,3.5,2.184,19.917,19.917,0,0,1,2.837,2.875,25.111,25.111,0,0,1,1.773,2.5C659.616,456.435,659.833,456.833,659.834,456.833Z" transform="translate(-637.624 -447.179)" fill="#2e6502"/>
            </g>
            <g id="Сгруппировать_760" data-name="Сгруппировать 760" transform="translate(32.233 34.247)">
              <path id="Контур_3260" data-name="Контур 3260" d="M652.507,425.3s-.435.137-1.105.42a15.762,15.762,0,0,0-2.471,1.333,19.425,19.425,0,0,0-2.631,2.1c-.8.761-1.5,1.528-2.035,2.117s-1.291,1.413-2.065,2.379a37.638,37.638,0,0,0-2.253,3.124c-.685,1.059-1.261,2.075-1.657,2.827s-.614,1.241-.614,1.241.1-.467.318-1.22a27.756,27.756,0,0,1,1.047-2.925,25.852,25.852,0,0,1,1.8-3.509,17.546,17.546,0,0,1,2.278-2.966,18.734,18.734,0,0,1,2.712-2.289,16.47,16.47,0,0,1,3.086-1.686,14.314,14.314,0,0,1,2.552-.78C652.114,425.339,652.508,425.3,652.507,425.3Z" transform="translate(-637.675 -425.301)" fill="#2e6502"/>
            </g>
            <g id="Сгруппировать_761" data-name="Сгруппировать 761" transform="translate(0.168 43.208)">
              <path id="Контур_3261" data-name="Контур 3261" d="M586.267,440.277a10.527,10.527,0,0,1,1.28-.33,15.89,15.89,0,0,1,3.2-.279,23.829,23.829,0,0,1,3.9.374,24.984,24.984,0,0,1,3.328.817,31.727,31.727,0,0,1,3.368,1.371c1.282.6,2.644,1.317,3.874,2.023s2.336,1.4,3.126,1.921,1.272.868,1.272.868-1.917-.88-4.408-1.862c-1.242-.5-2.628-1.019-3.974-1.506l-3.744-1.338c-1.087-.4-2.311-.823-3.555-1.178a27.052,27.052,0,0,0-3.64-.8,16.328,16.328,0,0,0-2.869-.172A11.191,11.191,0,0,0,586.267,440.277Z" transform="translate(-586.267 -439.668)" fill="#619114"/>
            </g>
            <g id="Сгруппировать_762" data-name="Сгруппировать 762" transform="translate(5.864 50.146)">
              <path id="Контур_3262" data-name="Контур 3262" d="M595.4,458.54s.14-.388.44-.988a11.728,11.728,0,0,1,1.449-2.212,12.261,12.261,0,0,1,2.408-2.209,12.017,12.017,0,0,1,2.534-1.363,14.506,14.506,0,0,1,2.947-.743,21.474,21.474,0,0,1,3.617-.23,24.082,24.082,0,0,1,3.013.24c.769.11,1.242.221,1.242.221s-.434,0-1.136.051-1.673.138-2.744.3a34.077,34.077,0,0,0-3.353.689c-1.112.286-2.159.627-3.029.921a17.923,17.923,0,0,0-2.742,1.163,13.477,13.477,0,0,0-2.468,1.692,12.617,12.617,0,0,0-1.616,1.7C595.594,458.239,595.4,458.54,595.4,458.54Z" transform="translate(-595.399 -450.79)" fill="#619114"/>
            </g>
            <g id="Сгруппировать_763" data-name="Сгруппировать 763" transform="translate(8.959 50.576)">
              <path id="Контур_3263" data-name="Контур 3263" d="M600.362,466.571s.016-.45.1-1.177a16.76,16.76,0,0,1,.586-2.816,15.567,15.567,0,0,1,1.395-3.258,13.614,13.614,0,0,1,1.844-2.534,15.306,15.306,0,0,1,2.555-2.131,20.267,20.267,0,0,1,3.5-1.873,21.541,21.541,0,0,1,3.139-1.034,13.029,13.029,0,0,1,1.356-.269s-.445.159-1.145.478a26.5,26.5,0,0,0-2.661,1.415,27.45,27.45,0,0,0-3.052,2.15c-.974.788-1.846,1.62-2.563,2.33a19.627,19.627,0,0,0-2.144,2.477,17.865,17.865,0,0,0-1.685,2.84,19.09,19.09,0,0,0-.941,2.4C600.456,466.191,600.364,466.572,600.362,466.571Z" transform="translate(-600.362 -451.48)" fill="#327000"/>
            </g>
            <g id="Сгруппировать_764" data-name="Сгруппировать 764" transform="translate(20.659 50.361)">
              <path id="Контур_3264" data-name="Контур 3264" d="M620.059,470.934s-.136-.385-.3-1.028a20.614,20.614,0,0,1-.452-2.552,28.986,28.986,0,0,1-.188-3.152,23.793,23.793,0,0,1,.128-2.755c.085-.742.268-1.77.516-2.883s.563-2.318.881-3.421c.634-2.205,1.3-4.009,1.3-4.008s-.2,1.7-.414,3.858l-.346,3.429c-.121,1.156-.245,2.273-.389,3.2s-.312,1.97-.452,3.011-.248,2.088-.3,3.021a23.16,23.16,0,0,0-.039,2.337C620.021,470.582,620.061,470.934,620.059,470.934Z" transform="translate(-619.12 -451.135)" fill="#327000"/>
            </g>
            <g id="Сгруппировать_765" data-name="Сгруппировать 765" transform="translate(0 39.115)">
              <path id="Контур_3265" data-name="Контур 3265" d="M586,436.384s.425-.377,1.179-.908a13.644,13.644,0,0,1,3.215-1.682,11.816,11.816,0,0,1,2.167-.552,11.671,11.671,0,0,1,2.289-.126,12.117,12.117,0,0,1,3.9.84,13.593,13.593,0,0,1,1.71.839,17.879,17.879,0,0,1,1.917,1.287,24.4,24.4,0,0,1,3.6,3.448,30.321,30.321,0,0,1,2.481,3.329c.581.9.891,1.491.891,1.492s-.362-.473-1-1.2a36.97,36.97,0,0,0-2.665-2.719,30.965,30.965,0,0,0-3.7-2.937,24.051,24.051,0,0,0-3.814-2.095,13.254,13.254,0,0,0-3.913-1.076,11.467,11.467,0,0,0-2.1-.033,12,12,0,0,0-1.984.322,14.44,14.44,0,0,0-3.024,1.138C586.417,436.122,586,436.387,586,436.384Z" transform="translate(-585.998 -433.105)" fill="#327000"/>
            </g>
            <g id="Сгруппировать_766" data-name="Сгруппировать 766" transform="translate(8.859 36.379)">
              <path id="Контур_3266" data-name="Контур 3266" d="M600.2,428.719s.424.031,1.107.138a16.464,16.464,0,0,1,2.633.644,16.041,16.041,0,0,1,3.041,1.382,13.882,13.882,0,0,1,2.376,1.739,15.753,15.753,0,0,1,2.042,2.37,21.414,21.414,0,0,1,1.888,3.228,22.208,22.208,0,0,1,1.141,2.9c.239.765.339,1.257.339,1.257s-.185-.407-.536-1.041a28.171,28.171,0,0,0-1.505-2.413,31.675,31.675,0,0,0-2.172-2.782c-.778-.894-1.579-1.7-2.255-2.38a22.711,22.711,0,0,0-2.323-2.051,18.857,18.857,0,0,0-2.628-1.681,18.583,18.583,0,0,0-2.22-.993C600.555,428.825,600.2,428.72,600.2,428.719Z" transform="translate(-600.201 -428.719)" fill="#619114"/>
            </g>
            <g id="Сгруппировать_767" data-name="Сгруппировать 767" transform="translate(21.954 19.15)">
              <path id="Контур_3267" data-name="Контур 3267" d="M624.42,401.1s-.453,2.618-.805,5.84c-.18,1.611-.334,3.372-.448,5.027s-.195,3.207-.269,4.4-.2,2.857-.294,4.689-.141,3.832-.122,5.685.1,3.559.193,4.8.2,2.013.2,2.013-.2-.667-.437-1.783-.531-2.68-.76-4.452-.4-3.751-.46-5.68a46.157,46.157,0,0,1,.122-5.37c.139-1.562.363-3.305.652-5.03s.644-3.432,1-4.936C623.709,403.289,624.425,401.1,624.42,401.1Z" transform="translate(-621.196 -401.097)" fill="#2e6502"/>
            </g>
            <g id="Сгруппировать_768" data-name="Сгруппировать 768" transform="translate(23.364 33.974)">
              <path id="Контур_3268" data-name="Контур 3268" d="M630.992,424.863a7.425,7.425,0,0,0-.818.537,8.28,8.28,0,0,0-1.615,1.637,13.087,13.087,0,0,0-1.4,2.381c-.383.826-.679,1.627-.919,2.242s-.591,1.47-.93,2.441-.674,2.049-.942,3.063-.483,1.962-.619,2.656-.205,1.135-.205,1.135a24.549,24.549,0,0,1-.048-3.633,23.586,23.586,0,0,1,.4-3.252,14.435,14.435,0,0,1,.9-2.98,15.182,15.182,0,0,1,1.458-2.587,11.065,11.065,0,0,1,2-2.181,7.863,7.863,0,0,1,1.912-1.17A6.582,6.582,0,0,1,630.992,424.863Z" transform="translate(-623.457 -424.863)" fill="#619114"/>
            </g>
            <g id="Сгруппировать_769" data-name="Сгруппировать 769" transform="translate(23.439 33.425)">
              <path id="Контур_3269" data-name="Контур 3269" d="M641.981,423.982s-.549.095-1.414.306a22.968,22.968,0,0,0-3.281,1.065,20.641,20.641,0,0,0-3.638,1.944,24.354,24.354,0,0,0-2.793,2.22,24.753,24.753,0,0,0-2.638,2.752,24,24,0,0,0-2.576,3.9,25.179,25.179,0,0,0-1.586,3.658,16.706,16.706,0,0,0-.478,1.622,13.966,13.966,0,0,1,.178-1.531,21.95,21.95,0,0,1,.945-3.686,20.661,20.661,0,0,1,2.109-4.364,16.074,16.074,0,0,1,3-3.5,17.546,17.546,0,0,1,3.638-2.392,18.85,18.85,0,0,1,4.037-1.438,21.373,21.373,0,0,1,3.208-.492C641.5,423.983,641.981,423.983,641.981,423.982Z" transform="translate(-623.576 -423.982)" fill="#2e6502"/>
            </g>
            <g id="Сгруппировать_770" data-name="Сгруппировать 770" transform="translate(23.439 45.685)">
              <path id="Контур_3270" data-name="Контур 3270" d="M639.32,448.616s-.308-.216-.814-.548-1.212-.763-2.013-1.179a16.6,16.6,0,0,0-2.545-1.078,13.588,13.588,0,0,0-2.26-.52,8.99,8.99,0,0,0-2.414-.077,7.343,7.343,0,0,0-1.448.323,7.912,7.912,0,0,0-1.4.618,9.628,9.628,0,0,0-2.1,1.6,7.738,7.738,0,0,0-.752.854,6.633,6.633,0,0,1,.475-.932,9.145,9.145,0,0,1,1.648-2.033,8.192,8.192,0,0,1,1.337-.995,7.427,7.427,0,0,1,1.613-.714,7.088,7.088,0,0,1,1.708-.295,6.7,6.7,0,0,1,1.556.107,9.778,9.778,0,0,1,2.833,1.045,14.446,14.446,0,0,1,2.393,1.66,19.552,19.552,0,0,1,1.593,1.514C639.108,448.369,639.318,448.618,639.32,448.616Z" transform="translate(-623.576 -443.639)" fill="#619114"/>
            </g>
            <g id="Сгруппировать_771" data-name="Сгруппировать 771" transform="translate(23.382 50.584)">
              <path id="Контур_3271" data-name="Контур 3271" d="M632.684,469.6c-.007,0-.128-1.767-.534-3.862a30.326,30.326,0,0,0-.8-3.2c-.318-1.031-.677-1.962-.959-2.672a23.367,23.367,0,0,0-1.24-2.736,14.856,14.856,0,0,0-2.111-2.977,12.293,12.293,0,0,0-2.383-2.022,7.386,7.386,0,0,0-1.174-.635,6.483,6.483,0,0,1,1.18.339,11.359,11.359,0,0,1,2.678,1.462,12.953,12.953,0,0,1,2.754,2.757,12.668,12.668,0,0,1,1.741,3.24,18.121,18.121,0,0,1,.815,3.348,23.784,23.784,0,0,1,.245,3.374c.005,1.034-.054,1.931-.11,2.568S632.683,469.6,632.684,469.6Z" transform="translate(-623.485 -451.493)" fill="#619114"/>
            </g>
            <g id="Сгруппировать_772" data-name="Сгруппировать 772" transform="translate(9.655 33.067)">
              <path id="Контур_3272" data-name="Контур 3272" d="M601.477,423.446a8.778,8.778,0,0,1,1.216-.03,9.228,9.228,0,0,1,2.917.606,10.486,10.486,0,0,1,1.647.8,12.035,12.035,0,0,1,1.517,1.079,13.36,13.36,0,0,1,2.208,2.345,17.612,17.612,0,0,1,1.682,2.95,28.277,28.277,0,0,1,1.408,3.8,33.729,33.729,0,0,1,.793,3.286c.161.858.225,1.4.224,1.4a43.638,43.638,0,0,0-1.673-4.052c-.518-1.106-1.136-2.305-1.786-3.43s-1.325-2.173-1.907-3.033a18.015,18.015,0,0,0-2.093-2.617,11.155,11.155,0,0,0-2.653-2.025,9.429,9.429,0,0,0-2.448-.907A10.008,10.008,0,0,0,601.477,423.446Z" transform="translate(-601.477 -423.409)" fill="#619114"/>
            </g>
            <g id="Сгруппировать_773" data-name="Сгруппировать 773" transform="translate(33.479)">
              <path id="Контур_3273" data-name="Контур 3273" d="M639.673,405.533c.007,0,.176-3.374.81-7.487.315-2.055.753-4.294,1.288-6.376a44.451,44.451,0,0,1,1.748-5.45,37.36,37.36,0,0,1,2.751-5.47,33.532,33.532,0,0,1,2.1-3.048,27.733,27.733,0,0,1,2.46-2.775,22.158,22.158,0,0,1,2.6-2.2,17.345,17.345,0,0,1,2.4-1.449,12.061,12.061,0,0,1,1.758-.712,5.278,5.278,0,0,1,.676-.172,9.338,9.338,0,0,0-2.088,1,16.884,16.884,0,0,0-2.047,1.473,22.017,22.017,0,0,0-2.234,2.162,28.51,28.51,0,0,0-2.149,2.718c-.68.975-1.318,2.007-1.9,3.049a61.469,61.469,0,0,0-2.879,6c-.763,1.793-1.529,3.848-2.2,5.937s-1.246,4.207-1.7,6.105-.8,3.572-1.03,4.771S639.675,405.533,639.673,405.533Z" transform="translate(-639.673 -370.394)" fill="#619114"/>
            </g>
            <g id="Сгруппировать_774" data-name="Сгруппировать 774" transform="translate(20.546 5.755)">
              <path id="Контур_3274" data-name="Контур 3274" d="M630.836,406.159c-.006,0-.261-2.472-.821-5.445-.28-1.484-.64-3.092-1.039-4.579s-.832-2.857-1.176-3.9a41.992,41.992,0,0,0-1.508-4.05,22.75,22.75,0,0,0-2.6-4.515,16.379,16.379,0,0,0-1.59-1.822,12.924,12.924,0,0,0-1.533-1.3,7.4,7.4,0,0,0-1.629-.931,6.844,6.844,0,0,1,1.612.609,12,12,0,0,1,1.632.987A15.274,15.274,0,0,1,624,382.748a19.746,19.746,0,0,1,3.273,4.319,23.01,23.01,0,0,1,2.007,4.681,35.319,35.319,0,0,1,1.03,4.67c.253,1.625.4,3.255.477,4.7C630.938,404.008,630.829,406.159,630.836,406.159Z" transform="translate(-618.939 -379.62)" fill="#619114"/>
            </g>
            <g id="Сгруппировать_775" data-name="Сгруппировать 775" transform="translate(32.555 15.238)">
              <path id="Контур_3275" data-name="Контур 3275" d="M638.192,420.79c.008,0-.039-2.763.253-6.159a50.084,50.084,0,0,1,.723-5.282,30.081,30.081,0,0,1,1.234-4.543,21.643,21.643,0,0,1,2.3-4.516,15.658,15.658,0,0,1,1.955-2.383,11.591,11.591,0,0,1,2.459-1.882,9.358,9.358,0,0,1,2.65-1.012,8.574,8.574,0,0,1,2.305-.173,7.794,7.794,0,0,1,1.536.245,4.522,4.522,0,0,1,.544.177,6.753,6.753,0,0,0-1.88-.154,8.438,8.438,0,0,0-2.007.332,8.75,8.75,0,0,0-2.255,1.027,10.682,10.682,0,0,0-2.1,1.77,15.235,15.235,0,0,0-1.721,2.286,30.5,30.5,0,0,0-2.332,4.821,47.237,47.237,0,0,0-1.617,4.886c-.472,1.725-.86,3.475-1.162,5.042s-.52,2.947-.667,3.935S638.193,420.79,638.192,420.79Z" transform="translate(-638.192 -394.824)" fill="#54800d"/>
            </g>
            <g id="Сгруппировать_776" data-name="Сгруппировать 776" transform="translate(32.657 30.868)">
              <path id="Контур_3276" data-name="Контур 3276" d="M638.387,436.909s-.014-.172-.025-.479-.014-.758.022-1.313a13.7,13.7,0,0,1,.27-1.942,15.2,15.2,0,0,1,.689-2.31,17.352,17.352,0,0,1,1.153-2.4,19.439,19.439,0,0,1,1.518-2.243,19.869,19.869,0,0,1,3.316-3.346A18.333,18.333,0,0,1,647.2,421.6a15.87,15.87,0,0,1,2.517-1.233c.235-.089.477-.172.728-.245.127-.036.254-.071.384-.1s.26-.059.409-.082a4.779,4.779,0,0,1,1.674.053,8.1,8.1,0,0,1,1.516.469,12.63,12.63,0,0,1,1.359.664,20.68,20.68,0,0,1,2.3,1.524c.677.511,1.263,1,1.745,1.43.965.855,1.519,1.44,1.519,1.439s-.561-.445-1.524-1.1c-.482-.331-1.064-.712-1.729-1.11a23.6,23.6,0,0,0-2.221-1.189,11.7,11.7,0,0,0-2.573-.889,5.025,5.025,0,0,0-1.306-.1,3,3,0,0,0-.6.1c-.207.057-.418.13-.629.211a15.24,15.24,0,0,0-2.415,1.251c-.754.468-1.447.957-2.066,1.419a24.265,24.265,0,0,0-3.7,3.384,18.451,18.451,0,0,0-2.8,4.163,14.555,14.555,0,0,0-1.21,3.7A13.162,13.162,0,0,0,638.387,436.909Z" transform="translate(-638.355 -419.883)" fill="#619114"/>
            </g>
            <g id="Сгруппировать_777" data-name="Сгруппировать 777" transform="translate(32.641 27.207)">
              <path id="Контур_3277" data-name="Контур 3277" d="M638.329,429.267s.012-.43.068-1.125a23.532,23.532,0,0,1,.388-2.708,18.358,18.358,0,0,1,.974-3.227,13.231,13.231,0,0,1,1.422-2.633,12.7,12.7,0,0,1,2.2-2.33,14.279,14.279,0,0,1,3.25-2.026,14.844,14.844,0,0,1,3.016-.987c.8-.167,1.3-.214,1.3-.217s-.43.145-1.1.434a16.857,16.857,0,0,0-5.254,3.56,24.781,24.781,0,0,0-2.142,2.471,20.339,20.339,0,0,0-1.725,2.608,23.232,23.232,0,0,0-1.342,2.877c-.356.919-.614,1.747-.788,2.343S638.33,429.267,638.329,429.267Z" transform="translate(-638.329 -414.014)" fill="#619114"/>
            </g>
            <g id="Сгруппировать_778" data-name="Сгруппировать 778" transform="translate(32.657 40.169)">
              <path id="Контур_3278" data-name="Контур 3278" d="M656.412,438.079s-.329-.264-.9-.617a9.148,9.148,0,0,0-2.33-1.03,9.34,9.34,0,0,0-2.988-.318,15.92,15.92,0,0,0-2.594.374,24.066,24.066,0,0,0-2.754.734,25.852,25.852,0,0,0-3.252,1.348,21.268,21.268,0,0,0-3.244,2.66l.005-.3c.082-.754,1.555-2.172,2.521-2.9a19.45,19.45,0,0,1,3.1-1.933,12.368,12.368,0,0,1,3.3-1.128,11.184,11.184,0,0,1,3.34-.081,9.374,9.374,0,0,1,1.673.377,8.669,8.669,0,0,1,1.468.631,8.947,8.947,0,0,1,1.987,1.473C656.186,437.8,656.409,438.081,656.412,438.079Z" transform="translate(-638.355 -434.795)" fill="#619114"/>
            </g>
            <g id="Сгруппировать_779" data-name="Сгруппировать 779" transform="translate(32.473 45.932)">
              <path id="Контур_3279" data-name="Контур 3279" d="M658.506,450.014s-.356-.263-.958-.632a19.077,19.077,0,0,0-2.428-1.251,26.313,26.313,0,0,0-3.1-1.095c-1.039-.3-2.023-.532-2.779-.722s-1.808-.472-2.986-.73-2.474-.5-3.686-.677-2.34-.293-3.162-.356-1.343-.079-1.343-.079.455-.089,1.209-.185,1.809-.2,3-.236a30.03,30.03,0,0,1,3.807.112,19.677,19.677,0,0,1,3.544.644,23.092,23.092,0,0,1,3.2,1.2,20.488,20.488,0,0,1,2.954,1.668,16.708,16.708,0,0,1,2.015,1.614C658.253,449.727,658.5,450.015,658.506,450.014Z" transform="translate(-638.061 -444.034)" fill="#619114"/>
            </g>
            <g id="Сгруппировать_780" data-name="Сгруппировать 780" transform="translate(17.755 14.927)">
              <path id="Контур_3280" data-name="Контур 3280" d="M614.464,394.326a9.306,9.306,0,0,1,1.428.264,10.842,10.842,0,0,1,1.5.524,12.461,12.461,0,0,1,1.728.925,16.745,16.745,0,0,1,3.3,2.823,20.59,20.59,0,0,1,2.292,3.021,27.483,27.483,0,0,1,1.807,3.587A44.139,44.139,0,0,1,628.139,410c.448,1.5.783,2.888,1,3.9s.319,1.662.319,1.662-.762-2.19-1.957-4.871c-.594-1.342-1.295-2.807-2.016-4.2s-1.466-2.711-2.1-3.8a30.528,30.528,0,0,0-2.236-3.409,17.052,17.052,0,0,0-2.8-2.922,11.355,11.355,0,0,0-2.682-1.621A9.881,9.881,0,0,0,614.464,394.326Z" transform="translate(-614.464 -394.326)" fill="#327000"/>
            </g>
            <g id="Сгруппировать_781" data-name="Сгруппировать 781" transform="translate(32.412 48.967)">
              <path id="Контур_3281" data-name="Контур 3281" d="M644.266,461.436s-.1-.273-.275-.7-.443-1.007-.761-1.626-.689-1.282-1.045-1.895-.692-1.186-.926-1.638-.531-1.1-.866-1.821-.7-1.5-1.059-2.219c-.708-1.445-1.368-2.635-1.37-2.634a23.594,23.594,0,0,1,1.945,1.985,23.047,23.047,0,0,1,1.544,1.952,12.6,12.6,0,0,1,1.185,2.023,20.06,20.06,0,0,1,1.345,4.228A14.021,14.021,0,0,1,644.266,461.436Z" transform="translate(-637.963 -448.901)" fill="#619114"/>
            </g>
            <g id="Сгруппировать_782" data-name="Сгруппировать 782" transform="translate(23.382 50.486)">
              <path id="Контур_3282" data-name="Контур 3282" d="M630.853,471.895c-5.423-4.548-7.326-19.952-7.368-20.461l.132-.1c.011.12,2.164,14.384,7.237,18.637Z" transform="translate(-623.485 -451.336)" fill="#7d5211"/>
            </g>
            <g id="Сгруппировать_783" data-name="Сгруппировать 783" transform="translate(31.357 48.922)">
              <path id="Контур_3283" data-name="Контур 3283" d="M636.6,482.188l-.333-1.634h0a10.317,10.317,0,0,0,2.081-2.948,17.1,17.1,0,0,0,1.52-9.224c-.76-8.522-2.713-18.346-2.732-18.444l.812-1.063c-.157-.87,2.141,10.844,2.9,19.42C641.64,477.094,636.8,482.02,636.6,482.188Z" transform="translate(-636.271 -448.828)" fill="#7d5211"/>
            </g>
            <g id="Сгруппировать_784" data-name="Сгруппировать 784" transform="translate(14.642 50.576)">
              <path id="Контур_3284" data-name="Контур 3284" d="M609.51,465.336a20.568,20.568,0,0,1,.053-3.166,16.531,16.531,0,0,1,.488-2.723,11.332,11.332,0,0,1,.878-2.29,10.99,10.99,0,0,1,1.523-2.141,12.23,12.23,0,0,1,2.384-2.059,11.055,11.055,0,0,1,2.33-1.181,6.326,6.326,0,0,1,1.043-.3,6.768,6.768,0,0,0-.835.49,12.63,12.63,0,0,0-1.8,1.473,15.708,15.708,0,0,0-1.846,2.187c-.555.785-1.024,1.585-1.423,2.255a21.03,21.03,0,0,0-1.176,2.27,22.422,22.422,0,0,0-.912,2.431A28.148,28.148,0,0,0,609.51,465.336Z" transform="translate(-609.473 -451.48)" fill="#548720"/>
            </g>
            <g id="Сгруппировать_785" data-name="Сгруппировать 785" transform="translate(2.027 46.058)">
              <path id="Контур_3285" data-name="Контур 3285" d="M589.248,449.782s.343-.337.927-.85a24.531,24.531,0,0,1,2.413-1.869,18.818,18.818,0,0,1,3.3-1.8,13.385,13.385,0,0,1,3.221-.917,12.438,12.438,0,0,1,3.593.047,13.241,13.241,0,0,1,2.1.507,13.6,13.6,0,0,1,4.885,2.865,9.2,9.2,0,0,1,1.016,1.069,9.648,9.648,0,0,0-1.07-.774,14.688,14.688,0,0,0-6.67-2.248,19,19,0,0,0-3.632.074,18.429,18.429,0,0,0-3.416.694,22.752,22.752,0,0,0-3.3,1.3c-.992.477-1.834.96-2.428,1.318S589.248,449.783,589.248,449.782Z" transform="translate(-589.248 -444.236)" fill="#54800d"/>
            </g>
            <g id="Сгруппировать_786" data-name="Сгруппировать 786" transform="translate(32.303 23.097)">
              <path id="Контур_3286" data-name="Контур 3286" d="M651.382,407.642s-.151-.011-.42-.016a9.7,9.7,0,0,0-1.135.042,8.3,8.3,0,0,0-1.625.319,7.694,7.694,0,0,0-1.808.815,8.7,8.7,0,0,0-1.674,1.355,11.859,11.859,0,0,0-1.36,1.712,21.949,21.949,0,0,0-1.777,3.408,39.663,39.663,0,0,0-1.475,3.9,49.8,49.8,0,0,0-1.3,4.939c-.346,1.635-.592,3.159-.743,4.271s-.213,1.817-.211,1.817a41.735,41.735,0,0,1,.057-5.74,37.5,37.5,0,0,1,.723-5.124,22.482,22.482,0,0,1,1.518-4.684,16.689,16.689,0,0,1,2.539-3.967,11.03,11.03,0,0,1,1.8-1.645,8.749,8.749,0,0,1,2.012-1.094,8.034,8.034,0,0,1,1.935-.472,8.566,8.566,0,0,1,1.565-.034,9.673,9.673,0,0,1,1.017.126C651.254,407.613,651.38,407.642,651.382,407.642Z" transform="translate(-637.788 -407.424)" fill="#2e6502"/>
            </g>
            <g id="Сгруппировать_787" data-name="Сгруппировать 787" transform="translate(26.711 32.496)">
              <path id="Контур_3287" data-name="Контур 3287" d="M628.822,422.493a4.622,4.622,0,0,1,.693.419,8.417,8.417,0,0,1,1.424,1.355,15.184,15.184,0,0,1,2.332,3.8,17.033,17.033,0,0,1,.649,2.1c.209.831.4,1.742.54,2.589a11.054,11.054,0,0,1-.024,3.425,9.2,9.2,0,0,0-.711-2.962c-.326-.742-.686-1.56-1.022-2.353s-.653-1.562-.875-2.219a31.906,31.906,0,0,0-1.622-4.177,8.356,8.356,0,0,0-.911-1.458A4.848,4.848,0,0,0,628.822,422.493Z" transform="translate(-628.822 -422.493)" fill="#548720"/>
            </g>
          </g>
          <g id="Сгруппировать_789" data-name="Сгруппировать 789" transform="translate(19.35 92.754)">
            <rect id="Прямоугольник_866" data-name="Прямоугольник 866" width="22.223" height="18.261" transform="translate(0.289)" fill="#24527b"/>
            <rect id="Прямоугольник_867" data-name="Прямоугольник 867" width="22.8" height="5.452" fill="#1b3d5c"/>
          </g>
        </g>
      </g>
      <g id="Сгруппировать_800" data-name="Сгруппировать 800" transform="translate(159.453 158.565)">
        <g id="Сгруппировать_799" data-name="Сгруппировать 799" transform="translate(7.386)">
          <g id="Сгруппировать_798" data-name="Сгруппировать 798">
            <rect id="Прямоугольник_868" data-name="Прямоугольник 868" width="68.66" height="60.285" fill="#ecc679"/>
            <g id="Сгруппировать_797" data-name="Сгруппировать 797" transform="translate(42.354 45.375)">
              <g id="Сгруппировать_793" data-name="Сгруппировать 793" transform="translate(0 0.187)">
                <g id="Сгруппировать_792" data-name="Сгруппировать 792" transform="translate(0.889)">
                  <path id="Контур_3288" data-name="Контур 3288" d="M499.84,476.263l-.878,1.419h.284v4.357h1.19v-4.357h.284Z" transform="translate(-498.962 -476.263)" fill="#666"/>
                  <path id="Контур_3289" data-name="Контур 3289" d="M504.493,476.263l-.878,1.419h.281v4.357h1.192v-4.357h.283Z" transform="translate(-500.713 -476.263)" fill="#666"/>
                </g>
                <rect id="Прямоугольник_869" data-name="Прямоугольник 869" width="6.439" height="0.636" transform="translate(0 6.442)" fill="#666"/>
              </g>
              <g id="Сгруппировать_795" data-name="Сгруппировать 795" transform="translate(8.155 0.248)">
                <g id="Сгруппировать_794" data-name="Сгруппировать 794" transform="translate(1.342)">
                  <path id="Контур_3290" data-name="Контур 3290" d="M513.884,483.378a1.089,1.089,0,0,1-1.122-1.2h.546c0,.244.075.651.576.651.532,0,.7-.046.7-1.044v-5.425h.548v5.425C515.134,482.819,514.936,483.378,513.884,483.378Z" transform="translate(-512.762 -476.361)" fill="#666"/>
                </g>
                <path id="Контур_3291" data-name="Контур 3291" d="M517.495,479.414a.415.415,0,0,1-.005.079,1,1,0,0,0-.889-.534,1,1,0,0,0-.886.537,2.675,2.675,0,0,1-2.5-.438,1.015,1.015,0,0,0-.831.438.991.991,0,0,0-.886-.537,1,1,0,0,0-.886.525c0-.022,0-.049,0-.07,0-1.2,1.536-2.53,3.44-2.53S517.495,478.218,517.495,479.414Z" transform="translate(-510.61 -476.558)" fill="#666"/>
              </g>
              <g id="Сгруппировать_796" data-name="Сгруппировать 796" transform="translate(17.264)">
                <path id="Контур_3292" data-name="Контур 3292" d="M526.91,477.821l-1.086,1.36a7.468,7.468,0,0,1-.609-3.085,1.3,1.3,0,0,1,0-.132h1.634l-1.248,1.857Z" transform="translate(-525.215 -475.964)" fill="#666"/>
                <path id="Контур_3293" data-name="Контур 3293" d="M530.79,476.1c0,1.612-.509,4.444-2.519,4.444a1.935,1.935,0,0,1-1.612-.866l1.9-2.387h-1.413l.889-1.323h2.752C530.79,476.008,530.79,476.049,530.79,476.1Z" transform="translate(-525.758 -475.964)" fill="#666"/>
                <rect id="Прямоугольник_870" data-name="Прямоугольник 870" width="0.537" height="3.108" transform="translate(2.248 3.802)" fill="#666"/>
                <rect id="Прямоугольник_871" data-name="Прямоугольник 871" width="2.07" height="0.636" transform="translate(1.482 6.629)" fill="#666"/>
              </g>
            </g>
            <rect id="Прямоугольник_872" data-name="Прямоугольник 872" width="8.856" height="60.285" transform="translate(29.999)" fill="#f6e3a7" style="mix-blend-mode: multiply;isolation: isolate"/>
          </g>
        </g>
        <rect id="Прямоугольник_873" data-name="Прямоугольник 873" width="7.386" height="60.256" fill="#d6a55c"/>
        <rect id="Прямоугольник_874" data-name="Прямоугольник 874" width="68.66" height="1.628" transform="translate(7.386)" fill="#ecc679" opacity="0.6" style="mix-blend-mode: screen;isolation: isolate"/>
      </g>
      <path id="Контур_3294" data-name="Контур 3294" d="M443.648,403.216h5.235l8.369,60.256h-13.6Z" transform="translate(-268.067 -244.651)" fill="#c6c6c6" style="mix-blend-mode: multiply;isolation: isolate"/>
      <g id="Сгруппировать_809" data-name="Сгруппировать 809" transform="translate(253.361 238.345)">
        <g id="Сгруппировать_808" data-name="Сгруппировать 808" transform="translate(7.386)">
          <g id="Сгруппировать_807" data-name="Сгруппировать 807">
            <rect id="Прямоугольник_875" data-name="Прямоугольник 875" width="68.661" height="60.285" fill="#ecc679"/>
            <g id="Сгруппировать_806" data-name="Сгруппировать 806" transform="translate(42.355 45.375)">
              <g id="Сгруппировать_802" data-name="Сгруппировать 802" transform="translate(0 0.186)">
                <g id="Сгруппировать_801" data-name="Сгруппировать 801" transform="translate(0.889)">
                  <path id="Контур_3295" data-name="Контур 3295" d="M650.4,604.17l-.879,1.419h.284v4.355h1.19v-4.355h.284Z" transform="translate(-649.521 -604.17)" fill="#666"/>
                  <path id="Контур_3296" data-name="Контур 3296" d="M655.053,604.17l-.878,1.419h.281v4.355h1.193v-4.355h.283Z" transform="translate(-651.272 -604.17)" fill="#666"/>
                </g>
                <rect id="Прямоугольник_876" data-name="Прямоугольник 876" width="6.438" height="0.635" transform="translate(0 6.443)" fill="#666"/>
              </g>
              <g id="Сгруппировать_804" data-name="Сгруппировать 804" transform="translate(8.154 0.248)">
                <g id="Сгруппировать_803" data-name="Сгруппировать 803" transform="translate(1.342)">
                  <path id="Контур_3297" data-name="Контур 3297" d="M664.442,611.285a1.088,1.088,0,0,1-1.121-1.2h.546c0,.242.076.651.576.651.533,0,.7-.047.7-1.047v-5.423h.548v5.423C665.693,610.725,665.5,611.285,664.442,611.285Z" transform="translate(-663.321 -604.268)" fill="#666"/>
                </g>
                <path id="Контур_3298" data-name="Контур 3298" d="M668.055,607.322a.376.376,0,0,1-.006.079,2.814,2.814,0,0,1-2.6-.437,1.006,1.006,0,0,0-.836.445,1.008,1.008,0,0,0-1.667-.007,1,1,0,0,0-1.771-.011.651.651,0,0,1,0-.069c0-1.2,1.537-2.529,3.44-2.529S668.055,606.126,668.055,607.322Z" transform="translate(-661.17 -604.466)" fill="#666"/>
              </g>
              <g id="Сгруппировать_805" data-name="Сгруппировать 805" transform="translate(17.264)">
                <path id="Контур_3299" data-name="Контур 3299" d="M677.469,605.729l-1.085,1.358a7.449,7.449,0,0,1-.609-3.083c0-.047,0-.088,0-.133h1.634l-1.248,1.858Z" transform="translate(-675.775 -603.871)" fill="#666"/>
                <path id="Контур_3300" data-name="Контур 3300" d="M681.35,604c0,1.61-.51,4.443-2.519,4.443a1.932,1.932,0,0,1-1.612-.866l1.9-2.385h-1.412l.889-1.324h2.753C681.35,603.916,681.35,603.956,681.35,604Z" transform="translate(-676.318 -603.871)" fill="#666"/>
                <rect id="Прямоугольник_877" data-name="Прямоугольник 877" width="0.537" height="3.108" transform="translate(2.247 3.802)" fill="#666"/>
                <rect id="Прямоугольник_878" data-name="Прямоугольник 878" width="2.07" height="0.635" transform="translate(1.482 6.63)" fill="#666"/>
              </g>
            </g>
            <rect id="Прямоугольник_879" data-name="Прямоугольник 879" width="8.856" height="60.285" transform="translate(30)" fill="#f6e3a7" style="mix-blend-mode: multiply;isolation: isolate"/>
          </g>
        </g>
        <rect id="Прямоугольник_880" data-name="Прямоугольник 880" width="7.386" height="60.256" transform="translate(0)" fill="#d6a55c"/>
        <rect id="Прямоугольник_881" data-name="Прямоугольник 881" width="68.661" height="1.628" transform="translate(7.386)" fill="#ecc679" opacity="0.6" style="mix-blend-mode: screen;isolation: isolate"/>
      </g>
      <g id="Сгруппировать_818" data-name="Сгруппировать 818" transform="translate(92.841 238.317)">
        <g id="Сгруппировать_817" data-name="Сгруппировать 817" transform="translate(7.386)">
          <g id="Сгруппировать_816" data-name="Сгруппировать 816">
            <rect id="Прямоугольник_882" data-name="Прямоугольник 882" width="68.661" height="60.286" fill="#ecc679"/>
            <g id="Сгруппировать_815" data-name="Сгруппировать 815" transform="translate(42.355 45.375)">
              <g id="Сгруппировать_811" data-name="Сгруппировать 811" transform="translate(0 0.187)">
                <g id="Сгруппировать_810" data-name="Сгруппировать 810" transform="translate(0.889)">
                  <path id="Контур_3301" data-name="Контур 3301" d="M393.046,604.125l-.878,1.42h.284V609.9h1.19v-4.355h.284Z" transform="translate(-392.168 -604.125)" fill="#666"/>
                  <path id="Контур_3302" data-name="Контур 3302" d="M397.7,604.125l-.878,1.42h.282V609.9h1.192v-4.355h.283Z" transform="translate(-393.919 -604.125)" fill="#666"/>
                </g>
                <rect id="Прямоугольник_883" data-name="Прямоугольник 883" width="6.439" height="0.637" transform="translate(0 6.442)" fill="#666"/>
              </g>
              <g id="Сгруппировать_813" data-name="Сгруппировать 813" transform="translate(8.154 0.248)">
                <g id="Сгруппировать_812" data-name="Сгруппировать 812" transform="translate(1.343)">
                  <path id="Контур_3303" data-name="Контур 3303" d="M407.089,611.241a1.089,1.089,0,0,1-1.121-1.2h.546c0,.243.075.651.576.651.532,0,.7-.046.7-1.045v-5.425h.547v5.425C408.339,610.681,408.141,611.241,407.089,611.241Z" transform="translate(-405.968 -604.223)" fill="#666"/>
                </g>
                <path id="Контур_3304" data-name="Контур 3304" d="M410.7,607.279a.409.409,0,0,1-.005.078,2.813,2.813,0,0,1-2.6-.435,1,1,0,0,0-.836.445,1.009,1.009,0,0,0-1.668-.007.991.991,0,0,0-.886-.536,1,1,0,0,0-.886.525.664.664,0,0,1,0-.069c0-1.2,1.537-2.531,3.442-2.531S410.7,606.081,410.7,607.279Z" transform="translate(-403.815 -604.421)" fill="#666"/>
              </g>
              <g id="Сгруппировать_814" data-name="Сгруппировать 814" transform="translate(17.264)">
                <path id="Контур_3305" data-name="Контур 3305" d="M420.116,605.684l-1.086,1.359a7.462,7.462,0,0,1-.609-3.084,1.317,1.317,0,0,1,0-.133h1.634l-1.248,1.858Z" transform="translate(-418.421 -603.826)" fill="#666"/>
                <path id="Контур_3306" data-name="Контур 3306" d="M424,603.959c0,1.612-.51,4.443-2.519,4.443a1.932,1.932,0,0,1-1.612-.865l1.9-2.386h-1.413l.889-1.324h2.753C424,603.871,424,603.911,424,603.959Z" transform="translate(-418.964 -603.826)" fill="#666"/>
                <rect id="Прямоугольник_884" data-name="Прямоугольник 884" width="0.537" height="3.107" transform="translate(2.248 3.803)" fill="#666"/>
                <rect id="Прямоугольник_885" data-name="Прямоугольник 885" width="2.07" height="0.637" transform="translate(1.481 6.628)" fill="#666"/>
              </g>
            </g>
            <rect id="Прямоугольник_886" data-name="Прямоугольник 886" width="8.855" height="60.286" transform="translate(30)" fill="#f6e3a7" style="mix-blend-mode: multiply;isolation: isolate"/>
          </g>
        </g>
        <rect id="Прямоугольник_887" data-name="Прямоугольник 887" width="7.386" height="60.256" fill="#d6a55c"/>
        <rect id="Прямоугольник_888" data-name="Прямоугольник 888" width="68.661" height="1.629" transform="translate(7.386)" fill="#ecc679" opacity="0.6" style="mix-blend-mode: screen;isolation: isolate"/>
      </g>
      <path id="Контур_3307" data-name="Контур 3307" d="M594.208,531.123h5.235l8.368,60.256-13.6,0Z" transform="translate(-324.718 -292.778)" fill="#c6c6c6" style="mix-blend-mode: multiply;isolation: isolate"/>
      <g id="Сгруппировать_826" data-name="Сгруппировать 826" transform="translate(92.841 144.575)">
        <g id="Сгруппировать_825" data-name="Сгруппировать 825" transform="translate(7.386)">
          <rect id="Прямоугольник_889" data-name="Прямоугольник 889" width="68.661" height="93.742" fill="#ecc679"/>
          <g id="Сгруппировать_824" data-name="Сгруппировать 824" transform="translate(4.239 11.997)">
            <g id="Сгруппировать_820" data-name="Сгруппировать 820" transform="translate(0 0.187)">
              <g id="Сгруппировать_819" data-name="Сгруппировать 819" transform="translate(0.889)">
                <path id="Контур_3308" data-name="Контур 3308" d="M331.937,400.32l-.878,1.419h.284V406.1h1.19v-4.357h.284Z" transform="translate(-331.059 -400.32)" fill="#666"/>
                <path id="Контур_3309" data-name="Контур 3309" d="M336.59,400.32l-.878,1.419h.281V406.1h1.193v-4.357h.283Z" transform="translate(-332.81 -400.32)" fill="#666"/>
              </g>
              <rect id="Прямоугольник_890" data-name="Прямоугольник 890" width="6.439" height="0.635" transform="translate(0 6.442)" fill="#666"/>
            </g>
            <g id="Сгруппировать_822" data-name="Сгруппировать 822" transform="translate(8.154 0.247)">
              <g id="Сгруппировать_821" data-name="Сгруппировать 821" transform="translate(1.342)">
                <path id="Контур_3310" data-name="Контур 3310" d="M345.979,407.434a1.088,1.088,0,0,1-1.121-1.2h.546c0,.243.075.651.576.651.533,0,.7-.047.7-1.046v-5.424h.548v5.424C347.23,406.875,347.032,407.434,345.979,407.434Z" transform="translate(-344.858 -400.417)" fill="#666"/>
              </g>
              <path id="Контур_3311" data-name="Контур 3311" d="M349.591,403.471a.37.37,0,0,1-.006.079,1,1,0,0,0-.889-.533.994.994,0,0,0-.886.536,2.68,2.68,0,0,1-2.5-.438,1.016,1.016,0,0,0-.831.438.992.992,0,0,0-.886-.536,1,1,0,0,0-.886.525.644.644,0,0,1,0-.07c0-1.2,1.537-2.529,3.441-2.529S349.591,402.276,349.591,403.471Z" transform="translate(-342.706 -400.615)" fill="#666"/>
            </g>
            <g id="Сгруппировать_823" data-name="Сгруппировать 823" transform="translate(17.264)">
              <path id="Контур_3312" data-name="Контур 3312" d="M359.006,401.878l-1.085,1.359a7.464,7.464,0,0,1-.609-3.084,1.148,1.148,0,0,1,0-.132h1.634l-1.248,1.857Z" transform="translate(-357.311 -400.021)" fill="#666"/>
              <path id="Контур_3313" data-name="Контур 3313" d="M362.887,400.153c0,1.61-.51,4.443-2.519,4.443a1.934,1.934,0,0,1-1.612-.866l1.9-2.386h-1.413l.889-1.324h2.753C362.887,400.065,362.887,400.106,362.887,400.153Z" transform="translate(-357.855 -400.021)" fill="#666"/>
              <rect id="Прямоугольник_891" data-name="Прямоугольник 891" width="0.537" height="3.107" transform="translate(2.248 3.802)" fill="#666"/>
              <rect id="Прямоугольник_892" data-name="Прямоугольник 892" width="2.07" height="0.635" transform="translate(1.482 6.629)" fill="#666"/>
            </g>
          </g>
          <rect id="Прямоугольник_893" data-name="Прямоугольник 893" width="8.855" height="93.742" transform="translate(30)" fill="#f6e3a7" style="mix-blend-mode: multiply;isolation: isolate"/>
        </g>
        <rect id="Прямоугольник_894" data-name="Прямоугольник 894" width="7.386" height="93.697" fill="#d6a55c"/>
        <rect id="Прямоугольник_895" data-name="Прямоугольник 895" width="68.661" height="2.532" transform="translate(7.386)" fill="#ecc679" opacity="0.6" style="mix-blend-mode: screen;isolation: isolate"/>
      </g>
      <g id="Сгруппировать_835" data-name="Сгруппировать 835" transform="translate(168.888 218.85)">
        <g id="Сгруппировать_834" data-name="Сгруппировать 834" transform="translate(9.771)">
          <g id="Сгруппировать_833" data-name="Сгруппировать 833">
            <rect id="Прямоугольник_896" data-name="Прямоугольник 896" width="90.832" height="79.753" fill="#ecc679"/>
            <g id="Сгруппировать_832" data-name="Сгруппировать 832" transform="translate(56.032 60.027)">
              <g id="Сгруппировать_828" data-name="Сгруппировать 828" transform="translate(0 0.248)">
                <g id="Сгруппировать_827" data-name="Сгруппировать 827" transform="translate(1.176)">
                  <path id="Контур_3314" data-name="Контур 3314" d="M541.462,596.5l-1.162,1.877h.375v5.763h1.575v-5.763h.376Z" transform="translate(-540.3 -596.504)" fill="#666"/>
                  <path id="Контур_3315" data-name="Контур 3315" d="M547.617,596.5l-1.161,1.877h.372v5.763h1.578v-5.763h.374Z" transform="translate(-542.616 -596.504)" fill="#666"/>
                </g>
                <rect id="Прямоугольник_897" data-name="Прямоугольник 897" width="8.518" height="0.842" transform="translate(0 8.522)" fill="#666"/>
              </g>
              <g id="Сгруппировать_830" data-name="Сгруппировать 830" transform="translate(10.786 0.328)">
                <g id="Сгруппировать_829" data-name="Сгруппировать 829" transform="translate(1.776)">
                  <path id="Контур_3316" data-name="Контур 3316" d="M560.04,605.916a1.44,1.44,0,0,1-1.484-1.585h.722c0,.321.1.859.762.859.7,0,.93-.06.93-1.382v-7.175h.724v7.175C561.694,605.175,561.431,605.916,560.04,605.916Z" transform="translate(-558.556 -596.633)" fill="#666"/>
                </g>
                <path id="Контур_3317" data-name="Контур 3317" d="M564.818,600.672a.471.471,0,0,1-.008.106,3.728,3.728,0,0,1-3.442-.578,1.323,1.323,0,0,0-1.106.589,1.333,1.333,0,0,0-2.206-.01,1.314,1.314,0,0,0-1.172-.71,1.329,1.329,0,0,0-1.172.7.786.786,0,0,1,0-.093c0-1.584,2.033-3.346,4.553-3.346S564.818,599.089,564.818,600.672Z" transform="translate(-555.708 -596.894)" fill="#666"/>
              </g>
              <g id="Сгруппировать_831" data-name="Сгруппировать 831" transform="translate(22.839)">
                <path id="Контур_3318" data-name="Контур 3318" d="M577.272,598.563l-1.435,1.8a9.863,9.863,0,0,1-.806-4.079c0-.064,0-.117.006-.177H577.2l-1.652,2.456Z" transform="translate(-575.031 -596.107)" fill="#666"/>
                <path id="Контур_3319" data-name="Контур 3319" d="M582.405,596.284c0,2.131-.674,5.877-3.332,5.877a2.561,2.561,0,0,1-2.133-1.145l2.514-3.157h-1.867l1.175-1.752H582.4C582.405,596.167,582.405,596.221,582.405,596.284Z" transform="translate(-575.749 -596.107)" fill="#666"/>
                <rect id="Прямоугольник_898" data-name="Прямоугольник 898" width="0.711" height="4.11" transform="translate(2.973 5.032)" fill="#666"/>
                <rect id="Прямоугольник_899" data-name="Прямоугольник 899" width="2.739" height="0.842" transform="translate(1.96 8.769)" fill="#666"/>
              </g>
            </g>
            <rect id="Прямоугольник_900" data-name="Прямоугольник 900" width="11.715" height="79.753" transform="translate(39.687)" fill="#f6e3a7" style="mix-blend-mode: multiply;isolation: isolate"/>
          </g>
        </g>
        <rect id="Прямоугольник_901" data-name="Прямоугольник 901" width="9.771" height="79.714" fill="#ecc679"/>
        <path id="Контур_3320" data-name="Контур 3320" d="M432.917,579.583l16.475.066-6.7-79.78h-9.771Z" transform="translate(-432.917 -499.869)" fill="#c6c6c6" style="mix-blend-mode: multiply;isolation: isolate"/>
        <rect id="Прямоугольник_902" data-name="Прямоугольник 902" width="90.832" height="2.154" transform="translate(9.771)" fill="#ecc679" opacity="0.6" style="mix-blend-mode: screen;isolation: isolate"/>
      </g>
    </g>
  </g>
</svg>
