<svg xmlns="http://www.w3.org/2000/svg" width="589.157" height="759.272" viewBox="0 0 589.157 759.272">
  <g id="img_boat_storge" transform="translate(-988.567 -762.508)">
    <g id="Сгруппировать_850" data-name="Сгруппировать 850" transform="translate(988.567 1329.795)">
      <path id="Контур_3396" data-name="Контур 3396" d="M1134.389,955.23c-4.459,13.054-33.154,30.161-37.928,53.655-4.552,22.38,14.891,44.177-.282,54.339-14.732,9.864-106.7,27.347-107.611,32.883h589.157c-6.186-4.893-19.083-32.883-48.305-57.843-96.058-82.049-387.2-118.834-404.174-119.057C1125.244,919.206,1139.446,940.427,1134.389,955.23Z" transform="translate(-988.567 -904.727)" fill="#0b4784"/>
      <path id="Контур_3397" data-name="Контур 3397" d="M1095.418,952c-14.891,24.01-28.658,23.568-28.658,41.935,0,22.358,13.885,26.835,14.048,46.3.115,13.915-63.319,30.411-72.49,38.99l482.693.605c0-7.006-13.767-23.5-32.872-41.552-84.489-79.8-360.391-112.6-375.364-112.828C1082.776,925.451,1112.979,923.687,1095.418,952Z" transform="translate(-934.987 -887.845)" fill="#09366d"/>
      <path id="Контур_3398" data-name="Контур 3398" d="M1079.6,979c-5.914,30.161-18.786,26.371-21.351,43.988-5.974,40.965,7.522,32.5,9.092,45.985,1.607,13.822-36.8,29.133-44.5,37.713h393.3c-5.068-5.684-14.613-18.852-30.3-32.883-78.021-69.794-333.57-158.278-346.141-158.5C1039.708,915.306,1085.968,946.555,1079.6,979Z" transform="translate(-895.572 -915.306)" fill="#062a5e"/>
    </g>
    <g id="Сгруппировать_983" data-name="Сгруппировать 983" transform="translate(1090.342 762.508)">
      <g id="Сгруппировать_851" data-name="Сгруппировать 851" transform="translate(333.654 637.008)">
        <path id="Контур_3399" data-name="Контур 3399" d="M1197.458,965.6a.409.409,0,0,1-.249-.018c-.769-.282-76.9-28.417-90.986-30.614a.442.442,0,0,1,.138-.873c14.171,2.213,90.388,30.377,91.156,30.659a.443.443,0,0,1,.26.568A.453.453,0,0,1,1197.458,965.6Z" transform="translate(-1105.85 -934.085)" fill="#003e67"/>
      </g>
      <g id="Сгруппировать_852" data-name="Сгруппировать 852" transform="translate(336.265 634.24)">
        <path id="Контур_3400" data-name="Контур 3400" d="M1198.664,974.941a.445.445,0,0,1-.512-.282c-.966-2.654-3.843-9.786-5.521-10.9-9.014-6-85-29.315-85.766-29.549a.443.443,0,1,1,.26-.846c3.133.961,76.874,23.594,86,29.66,2.224,1.477,5.495,10.332,5.862,11.338a.441.441,0,0,1-.263.564Z" transform="translate(-1106.553 -933.34)" fill="#003e67"/>
      </g>
      <g id="Сгруппировать_853" data-name="Сгруппировать 853" transform="translate(407.017 612.773)">
        <path id="Контур_3401" data-name="Контур 3401" d="M1128.384,975.459l-.078.011a.443.443,0,0,1-.46-.42l-2.235-47.032a.442.442,0,0,1,.884-.041l2.235,47.028A.446.446,0,0,1,1128.384,975.459Z" transform="translate(-1125.61 -927.558)" fill="#003e67"/>
      </g>
      <g id="Сгруппировать_854" data-name="Сгруппировать 854" transform="translate(99.105 0)">
        <path id="Контур_3402" data-name="Контур 3402" d="M1067.278,1331.153a.329.329,0,0,1-.086.011.446.446,0,0,1-.456-.431l-14.71-550.322-9.3-17.253a.443.443,0,0,1,.78-.419l9.349,17.346a.449.449,0,0,1,.056.2l14.709,550.426A.441.441,0,0,1,1067.278,1331.153Z" transform="translate(-1042.674 -762.508)" fill="#003e67"/>
      </g>
      <g id="Сгруппировать_855" data-name="Сгруппировать 855" transform="translate(123.166 562.003)">
        <path id="Контур_3403" data-name="Контур 3403" d="M1170.867,923.611a.4.4,0,0,1-.115.008.442.442,0,0,1-.424-.461l.379-8.368-121.088,5.747a.444.444,0,0,1-.464-.424.436.436,0,0,1,.424-.46l121.57-5.77a.45.45,0,0,1,.334.127.468.468,0,0,1,.13.334l-.4,8.855A.448.448,0,0,1,1170.867,923.611Z" transform="translate(-1049.155 -913.883)" fill="#003e67"/>
      </g>
      <g id="Сгруппировать_856" data-name="Сгруппировать 856" transform="translate(306.586 156.186)">
        <path id="Контур_3404" data-name="Контур 3404" d="M1191.116,1305.879l-.026.007a.444.444,0,0,1-.509-.364l-78.638-472.877L1098.6,805.21a.442.442,0,0,1,.795-.386l13.369,27.5a.441.441,0,0,1,.037.119l78.649,472.94A.439.439,0,0,1,1191.116,1305.879Z" transform="translate(-1098.559 -804.576)" fill="#003e67"/>
      </g>
      <g id="Сгруппировать_857" data-name="Сгруппировать 857" transform="translate(396.677 656.167)">
        <path id="Контур_3405" data-name="Контур 3405" d="M1129.111,948.911a.983.983,0,0,1-.115.019.877.877,0,0,1-.958-.8c-.2-2.135-.966-5.9-2.191-6.909a.7.7,0,0,0-.564-.2.537.537,0,0,0-.461.263c-.579.935.026,3.675.642,5.32a.884.884,0,0,1-1.656.62c-.3-.8-1.726-4.882-.486-6.872a2.294,2.294,0,0,1,1.782-1.092,2.5,2.5,0,0,1,1.868.6c2.19,1.8,2.766,7.47,2.825,8.108A.884.884,0,0,1,1129.111,948.911Z" transform="translate(-1122.824 -939.246)" fill="#003e67"/>
      </g>
      <g id="Сгруппировать_858" data-name="Сгруппировать 858" transform="translate(407.553 659.315)">
        <path id="Контур_3406" data-name="Контур 3406" d="M1132.043,949.759l-.115.015a.883.883,0,0,1-.962-.8c-.2-2.135-.961-5.9-2.187-6.906a.713.713,0,0,0-.568-.2.529.529,0,0,0-.457.26c-.579.932.026,3.675.639,5.324a.884.884,0,0,1-1.656.62c-.3-.8-1.723-4.882-.487-6.876a2.313,2.313,0,0,1,1.782-1.088,2.524,2.524,0,0,1,1.871.6c2.191,1.808,2.762,7.474,2.822,8.112A.884.884,0,0,1,1132.043,949.759Z" transform="translate(-1125.755 -940.094)" fill="#003e67"/>
      </g>
      <g id="Сгруппировать_859" data-name="Сгруппировать 859" transform="translate(1.748 548.961)">
        <path id="Контур_3407" data-name="Контур 3407" d="M1147.08,937.09c-9.942-2.647-38.415-9.612-51.386-12.876s-79.243-13.845-79.243-13.845,43.022,10.188,49.942,11.854,57.487,14.29,61.3,15.345,52.62,15.266,57.621,16.707,197.465,62.165,201.686,63.587,56.963,19.206,56.963,19.206-2.718-5.009-6.49-6.445c-2.462-.94-85-29.308-89.6-30.989s-137.394-43.687-148.647-47.27C1185.291,947.927,1159.247,940.324,1147.08,937.09Z" transform="translate(-1016.451 -910.37)" fill="#003e67"/>
      </g>
      <g id="Сгруппировать_860" data-name="Сгруппировать 860" transform="translate(1.209 542.083)">
        <path id="Контур_3408" data-name="Контур 3408" d="M1228.229,958.521a.442.442,0,0,1-.23-.008c-.441-.141-44.711-14.023-89.672-25.372-43.089-10.882-114.149-22.61-120.631-23.672l-.509,6.022a.441.441,0,1,1-.88-.074l.545-6.5a.456.456,0,0,1,.171-.312.447.447,0,0,1,.341-.086c.757.123,76.188,12.4,121.181,23.761s89.278,25.246,89.72,25.383a.442.442,0,0,1-.037.854Z" transform="translate(-1016.306 -908.518)" fill="#003e67"/>
      </g>
      <g id="Сгруппировать_861" data-name="Сгруппировать 861" transform="translate(1.61 543.818)">
        <path id="Контур_3409" data-name="Контур 3409" d="M1205.463,954a.425.425,0,0,1-.215,0c-.538-.152-53.811-15.292-74.391-20.5s-113.154-23.449-114.086-23.635a.441.441,0,1,1,.171-.865c.932.182,93.536,18.43,114.13,23.642s73.882,20.356,74.416,20.509a.44.44,0,0,1-.026.854Z" transform="translate(-1016.414 -908.985)" fill="#003e67"/>
      </g>
      <g id="Сгруппировать_862" data-name="Сгруппировать 862" transform="translate(1.362 549.262)">
        <path id="Контур_3410" data-name="Контур 3410" d="M1122.358,935.9c-25.48-6.891-106.011-25.454-106.011-25.454s17.606,17.6,26.542,23.743,83.438,47.173,132.668,65.9,150.993,48.03,165.547,52.3,30.838,8.146,30.838,8.146l73.982-19.287-2.658-4.656s-57.171-19.294-80.082-26.942c-10.93-3.646-60.052-18.641-106.293-33.332C1206.179,960.215,1157.8,945.484,1122.358,935.9Z" transform="translate(-1016.347 -910.451)" fill="#00b7cd"/>
      </g>
      <g id="Сгруппировать_863" data-name="Сгруппировать 863" transform="translate(1.21 548.58)">
        <path id="Контур_3411" data-name="Контур 3411" d="M1437.235,1039.44a.444.444,0,0,1-.241-.011c-1.622-.557-162.837-55.846-231.644-75.686-105.469-30.414-187.9-52.39-188.718-52.6a.443.443,0,0,1,.226-.857c.821.219,83.256,22.194,188.736,52.612,68.829,19.848,230.065,75.144,231.684,75.7a.442.442,0,0,1-.045.85Z" transform="translate(-1016.306 -910.267)" fill="#003e67"/>
      </g>
      <path id="Контур_3412" data-name="Контур 3412" d="M1426.607,1041.192l-409.724-130.9a.443.443,0,1,0-.271.843l409.728,130.9a.484.484,0,0,0,.231.011.436.436,0,0,0,.323-.3A.442.442,0,0,0,1426.607,1041.192Z" transform="translate(-1015.098 -361.687)" fill="#003e67"/>
      <g id="Сгруппировать_864" data-name="Сгруппировать 864" transform="translate(1.209 548.58)">
        <path id="Контур_3413" data-name="Контур 3413" d="M1414.823,1045.054a.472.472,0,0,1-.227-.007c-1.314-.4-132.174-40.052-193.514-59.425-61.522-19.428-203.071-73.952-204.493-74.5a.444.444,0,0,1,.319-.828c1.422.549,142.944,55.062,204.437,74.483,61.341,19.373,192.193,59.024,193.511,59.421a.442.442,0,0,1-.033.854Z" transform="translate(-1016.306 -910.267)" fill="#003e67"/>
      </g>
      <g id="Сгруппировать_865" data-name="Сгруппировать 865" transform="translate(2.176 548.953)">
        <path id="Контур_3414" data-name="Контур 3414" d="M1401.627,1048.249a.377.377,0,0,1-.212,0c-1.366-.375-137.245-37.791-203.3-60.869-68.42-23.9-180.171-75.645-181.292-76.165a.444.444,0,0,1-.215-.586.438.438,0,0,1,.587-.216c1.121.52,112.834,52.244,181.214,76.132,66.026,23.07,201.875,60.479,203.241,60.854a.442.442,0,0,1,.308.542A.434.434,0,0,1,1401.627,1048.249Z" transform="translate(-1016.566 -910.368)" fill="#003e67"/>
      </g>
      <g id="Сгруппировать_866" data-name="Сгруппировать 866" transform="translate(1.209 548.579)">
        <path id="Контур_3415" data-name="Контур 3415" d="M1390.1,1051.733a.419.419,0,0,1-.215,0c-1.132-.316-113.952-31.944-194.1-58.712-88.164-29.445-178.348-81.4-179.25-81.927a.442.442,0,0,1,.442-.765c.9.523,91.012,52.438,179.091,81.853,80.13,26.761,192.931,58.382,194.06,58.7a.442.442,0,0,1,.308.546A.434.434,0,0,1,1390.1,1051.733Z" transform="translate(-1016.306 -910.267)" fill="#003e67"/>
      </g>
      <g id="Сгруппировать_867" data-name="Сгруппировать 867" transform="translate(1.574 548.969)">
        <path id="Контур_3416" data-name="Контур 3416" d="M1379.709,1054.218a.506.506,0,0,1-.2,0c-.958-.219-97.1-22.3-195.764-57.832-94.632-34.078-162.34-79.941-167.225-85.272a.442.442,0,0,1,.65-.6c4.867,5.309,72.389,51.012,166.872,85.038,98.619,35.516,194.7,57.579,195.664,57.8a.445.445,0,0,1,0,.865Z" transform="translate(-1016.404 -910.372)" fill="#003e67"/>
      </g>
      <g id="Сгруппировать_868" data-name="Сгруппировать 868" transform="translate(91.609 0.443)">
        <path id="Контур_3417" data-name="Контур 3417" d="M1048.592,762.627c1.816-.412-.056,510.953,2.009,586.554.145,5.29-10.032,6.007-9.946-3.141C1040.763,1334.479,1042.842,763.923,1048.592,762.627Z" transform="translate(-1040.655 -762.627)" fill="#fff"/>
      </g>
      <g id="Сгруппировать_869" data-name="Сгруппировать 869" transform="translate(91.576 0.993)">
        <path id="Контур_3418" data-name="Контур 3418" d="M1043.415,1351.805s-2.628-2.128-2.754-4.7.546-106.241.568-110.333.464-85.978.6-89.4.587-91.521.706-97.167.746-75.679.731-84.285.85-60,.843-65.547.939-67.158,1.214-70.956,3.011-66.639,3.007-66.635l-1.039,45.235s-1.222,56.347-1.289,84.678-.041,76.7-.193,111.394-.761,110.837-.78,132.363-.78,104.5-.787,132.6S1043.415,1351.805,1043.415,1351.805Z" transform="translate(-1040.646 -762.775)" fill="#00b7cd"/>
      </g>
      <g id="Сгруппировать_870" data-name="Сгруппировать 870" transform="translate(91.167 0.002)">
        <path id="Контур_3419" data-name="Контур 3419" d="M1047.858,1353.692a5.765,5.765,0,0,1-4.852-1.129c-1.144-.925-2.5-2.751-2.469-6.2.007-1.036.033-6.542.078-15.716.215-46.579.873-188.32,2.128-318.426,2.405-248.87,4.978-249.453,6.077-249.7a.469.469,0,0,1,.383.086c.349.282.75.6.936,77.234.115,46.468.123,109.026.13,175.256.015,138.482.033,295.441,1.1,334.394A4.174,4.174,0,0,1,1047.858,1353.692Zm.832-588.2c-3.023,23.486-5.625,227.01-7.192,565.151-.045,9.174-.067,14.687-.078,15.719-.03,3.1,1.147,4.708,2.142,5.505a4.885,4.885,0,0,0,4.1.958,3.35,3.35,0,0,0,2.817-3.315c-1.065-38.968-1.084-195.932-1.1-334.421C1049.369,896.122,1049.357,783.28,1048.69,765.5Z" transform="translate(-1040.536 -762.508)" fill="#003e67"/>
      </g>
      <g id="Сгруппировать_871" data-name="Сгруппировать 871" transform="translate(100.052 20.521)">
        <path id="Контур_3420" data-name="Контур 3420" d="M1128.416,1037.529c41.24,163.542,55.073,271.235,55.073,271.235l-136.74-34.342-3.82-506.387s24.518,52.772,37.631,94.821S1108.149,957.139,1128.416,1037.529Z" transform="translate(-1042.929 -768.035)" fill="#ff310a"/>
      </g>
      <g id="Сгруппировать_872" data-name="Сгруппировать 872" transform="translate(261.392 641.465)">
        <path id="Контур_3421" data-name="Контур 3421" d="M1140.65,955.364s22.547-4.537,26.045-10.407,2.424-8.7,2.424-8.7-36.789,11.019-42.087,8.286-40.646-9.256-40.646-9.256l7.1,31.472S1135.189,956.627,1140.65,955.364Z" transform="translate(-1086.386 -935.286)" fill="#fff"/>
      </g>
      <g id="Сгруппировать_873" data-name="Сгруппировать 873" transform="translate(260.951 641.022)">
        <path id="Контур_3422" data-name="Контур 3422" d="M1093.907,967.513a.43.43,0,0,1-.33-.056.439.439,0,0,1-.2-.278l-7.1-31.472a.448.448,0,0,1,.112-.4.46.46,0,0,1,.4-.13c1.445.267,35.467,6.571,40.765,9.3,1.244.642,5.365.81,17.943-2.027,11.294-2.547,23.695-6.252,23.817-6.289a.429.429,0,0,1,.542.267c.044.126,1.106,3.1-2.462,9.085-2.911,4.889-18.047,8.762-24.418,10.2-1.2.271-1.919.416-1.919.416-5.38,1.244-46.728,11.29-47.143,11.391Zm-6.62-31.346,6.854,30.381c4.474-1.088,41.634-10.11,46.731-11.29.015,0,.724-.145,1.912-.412,4.882-1.1,21.04-5.064,23.854-9.79,2.588-4.344,2.595-6.965,2.473-7.915-2.354.694-13.321,3.891-23.415,6.167-10.455,2.357-16.518,3-18.545,1.953C1122.365,942.794,1092.155,937.077,1087.288,936.167Z" transform="translate(-1086.267 -935.166)" fill="#003e67"/>
      </g>
      <g id="Сгруппировать_874" data-name="Сгруппировать 874" transform="translate(261.381 642.509)">
        <path id="Контур_3423" data-name="Контур 3423" d="M1093.493,966s-2.023-10.392,5.58-16.361c6.935-5.447,37.067-4.333,37.067-4.333l-49.757-9.734Z" transform="translate(-1086.383 -935.567)" fill="#00b7cd"/>
      </g>
      <g id="Сгруппировать_875" data-name="Сгруппировать 875" transform="translate(1.106 548.727)">
        <path id="Контур_3424" data-name="Контур 3424" d="M1016.278,910.307a435.8,435.8,0,0,0,80.134,50.492c46.1,22.228,107.31,45.874,141.7,57.75S1371,1055.932,1371,1055.932l2.785,35.115c-2.614,1.8-81.935-17.52-140.249-35.218-45.885-13.926-122.918-29.363-161.385-75.359C1040.7,942.863,1018.688,914.294,1016.278,910.307Z" transform="translate(-1016.278 -910.307)" fill="#003e67"/>
      </g>
      <g id="Сгруппировать_877" data-name="Сгруппировать 877" transform="translate(15.916 567.19)">
        <g id="Сгруппировать_876" data-name="Сгруппировать 876">
          <path id="Контур_3425" data-name="Контур 3425" d="M1361.374,1052.057c-.917-.23-92.947-23.375-171.606-51.628-82.64-29.683-138.207-56.9-167.418-82.209l-2.082-2.941c28.951,25.8,87.265,54.672,169.8,84.318,78.619,28.238,170.6,51.371,171.525,51.6Z" transform="translate(-1020.267 -915.28)" fill="#fff"/>
        </g>
      </g>
      <g id="Сгруппировать_878" data-name="Сгруппировать 878" transform="translate(143.535 586.834)">
        <path id="Контур_3426" data-name="Контур 3426" d="M1277.878,967.967s3.282,2.658,2.324,3.78-58.879,17.513-65.944,16.993-96.54-26.252-109.464-29.983-47.767-13.651-50-23.46c-1.99-8.747,15.768-11.413,20.943-12.278,4.456-.746,16.96-1.816,25.721-2.109,6.07-.2,22.963-.338,22.963-.338s-41.232,8.019-36.376,17.5,26.167,18.259,34.041,21.017,87.359,24.392,93.592,23.895S1274.559,969.322,1277.878,967.967Z" transform="translate(-1054.642 -920.571)" fill="#fff"/>
      </g>
      <g id="Сгруппировать_879" data-name="Сгруппировать 879" transform="translate(143.487 587.23)">
        <path id="Контур_3427" data-name="Контур 3427" d="M1118.786,920.775s-28.227-.861-46.434,2.543c-6.609,1.237-14.613,2.621-17.36,9.594s10.956,11.761,12.24,12.367c2.674,1.251,30.277,10.5,33.184,11.911s-33.864-16.436-29.252-24.578C1076.918,922.457,1118.786,920.775,1118.786,920.775Z" transform="translate(-1054.628 -920.678)" fill="#00b7cd"/>
      </g>
      <g id="Сгруппировать_880" data-name="Сгруппировать 880" transform="translate(100.534 25.036)">
        <path id="Контур_3428" data-name="Контур 3428" d="M1080.486,1172.742c21.972,96.748,102.651,132.723,102.651,132.723l-136.867-33.477-3.212-502.737S1058.084,1074.086,1080.486,1172.742Z" transform="translate(-1043.059 -769.251)" fill="#991904"/>
      </g>
      <g id="Сгруппировать_881" data-name="Сгруппировать 881" transform="translate(143.095 586.392)">
        <path id="Контур_3429" data-name="Контур 3429" d="M1226.609,987.491c-6.427,1.452-10.485,2.128-12.063,2.009-7.455-.549-105.387-28.792-109.553-29.994l-.553-.16c-14.212-4.1-47.492-13.7-49.753-23.627a5.87,5.87,0,0,1,.768-4.581c1.875-2.974,6.613-5.335,14.074-7.02,2.373-.535,4.537-.9,5.97-1.129l.486-.082c4.244-.709,16.688-1.812,25.781-2.116,6.006-.2,22.806-.338,22.974-.338a.441.441,0,0,1,.445.4.471.471,0,0,1-.357.479c-.014,0-1.593.312-4.047.865-8.684,1.957-29.185,7.173-32.059,13.31a2.871,2.871,0,0,0,.037,2.684c4.422,8.632,23.323,17.137,33.792,20.8,7.255,2.539,87.117,24.378,93.41,23.872,1.392-.111,5.4-.909,11.6-2.306,17.449-3.935,48.031-11.68,50.473-12.675a.442.442,0,0,1,.446.067c.256.208,2.528,2.087,2.658,3.494a1.22,1.22,0,0,1-.275.917C1279.949,973.428,1244.745,983.4,1226.609,987.491Zm-156.886-62.51c-7.225,1.63-11.772,3.857-13.521,6.627a4.96,4.96,0,0,0-.654,3.913c2.146,9.415,36.284,19.265,49.137,22.974l.553.16c4.162,1.2,102.009,29.423,109.374,29.965,1.025.074,3.9-.208,11.8-1.99,19.462-4.388,52.442-13.919,53.815-14.888a.529.529,0,0,0,.026-.219c-.071-.731-1.281-1.993-2.142-2.729-3.843,1.333-32.92,8.692-50.362,12.623v0c-6.323,1.425-10.266,2.205-11.717,2.324-6.349.508-86.5-21.374-93.774-23.921-1.166-.408-28.591-10.113-34.286-21.232a3.757,3.757,0,0,1-.052-3.46c2.911-6.223,21.492-11.272,32.459-13.755-5.435.052-14.509.16-18.585.3-9.059.3-21.448,1.4-25.665,2.1l-.49.082C1074.223,924.094,1072.074,924.45,1069.723,924.981Z" transform="translate(-1054.523 -920.452)" fill="#003e67"/>
      </g>
      <g id="Сгруппировать_882" data-name="Сгруппировать 882" transform="translate(127.323 593.988)">
        <path id="Контур_3430" data-name="Контур 3430" d="M1071.153,922.5c-.419.39-21.57,9.609-20.861,16.095.665,6.092,7.767,10.328,40.442,23.95s100.275,36.97,100.275,36.97l-6-26.6s-39.662-11.142-52.842-14.921-58.062-15.99-64.21-25.335C1063.883,926.463,1071.153,922.5,1071.153,922.5Z" transform="translate(-1050.274 -922.498)" fill="#fff"/>
      </g>
      <g id="Сгруппировать_883" data-name="Сгруппировать 883" transform="translate(232.441 636.238)">
        <path id="Контур_3431" data-name="Контур 3431" d="M1078.588,933.878l29.615,8.164,6,26.6s-4.061-13.235-12.237-21.01C1091.727,937.9,1078.588,933.878,1078.588,933.878Z" transform="translate(-1078.588 -933.878)" fill="#00b7cd"/>
      </g>
      <g id="Сгруппировать_884" data-name="Сгруппировать 884" transform="translate(126.879 593.546)">
        <path id="Контур_3432" data-name="Контур 3432" d="M1191.429,1000.267a.448.448,0,0,1-.241-.011c-.676-.234-67.986-23.508-100.3-36.978-32.794-13.674-40.022-17.992-40.713-24.314-.642-5.888,14.769-13.414,19.829-15.886.5-.241.865-.423,1.077-.535.119-.07.19-.108.19-.108a.433.433,0,0,1,.568.13.444.444,0,0,1-.059.583,1.178,1.178,0,0,1-.264.167c-.779.475-3.315,2.2-3.909,4.837a5.853,5.853,0,0,0,1.043,4.581c5.647,8.58,45.8,19.989,60.913,24.284l3.052.869c13.028,3.738,52.441,14.81,52.839,14.921a.448.448,0,0,1,.312.327l6,26.6a.442.442,0,0,1-.137.427A.4.4,0,0,1,1191.429,1000.267Zm-123.1-75.37c-11.825,5.966-17.631,10.663-17.271,13.971.642,5.9,7.778,10.087,40.175,23.594,30.44,12.69,91.992,34.1,99.5,36.7l-5.77-25.573c-3.419-.961-40.108-11.268-52.586-14.851l-3.052-.869c-16.633-4.726-55.586-15.793-61.411-24.648a6.7,6.7,0,0,1-1.166-5.265A7.358,7.358,0,0,1,1068.325,924.9Z" transform="translate(-1050.155 -922.379)" fill="#003e67"/>
      </g>
      <g id="Сгруппировать_885" data-name="Сгруппировать 885" transform="translate(129.424 598.807)">
        <path id="Контур_3433" data-name="Контур 3433" d="M1051.117,932.874c.939-2.859,12.627-9.612,12.482-9.044-.237.947-.364,3.735.334,4.819.23.364-10.354,9.512-11.423,9.449S1050.3,935.331,1051.117,932.874Z" transform="translate(-1050.84 -923.796)" fill="#003e67"/>
      </g>
      <g id="Сгруппировать_886" data-name="Сгруппировать 886" transform="translate(130.732 598.88)">
        <path id="Контур_3434" data-name="Контур 3434" d="M1062.566,923.928c.438-.873-.286,3.583.412,4.667.23.364-10.361,9.608-11.423,9.449C1049.107,937.687,1059.77,929.456,1062.566,923.928Z" transform="translate(-1051.193 -923.816)" fill="#082b3f"/>
      </g>
      <g id="Сгруппировать_887" data-name="Сгруппировать 887" transform="translate(134.227 606.186)">
        <path id="Контур_3435" data-name="Контур 3435" d="M1052.16,935.167c-.586-1.024,8.933-10.221,9.6-9.322a40.072,40.072,0,0,0,7.158,5.164c1.225.513-3.545,10.5-4.314,10.978S1053.155,936.9,1052.16,935.167Z" transform="translate(-1052.134 -925.784)" fill="#003e67"/>
      </g>
      <g id="Сгруппировать_888" data-name="Сгруппировать 888" transform="translate(143.839 606.176)">
        <path id="Контур_3436" data-name="Контур 3436" d="M1054.741,925.852c-.386-.739,5.506,4.466,7.158,5.164,1.225.512-3.546,10.5-4.314,10.978S1059.334,934.636,1054.741,925.852Z" transform="translate(-1054.723 -925.781)" fill="#082b3f"/>
      </g>
      <g id="Сгруппировать_889" data-name="Сгруппировать 889" transform="translate(151.702 613.705)">
        <path id="Контур_3437" data-name="Контур 3437" d="M1059.707,927.839c1.214.527,10.655,4.058,11.932,4.578,1.362.557,1.255,13.547.089,13.121-.98-.357-13.566-5.643-14.6-6.46S1058.129,927.156,1059.707,927.839Z" transform="translate(-1056.841 -927.809)" fill="#003e67"/>
      </g>
      <g id="Сгруппировать_890" data-name="Сгруппировать 890" transform="translate(154.634 613.755)">
        <path id="Контур_3438" data-name="Контур 3438" d="M1057.706,927.9c-1.114-.713,10.515,3.965,11.791,4.485,1.362.557,1.255,13.547.089,13.12C1068.606,945.145,1071.751,936.843,1057.706,927.9Z" transform="translate(-1057.631 -927.822)" fill="#082b3f"/>
      </g>
      <g id="Сгруппировать_891" data-name="Сгруппировать 891" transform="translate(170.306 620.341)">
        <path id="Контур_3439" data-name="Контур 3439" d="M1062.784,929.6c1.6.367,13.544,4.577,14.9,4.964,1.273.364.524,13.989-.23,13.718-1.277-.457-14.372-4.774-14.906-5.926C1061.863,940.886,1061.31,929.262,1062.784,929.6Z" transform="translate(-1061.852 -929.596)" fill="#003e67"/>
      </g>
      <g id="Сгруппировать_892" data-name="Сгруппировать 892" transform="translate(171.097 620.437)">
        <path id="Контур_3440" data-name="Контур 3440" d="M1062.162,929.7c-1.437-.791,13.588,4.407,14.947,4.793,1.273.364.524,13.989-.23,13.718C1075.6,947.758,1075.906,937.263,1062.162,929.7Z" transform="translate(-1062.065 -929.622)" fill="#082b3f"/>
      </g>
      <g id="Сгруппировать_893" data-name="Сгруппировать 893" transform="translate(189.927 626.597)">
        <path id="Контур_3441" data-name="Контур 3441" d="M1068.1,931.292c1.258.334,15.808,5.1,17.085,5.6.758.293,1.273,15.14.371,14.869-1.14-.345-17.149-5.725-17.721-6.865C1067.237,943.71,1066.51,930.868,1068.1,931.292Z" transform="translate(-1067.137 -931.281)" fill="#003e67"/>
      </g>
      <g id="Сгруппировать_894" data-name="Сгруппировать 894" transform="translate(190.822 626.586)">
        <path id="Контур_3442" data-name="Контур 3442" d="M1067.442,931.3c-1.237-.405,15.808,5.1,17.085,5.6.758.293,1.273,15.14.371,14.869C1083.759,951.422,1082.266,936.119,1067.442,931.3Z" transform="translate(-1067.378 -931.279)" fill="#082b3f"/>
      </g>
      <g id="Сгруппировать_895" data-name="Сгруппировать 895" transform="translate(212.042 633.565)">
        <path id="Контур_3443" data-name="Контур 3443" d="M1074.049,933.166c1.318.264,17.553,4.882,18.627,6.3s9.756,17.758,8.818,18.274-27.04-8.662-27.5-10.024S1072.189,932.791,1074.049,933.166Z" transform="translate(-1073.094 -933.158)" fill="#003e67"/>
      </g>
      <g id="Сгруппировать_896" data-name="Сгруппировать 896" transform="translate(212.938 633.646)">
        <path id="Контур_3444" data-name="Контур 3444" d="M1073.387,933.236c-1.17-.661,17.69,4.719,18.767,6.141s9.756,17.758,8.818,18.273S1089.144,942.143,1073.387,933.236Z" transform="translate(-1073.335 -933.18)" fill="#082b3f"/>
      </g>
      <g id="Сгруппировать_897" data-name="Сгруппировать 897" transform="translate(286.746 651.111)">
        <path id="Контур_3445" data-name="Контур 3445" d="M1093.215,937.884c.386.1,3.2,26,3.2,26l2.87.787.809-25.009Z" transform="translate(-1093.215 -937.884)" fill="#003e67"/>
      </g>
      <g id="Сгруппировать_898" data-name="Сгруппировать 898" transform="translate(289.627 652.303)">
        <path id="Контур_3446" data-name="Контур 3446" d="M1093.991,938.2c.39.1,1.675,24.8,1.675,24.8l.925.252.739-24.2Z" transform="translate(-1093.991 -938.205)" fill="#082b3f"/>
      </g>
      <g id="Сгруппировать_899" data-name="Сгруппировать 899" transform="translate(354.977 640.949)">
        <path id="Контур_3447" data-name="Контур 3447" d="M1111.593,936.7c.33,1.336,5.216,18.01,5.822,19.38.46,1.036,2.024.865,2.172.2s-1.7-21.129-1.7-21.129Z" transform="translate(-1111.593 -935.147)" fill="#003e67"/>
      </g>
      <g id="Сгруппировать_900" data-name="Сгруппировать 900" transform="translate(358.857 641.213)">
        <path id="Контур_3448" data-name="Контур 3448" d="M1112.638,935.767c.331,1.337,2.109,12.489,2.614,14.814.241,1.11,1.351,6.17,1.5,5.5s-1.682-20.865-1.682-20.865Z" transform="translate(-1112.638 -935.218)" fill="#082b3f"/>
      </g>
      <path id="Контур_3449" data-name="Контур 3449" d="M1124.275,945.7l-9.984,1.942s.684,4.637-.007,5.762c-.483.783-3.757,3.048-6.3,2.376s-27.036-6.8-27.478-7.656-5.291-23.089-5.291-23.089,3.078.041,22.068-2.636c16.944-2.387,54.925-.821,54.925-.821l4.864,21.56-25.287,6.69Z" transform="translate(-855.294 -332.378)" fill="#003e67"/>
      <path id="Контур_3450" data-name="Контур 3450" d="M1110.29,956.175a5.121,5.121,0,0,1-2.436.037c-.542-.141-2.072-.512-4.144-1.014-19.406-4.7-22.962-5.8-23.259-6.382-.446-.869-4.507-19.733-5.316-23.505a.445.445,0,0,1,.486-.535c.111.012,3.081.267,21.6-2.343,16.788-2.365,54.862-1.106,55.244-1.092a.443.443,0,0,1,.416.345l4.864,21.556a.446.446,0,0,1-.32.527l-25.283,6.69a.433.433,0,0,1-.327-.041l-7.373-4.05-9.53,1.722c.91,3.4,1.029,5.342.356,5.766l-.122.078A16.722,16.722,0,0,1,1110.29,956.175Zm-29.074-7.823c1.344.813,16.276,4.429,22.7,5.985,2.083.505,3.616.876,4.162,1.021a4.29,4.29,0,0,0,2.016-.044,16.26,16.26,0,0,0,4.582-2.124l.126-.082c.219-.386-.256-3.041-.869-5.246a.462.462,0,0,1,.052-.357.469.469,0,0,1,.3-.2l10.158-1.838a.449.449,0,0,1,.294.048l7.354,4.043,24.7-6.538-4.692-20.809c-3.843-.122-38.886-1.14-54.751,1.1-14.739,2.075-19.71,2.346-21.233,2.361C1078,934.419,1080.782,947.105,1081.216,948.353Z" transform="translate(-855.54 -332.586)" fill="#003e67"/>
      <g id="Сгруппировать_901" data-name="Сгруппировать 901" transform="translate(243.56 602.22)">
        <path id="Контур_3451" data-name="Контур 3451" d="M1081.583,924.715l4.431,19.644,6.123,1.66-4.615-20.459Z" transform="translate(-1081.583 -924.715)" fill="#00b7cd"/>
      </g>
      <g id="Сгруппировать_902" data-name="Сгруппировать 902" transform="translate(294.138 224.327)">
        <path id="Контур_3452" data-name="Контур 3452" d="M1105.245,822.93s34.39,81.994,42.242,106.768c10.232,32.293,29.828,86.635,44.04,165.566,4.336,24.076,14.424,118.229,14.424,118.229s-110.756-24.006-110.744-30.655,5.323-174.583,5.323-174.583Z" transform="translate(-1095.206 -822.93)" fill="#ff310a"/>
      </g>
      <g id="Сгруппировать_903" data-name="Сгруппировать 903" transform="translate(299.642 231.697)">
        <path id="Контур_3453" data-name="Контур 3453" d="M1104.3,824.915s6.2,266.067,37,322.039c21.964,39.9,60.167,57.906,60.167,57.906s-81.348-12.99-104.155-28.7c-2.112-1.455,1.834-68.361,1.834-68.361Z" transform="translate(-1096.688 -824.915)" fill="#991904"/>
      </g>
      <g id="Сгруппировать_904" data-name="Сгруппировать 904" transform="translate(190.56 584.721)">
        <path id="Контур_3454" data-name="Контур 3454" d="M1139.279,920s-47.67,1.593-50.611,2.124-20.152,4.663-21.2,9.088,3.223,8.031,6.182,9.809a37.647,37.647,0,0,0,7.255,3.479c.264.1,5.469-6.274,14.732-11.142,2.046-1.073.189-4.752,2.625-5.591C1102.346,926.354,1132.971,920.481,1139.279,920Z" transform="translate(-1067.307 -920.002)" fill="#fff"/>
      </g>
      <g id="Сгруппировать_905" data-name="Сгруппировать 905" transform="translate(190.161 586.225)">
        <path id="Контур_3455" data-name="Контур 3455" d="M1102.433,920.407s-23.523.612-32.463,6.423c-8.587,5.58,5.038,14.227,10.458,16.585.932.4-5.628-8.25-3-12.664C1082.545,922.137,1102.433,920.407,1102.433,920.407Z" transform="translate(-1067.2 -920.407)" fill="#00b7cd"/>
      </g>
      <g id="Сгруппировать_906" data-name="Сгруппировать 906" transform="translate(190.114 584.274)">
        <path id="Контур_3456" data-name="Контур 3456" d="M1081.346,945.259h0a.527.527,0,0,1-.274-.018,37.644,37.644,0,0,1-7.321-3.512c-2.321-1.392-7.592-5.186-6.386-10.288,1.114-4.708,18.092-8.669,20.026-9.1.665-.149,1.184-.286,1.526-.32,2.781-.278,48.212-2.049,50.637-2.131a.441.441,0,0,1,.156.869l-.07.015c-4.979.375-26.353,4.337-36.544,6.635-2.183.49-3.69.876-4.362,1.106-.935.323-1.069,1.158-1.177,2.491-.092,1.151-.2,2.45-1.388,3.077a57.434,57.434,0,0,0-13.7,10.236C1081.684,945.085,1081.551,945.211,1081.346,945.259Zm6.237-22.06c-6.341,1.433-18.786,5.216-19.591,8.625-1.1,4.663,4.533,8.138,6.215,9.148a36.319,36.319,0,0,0,6.968,3.36c.152-.137.4-.386.668-.646a58.348,58.348,0,0,1,13.911-10.388c.761-.4.836-1.31.921-2.365.1-1.277.219-2.721,1.767-3.256.713-.245,2.213-.628,4.456-1.132,6.571-1.485,19.554-4,28.468-5.491-13.778.483-40.282,1.559-42.406,1.942C1088.631,923.054,1088.233,923.054,1087.583,923.2Z" transform="translate(-1067.187 -919.882)" fill="#003e67"/>
      </g>
      <g id="Сгруппировать_907" data-name="Сгруппировать 907" transform="translate(297.342 597.248)">
        <path id="Контур_3457" data-name="Контур 3457" d="M1127.122,933.638c14.654,4.849,35.775,12.456,36.027,13.607.372,1.7-11.067,7.459-11.067,7.459l-56.013-17.409,1.389-13.919S1111.31,928.407,1127.122,933.638Z" transform="translate(-1096.069 -923.376)" fill="#fff"/>
      </g>
      <g id="Сгруппировать_908" data-name="Сгруппировать 908" transform="translate(299.462 597.526)">
        <path id="Контур_3458" data-name="Контур 3458" d="M1096.781,923.451s64.578,22.514,64.719,23.16c.2.894-1.448.928-1.448.928a234.521,234.521,0,0,0-43.453-13.566c-15.14-3.107-19.959-2.057-19.959-2.057Z" transform="translate(-1096.64 -923.451)" fill="#00b7cd"/>
      </g>
      <g id="Сгруппировать_909" data-name="Сгруппировать 909" transform="translate(296.901 596.805)">
        <path id="Контур_3459" data-name="Контур 3459" d="M1152.5,955.458a.48.48,0,0,1-.23-.011l-56.013-17.408a.437.437,0,0,1-.308-.464l1.385-13.918a.443.443,0,0,1,.594-.372c.137.048,14.026,5.086,29.649,10.258.36.119,35.879,11.921,36.321,13.934.4,1.838-7.767,6.166-11.3,7.945A.963.963,0,0,1,1152.5,955.458ZM1096.866,937.3l55.5,17.245c5.079-2.565,10.451-5.855,10.663-6.835-1.44-1.333-20.193-8.194-35.723-13.332-13.911-4.6-26.445-9.1-29.144-10.072Z" transform="translate(-1095.95 -923.257)" fill="#003e67"/>
      </g>
      <g id="Сгруппировать_910" data-name="Сгруппировать 910" transform="translate(324.694 679.356)">
        <path id="Контур_3460" data-name="Контур 3460" d="M1109.721,955.157a1.013,1.013,0,0,1-.115.019.885.885,0,0,1-.958-.8c-.2-2.134-.961-5.9-2.187-6.905a.717.717,0,0,0-.567-.2.528.528,0,0,0-.457.264c-.583.932.022,3.672.639,5.32a.884.884,0,1,1-1.655.62c-.3-.8-1.723-4.882-.487-6.872a2.308,2.308,0,0,1,1.783-1.092,2.512,2.512,0,0,1,1.871.6c2.191,1.8,2.762,7.47,2.822,8.109A.884.884,0,0,1,1109.721,955.157Z" transform="translate(-1103.436 -945.492)" fill="#003e67"/>
      </g>
      <g id="Сгруппировать_911" data-name="Сгруппировать 911" transform="translate(335.57 682.504)">
        <path id="Контур_3461" data-name="Контур 3461" d="M1112.652,956.005a1.063,1.063,0,0,1-.115.018.885.885,0,0,1-.961-.8c-.193-2.135-.962-5.9-2.187-6.906a.708.708,0,0,0-.565-.2.524.524,0,0,0-.46.263c-.579.928.026,3.672.638,5.32a.883.883,0,1,1-1.656.616c-.3-.8-1.723-4.878-.483-6.872a2.3,2.3,0,0,1,1.779-1.088,2.514,2.514,0,0,1,1.871.6c2.19,1.808,2.766,7.473,2.822,8.112A.884.884,0,0,1,1112.652,956.005Z" transform="translate(-1106.366 -946.34)" fill="#003e67"/>
      </g>
      <g id="Сгруппировать_912" data-name="Сгруппировать 912" transform="translate(86.997 596.712)">
        <path id="Контур_3462" data-name="Контур 3462" d="M1045.7,932.9c-.037.007-.074.015-.115.018a.886.886,0,0,1-.961-.8c-.193-2.135-.962-5.9-2.187-6.906a.708.708,0,0,0-.565-.2.537.537,0,0,0-.46.264c-.579.936.026,3.676.642,5.32a.884.884,0,1,1-1.656.62c-.3-.8-1.726-4.882-.486-6.872a2.293,2.293,0,0,1,1.782-1.091,2.5,2.5,0,0,1,1.868.6c2.19,1.8,2.766,7.47,2.825,8.108A.885.885,0,0,1,1045.7,932.9Z" transform="translate(-1039.413 -923.232)" fill="#003e67"/>
      </g>
      <g id="Сгруппировать_913" data-name="Сгруппировать 913" transform="translate(121.241 567.323)">
        <path id="Контур_3463" data-name="Контур 3463" d="M1054.924,924.981c-.037.008-.078.015-.115.019a.889.889,0,0,1-.962-.8c-.2-2.135-.962-5.9-2.187-6.905a.715.715,0,0,0-.568-.2.521.521,0,0,0-.456.26c-.583.935.022,3.676.639,5.324a.883.883,0,0,1-.516,1.136.893.893,0,0,1-1.14-.516c-.3-.8-1.723-4.882-.486-6.876a2.311,2.311,0,0,1,1.782-1.088,2.52,2.52,0,0,1,1.872.6c2.19,1.808,2.762,7.474,2.822,8.112A.888.888,0,0,1,1054.924,924.981Z" transform="translate(-1048.636 -915.316)" fill="#003e67"/>
      </g>
      <g id="Сгруппировать_914" data-name="Сгруппировать 914" transform="translate(250.826 611.404)">
        <path id="Контур_3464" data-name="Контур 3464" d="M1130.527,927.313l44.63,13.871-40.364,10.982-50.6-13.295a13.927,13.927,0,0,0,5.68-2c1.218-.858-1.162-5.8.052-6.163,2.54-.754,8.992-2.321,9.984-1.942s6.508,3.995,7.432,3.776S1127.68,928.167,1130.527,927.313Z" transform="translate(-1081.758 -926.853)" fill="#00b7cd"/>
        <path id="Контур_3465" data-name="Контур 3465" d="M1136.579,952.958l-.115-.03-52.924-13.908,2.391-.256a13.562,13.562,0,0,0,5.477-1.919c.382-.267.036-1.916-.171-2.9-.342-1.63-.635-3.037.349-3.33,1.232-.364,3.1-.839,4.752-1.214,4.645-1.047,5.3-.795,5.517-.713a25.172,25.172,0,0,1,2.276,1.255c1.518.891,4.347,2.543,4.908,2.5l.108-.026c.378-.086,1.444-.316,2.925-.638,3.371-.732,8.9-1.935,13.358-2.941,3.676-.831,5.948-1.373,6.749-1.615l.13-.037,46.207,14.36Zm-48.606-13.685,48.6,12.772,38.783-10.555-43.052-13.377c-.921.26-3.167.794-6.683,1.589-4.462,1.006-9.991,2.209-13.362,2.944-1.481.319-2.543.553-2.922.638l-.111.022c-.679.156-2.261-.676-5.543-2.595-.95-.553-1.845-1.076-2.146-1.192-.063-.026-.746-.212-5,.746-1.641.371-3.483.843-4.7,1.2a6.465,6.465,0,0,0,.263,2.3c.345,1.645.672,3.2-.185,3.8A12.2,12.2,0,0,1,1087.973,939.273Z" transform="translate(-1083.54 -927.189)" fill="#003e67"/>
      </g>
      <g id="Сгруппировать_915" data-name="Сгруппировать 915" transform="translate(303.861 621.114)">
        <path id="Контур_3466" data-name="Контур 3466" d="M1158.385,929.806c.839-.189,2.351,13.113,2.351,13.113l-62.2,15.014-.713-12.526S1155.367,930.49,1158.385,929.806Z" transform="translate(-1097.825 -929.804)" fill="#fff"/>
      </g>
      <g id="Сгруппировать_916" data-name="Сгруппировать 916" transform="translate(355.478 674.968)">
        <path id="Контур_3467" data-name="Контур 3467" d="M1184.207,944.428c1.633.538,11.643,25.944,11.235,28.153-.208,1.114-12.412,7.255-35.571,14.49-18.363,5.74-45.239,11.817-45.239,11.817l-2.784-35.114Z" transform="translate(-1111.404 -943.99)" fill="#fff"/>
        <path id="Контур_3468" data-name="Контур 3468" d="M1115.052,999.64a.446.446,0,0,1-.538-.4l-2.784-35.114a.45.45,0,0,1,.327-.464l72.36-19.343a.53.53,0,0,1,.252.008c1.218.4,4.693,8.762,6.657,13.707.531,1.344,5.2,13.187,4.874,14.943-.3,1.608-14.089,8.027-35.875,14.836-18.167,5.68-45,11.762-45.272,11.825Zm-2.413-35.215,2.718,34.238c3.761-.861,27.938-6.453,44.708-11.691,22.937-7.173,34.687-13.143,35.281-14.2.364-1.994-9.04-25.759-10.893-27.537Z" transform="translate(-1111.728 -944.31)" fill="#003e67"/>
      </g>
      <g id="Сгруппировать_917" data-name="Сгруппировать 917" transform="translate(225.175 596.788)">
        <rect id="Прямоугольник_1009" data-name="Прямоугольник 1009" width="0.884" height="20.766" transform="translate(0 0.194) rotate(-12.693)" fill="#00b7cd"/>
      </g>
      <g id="Сгруппировать_918" data-name="Сгруппировать 918" transform="translate(230.663 598.534)">
        <rect id="Прямоугольник_1010" data-name="Прямоугольник 1010" width="0.884" height="20.426" transform="matrix(0.975, -0.22, 0.22, 0.975, 0, 0.195)" fill="#00b7cd"/>
      </g>
      <g id="Сгруппировать_919" data-name="Сгруппировать 919" transform="translate(236.131 600.178)">
        <rect id="Прямоугольник_1011" data-name="Прямоугольник 1011" width="0.884" height="20.189" transform="translate(0 0.195) rotate(-12.717)" fill="#00b7cd"/>
      </g>
      <g id="Сгруппировать_920" data-name="Сгруппировать 920" transform="translate(213.024 575.413)">
        <path id="Контур_3469" data-name="Контур 3469" d="M1073.369,933.739c.665-1.6,69.312-16.362,72.015-16.243,2.338.1,18.782,11.621,19.937,12.719s-55.244,14.876-57.817,14.854S1072.675,935.405,1073.369,933.739Z" transform="translate(-1073.358 -917.495)" fill="#fff"/>
      </g>
      <g id="Сгруппировать_921" data-name="Сгруппировать 921" transform="translate(213.035 575.374)">
        <path id="Контур_3470" data-name="Контур 3470" d="M1073.361,933.767s15.423-4.712,41.7-10.243c16.369-3.445,29.073-6.419,30.314-6s7.239,3.909,7.239,3.909-8.354.07-35.523,5.175c-24.93,4.686-41.37,8.684-41.37,8.684Z" transform="translate(-1073.361 -917.485)" fill="#00b7cd"/>
      </g>
      <g id="Сгруппировать_922" data-name="Сгруппировать 922" transform="translate(212.582 574.971)">
        <path id="Контур_3471" data-name="Контур 3471" d="M1114.9,944.423c-6.289,1.418-6.887,1.411-7.08,1.411-2.736-.026-32.938-9.029-34.461-11.335a.635.635,0,0,1-.078-.609c.152-.368.472-1.132,27.518-7.232,18.8-4.24,43.219-9.356,44.923-9.282,2.67.115,19.432,12.089,20.223,12.842a.539.539,0,0,1,.134.49C1165.554,932.632,1115.408,944.308,1114.9,944.423ZM1074.286,934.2c2.769,2.18,30.726,10.726,33.544,10.752a61.974,61.974,0,0,0,6.88-1.389c16.354-3.69,46.382-11.3,50.24-13.031-2.811-2.216-17.323-12.189-19.261-12.27-1.456-.063-24.845,4.781-44.693,9.259C1080.074,932.238,1075.333,933.742,1074.286,934.2Z" transform="translate(-1073.239 -917.376)" fill="#003e67"/>
      </g>
      <g id="Сгруппировать_923" data-name="Сгруппировать 923" transform="translate(291.454 156.621)">
        <path id="Контур_3472" data-name="Контур 3472" d="M1110.057,804.7c1.411-1.5-2.97,270.715-3.735,291.428s-4.017,173.187-4.363,176.18-7.852,2.68-7.462-4.96.531-134.239,2.142-160.576S1103.241,811.976,1110.057,804.7Z" transform="translate(-1094.483 -804.693)" fill="#fff"/>
      </g>
      <g id="Сгруппировать_924" data-name="Сгруппировать 924" transform="translate(291.617 157.68)">
        <path id="Контур_3473" data-name="Контур 3473" d="M1094.527,1270.917l2.462,2.989,1.656-68.989s2.2-112.579,3.4-150.288c1.058-33.05,2.205-100.806,3.924-157.353,1.53-50.214,3.731-91.573,3.438-92.259-.713-1.656-4.589,50.607-5.335,68.094s-4.819,142.321-5.049,150.611c-.115,4.233-3.282,68.294-3.738,130.151C1094.828,1216,1094.527,1270.917,1094.527,1270.917Z" transform="translate(-1094.527 -804.979)" fill="#00b7cd"/>
      </g>
      <g id="Сгруппировать_925" data-name="Сгруппировать 925" transform="translate(291.012 156.188)">
        <path id="Контур_3474" data-name="Контур 3474" d="M1100.635,1274.729a4.88,4.88,0,0,1-4.106-1.1c-1.077-.906-2.317-2.677-2.15-5.989.13-2.495.234-18.188.364-38.062.275-41.73.694-104.793,1.778-122.521.431-7.039,1.118-31.944,1.986-63.475,3.264-118.107,6.839-233.837,11.55-238.868a.481.481,0,0,1,.628-.041c.319.264,1.066.884-.928,138.753-.984,68.123-2.28,142.491-2.669,153.031-.386,10.436-1.392,53.785-2.361,95.7-.939,40.631-1.831,79.009-2.005,80.513A2.453,2.453,0,0,1,1100.635,1274.729Zm9.482-468.083c-4.626,15.979-8.565,158.786-10.722,236.96-.872,31.543-1.56,56.455-1.99,63.509-1.084,17.7-1.5,80.75-1.779,122.469-.137,20.664-.234,35.589-.364,38.1-.152,2.951.914,4.492,1.834,5.268a3.975,3.975,0,0,0,3.345.913,1.623,1.623,0,0,0,1.4-1.292c.171-1.467,1.058-39.822,2-80.431.973-41.923,1.975-85.276,2.361-95.716C1106.905,1077.394,1110.994,828.409,1110.117,806.646Z" transform="translate(-1094.364 -804.577)" fill="#003e67"/>
      </g>
      <g id="Сгруппировать_926" data-name="Сгруппировать 926" transform="translate(97.165 525.471)">
        <path id="Контур_3475" data-name="Контур 3475" d="M1043.327,910.314c-1.946-1-1.2-6.675.252-6.249s65.925,16.781,76.3,19.25,74.179,17.791,75.318,19.5,6.389,9.582-.9,8.056S1065.543,921.768,1043.327,910.314Z" transform="translate(-1042.151 -904.043)" fill="#fff"/>
      </g>
      <g id="Сгруппировать_927" data-name="Сгруппировать 927" transform="translate(296.086 581.765)">
        <path id="Контур_3476" data-name="Контур 3476" d="M1096.24,925.2c-.553-2.186-1.058-6.686.78-5.907s31.379,11.491,47.563,16.146,61.315,14.26,65.183,15.5,5.71,6.415,1.3,5.751-50.017-10.013-68.38-15.084S1096.808,927.452,1096.24,925.2Z" transform="translate(-1095.731 -919.206)" fill="#fff"/>
      </g>
      <g id="Сгруппировать_928" data-name="Сгруппировать 928" transform="translate(176.174 586.916)">
        <path id="Контур_3477" data-name="Контур 3477" d="M1191.119,970.395c.457.1,1.419,12.537.713,12.526s-58.088-13.744-73.124-17.988S1077.795,953.6,1067.96,943.3s-2.291-12.2,9.667-16.666a124.267,124.267,0,0,1,21.129-6.041s-25.773,4.481-20.423,13.132,21.771,12.645,28.643,14.494S1189.412,970.023,1191.119,970.395Z" transform="translate(-1063.433 -920.593)" fill="#fff"/>
      </g>
      <g id="Сгруппировать_929" data-name="Сгруппировать 929" transform="translate(209.69 624.759)">
        <path id="Контур_3478" data-name="Контур 3478" d="M1072.46,930.786s53.733,12.047,69.478,14.078c17.888,2.309,24.693-2.12,24.693-2.12s8.725,3.631,24.953,1.927c19.621-2.064,25.354-3.661,37.791-4.823l-62.031,15.423-39.7-9.033Z" transform="translate(-1072.46 -930.786)" fill="#00b7cd"/>
      </g>
      <g id="Сгруппировать_930" data-name="Сгруппировать 930" transform="translate(175.734 586.475)">
        <path id="Контур_3479" data-name="Контур 3479" d="M1192.266,983.674a.709.709,0,0,1-.119.011c-1.065-.019-59.28-14.064-73.239-18l-1.2-.338c-15-4.229-40.089-11.3-49.749-21.418-3.634-3.806-5.075-6.653-4.541-8.97.787-3.4,5.617-5.186,12.3-7.648q1.008-.373,2.068-.769a138.432,138.432,0,0,1,17.739-5.354c2.195-.5,3.423-.7,3.475-.705a.436.436,0,0,1,.5.36.428.428,0,0,1-.36.509c-.011,0-1.177.208-2.93.6-4.659,1.054-15.7,3.984-17.587,8.476a3.511,3.511,0,0,0,.393,3.386c5,8.078,20.067,12.088,27.31,14.015l1.073.286c5.543,1.489,82.332,21.782,84.121,22.172,1.055.227,1.311,10.737,1.311,10.845C1192.856,983.206,1192.682,983.577,1192.266,983.674Zm-110.084-57.761c-1.307.445-2.669.932-4.077,1.455q-1.063.4-2.075.769c-6.181,2.279-11.067,4.08-11.747,7.02-.464,2,.91,4.589,4.319,8.16,9.493,9.943,34.442,16.974,49.348,21.177l1.2.338c15.248,4.3,68.283,16.959,72.757,17.914a63.887,63.887,0,0,0-.761-11.647c-4.715-1.166-78.53-20.672-83.962-22.131l-1.069-.286c-7.351-1.957-22.655-6.029-27.834-14.405a4.4,4.4,0,0,1-.461-4.191A9.8,9.8,0,0,1,1082.182,925.912Z" transform="translate(-1063.314 -920.474)" fill="#003e67"/>
      </g>
      <g id="Сгруппировать_931" data-name="Сгруппировать 931" transform="translate(190.61 606.337)">
        <path id="Контур_3480" data-name="Контур 3480" d="M1067.4,934.181c-.739-.754,3.735-8.732,4.385-8.343a77.058,77.058,0,0,0,12.241,6.215c.672.274,3.842,10.688,3.245,11.048S1069.56,936.375,1067.4,934.181Z" transform="translate(-1067.321 -925.824)" fill="#003e67"/>
      </g>
      <g id="Сгруппировать_932" data-name="Сгруппировать 932" transform="translate(194.924 606.359)">
        <path id="Контур_3481" data-name="Контур 3481" d="M1068.6,925.993c-1.047-1.054,5.38,3.245,12.282,6.044.672.275,3.842,10.688,3.245,11.048S1077.87,935.334,1068.6,925.993Z" transform="translate(-1068.483 -925.83)" fill="#082b3f"/>
      </g>
      <g id="Сгруппировать_933" data-name="Сгруппировать 933" transform="translate(182.673 601.603)">
        <path id="Контур_3482" data-name="Контур 3482" d="M1065.183,931.933c-.074-.809,7.391-7.86,7.7-7.359a10.624,10.624,0,0,0,2.29,2.454c.639.435-4.733,8.929-5.447,8.788S1065.28,933.043,1065.183,931.933Z" transform="translate(-1065.183 -924.549)" fill="#003e67"/>
      </g>
      <g id="Сгруппировать_934" data-name="Сгруппировать 934" transform="translate(187.128 601.613)">
        <path id="Контур_3483" data-name="Контур 3483" d="M1069.633,924.568a10.626,10.626,0,0,0,2.29,2.454c.639.435-4.734,8.929-5.446,8.788S1069.32,924.066,1069.633,924.568Z" transform="translate(-1066.383 -924.552)" fill="#082b3f"/>
      </g>
      <g id="Сгруппировать_935" data-name="Сгруппировать 935" transform="translate(177.97 594.138)">
        <path id="Контур_3484" data-name="Контур 3484" d="M1066.485,935.074c-2.09-1.225-3.8-5.788-1.4-7.369,2.09-1.381,11.212-5.547,11.3-5.138.07.312-1.927,2.669-1.307,4.908C1075.224,928,1067.339,935.579,1066.485,935.074Z" transform="translate(-1063.916 -922.539)" fill="#003e67"/>
      </g>
      <g id="Сгруппировать_936" data-name="Сгруппировать 936" transform="translate(180.476 594.102)">
        <path id="Контур_3485" data-name="Контур 3485" d="M1064.653,935.1c-.412-.289,1.307-2.911,2.955-4.971,5.238-6.527,6.857-7.945,6.946-7.536.07.312-1.927,2.669-1.307,4.908C1073.393,928.029,1065.466,935.673,1064.653,935.1Z" transform="translate(-1064.591 -922.529)" fill="#082b3f"/>
      </g>
      <g id="Сгруппировать_937" data-name="Сгруппировать 937" transform="translate(214.952 592.741)">
        <path id="Контур_3486" data-name="Контур 3486" d="M1074,922.281c.616.412,5.394,21.645,5.394,21.645l4.515,1.2-4.7-20.839Z" transform="translate(-1073.553 -921.839)" fill="#00b7cd"/>
        <path id="Контур_3487" data-name="Контур 3487" d="M1084.327,945.878a.4.4,0,0,1-.211,0l-4.511-1.2a.438.438,0,0,1-.319-.33c-1.756-7.8-4.73-20.445-5.287-21.433a.444.444,0,0,1,.479-.721l5.213,2.005a.44.44,0,0,1,.271.315l4.7,20.839a.441.441,0,0,1-.123.416A.434.434,0,0,1,1084.327,945.878Zm-4.24-1.986,3.553.943-4.489-19.9-4.077-1.567C1075.681,925.221,1077.005,930.211,1080.087,943.892Z" transform="translate(-1073.878 -922.162)" fill="#003e67"/>
      </g>
      <g id="Сгруппировать_938" data-name="Сгруппировать 938" transform="translate(255.738 601.551)">
        <path id="Контур_3488" data-name="Контур 3488" d="M1088.268,939.653s-3.279-14.372-3.4-14.925l.865-.193c.123.553,3.4,14.921,3.4,14.921Z" transform="translate(-1084.863 -924.535)" fill="#00b7cd"/>
      </g>
      <g id="Сгруппировать_939" data-name="Сгруппировать 939" transform="translate(265.394 599.228)">
        <rect id="Прямоугольник_1012" data-name="Прямоугольник 1012" width="0.884" height="15.448" transform="matrix(0.975, -0.22, 0.22, 0.975, 0, 0.195)" fill="#00b7cd"/>
      </g>
      <g id="Сгруппировать_940" data-name="Сгруппировать 940" transform="translate(271.658 597.656)">
        <rect id="Прямоугольник_1013" data-name="Прямоугольник 1013" width="0.884" height="20.441" transform="translate(0 0.195) rotate(-12.717)" fill="#00b7cd"/>
      </g>
      <g id="Сгруппировать_941" data-name="Сгруппировать 941" transform="translate(203.716 598.63)">
        <path id="Контур_3489" data-name="Контур 3489" d="M1083.9,923.867l3.7,15.756s-6.389-1.563-10.213-2.9a50.325,50.325,0,0,1-6.419-2.71,88.721,88.721,0,0,1,6.639-5.9C1080.047,926.321,1083.9,923.867,1083.9,923.867Z" transform="translate(-1070.528 -923.427)" fill="#003e67"/>
        <path id="Контур_3490" data-name="Контур 3490" d="M1088.022,940.376a.445.445,0,0,1-.2,0c-.063-.018-6.456-1.585-10.254-2.907a51.951,51.951,0,0,1-6.483-2.74.457.457,0,0,1-.23-.327.446.446,0,0,1,.13-.379,87.281,87.281,0,0,1,6.683-5.94c2.424-1.786,6.282-4.24,6.323-4.266a.439.439,0,0,1,.664.271l3.672,15.634a.44.44,0,0,1-.293.653Zm-15.976-6.152a53.87,53.87,0,0,0,5.811,2.41c3.018,1.051,7.711,2.265,9.475,2.707l-3.394-14.442c-1.136.735-3.876,2.521-5.747,3.9A81.549,81.549,0,0,0,1072.046,934.224Z" transform="translate(-1070.851 -923.748)" fill="#003e67"/>
      </g>
      <g id="Сгруппировать_942" data-name="Сгруппировать 942" transform="translate(210.377 604.892)">
        <path id="Контур_3491" data-name="Контур 3491" d="M1080.219,925.435l2.168,9.23s-3.746-.917-5.985-1.7a29.511,29.511,0,0,1-3.757-1.589s2.458-2.4,3.887-3.453S1080.219,925.435,1080.219,925.435Z" transform="translate(-1072.645 -925.435)" fill="#082b3f"/>
      </g>
      <g id="Сгруппировать_943" data-name="Сгруппировать 943" transform="translate(280.105 310.806)">
        <path id="Контур_3492" data-name="Контур 3492" d="M1113.7,848.737s-21.986,4.96-22.272,3.7,21.708-6.215,21.708-6.215a1.219,1.219,0,0,1,1.1,1.073A1.3,1.3,0,0,1,1113.7,848.737Z" transform="translate(-1091.426 -846.223)" fill="#003e67"/>
      </g>
      <g id="Сгруппировать_944" data-name="Сгруппировать 944" transform="translate(290.449 186.54)">
        <path id="Контур_3493" data-name="Контур 3493" d="M1109.422,814.664s-14.992,3.382-15.207,2.424,14.776-4.336,14.776-4.336.535.03.717.842A.977.977,0,0,1,1109.422,814.664Z" transform="translate(-1094.212 -812.752)" fill="#003e67"/>
      </g>
      <g id="Сгруппировать_945" data-name="Сгруппировать 945" transform="translate(306.777 183.932)">
        <path id="Контур_3494" data-name="Контур 3494" d="M1099.311,816.157s13.135-2.963,12.92-3.917-13.351,2-13.351,2-.4.245-.222,1.054C1098.828,816.064,1099.311,816.157,1099.311,816.157Z" transform="translate(-1098.61 -812.05)" fill="#003e67"/>
      </g>
      <g id="Сгруппировать_946" data-name="Сгруппировать 946" transform="translate(69.463 492.154)">
        <path id="Контур_3495" data-name="Контур 3495" d="M1062.186,898.4s-27.117,6.115-27.492,4.452,26.742-7.782,26.742-7.782.961.048,1.281,1.459A1.712,1.712,0,0,1,1062.186,898.4Z" transform="translate(-1034.69 -895.069)" fill="#003e67"/>
      </g>
      <g id="Сгруппировать_947" data-name="Сгруппировать 947" transform="translate(69.344 401.736)">
        <path id="Контур_3496" data-name="Контур 3496" d="M1062.154,874.046s-27.117,6.118-27.492,4.451,26.742-7.782,26.742-7.782.961.048,1.281,1.463A1.7,1.7,0,0,1,1062.154,874.046Z" transform="translate(-1034.658 -870.715)" fill="#003e67"/>
      </g>
      <g id="Сгруппировать_948" data-name="Сгруппировать 948" transform="translate(69.426 292.729)">
        <path id="Контур_3497" data-name="Контур 3497" d="M1062.176,844.684s-27.118,6.119-27.492,4.452,26.742-7.782,26.742-7.782.962.048,1.278,1.463A1.7,1.7,0,0,1,1062.176,844.684Z" transform="translate(-1034.68 -841.354)" fill="#003e67"/>
      </g>
      <g id="Сгруппировать_949" data-name="Сгруппировать 949" transform="translate(275.32 433.353)">
        <path id="Контур_3498" data-name="Контур 3498" d="M1114.833,881.744s-24.411,5.506-24.693,4.251,24.125-6.764,24.125-6.764a1.219,1.219,0,0,1,1.1,1.073A1.3,1.3,0,0,1,1114.833,881.744Z" transform="translate(-1090.137 -879.231)" fill="#003e67"/>
      </g>
      <g id="Сгруппировать_950" data-name="Сгруппировать 950" transform="translate(271.162 548.916)">
        <path id="Контур_3499" data-name="Контур 3499" d="M1113.717,912.868s-24.411,5.506-24.7,4.251,24.129-6.761,24.129-6.761a1.213,1.213,0,0,1,1.1,1.07A1.3,1.3,0,0,1,1113.717,912.868Z" transform="translate(-1089.017 -910.358)" fill="#003e67"/>
      </g>
      <g id="Сгруппировать_951" data-name="Сгруппировать 951" transform="translate(0 21.045)">
        <path id="Контур_3500" data-name="Контур 3500" d="M1072.2,1319.79c-.279,1.842-18.3-6.141-31.747-12.17s-24.266-15.2-24.47-18.775,8.691-59.224,18.92-118.319,78.812-402.351,78.812-402.351-28.027,233.607-33.448,314.661C1072.342,1201.4,1073.89,1308.533,1072.2,1319.79Z" transform="translate(-1015.98 -768.176)" fill="#ff310a"/>
      </g>
      <g id="Сгруппировать_952" data-name="Сгруппировать 952" transform="translate(31.279 32.843)">
        <path id="Контур_3501" data-name="Контур 3501" d="M1049.6,1312.131c-.026.939-15.366-5.662-24.808-9.983-1.641-.75,1.734-14.353,13.477-113.945,3.538-29.991,51.186-416.849,51.186-416.849s-34.669,314.747-37.446,420.172C1050.505,1248.622,1049.88,1301.687,1049.6,1312.131Z" transform="translate(-1024.405 -771.354)" fill="#991904"/>
      </g>
      <g id="Сгруппировать_953" data-name="Сгруппировать 953" transform="translate(88.032 19.218)">
        <path id="Контур_3502" data-name="Контур 3502" d="M1050.858,769.277s-10.986,2.477-11.164,1.682,10.8-3.274,10.8-3.274.393.037.545.713A.83.83,0,0,1,1050.858,769.277Z" transform="translate(-1039.692 -767.684)" fill="#003e67"/>
      </g>
      <g id="Сгруппировать_954" data-name="Сгруппировать 954" transform="translate(100.033 17.592)">
        <path id="Контур_3503" data-name="Контур 3503" d="M1043.437,770.16s8.531-1.923,8.35-2.722-8.71,1.129-8.71,1.129-.256.186-.1.861C1043.117,770.063,1043.437,770.16,1043.437,770.16Z" transform="translate(-1042.924 -767.246)" fill="#003e67"/>
      </g>
      <g id="Сгруппировать_955" data-name="Сгруппировать 955" transform="translate(90.076 584.231)">
        <path id="Контур_3504" data-name="Контур 3504" d="M1041.567,919.87s-1.756,2.673-1.225,4.589c.3,1.065,2.9,3.011,6.43,3.638,4.069.724,5.692.1,6.267-1.585.639-1.875-1.14-5.123-1.318-3.876s-.932,3.193-4.358,3.063A6.178,6.178,0,0,1,1041.567,919.87Z" transform="translate(-1040.242 -919.87)" fill="#003e67"/>
      </g>
      <g id="Сгруппировать_956" data-name="Сгруппировать 956" transform="translate(290.278 620.961)">
        <path id="Контур_3505" data-name="Контур 3505" d="M1095.186,929.763s-1.359,1.864-.939,3.382c.234.846,2.083,2.959,4.882,3.456,3.226.572,4.511.082,4.967-1.255.505-1.485-.905-4.062-1.047-3.074s-.735,2.531-3.453,2.428S1095.405,932.042,1095.186,929.763Z" transform="translate(-1094.166 -929.763)" fill="#003e67"/>
      </g>
      <g id="Сгруппировать_957" data-name="Сгруппировать 957" transform="translate(79.102 118.795)">
        <path id="Контур_3506" data-name="Контур 3506" d="M1056.368,796.818s-18.819,4.243-19.079,3.089,18.56-5.4,18.56-5.4.668.033.887,1.013A1.184,1.184,0,0,1,1056.368,796.818Z" transform="translate(-1037.287 -794.505)" fill="#003e67"/>
      </g>
      <g id="Сгруппировать_958" data-name="Сгруппировать 958" transform="translate(70.187 182.118)">
        <path id="Контур_3507" data-name="Контур 3507" d="M1062.381,814.888s-27.113,6.119-27.492,4.452,26.742-7.778,26.742-7.778.962.048,1.281,1.459A1.7,1.7,0,0,1,1062.381,814.888Z" transform="translate(-1034.885 -811.561)" fill="#003e67"/>
      </g>
      <g id="Сгруппировать_959" data-name="Сгруппировать 959" transform="translate(54.582 571.887)">
        <path id="Контур_3508" data-name="Контур 3508" d="M1065.563,942.693a.438.438,0,0,1-.36-.074l-34.342-25.276a.442.442,0,0,1,.524-.713l34.342,25.276a.44.44,0,0,1-.163.787Z" transform="translate(-1030.682 -916.545)" fill="#003e67"/>
      </g>
      <g id="Сгруппировать_960" data-name="Сгруппировать 960" transform="translate(359.18 675.908)">
        <path id="Контур_3509" data-name="Контур 3509" d="M1112.725,998.025s42.127-9.72,57.527-15.76c16.284-6.386,22.027-9.029,22.413-10.113.553-1.56-7.615-23.052-10.718-27.41-1.344-1.886-.557,11.5-20.961,28.06C1140.247,989.631,1112.725,998.025,1112.725,998.025Z" transform="translate(-1112.725 -944.563)" fill="#00b7cd"/>
      </g>
      <g id="Сгруппировать_961" data-name="Сгруппировать 961" transform="translate(296.154 585.167)">
        <path id="Контур_3510" data-name="Контур 3510" d="M1095.749,920.122s19.317,8.9,48.814,16.625,69.75,17.019,66.449,17.461c-1.92.256-56.042-10.934-76.432-17.394s-38.147-12.942-38.389-14.1S1095.749,920.122,1095.749,920.122Z" transform="translate(-1095.749 -920.122)" fill="#00b7cd"/>
      </g>
      <g id="Сгруппировать_962" data-name="Сгруппировать 962" transform="translate(409.655 613.649)">
        <path id="Контур_3511" data-name="Контур 3511" d="M1126.445,930.973c-.334-1.812,0-3.657,1-3.067s4.89,4.08,2.9,5.283S1126.783,932.807,1126.445,930.973Z" transform="translate(-1126.32 -927.794)" fill="#003e67"/>
      </g>
      <g id="Сгруппировать_963" data-name="Сгруппировать 963" transform="translate(295.643 581.324)">
        <path id="Контур_3512" data-name="Контур 3512" d="M1212.866,957.439a4.339,4.339,0,0,1-1.544.015c-4.087-.62-49.649-9.909-68.435-15.1-13.451-3.713-46.014-13.8-46.753-16.722-.308-1.218-.932-4.67-.126-5.981a1.109,1.109,0,0,1,.709-.538,1.294,1.294,0,0,1,.8.1c1.938.824,31.439,11.5,47.511,16.124,10.065,2.9,31.368,7.715,46.924,11.234,9.382,2.124,16.792,3.8,18.27,4.273,2.547.817,4.24,3.2,4.169,4.827A1.819,1.819,0,0,1,1212.866,957.439Zm-115.953-37.464c-.022,0-.078.018-.152.141-.472.765-.26,3.356.23,5.3.761,1.834,24.478,10.109,46.133,16.09,18.76,5.183,64.247,14.457,68.328,15.073,1.277.193,2.02-.122,2.056-.943.06-1.307-1.452-3.271-3.553-3.947-1.444-.464-8.836-2.138-18.2-4.255-15.563-3.52-36.882-8.343-46.973-11.245-16.1-4.633-45.669-15.333-47.611-16.161A.472.472,0,0,0,1096.913,919.975Z" transform="translate(-1095.611 -919.087)" fill="#003e67"/>
      </g>
      <g id="Сгруппировать_964" data-name="Сгруппировать 964" transform="translate(306.586 156.185)">
        <path id="Контур_3513" data-name="Контур 3513" d="M1119.131,1329.07l-.082.011a.44.44,0,0,1-.457-.423l-20.034-523.621a.447.447,0,0,1,.427-.461.438.438,0,0,1,.457.423l20.033,523.625A.441.441,0,0,1,1119.131,1329.07Z" transform="translate(-1098.559 -804.576)" fill="#003e67"/>
      </g>
      <g id="Сгруппировать_965" data-name="Сгруппировать 965" transform="translate(337.497 612.063)">
        <path id="Контур_3514" data-name="Контур 3514" d="M1107.424,999.13a.456.456,0,0,1-.4-.111.444.444,0,0,1-.011-.627l68.242-70.89a.44.44,0,0,1,.528-.082.446.446,0,0,1,.222.486l-1.233,5.521a.443.443,0,0,1-.865-.193l.891-3.984-67.147,69.757A.456.456,0,0,1,1107.424,999.13Z" transform="translate(-1106.885 -927.367)" fill="#003e67"/>
      </g>
      <g id="Сгруппировать_966" data-name="Сгруппировать 966" transform="translate(405.75 612.348)">
        <path id="Контур_3515" data-name="Контур 3515" d="M1125.808,933.8a.537.537,0,0,1-.189,0,.448.448,0,0,1-.342-.527l1.173-5.484a.442.442,0,0,1,.865.185l-1.173,5.484A.443.443,0,0,1,1125.808,933.8Z" transform="translate(-1125.269 -927.443)" fill="#003e67"/>
      </g>
      <g id="Сгруппировать_967" data-name="Сгруппировать 967" transform="translate(97.019 528.092)">
        <path id="Контур_3516" data-name="Контур 3516" d="M1042.282,904.749s-.631,2.417.535,3.059c11.067,6.111,43.809,14.917,61.667,19.48s72.545,17.739,76.759,18.7,17.323,3.85,14.839,2.413c-2.577-1.492-60.419-16.666-96.336-26.252C1055.125,910.24,1042.282,904.749,1042.282,904.749Z" transform="translate(-1042.112 -904.749)" fill="#00b7cd"/>
      </g>
      <g id="Сгруппировать_968" data-name="Сгруппировать 968" transform="translate(68.907)">
        <path id="Контур_3517" data-name="Контур 3517" d="M1207.932,1333.656a.359.359,0,0,1-.156,0,.442.442,0,0,1-.379-.5l1.136-8.142L1055.1,1360.543a.318.318,0,0,1-.342-.059.434.434,0,0,1-.193-.283l-19.9-97.668-.13-90.507.082-109.007.761-110.615,8.918-65.758,8.925-101.682a.426.426,0,0,1,.048-.167l11.513-22.049a.442.442,0,1,1,.783.408L1054.1,785.126l-8.917,101.615-8.918,65.725-.757,110.556-.082,109,.119,90.418,19.8,97.134,153.615-35.568h0a.446.446,0,0,1,.4.108.429.429,0,0,1,.137.386l-1.222,8.78A.446.446,0,0,1,1207.932,1333.656Z" transform="translate(-1034.54 -762.508)" fill="#003e67"/>
      </g>
      <g id="Сгруппировать_969" data-name="Сгруппировать 969" transform="translate(242.869 561.818)">
        <path id="Контур_3518" data-name="Контур 3518" d="M1081.936,923.412a.45.45,0,0,1-.156.007.444.444,0,0,1-.379-.5l1.244-8.706a.444.444,0,0,1,.5-.375.438.438,0,0,1,.375.5l-1.24,8.706A.439.439,0,0,1,1081.936,923.412Z" transform="translate(-1081.397 -913.833)" fill="#003e67"/>
      </g>
      <g id="Сгруппировать_970" data-name="Сгруппировать 970" transform="translate(247.813 563.493)">
        <path id="Контур_3519" data-name="Контур 3519" d="M1085.151,914.514c3,1.6,4.341,7.362,2.584,8.45s-1.79.5-3.513.126S1081.651,912.651,1085.151,914.514Z" transform="translate(-1082.729 -914.284)" fill="#003e67"/>
      </g>
      <g id="Сгруппировать_971" data-name="Сгруппировать 971" transform="translate(96.72 525.028)">
        <path id="Контур_3520" data-name="Контур 3520" d="M1197.166,951.74a6.345,6.345,0,0,1-2.636-.115c-9.868-2.064-129.223-29.326-151.083-40.594-1.24-.642-1.574-2.692-1.351-4.437.074-.561.39-2.41,1.441-2.647a.956.956,0,0,1,.49.019c1.3.379,65.922,16.781,76.28,19.243,7.6,1.808,74.265,17.709,75.583,19.685,2.465,3.69,3.382,6.189,2.8,7.641A2,2,0,0,1,1197.166,951.74Zm-153.4-46.924c-.234.052-.638.653-.794,1.889-.186,1.441.059,3.119.88,3.538,21.779,11.227,141,38.456,150.852,40.516,1.779.375,2.855.208,3.16-.557.316-.783.1-2.606-2.714-6.82-1.712-1.467-46.946-12.63-75.051-19.313-10.362-2.465-75.029-18.875-76.325-19.257Z" transform="translate(-1042.032 -903.924)" fill="#003e67"/>
      </g>
      <g id="Сгруппировать_972" data-name="Сгруппировать 972" transform="translate(303.419 620.678)">
        <path id="Контур_3521" data-name="Контур 3521" d="M1098.957,958.683a.44.44,0,0,1-.538-.4l-.712-12.527a.44.44,0,0,1,.33-.453c.575-.148,57.583-14.929,60.572-15.6a.657.657,0,0,1,.435.093c.883.628,1.919,8.665,2.454,13.4a.441.441,0,0,1-.334.479l-62.2,15.014Zm-.345-12.619.657,11.635,61.307-14.8c-.628-5.416-1.507-11.2-2-12.289C1153.871,931.74,1103.342,944.835,1098.612,946.064Z" transform="translate(-1097.706 -929.687)" fill="#003e67"/>
      </g>
      <g id="Сгруппировать_973" data-name="Сгруппировать 973" transform="translate(39.083 597.24)">
        <path id="Контур_3522" data-name="Контур 3522" d="M1026.507,923.374s27.831,35.89,106.089,61.281c124.314,40.327,212.72,58.466,212.72,58.466l1.054,13.284c-2.016,1.385-67.084-15.571-112.46-27.8-43.279-11.661-95.682-22.9-146.717-49.85C1053.762,961.094,1028.367,926.448,1026.507,923.374Z" transform="translate(-1026.507 -923.374)" fill="#082b3f"/>
      </g>
      <g id="Сгруппировать_974" data-name="Сгруппировать 974" transform="translate(273.121 592.926)">
        <path id="Контур_3523" data-name="Контур 3523" d="M1108.03,922.212l-.468,20.646-3.056.691s-2.64-9.85-4.08-11.777a9.079,9.079,0,0,0-10.463-3.13l-.419-1.856Z" transform="translate(-1089.545 -922.212)" fill="#082b3f"/>
      </g>
      <g id="Сгруппировать_975" data-name="Сгруппировать 975" transform="translate(270.722 156.185)">
        <path id="Контур_3524" data-name="Контур 3524" d="M1093.436,1278.021l-.074.011a.445.445,0,0,1-.464-.419l-4-73.518,4.154-115.6,4.79-123.093,10.344-126.167a.4.4,0,0,1,.044-.156l16.577-34.249a.442.442,0,0,1,.795.386l-16.54,34.175-10.335,126.063-4.79,123.074-4.155,115.56,4,73.481A.445.445,0,0,1,1093.436,1278.021Z" transform="translate(-1088.899 -804.576)" fill="#003e67"/>
      </g>
      <g id="Сгруппировать_976" data-name="Сгруппировать 976" transform="translate(256.707 599.516)">
        <path id="Контур_3525" data-name="Контур 3525" d="M1085.124,926l8.625-2.008,3.267,14.141s-2.625-7.11-5.142-9.412C1088.447,925.587,1085.124,926,1085.124,926Z" transform="translate(-1085.124 -923.987)" fill="#082b3f"/>
      </g>
      <g id="Сгруппировать_977" data-name="Сгруппировать 977" transform="translate(220.676 596)">
        <path id="Контур_3526" data-name="Контур 3526" d="M1075.419,923.04l4.534,1.24,4.392,19.466s-4.363-13.154-5.732-15.991A17.529,17.529,0,0,0,1075.419,923.04Z" transform="translate(-1075.419 -923.04)" fill="#082b3f"/>
      </g>
      <g id="Сгруппировать_978" data-name="Сгруппировать 978" transform="translate(226.234 597.864)">
        <path id="Контур_3527" data-name="Контур 3527" d="M1076.916,923.542l4.533,1.244,4.3,19.042s-4.269-12.73-5.639-15.567A17.479,17.479,0,0,0,1076.916,923.542Z" transform="translate(-1076.916 -923.542)" fill="#082b3f"/>
      </g>
      <g id="Сгруппировать_979" data-name="Сгруппировать 979" transform="translate(231.632 599.364)">
        <path id="Контур_3528" data-name="Контур 3528" d="M1078.37,923.946l4.533,1.24,4.277,18.971s-4.251-12.656-5.621-15.493A17.461,17.461,0,0,0,1078.37,923.946Z" transform="translate(-1078.37 -923.946)" fill="#082b3f"/>
      </g>
      <g id="Сгруппировать_980" data-name="Сгруппировать 980" transform="translate(237.438 601.016)">
        <path id="Контур_3529" data-name="Контур 3529" d="M1079.934,924.391l6.249,1.767L1090.367,945s-4.154-12.53-5.524-15.371A15.052,15.052,0,0,0,1079.934,924.391Z" transform="translate(-1079.934 -924.391)" fill="#082b3f"/>
      </g>
      <g id="Сгруппировать_981" data-name="Сгруппировать 981" transform="translate(255.073 601.744)">
        <path id="Контур_3530" data-name="Контур 3530" d="M1085.356,924.587s2.8,14.4,2.031,17.75a7.483,7.483,0,0,1-2.7,3.947s3.961-.5,4.7-2.6C1089.968,942.063,1085.356,924.587,1085.356,924.587Z" transform="translate(-1084.684 -924.587)" fill="#082b3f"/>
      </g>
      <g id="Сгруппировать_982" data-name="Сгруппировать 982" transform="translate(54.287 571.594)">
        <path id="Контур_3531" data-name="Контур 3531" d="M1032.057,917.041a.736.736,0,1,1-.88-.557A.738.738,0,0,1,1032.057,917.041Z" transform="translate(-1030.602 -916.466)" fill="#003e67"/>
      </g>
    </g>
  </g>
</svg>
