<svg xmlns="http://www.w3.org/2000/svg" width="54.41" height="37.334" viewBox="0 0 54.41 37.334">
  <g id="icon_motorcycles" transform="translate(0.499 0.5)">
    <g id="Сгруппировать_1309" data-name="Сгруппировать 1309" transform="translate(0)">
      <g id="Сгруппировать_1308" data-name="Сгруппировать 1308">
        <path id="Контур_3959" data-name="Контур 3959" d="M212.257,314.373l-1-3.214h-2.788a1.58,1.58,0,1,1,0-3.159h3.949a1.58,1.58,0,0,1,1.508,1.109l1.653,5.289a5.512,5.512,0,0,1,3.948-1.658h3.949a1.58,1.58,0,0,1,1.58,1.58v7.9a1.58,1.58,0,0,1-1.58,1.58h-3.949a5.554,5.554,0,0,1-1.041-.1l.551,1.763a9.479,9.479,0,1,1-6.93,14.132H194.559a9.481,9.481,0,0,1-16.761-8.834q-.013-.029-.025-.058l-1.053-2.632a4.739,4.739,0,0,1,.161-3.88l1.735-3.47a1.58,1.58,0,0,1,1.413-.873h19.107A20.453,20.453,0,0,1,212.257,314.373ZM203.4,330.116h8.7a9.521,9.521,0,0,1,3.914-3.712l-2.786-8.915a17.561,17.561,0,0,0-11.713,4.459l1.885,8.167Zm-3.243,0-1.64-7.109H181.006l-1.3,2.6a1.58,1.58,0,0,0-.054,1.293l.362.905a9.48,9.48,0,0,1,14.543,2.313Zm1.951,3.159H195.7a9.588,9.588,0,0,1,0,3.16h15.27a9.586,9.586,0,0,1,0-3.16h-8.854ZM219.523,315.9a2.37,2.37,0,1,0,0,4.739h2.37V315.9Zm-2.543,13.587a6.32,6.32,0,1,0,3.333-.95q-.16,0-.317.008l1.825,5.84a1.58,1.58,0,1,1-3.016.942l-1.825-5.841Zm-30.631,11.688a6.319,6.319,0,1,0-6.319-6.319A6.319,6.319,0,0,0,186.348,341.175Zm0-3.949a2.37,2.37,0,1,1,2.37-2.37A2.37,2.37,0,0,1,186.348,337.225Z" transform="translate(-176.381 -308)" fill="#5ec703"/>
        <path id="Контур_3959_-_Рамка" data-name="Контур 3959 - Рамка" d="M208.465,307.5h3.949a2.071,2.071,0,0,1,1.985,1.459l1.422,4.549a5.977,5.977,0,0,1,3.7-1.269h3.949a2.082,2.082,0,0,1,2.08,2.08v7.9a2.082,2.082,0,0,1-2.08,2.08h-3.949q-.167,0-.333-.009l.2.631c.307-.028.617-.043.926-.043a9.979,9.979,0,1,1-8.494,15.218H194.842a9.979,9.979,0,0,1-18.472-5.239,9.886,9.886,0,0,1,.882-4.108l-1-2.491a5.244,5.244,0,0,1,.178-4.289l1.735-3.47a2.068,2.068,0,0,1,1.86-1.15h18.91a20.873,20.873,0,0,1,12.652-5.426l-.707-2.262h-2.42a2.08,2.08,0,1,1,0-4.159Zm6.882,7.844-1.9-6.087a1.075,1.075,0,0,0-1.031-.758h-3.949a1.08,1.08,0,1,0,0,2.159h3.156l1.3,4.172-.636.04a20.016,20.016,0,0,0-12.81,5.34l-.144.136h-19.3a1.074,1.074,0,0,0-.966.6l-1.735,3.47a4.243,4.243,0,0,0-.144,3.47l1.053,2.632.017.04.094.211-.1.208a8.9,8.9,0,0,0-.878,3.878,8.98,8.98,0,0,0,16.756,4.489l.144-.25h18.12l.144.25a8.975,8.975,0,1,0,6.564-13.386l-.418.056-.926-2.963.82.156a5.069,5.069,0,0,0,.948.089h3.949a1.081,1.081,0,0,0,1.08-1.08v-7.9a1.081,1.081,0,0,0-1.08-1.08h-3.949a4.992,4.992,0,0,0-3.591,1.508Zm4.176.054h2.87v5.739h-2.87a2.87,2.87,0,1,1,0-5.739Zm1.87,1h-1.87a1.87,1.87,0,1,0,0,3.739h1.87Zm-7.8.58,3.025,9.68-.376.192a8.987,8.987,0,0,0-3.708,3.517l-.144.25H203l-2.04-8.84.217-.2a17.077,17.077,0,0,1,5.416-3.335,20.282,20.282,0,0,1,6.618-1.254Zm1.821,9.181L212.868,318a16.888,16.888,0,0,0-10.8,4.121l1.729,7.491h8.019A9.981,9.981,0,0,1,215.416,326.159ZM180.7,322.508h18.22l1.871,8.109H194.27l-.144-.25a8.98,8.98,0,0,0-13.776-2.192l-.533.479-.628-1.57a2.081,2.081,0,0,1,.071-1.7Zm17.425,1H181.315l-1.16,2.321a1.081,1.081,0,0,0-.037.884l.106.265a9.978,9.978,0,0,1,14.618,2.639h4.689Zm-11.773,4.529a6.819,6.819,0,1,1-6.819,6.819A6.827,6.827,0,0,1,186.348,328.037Zm0,12.638a5.819,5.819,0,1,0-5.819-5.819A5.826,5.826,0,0,0,186.348,340.675Zm33.964-12.638a6.817,6.817,0,1,1-3.6,1.025l.549-.341,2.018,6.457a1.08,1.08,0,1,0,2.061-.644l-2.018-6.457.645-.032C220.084,328.039,220.2,328.037,220.313,328.037Zm0,12.638a5.819,5.819,0,0,0,.364-11.627l1.621,5.187a2.08,2.08,0,1,1-3.97,1.241l-1.621-5.188a5.82,5.82,0,0,0,3.606,10.387Zm-33.964-8.689a2.87,2.87,0,1,1-2.87,2.87A2.873,2.873,0,0,1,186.348,331.986Zm0,4.739a1.87,1.87,0,1,0-1.87-1.87A1.872,1.872,0,0,0,186.348,336.725Zm8.757-3.949h16.451l-.1.583a9.086,9.086,0,0,0,0,2.994l.1.583H195.1l.1-.583a9.087,9.087,0,0,0,0-2.994Zm7,1h-5.837a10.1,10.1,0,0,1,0,2.16h14.123a10.1,10.1,0,0,1,0-2.16h-8.286Z" transform="translate(-176.381 -308)" fill="#fff"/>
      </g>
    </g>
  </g>
</svg>
