<svg id="icon_phone" xmlns="http://www.w3.org/2000/svg" width="25.25" height="25.27" viewBox="0 0 25.25 25.27">
  <path id="Контур_72" data-name="Контур 72" d="M28.356,27.707a2.472,2.472,0,0,0,0-3.656L25.408,21.1a2.461,2.461,0,0,0-1.814-.822,2.557,2.557,0,0,0-1.814.822l-1.7,1.7c-.142-.085-.283-.142-.425-.227-.2-.085-.368-.2-.539-.283a18.028,18.028,0,0,1-4.393-4A9.743,9.743,0,0,1,13.278,16c.425-.4.85-.822,1.247-1.219l.453-.453a2.654,2.654,0,0,0,.85-1.842,2.589,2.589,0,0,0-.85-1.842L13.533,9.172c-.17-.17-.34-.34-.482-.51-.312-.34-.652-.68-.992-.992a2.526,2.526,0,0,0-1.786-.794,2.641,2.641,0,0,0-1.814.794L6.617,9.512a3.881,3.881,0,0,0-1.162,2.466,9.882,9.882,0,0,0,.68,3.968,22.939,22.939,0,0,0,4.081,6.831,25.24,25.24,0,0,0,8.361,6.547,12.619,12.619,0,0,0,4.7,1.389h.34a3.991,3.991,0,0,0,3.061-1.332l.028-.028a9.961,9.961,0,0,1,.935-.964A5.324,5.324,0,0,0,28.356,27.707ZM26.684,27.4a12.327,12.327,0,0,0-1.02,1.077,2.539,2.539,0,0,1-2.012.85H23.4A12.585,12.585,0,0,1,19.2,28.048a23.774,23.774,0,0,1-7.879-6.179,22.02,22.02,0,0,1-3.855-6.405,7.4,7.4,0,0,1-.6-3.344,2.591,2.591,0,0,1,.737-1.587L9.423,8.718a1.187,1.187,0,0,1,.822-.4,1.2,1.2,0,0,1,.822.4c.34.312.624.624.964.964l.51.51,1.445,1.445a1.225,1.225,0,0,1,.425.85,1.225,1.225,0,0,1-.425.85l-.453.453c-.453.453-.879.879-1.332,1.3l-.028.028a1.094,1.094,0,0,0-.283,1.19c0,.028,0,.028.028.057a11.084,11.084,0,0,0,1.729,2.806,19.675,19.675,0,0,0,4.733,4.308c.227.142.453.255.652.368.2.085.368.2.539.283.028,0,.028.028.057.028a1.155,1.155,0,0,0,.51.142,1.141,1.141,0,0,0,.794-.368L22.772,22.1a1.02,1.02,0,0,1,1.616,0l2.948,2.948a1.087,1.087,0,0,1-.028,1.7A6.622,6.622,0,0,1,26.684,27.4ZM18.521,10.589a.674.674,0,0,1,.822-.567,8,8,0,0,1,4.45,2.324,8.582,8.582,0,0,1,2.324,4.45.713.713,0,0,1-.567.822h-.113a.728.728,0,0,1-.709-.6A6.663,6.663,0,0,0,22.8,13.338a6.949,6.949,0,0,0-3.685-1.927A.675.675,0,0,1,18.521,10.589Zm10.77,6.235a12.3,12.3,0,0,0-3.4-6.575,12.106,12.106,0,0,0-6.575-3.4.674.674,0,0,1-.567-.822.687.687,0,0,1,.822-.567,13.571,13.571,0,0,1,11.11,11.11.713.713,0,0,1-.567.822H30A.678.678,0,0,1,29.291,16.824Z" transform="translate(-5.437 -5.442)" fill="#014c81"/>
</svg>
