<svg xmlns="http://www.w3.org/2000/svg" width="34.582" height="45.156" viewBox="0 0 34.582 45.156">
  <g id="icon_ws_leaf" transform="translate(-619.793 -893)">
    <g id="Сгруппировать_192" data-name="Сгруппировать 192" transform="translate(627.748 901.864)">
      <g id="Сгруппировать_1" data-name="Сгруппировать 1" transform="translate(0)">
        <path id="Контур_1" data-name="Контур 1" d="M232.126,127.9l-2.981,2.11c-.331.226-.63.04-.855-.292l-.826-1.137-1.382,4.84c-.23.9-.791.615-.892.128l-.853-3.158-.871.951a.421.421,0,0,1-.568.044l-2.2-1.75-.532,2.679c-.124.594-.125.865-.58.81L218.5,133.1l2.51,5.57a.623.623,0,0,1-.1.674l-.981,1.035L224.4,142a.217.217,0,0,1,.1.327l-2.515,4.378,1.165.583,2-4.639a.217.217,0,0,1,.323-.113l3.98,2.6.239-1.405a.623.623,0,0,1,.482-.482l5.962-1.331-.67-.852c-.317-.331-.1-.494.3-.95l1.825-2.033-2.72-.713a.422.422,0,0,1-.306-.481l.239-1.267-3.039,1.211c-.451.211-1.012-.069-.433-.79l3.045-4.009-1.4.021c-.4.018-.728-.109-.746-.51Z" transform="translate(-218.5 -127.9)" fill="#0767b9"/>
      </g>
    </g>
    <path id="Контур_234" data-name="Контур 234" d="M17.291,3A14.291,14.291,0,0,0,3,17.291c0,1.154.406,3.3,2.341,6.956a68.426,68.426,0,0,0,5.673,8.716c2.313,3.092,4.648,5.856,6.277,7.714,1.629-1.858,3.964-4.622,6.277-7.714a68.426,68.426,0,0,0,5.673-8.716c1.935-3.658,2.341-5.8,2.341-6.956A14.291,14.291,0,0,0,17.291,3m0-3A17.291,17.291,0,0,1,34.582,17.291c0,9.55-17.291,27.865-17.291,27.865S0,26.841,0,17.291A17.291,17.291,0,0,1,17.291,0Z" transform="translate(619.793 893)" fill="#0767b9"/>
  </g>
</svg>
