<svg xmlns="http://www.w3.org/2000/svg" width="41.369" height="48.467" viewBox="0 0 41.369 48.467">
  <g id="icon_boats" transform="translate(0)">
    <g id="Layer_4" data-name="Layer 4" transform="translate(0 0)">
      <path id="Контур_3958" data-name="Контур 3958" d="M47.168,31.826a1.131,1.131,0,0,0-.913.039C45.3,27.58,42.437,17.692,35.692,13.008a13.912,13.912,0,0,0-9.955-2.389v-.155l5.734-2.23a1.138,1.138,0,0,0,.108-2.074l-6.46-3.321A1.138,1.138,0,0,0,23.46,3.853V18.281c-2.412-2.434-6.473-6.032-9.613-6.271a1.138,1.138,0,0,0-1.194,1.4c.033.141,3.258,14.183-5.6,19.7-.018.011-.029.03-.046.042a1.819,1.819,0,0,0-.274.264,1.133,1.133,0,0,0-.16.312l-.007.015a1.136,1.136,0,0,0-.05.333v5.873A11.245,11.245,0,0,0,17.747,51.182H29.218a18.539,18.539,0,0,0,13.193-5.472,18.793,18.793,0,0,0,5.472-12.8A1.14,1.14,0,0,0,47.168,31.826ZM25.737,5.718l2.55,1.311-2.55.992ZM18.665,37.343a14.665,14.665,0,0,1-8.576-2.735c5.027-1.242,11.3-2.176,13.371-1.126v3.862Zm7.072-3.832c2.247-1.356,11.428-6.2,18.127.446a16.214,16.214,0,0,1-9.874,3.385H25.737Zm8.652-18.636c5.337,3.7,8.058,11.409,9.246,15.908-6.568-4.681-14.443-1.625-17.9.146V12.923a11.759,11.759,0,0,1,8.652,1.953ZM15.207,14.72c2.872,1.289,6.593,5.023,8.253,6.884v9.5c-3.021-.787-7.935-.037-11.624.759C16.275,26.285,15.737,18.3,15.207,14.72ZM40.8,44.1A16.277,16.277,0,0,1,29.218,48.9H17.747a8.966,8.966,0,0,1-8.956-8.956V36.5a16.946,16.946,0,0,0,9.873,3.119H33.99a18.522,18.522,0,0,0,11.29-3.854A16.566,16.566,0,0,1,40.8,44.1Z" transform="translate(-6.515 -2.715)" fill="#0db9ac"/>
    </g>
  </g>
</svg>
