<svg xmlns="http://www.w3.org/2000/svg" width="55.919" height="37.28" viewBox="0 0 55.919 37.28">
  <g id="icon_rv_trailers" transform="translate(0)">
    <path id="Контур_3953" data-name="Контур 3953" d="M17.252,20.456H7.932A.931.931,0,0,1,7,19.524V13.932A.931.931,0,0,1,7.932,13h7.456a.934.934,0,0,1,.885.637l1.864,5.592a.933.933,0,0,1-.885,1.227Zm-2.536-5.592H8.864v3.728h7.1Z" transform="translate(26.552 -1.816)" fill="#069b95"/>
    <path id="Контур_3954" data-name="Контур 3954" d="M22.932,12H34.116a.931.931,0,0,1,.932.932v7.456a.931.931,0,0,1-.932.932H22.932A.931.931,0,0,1,22,20.388V12.932A.931.931,0,0,1,22.932,12Zm10.252,7.456V13.864H29.456v5.592Zm-9.32,0h3.728V13.864H23.864Z" transform="translate(-18.272 -2.68)" fill="#069b95"/>
    <path id="Контур_3955" data-name="Контур 3955" d="M28.932,26H32.66a.932.932,0,0,1,0,1.864H28.932a.932.932,0,0,1,0-1.864Z" transform="translate(-28 9.416)" fill="#069b95"/>
    <path id="Контур_3956" data-name="Контур 3956" d="M5.654,7H50.4a.933.933,0,0,1,.9.706l1.287,5.151a2.786,2.786,0,0,1-2.7,3.463h-3.7l3.04,7.6,5.31,1.327a2.825,2.825,0,0,1,2.092,3.189l-.459,2.754a.918.918,0,0,1,.757.9v1.941a.931.931,0,0,1-.932.932h-.453l-.491,2.949a.932.932,0,0,1-.919.779H52.26v-.039l-.093.023a5.587,5.587,0,0,1-2.42,3.744H52.26a.932.932,0,0,1,0,1.864H9.388a.932.932,0,0,1,0-1.864h4.376a5.587,5.587,0,0,1-2.418-3.728H1.932A.931.931,0,0,1,1,37.756v-26.1A4.659,4.659,0,0,1,5.654,7ZM36.416,8.864v1.864h5.592V8.864ZM54.078,27.055l-5.772-1.443a.926.926,0,0,1-.639-.558L44.173,16.32H32.688V29.368h6.138l-.273-.273a.932.932,0,0,1,.659-1.591H54.66a.939.939,0,0,0-.582-.449ZM30.824,16.32H21.5V29.368h9.32ZM14.98,37.756a1.864,1.864,0,1,0,3.728,0v-.932H14.98Zm38.952-6.563a.891.891,0,0,1,.192-.039h.155l.3-1.787H53.192V30.3a.92.92,0,0,0,.74.893Zm-.265,3.63a.919.919,0,0,1-.475-.8v-1.1A2.791,2.791,0,0,1,51.328,30.3v-.932H41.461l.273.273a.932.932,0,0,1-.659,1.591H32.688V34.96h8.948a6.67,6.67,0,0,1,2.723-2.283c.057-.026.11-.059.168-.084a5.832,5.832,0,0,1,.689-.214c.122-.033.238-.08.363-.105a5.444,5.444,0,0,1,2.178,0c.123.024.237.071.358.1a5.8,5.8,0,0,1,.695.216c.056.023.106.055.161.08A6.668,6.668,0,0,1,51.7,34.96h1.944Zm-7,1.068a1.864,1.864,0,1,0,1.864,1.864,1.864,1.864,0,0,0-1.864-1.864ZM21.5,34.028v.932h9.32V31.232H21.5Zm22.084,8.388a5.587,5.587,0,0,1-2.418-3.728H22.342a5.587,5.587,0,0,1-2.418,3.728ZM10.32,34.96h.546l1.591-1.591a.931.931,0,0,1,.659-.273H19.64V31.232H2.864V34.96ZM2.864,16.32V27.5H4.728a.931.931,0,0,1,.932.932v.932H19.64V15.388a.931.931,0,0,1,.932-.932H49.884a.922.922,0,0,0,.894-1.147l-1.11-4.445h-5.8v2.8a.931.931,0,0,1-.932.932H35.484a.931.931,0,0,1-.932-.932v-2.8H5.654a2.794,2.794,0,0,0-2.791,2.79v.938H4.728a.932.932,0,0,1,0,1.864H2.864Z" transform="translate(-1 -7)" fill="#069b95"/>
    <path id="Контур_3957" data-name="Контур 3957" d="M16.932,13H20.66a.931.931,0,0,1,.932.932v5.592a.931.931,0,0,1-.932.932H16.932A.931.931,0,0,1,16,19.524V13.932A.931.931,0,0,1,16.932,13Zm.932,5.592h1.864V14.864H17.864Z" transform="translate(6.368 -1.816)" fill="#069b95"/>
  </g>
</svg>
