<svg id="icon_cars" xmlns="http://www.w3.org/2000/svg" width="47.467" height="40.38" viewBox="0 0 47.467 40.38">
  <g id="Сгруппировать_1310" data-name="Сгруппировать 1310" transform="translate(0 0)">
    <path id="Контур_3960" data-name="Контур 3960" d="M44.11,19.922,40.748,7.561a.345.345,0,0,0-.1-.2C38.77,4.1,24.728,3.7,17.608,4.3c-9.1.692-9.79,2.571-10.087,3.263L4.258,19.823C1.291,21.7.5,23.878.5,25.559V39.5a4.9,4.9,0,0,0,4.944,4.944A4.9,4.9,0,0,0,10.389,39.5V36.535H38.078V39.5a4.944,4.944,0,1,0,9.889,0V25.559C47.967,23.284,46.483,21.405,44.11,19.922ZM9.4,8.154c.3-.593,3.362-1.78,10.977-2.077,9.3-.4,17.5.89,18.492,2.176l2.769,10.383c-4.747-1.978-11.372-2.967-17.8-2.967A48.471,48.471,0,0,0,8.114,17.944l-1.483.593Zm-6.922,17.4c0-5.142,10.779-7.812,21.36-7.812a50.652,50.652,0,0,1,15.526,2.176c2.472.791,6.527,2.67,6.527,5.637v8.01a.934.934,0,0,1-.989.989H3.368a.934.934,0,0,1-.989-.989v-8.01ZM8.411,39.5a2.914,2.914,0,0,1-2.967,2.967A2.914,2.914,0,0,1,2.478,39.5V36.436a2.926,2.926,0,0,0,.989.2H8.411Zm34.611,2.967A2.914,2.914,0,0,1,40.056,39.5V36.535H45a2.926,2.926,0,0,0,.989-.2V39.4A2.938,2.938,0,0,1,43.022,42.469Z" transform="translate(-0.5 -4.067)" fill="#00ad07"/>
    <path id="Контур_3961" data-name="Контур 3961" d="M38.846,32.391A4.846,4.846,0,1,0,34,27.546,4.853,4.853,0,0,0,38.846,32.391Zm0-7.812a2.868,2.868,0,1,1-2.868,2.868A2.87,2.87,0,0,1,38.846,24.579Z" transform="translate(-0.872 -4.274)" fill="#00ad07"/>
    <path id="Контур_3962" data-name="Контур 3962" d="M10.146,32.391A4.846,4.846,0,1,0,5.3,27.546,4.853,4.853,0,0,0,10.146,32.391Zm0-7.812a2.868,2.868,0,1,1-2.868,2.868A2.87,2.87,0,0,1,10.146,24.579Z" transform="translate(-0.553 -4.274)" fill="#00ad07"/>
    <path id="Контур_3963" data-name="Контур 3963" d="M17.889,31.378h13.35a.989.989,0,0,0,0-1.978H17.889a.934.934,0,0,0-.989.989A.991.991,0,0,0,17.889,31.378Z" transform="translate(-0.682 -4.348)" fill="#00ad07"/>
    <path id="Контур_3964" data-name="Контур 3964" d="M17.889,26.478h13.35a.989.989,0,0,0,0-1.978H17.889a.989.989,0,0,0,0,1.978Z" transform="translate(-0.682 -4.294)" fill="#00ad07"/>
  </g>
</svg>
