<svg id="icon_moving" xmlns="http://www.w3.org/2000/svg" width="58.067" height="36.952" viewBox="0 0 58.067 36.952">
  <g id="Сгруппировать_1307" data-name="Сгруппировать 1307" transform="translate(0)">
    <path id="Контур_3952" data-name="Контур 3952" d="M7.2,974.364A1.319,1.319,0,0,0,6,975.683V1006.7a1.32,1.32,0,0,0,1.32,1.319h4.145a4.628,4.628,0,0,0,8.867,0h27.9c.041,0,.083,0,.124,0h2.7a4.628,4.628,0,0,0,8.867,0h2.825a1.32,1.32,0,0,0,1.32-1.32V994.488a1.32,1.32,0,0,0-.392-.949l-6.289-6.268a1.32,1.32,0,0,0-.928-.371H49.55V975.683a1.32,1.32,0,0,0-1.32-1.32H7.32a1.23,1.23,0,0,0-.124,0ZM8.639,977H20.909l-12.269,9.98V977Zm16.311,0h3.877L8.639,993.6v-3.217l16-13.032a1.321,1.321,0,0,0,.309-.35Zm7.939,0H46.911v11.114q0,.051,0,.1v17.156h-26.6a4.6,4.6,0,0,0-8.826,0H8.639v-8.33l23.94-19.692a1.317,1.317,0,0,0,.309-.35Zm1.835,4.474a1.077,1.077,0,0,0-.66,1.917l7.568,6.722h-18.7q-.041,0-.082,0a1.078,1.078,0,1,0,.082,2.145h18.7L34.064,999a1.084,1.084,0,1,0,1.443,1.608l9.692-8.619a1.077,1.077,0,0,0,0-1.608l-9.692-8.619A1.077,1.077,0,0,0,34.724,981.477ZM49.55,989.54h6.372l5.506,5.485v10.351H59.9a4.6,4.6,0,0,0-8.826,0H49.55ZM15.9,1004.716a1.979,1.979,0,1,1-1.98,1.98A1.96,1.96,0,0,1,15.9,1004.716Zm39.591,0a1.979,1.979,0,1,1-1.98,1.98A1.96,1.96,0,0,1,55.489,1004.716Z" transform="translate(-6 -974.362)" fill="#147dd9"/>
  </g>
</svg>
