<svg xmlns="http://www.w3.org/2000/svg" width="58.415" height="44.682" viewBox="0 0 58.415 44.682">
  <g id="icon_business" transform="translate(0)">
    <path id="Контур_3949" data-name="Контур 3949" d="M57.549,98.6h-.97V86.653a.862.862,0,0,0-.856-.856h-.97V75.679a.862.862,0,0,0-.856-.856H43.78V62.881a.862.862,0,0,0-.856-.856H39.263a.862.862,0,0,0-.856.856V93.11h-.194A74.965,74.965,0,0,0,28.027,61.888,3.573,3.573,0,0,0,24.97,60.2H6.342a2.685,2.685,0,0,0-2.681,2.681V83.972H1.768A1.77,1.77,0,0,0,0,85.741v14.635a1.77,1.77,0,0,0,1.768,1.768H4.015a4.518,4.518,0,0,0,8.3,0H35.111a4.517,4.517,0,0,0,8.669-1.78v-.057H57.56a.862.862,0,0,0,.856-.856A.879.879,0,0,0,57.549,98.6ZM36.491,93.11H21.833V90.246H36.149C36.274,91.2,36.388,92.151,36.491,93.11ZM9.023,61.9H24.97a1.866,1.866,0,0,1,1.6.878,66.407,66.407,0,0,1,5.3,10.917,76,76,0,0,1,4,14.829h-.639L29.624,78l1.255-.673a.852.852,0,0,0-.8-1.506l-4.027,2.156a.855.855,0,0,0,.4,1.608.832.832,0,0,0,.4-.1l1.255-.673,5.179,9.719h-7.8V83.9a3.6,3.6,0,0,0-3.593-3.593H16.346V75.679a2.681,2.681,0,1,0-5.361,0v8.293H9.023Zm-3.65.981a.969.969,0,0,1,.97-.97h.97V83.972H5.373ZM1.711,85.741a.054.054,0,0,1,.057-.057H20.054a.054.054,0,0,1,.057.057V93.11H1.711ZM8.179,101.22a.856.856,0,1,1,.856-.856A.862.862,0,0,1,8.179,101.22ZM38.4,95.938a4.516,4.516,0,0,0-3.65,4.426v.057H12.685v-.057a4.517,4.517,0,1,0-9.034,0v.057H1.768a.054.054,0,0,1-.057-.057V94.821H38.4Zm.878,5.281a.856.856,0,1,1,.856-.856A.862.862,0,0,1,39.274,101.22Zm2.783-4.392a4.576,4.576,0,0,0-1.951-.9v-32.2h1.951ZM43.769,85.8V76.535h3.776v.97a.856.856,0,1,0,1.711,0v-.97h3.776V85.8Zm11.1,12.8H43.78V87.509h4.688v1.882a.856.856,0,1,0,1.711,0V87.509h4.688Z" transform="translate(0 -60.2)" fill="#014c81"/>
  </g>
</svg>
