<svg xmlns="http://www.w3.org/2000/svg" width="20.074" height="21.5" viewBox="0 0 20.074 21.5">
  <g id="icon_menu" transform="translate(-1286.426 -45.5)">
    <path id="Линия_157" data-name="Линия 157" d="M16.074,2H0A2,2,0,0,1-2,0,2,2,0,0,1,0-2H16.074a2,2,0,0,1,2,2A2,2,0,0,1,16.074,2Z" transform="translate(1288.426 47.5)" fill="#fff"/>
    <path id="Линия_158" data-name="Линия 158" d="M16.074,2H0A2,2,0,0,1-2,0,2,2,0,0,1,0-2H16.074a2,2,0,0,1,2,2A2,2,0,0,1,16.074,2Z" transform="translate(1288.426 56.25)" fill="#fff"/>
    <path id="Линия_159" data-name="Линия 159" d="M16.074,2H0A2,2,0,0,1-2,0,2,2,0,0,1,0-2H16.074a2,2,0,0,1,2,2A2,2,0,0,1,16.074,2Z" transform="translate(1288.426 65)" fill="#fff"/>
  </g>
</svg>
