<svg xmlns="http://www.w3.org/2000/svg" width="49.356" height="49.363" viewBox="0 0 49.356 49.363">
  <g id="icon_residential" transform="translate(0)">
    <g id="Layer_18" data-name="Layer 18" transform="translate(0 0)">
      <path id="Контур_3950" data-name="Контур 3950" d="M26.777,17a4.777,4.777,0,1,0,4.777,4.777A4.777,4.777,0,0,0,26.777,17Zm0,7.961a3.184,3.184,0,1,1,3.184-3.184A3.184,3.184,0,0,1,26.777,24.961Z" transform="translate(-5.284 -4.258)" fill="#0767b9"/>
      <path id="Контур_3951" data-name="Контур 3951" d="M49.562,39.211H44.785V30.454a.8.8,0,0,0-.8-.8H39.213V23.289h3.98a.8.8,0,0,0,.565-1.361L23.06,1.23a.8.8,0,0,0-1.13,0l-20.7,20.7A.8.8,0,0,0,1.8,23.289h3.98V39.211h-.8a.8.8,0,0,0-.8.8v3.184a.8.8,0,0,0,.8.8H26.475v5.573a.8.8,0,0,0,.8.8H49.562a.8.8,0,0,0,.8-.8V40.007A.8.8,0,0,0,49.562,39.211ZM44.785,40.8v3.184H43.193V40.8Zm-4.777-4.777a.8.8,0,0,0,.8-.8V31.25h2.388v7.961H33.64V31.25h2.388v3.98a.8.8,0,0,0,.8.8Zm-2.388-1.592V31.25h1.592v3.184ZM3.715,21.7l18.78-18.78L41.275,21.7H38.743L23.06,6.006a.8.8,0,0,0-1.13,0L6.247,21.7Zm22.76,18.31V42.4H5.777V40.8h19.9V39.211H17.718V28.066h9.553v9.553h1.592V27.27a.8.8,0,0,0-.8-.8H16.922a.8.8,0,0,0-.8.8V39.211H7.369V22.82L22.495,7.694,37.621,22.82v6.838H32.844a.8.8,0,0,0-.8.8v8.757H27.271A.8.8,0,0,0,26.475,40.007Zm7.165.8v3.184H32.048V40.8Zm3.98,7.961H28.067V40.8h2.388v3.98a.8.8,0,0,0,.8.8h3.184a.8.8,0,0,0,.8-.8V40.8h2.388Zm11.145,0H39.213V40.8H41.6v3.98a.8.8,0,0,0,.8.8h3.184a.8.8,0,0,0,.8-.8V40.8h2.388Z" transform="translate(-1.002 -0.994)" fill="#0767b9"/>
    </g>
  </g>
</svg>
