<svg xmlns="http://www.w3.org/2000/svg" width="240.75" height="37.225" viewBox="0 0 240.75 37.225">
  <g id="storwell_logo" transform="translate(-58.117 -88.977)">
    <path id="Контур_5094" data-name="Контур 5094" d="M23.55-29.125a3.188,3.188,0,0,1-.863.875,1.909,1.909,0,0,1-1.037.275,2.092,2.092,0,0,1-1.15-.375q-.575-.375-1.288-.825A10.341,10.341,0,0,0,17.575-30a5.768,5.768,0,0,0-2.175-.375,5.7,5.7,0,0,0-2.013.325,3.988,3.988,0,0,0-1.437.9,3.71,3.71,0,0,0-.863,1.35,4.853,4.853,0,0,0-.288,1.7,2.528,2.528,0,0,0,.563,1.675,5.113,5.113,0,0,0,1.5,1.188,15.146,15.146,0,0,0,2.113.938q1.175.425,2.412.925a22.966,22.966,0,0,1,2.425,1.15A8.778,8.778,0,0,1,21.938-18.6a7.377,7.377,0,0,1,1.5,2.35A8.7,8.7,0,0,1,24-12.95a14.06,14.06,0,0,1-.95,5.175,12.507,12.507,0,0,1-2.725,4.238A12.954,12.954,0,0,1,16.013-.663,14.663,14.663,0,0,1,10.3.4,14.651,14.651,0,0,1,7.138.05a16.508,16.508,0,0,1-3.05-.988A15.548,15.548,0,0,1,1.375-2.45,10.418,10.418,0,0,1-.75-4.4l2.9-3.8A2.524,2.524,0,0,1,3-8.9a2.245,2.245,0,0,1,1.05-.275,2.275,2.275,0,0,1,1.363.487L6.875-7.613A10.624,10.624,0,0,0,8.738-6.537a6.249,6.249,0,0,0,2.612.487,4.751,4.751,0,0,0,3.512-1.237A4.968,4.968,0,0,0,16.1-10.95a2.929,2.929,0,0,0-.563-1.85,4.678,4.678,0,0,0-1.475-1.225,12.477,12.477,0,0,0-2.087-.887q-1.175-.387-2.4-.837a20.423,20.423,0,0,1-2.4-1.062,7.62,7.62,0,0,1-2.088-1.6,7.616,7.616,0,0,1-1.475-2.425,9.749,9.749,0,0,1-.562-3.537,12.232,12.232,0,0,1,.912-4.663A12.105,12.105,0,0,1,6.575-33,12.6,12.6,0,0,1,10.7-35.75a13.873,13.873,0,0,1,5.45-1.025,13.846,13.846,0,0,1,3.013.325,14.057,14.057,0,0,1,2.737.9,12.255,12.255,0,0,1,2.325,1.363A9.4,9.4,0,0,1,26-32.475Zm31.6-7.3-.85,6.45H45.05L41.35,0h-8.1L36.9-29.975H27.6l.8-6.45ZM87.8-20.55a22.812,22.812,0,0,1-.687,5.65,21.706,21.706,0,0,1-1.95,5.025,20.215,20.215,0,0,1-3.05,4.225A18.743,18.743,0,0,1,78.1-2.413,19.808,19.808,0,0,1,73.275-.338,19.971,19.971,0,0,1,67.8.4,15.856,15.856,0,0,1,61.338-.863a14.333,14.333,0,0,1-4.863-3.45,15.082,15.082,0,0,1-3.062-5.15A18.784,18.784,0,0,1,52.35-15.85a22.962,22.962,0,0,1,.688-5.663,21.659,21.659,0,0,1,1.95-5.038,19.972,19.972,0,0,1,3.063-4.225,19.02,19.02,0,0,1,4.025-3.237A19.808,19.808,0,0,1,66.9-36.088a20.065,20.065,0,0,1,5.5-.737,15.791,15.791,0,0,1,6.438,1.263,14.122,14.122,0,0,1,4.85,3.462,15.3,15.3,0,0,1,3.05,5.175A18.815,18.815,0,0,1,87.8-20.55Zm-8.35.2a14.534,14.534,0,0,0-.537-4.087,9.168,9.168,0,0,0-1.575-3.15A7.052,7.052,0,0,0,74.8-29.613a7.83,7.83,0,0,0-3.4-.712,9.476,9.476,0,0,0-4.475,1.037,9.848,9.848,0,0,0-3.363,2.913,13.717,13.717,0,0,0-2.125,4.513,21.645,21.645,0,0,0-.738,5.837,14.724,14.724,0,0,0,.525,4.075,9.135,9.135,0,0,0,1.537,3.125,6.883,6.883,0,0,0,2.513,2.013A7.89,7.89,0,0,0,68.7-6.1a9.646,9.646,0,0,0,4.488-1.025,9.687,9.687,0,0,0,3.375-2.9,13.915,13.915,0,0,0,2.137-4.5A21.17,21.17,0,0,0,79.45-20.35ZM98.575-13.6,96.9,0H88.8l4.45-36.425H104.3a19.967,19.967,0,0,1,5.713.712,10.859,10.859,0,0,1,3.863,1.963,7.419,7.419,0,0,1,2.188,2.962,9.873,9.873,0,0,1,.688,3.712,13.3,13.3,0,0,1-.538,3.825,11.971,11.971,0,0,1-1.562,3.313,11.747,11.747,0,0,1-2.512,2.675,13.528,13.528,0,0,1-3.387,1.913,7.913,7.913,0,0,1,1.412,1.025,4.134,4.134,0,0,1,1.037,1.5L116.5,0h-7.35a3.43,3.43,0,0,1-1.725-.4,2.133,2.133,0,0,1-.975-1.15L102.5-12.325a1.948,1.948,0,0,0-.738-.988A2.611,2.611,0,0,0,100.4-13.6Zm2.075-16.75L99.275-19.225h2.975a7.386,7.386,0,0,0,2.975-.537,5.391,5.391,0,0,0,1.987-1.437,5.512,5.512,0,0,0,1.1-2.1,9.284,9.284,0,0,0,.337-2.525,5.492,5.492,0,0,0-.3-1.863,3.521,3.521,0,0,0-.937-1.425,4.4,4.4,0,0,0-1.6-.913,7.085,7.085,0,0,0-2.263-.325Zm20.95-6.075H128a2.706,2.706,0,0,1,1.688.487,1.94,1.94,0,0,1,.762,1.288L133-15.025q.1.7.15,1.438t.1,1.338q.05.725.05,1.4.375-1.175.788-2.213t.762-1.962L142.3-34.65a2.867,2.867,0,0,1,1.05-1.225,3.03,3.03,0,0,1,1.8-.55h1.9a2.817,2.817,0,0,1,1.713.487,1.91,1.91,0,0,1,.787,1.288l2.8,19.625q.125.875.262,1.913t.238,2.162q.325-1.125.65-2.15t.65-1.925l7.2-19.625a2.551,2.551,0,0,1,1.063-1.237,3.256,3.256,0,0,1,1.838-.537h6.45L155.85,0h-7.4L145.1-23q-.075-.55-.175-1.212T144.75-25.6q-.275.725-.538,1.388T143.75-23l-8.9,23H127.5Zm72.8,6.275H180.925l-1.1,8.8H190.15l-.8,6.05H179.075l-1.1,9.025H191.55L190.75,0H169l4.5-36.425h21.7ZM203.85-6.5H216.1L215.3,0H194.9l4.5-36.425h8.15Zm23.9,0H240L239.2,0H218.8l4.5-36.425h8.15Z" transform="translate(58.867 125.802)" fill="#fff"/>
    <ellipse id="Эллипс_1" data-name="Эллипс 1" cx="11.705" cy="14.608" rx="11.705" ry="14.608" transform="translate(117.783 93.712)" fill="#fff"/>
    <g id="Сгруппировать_2" data-name="Сгруппировать 2" transform="translate(117.408 95.562)">
      <g id="Сгруппировать_1" data-name="Сгруппировать 1">
        <path id="Контур_1" data-name="Контур 1" d="M236.428,127.9l-3.922,2.777c-.436.3-.829.053-1.126-.384l-1.086-1.5-1.818,6.369c-.3,1.179-1.04.81-1.174.168l-1.123-4.155-1.146,1.252a.554.554,0,0,1-.747.057l-2.9-2.3-.7,3.525c-.163.781-.164,1.138-.763,1.066l-1.426-.034,3.3,7.328a.819.819,0,0,1-.127.887l-1.291,1.361,5.879,2.139a.286.286,0,0,1,.136.43l-3.31,5.761,1.533.767,2.625-6.1a.286.286,0,0,1,.426-.149l5.237,3.422.315-1.849a.82.82,0,0,1,.634-.634l7.844-1.751-.882-1.121c-.417-.436-.132-.651.4-1.25l2.4-2.674-3.579-.938a.555.555,0,0,1-.4-.633l.314-1.668-4,1.593c-.594.278-1.332-.091-.57-1.04l4.006-5.275-1.848.028c-.527.024-.958-.144-.982-.671Z" transform="translate(-218.5 -127.9)" fill="#1d517e"/>
      </g>
    </g>
  </g>
</svg>
